<?xml version="1.0" encoding="UTF-8" standalone="no"?>
<svg
   xmlns:dc="http://purl.org/dc/elements/1.1/"
   xmlns:cc="http://creativecommons.org/ns#"
   xmlns:rdf="http://www.w3.org/1999/02/22-rdf-syntax-ns#"
   xmlns:svg="http://www.w3.org/2000/svg"
   xmlns="http://www.w3.org/2000/svg"
   xmlns:sodipodi="http://sodipodi.sourceforge.net/DTD/sodipodi-0.dtd"
   xmlns:inkscape="http://www.inkscape.org/namespaces/inkscape"
   version="1.1"
   id="svg833"
   width="180"
   height="180"
   viewBox="0 0 180 180"
   sodipodi:docname="greenie_dark.svg"
   inkscape:version="1.0 (4035a4fb49, 2020-05-01)">
  <metadata
     id="metadata839">
    <rdf:RDF>
      <cc:Work
         rdf:about="">
        <dc:format>image/svg+xml</dc:format>
        <dc:type
           rdf:resource="http://purl.org/dc/dcmitype/StillImage" />
        <dc:title />
      </cc:Work>
    </rdf:RDF>
  </metadata>
  <defs
     id="defs837" />
  <sodipodi:namedview
     inkscape:document-rotation="0"
     pagecolor="#ffffff"
     bordercolor="#666666"
     borderopacity="1"
     objecttolerance="10"
     gridtolerance="10"
     guidetolerance="10"
     inkscape:pageopacity="0"
     inkscape:pageshadow="2"
     inkscape:window-width="1738"
     inkscape:window-height="1094"
     id="namedview835"
     showgrid="false"
     inkscape:zoom="2.7906114"
     inkscape:cx="120.79082"
     inkscape:cy="55.437171"
     inkscape:window-x="0"
     inkscape:window-y="0"
     inkscape:window-maximized="0"
     inkscape:current-layer="layer3" />
  <g
     style="display:inline"
     inkscape:label="bg"
     id="layer3"
     inkscape:groupmode="layer">
    <circle
       style="display:inline;fill:#0088a9;stroke-width:0.930637;fill-opacity:1"
       id="path847"
       cx="90"
       cy="90"
       r="90" />
  </g>
  <g
     inkscape:label="fg"
     id="layer4"
     inkscape:groupmode="layer">
    <path
       d="M 88.970703 0.005859375 A 90.000041 90.000926 0 0 0 88.234375 0.017578125 A 90 90 0 0 1 88.970703 0.005859375 z M 88.234375 0.017578125 A 90.000041 90.000926 0 0 0 87.435547 0.037109375 A 90 90 0 0 1 88.234375 0.017578125 z M 91.029297 0.005859375 A 90.000041 90.000926 0 0 1 91.767578 0.017578125 A 90 90 0 0 0 91.029297 0.005859375 z M 91.767578 0.017578125 A 90.000041 90.000926 0 0 1 92.564453 0.037109375 A 90 90 0 0 0 91.767578 0.017578125 z M 84.419922 0.17382812 A 90 90 0 0 0 83.634766 0.2265625 A 90.000041 90.000926 0 0 1 84.419922 0.17382812 z M 95.580078 0.17382812 A 90 90 0 0 1 96.365234 0.2265625 A 90.000041 90.000926 0 0 0 95.580078 0.17382812 z M 83.619141 0.2265625 A 90 90 0 0 0 82.955078 0.27734375 A 90.000041 90.000926 0 0 1 83.619141 0.2265625 z M 96.380859 0.2265625 A 90 90 0 0 1 97.044922 0.27734375 A 90.000041 90.000926 0 0 0 96.380859 0.2265625 z M 81.238281 0.42773438 A 90 90 0 0 0 80.757812 0.4765625 A 90.000041 90.000926 0 0 1 81.238281 0.42773438 z M 80.757812 0.4765625 A 90.000041 90.000926 0 0 0 80.275391 0.52734375 A 90 90 0 0 1 80.757812 0.4765625 z M 98.761719 0.42773438 A 90 90 0 0 1 99.242188 0.4765625 A 90.000041 90.000926 0 0 0 98.761719 0.42773438 z M 99.242188 0.4765625 A 90.000041 90.000926 0 0 1 99.724609 0.52734375 A 90 90 0 0 0 99.242188 0.4765625 z M 79.28125 0.64257812 A 90.000041 90.000926 0 0 0 78.742188 0.70703125 A 90 90 0 0 1 79.28125 0.64257812 z M 78.068359 0.79492188 A 90 90 0 0 0 77.279297 0.90429688 A 90.000041 90.000926 0 0 1 78.068359 0.79492188 z M 77.279297 0.90429688 A 90 90 0 0 0 76.552734 1.0097656 A 90.000041 90.000926 0 0 1 77.279297 0.90429688 z M 101.93164 0.79492188 A 90 90 0 0 1 102.7207 0.90429688 A 90.000041 90.000926 0 0 0 101.93164 0.79492188 z M 102.7207 0.90429688 A 90 90 0 0 1 103.44727 1.0097656 A 90.000041 90.000926 0 0 0 102.7207 0.90429688 z M 74.746094 1.3027344 A 90.000041 90.000926 0 0 0 73.960938 1.4414062 A 90 90 0 0 1 74.746094 1.3027344 z M 105.25391 1.3027344 A 90.000041 90.000926 0 0 1 106.03906 1.4414062 A 90 90 0 0 0 105.25391 1.3027344 z M 70.998047 2.0292969 A 90 90 0 0 0 70.25 2.1933594 A 90.000041 90.000926 0 0 1 70.998047 2.0292969 z M 109.00195 2.0292969 A 90 90 0 0 1 109.78125 2.2011719 A 90.000041 90.000926 0 0 0 109.00195 2.0292969 z M 67.101562 2.9609375 A 90 90 0 0 0 66.349609 3.1640625 A 90.000041 90.000926 0 0 1 67.101562 2.9609375 z M 112.89844 2.9609375 A 90 90 0 0 1 113.65039 3.1640625 A 90.000041 90.000926 0 0 0 112.89844 2.9609375 z M 65.416016 3.4238281 A 90.000041 90.000926 0 0 0 64.648438 3.6445312 A 90 90 0 0 1 65.416016 3.4238281 z M 64.648438 3.6445312 A 90.000041 90.000926 0 0 0 63.884766 3.8730469 A 90 90 0 0 1 64.648438 3.6445312 z M 114.58398 3.4238281 A 90.000041 90.000926 0 0 1 115.35156 3.6445312 A 90 90 0 0 0 114.58398 3.4238281 z M 115.35156 3.6445312 A 90.000041 90.000926 0 0 1 116.11523 3.8730469 A 90 90 0 0 0 115.35156 3.6445312 z M 62.242188 4.3886719 A 90.000041 90.000926 0 0 0 61.603516 4.5976562 A 90 90 0 0 1 62.242188 4.3886719 z M 117.75781 4.3886719 A 90.000041 90.000926 0 0 1 118.39648 4.5976562 A 90 90 0 0 0 117.75781 4.3886719 z M 59.34375 5.3828125 A 90.000041 90.000926 0 0 0 58.59375 5.6582031 A 90 90 0 0 1 59.34375 5.3828125 z M 120.65625 5.3828125 A 90.000041 90.000926 0 0 1 121.40625 5.6582031 A 90 90 0 0 0 120.65625 5.3828125 z M 57.263672 6.1660156 A 90 90 0 0 0 56.521484 6.4589844 A 90.000041 90.000926 0 0 1 57.263672 6.1660156 z M 56.521484 6.4589844 A 90 90 0 0 0 56.074219 6.640625 A 90.000041 90.000926 0 0 1 56.521484 6.4589844 z M 56.074219 6.640625 A 90.000041 90.000926 0 0 0 55.625 6.8242188 A 90 90 0 0 1 56.074219 6.640625 z M 123.47852 6.4589844 A 90 90 0 0 1 123.92578 6.640625 A 90.000041 90.000926 0 0 0 123.47852 6.4589844 z M 123.92578 6.640625 A 90.000041 90.000926 0 0 1 124.375 6.8242188 A 90 90 0 0 0 123.92578 6.640625 z M 54.3125 7.3789062 A 90 90 0 0 0 53.839844 7.5839844 A 90.000041 90.000926 0 0 1 54.3125 7.3789062 z M 125.6875 7.3789062 A 90 90 0 0 1 126.32031 7.6542969 A 90.000041 90.000926 0 0 0 125.6875 7.3789062 z M 132.16797 10.490234 A 90 90 0 0 1 132.68359 10.765625 A 90.000041 90.000926 0 0 0 132.16797 10.490234 z M 42.314453 13.671875 A 90 90 0 0 0 41.650391 14.091797 A 90.000041 90.000926 0 0 1 42.314453 13.671875 z M 137.68555 13.671875 A 90 90 0 0 1 138.34961 14.091797 A 90.000041 90.000926 0 0 0 137.68555 13.671875 z M 40.292969 14.970703 A 90 90 0 0 0 39.638672 15.410156 A 90.000041 90.000926 0 0 1 40.292969 14.970703 z M 139.70703 14.970703 A 90 90 0 0 1 140.36133 15.410156 A 90.000041 90.000926 0 0 0 139.70703 14.970703 z M 38.324219 16.314453 A 90 90 0 0 0 37.849609 16.648438 A 90.000041 90.000926 0 0 1 38.324219 16.314453 z M 141.67578 16.314453 A 90 90 0 0 1 142.15039 16.648438 A 90.000041 90.000926 0 0 0 141.67578 16.314453 z M 35.744141 18.193359 A 90 90 0 0 0 35.332031 18.505859 A 90.000041 90.000926 0 0 1 35.744141 18.193359 z M 35.332031 18.505859 A 90.000041 90.000926 0 0 0 34.974609 18.78125 A 90 90 0 0 1 35.332031 18.505859 z M 144.46484 18.351562 A 90.000041 90.000926 0 0 1 145.02539 18.78125 A 90 90 0 0 0 144.46484 18.351562 z M 34.210938 19.376953 A 90.000041 90.000926 0 0 0 33.720703 19.767578 A 90 90 0 0 1 34.210938 19.376953 z M 33.720703 19.767578 A 90.000041 90.000926 0 0 0 33.099609 20.269531 A 90 90 0 0 1 33.720703 19.767578 z M 145.78906 19.376953 A 90.000041 90.000926 0 0 1 146.2793 19.767578 A 90 90 0 0 0 145.78906 19.376953 z M 146.2793 19.767578 A 90.000041 90.000926 0 0 1 146.90039 20.269531 A 90 90 0 0 0 146.2793 19.767578 z M 30.195312 22.744141 A 90 90 0 0 0 29.669922 23.214844 A 90.000041 90.000926 0 0 1 30.195312 22.744141 z M 150.58398 23.445312 A 90.000041 90.000926 0 0 1 151.11328 23.931641 A 90 90 0 0 0 150.58398 23.445312 z M 28.203125 24.572266 A 90.000041 90.000926 0 0 0 27.724609 25.025391 A 90 90 0 0 1 28.203125 24.572266 z M 151.79688 24.572266 A 90.000041 90.000926 0 0 1 152.27539 25.025391 A 90 90 0 0 0 151.79688 24.572266 z M 112.10938 24.587891 C 107.06938 24.697301 104.1852 26.090163 100.37695 29.931641 C 95.491482 34.859771 94.30868 36.800737 89.84375 47.205078 C 87.35398 53.006829 86.058453 57.402752 86.064453 60.039062 C 86.069403 62.168573 86.489351 61.806526 87.087891 59.152344 C 87.300171 58.211029 87.692768 57.354848 87.960938 57.251953 C 88.379068 57.091503 88.424353 57.569949 88.283203 60.609375 C 88.192673 62.558745 88.021634 64.376892 87.902344 64.648438 C 87.783044 64.919981 86.691149 65.720212 85.474609 66.427734 C 83.264559 67.713055 82.676871 68.136084 79.707031 70.582031 C 78.837581 71.29811 77.800094 72.052911 77.402344 72.257812 C 76.315704 72.8176 75.193835 73.921823 75.390625 74.240234 C 75.486235 74.394955 75.29624 74.527756 74.96875 74.535156 C 74.2603 74.551027 70.771991 77.186314 70.712891 77.75 C 70.628761 78.552914 70.572047 78.627525 70.335938 78.257812 C 70.173018 78.002708 69.666317 78.260501 68.779297 79.046875 C 68.055037 79.688828 67.725925 80.02208 68.046875 79.789062 C 68.531535 79.4372 68.596676 79.443853 68.441406 79.824219 C 68.338576 80.076112 66.813854 81.614869 65.052734 83.244141 C 62.031484 86.039216 58.942124 89.395109 58.277344 90.601562 C 57.787334 91.490875 59.156689 90.245474 64.005859 85.390625 C 68.235549 81.156056 69.271484 80.316871 69.271484 81.138672 C 69.271484 81.338847 69.679904 81.069465 70.177734 80.537109 C 70.675564 80.004748 71.249145 79.625079 71.453125 79.693359 C 71.657105 79.76165 71.914641 79.579614 72.025391 79.291016 C 72.162051 78.934889 72.095039 78.842156 71.818359 79 C 71.594149 79.127916 71.8453 78.766272 72.375 78.197266 C 72.9047 77.628259 73.636013 77.069274 74.001953 76.953125 C 74.367903 76.836976 75.316948 76.130597 76.111328 75.384766 C 76.905708 74.638932 77.76188 73.914738 78.011719 73.773438 C 78.261549 73.63214 79.260662 72.74176 80.232422 71.796875 C 85.385472 66.786375 86.957956 65.822641 83.753906 69.638672 C 81.889656 71.859001 81.331721 73.024327 82.744141 71.746094 C 83.103831 71.420618 83.559776 71.274775 83.785156 71.414062 C 84.025896 71.562837 84.100356 71.524997 83.972656 71.318359 C 83.725406 70.918291 84.76286 70.186497 86.34375 69.644531 C 86.95254 69.435823 88.135179 68.77924 88.974609 68.185547 C 90.441219 67.148282 92.090582 66.285401 92.576172 66.300781 C 92.954052 66.312733 91.234062 67.617938 90.257812 68.060547 C 89.042533 68.611531 86.323294 70.967615 85.058594 72.564453 C 83.715154 74.260695 84.113968 74.230859 85.767578 72.509766 C 87.320898 70.893051 89.345929 69.463889 89.636719 69.779297 C 89.751269 69.903542 89.657254 70.070454 89.427734 70.152344 C 88.690834 70.41528 87.911649 71.354661 88.318359 71.490234 C 88.523629 71.55866 88.6895 71.786846 88.6875 71.998047 C 88.68355 72.429733 86.472379 74.814992 84.636719 76.367188 C 83.970889 76.930192 83.423828 77.561206 83.423828 77.767578 C 83.423828 78.232697 84.627486 78.265965 84.910156 77.808594 C 85.023856 77.624696 85.233703 77.546226 85.376953 77.634766 C 85.520203 77.723299 85.895498 77.224938 86.210938 76.525391 C 86.788997 75.243476 89.11658 72.755252 89.4375 73.076172 C 89.5325 73.171263 89.5331 73.830263 89.4375 74.542969 C 89.32384 75.390332 89.393149 75.839844 89.636719 75.839844 C 90.361079 75.839844 89.994798 76.926368 88.929688 77.939453 C 88.336228 78.503924 87.350028 79.6697 86.736328 80.529297 C 85.536788 82.209448 85.186171 82.368019 85.707031 80.998047 C 86.204781 79.688859 85.686322 79.758426 84.451172 81.166016 C 83.727092 81.991197 83.546804 82.353496 83.933594 82.205078 C 84.407704 82.023148 84.482304 82.098443 84.302734 82.566406 C 84.108754 83.071917 84.226491 83.131799 85.150391 83.001953 C 85.740741 82.918985 86.485838 82.737866 86.804688 82.599609 C 87.242807 82.409638 87.336606 82.471246 87.191406 82.849609 C 87.085746 83.124974 86.601928 83.439978 86.117188 83.548828 C 84.296087 83.95777 82.097244 85.216033 81.902344 85.960938 C 81.795774 86.368255 81.506052 86.699219 81.257812 86.699219 C 81.009573 86.699219 80.485763 87.330229 80.095703 88.099609 C 79.705653 88.868987 79.288139 89.573532 79.167969 89.664062 C 79.047789 89.754576 78.611659 90.30991 78.199219 90.900391 C 77.78679 91.490869 77.313664 91.890446 77.146484 91.787109 C 76.979294 91.683777 76.84375 91.81262 76.84375 92.074219 C 76.84375 92.33582 76.314452 92.801562 75.669922 93.107422 C 75.025392 93.413272 74.408515 93.909768 74.296875 94.212891 C 74.185245 94.516013 73.984656 94.837224 73.853516 94.927734 C 73.722386 95.01825 73.541872 95.538935 73.451172 96.082031 C 73.170452 97.762237 72.93551 98.067283 70.0625 100.51367 C 68.52769 101.82057 66.65768 103.72769 65.90625 104.75195 C 65.15484 105.77622 64.420558 106.66226 64.273438 106.72266 C 64.126307 106.78301 64.005859 107.04432 64.005859 107.30078 C 64.005859 107.55725 63.895536 107.76753 63.759766 107.76953 C 63.623996 107.7715 63.002979 108.65767 62.380859 109.73828 C 61.231679 111.73442 60.566792 112.27638 61.513672 110.44531 C 62.393892 108.74311 62.092301 108.6118 60.556641 110.02734 C 58.726401 111.71441 58.430873 111.7547 59.626953 110.15234 C 60.196493 109.38933 60.308875 109.10691 59.921875 109.41211 C 59.577565 109.68365 59.231544 109.85306 59.152344 109.78906 C 59.073124 109.72513 58.503789 110.11971 57.886719 110.66602 C 57.269649 111.21234 56.763672 111.58048 56.763672 111.48438 C 56.763672 111.16817 58.991068 108.2772 59.861328 107.46289 C 60.906468 106.48494 61.003459 105.77864 59.974609 106.63672 C 59.567289 106.97643 59.848079 106.59071 60.599609 105.78125 C 61.351149 104.97176 62.634535 102.90143 63.453125 101.18164 C 67.100895 93.517975 72.071389 85.529974 75.824219 81.296875 L 76.679688 80.335938 L 75.689453 81.044922 C 75.146373 81.435338 73.003581 83.367014 70.925781 85.337891 C 67.793361 88.309118 67.216725 89.00258 67.546875 89.400391 C 67.864475 89.783073 67.827264 90.009805 67.365234 90.513672 C 65.551464 92.491681 59.769764 99.299642 58.646484 100.78125 C 57.921954 101.73692 56.763486 103.13832 56.072266 103.89453 C 55.381036 104.65072 54.890522 105.34365 54.982422 105.43555 C 55.074302 105.52743 55.594942 105.12672 56.138672 104.54492 C 57.119712 103.4952 57.751953 103.202 57.751953 103.79688 C 57.751953 103.96721 57.601949 104.19879 57.417969 104.3125 C 57.234179 104.4262 57.153834 104.63554 57.240234 104.77539 C 57.326664 104.91522 56.874325 105.53335 56.234375 106.15039 C 55.594425 106.76742 53.26671 109.42016 51.0625 112.04492 C 48.85829 114.66968 46.203019 117.67581 45.162109 118.72461 C 44.121199 119.77342 43.269531 120.75197 43.269531 120.90039 C 43.269531 121.04883 42.82434 121.73064 42.28125 122.41406 C 40.88457 124.17157 41.059334 123.49015 42.777344 120.48242 C 43.590624 119.0586 44.255859 117.82343 44.255859 117.73633 C 44.255859 117.64932 44.573217 117.13239 44.960938 116.58789 C 45.530918 115.78742 45.582153 115.54564 45.220703 115.32227 C 44.722903 115.0146 43.831242 115.5746 44.107422 116.02148 C 44.344982 116.40587 42.910909 118.58108 41.630859 119.7793 C 40.349629 120.9786 39.476626 122.61307 38.972656 124.75586 C 38.764696 125.64009 38.324201 126.96701 37.994141 127.70508 C 37.438201 128.9482 36.287183 133.76602 36.408203 134.33984 C 36.437453 134.47851 36.297439 134.96343 36.099609 135.41602 C 35.898629 135.87574 35.727184 136.02002 35.708984 135.74414 C 35.653544 134.90264 34.737209 136.81701 34.724609 137.80078 C 34.710819 138.87079 35.199227 138.98348 35.710938 138.02734 C 36.000118 137.48706 36.271963 137.39011 37.039062 137.55859 C 37.640833 137.69069 38.001953 137.63769 38.001953 137.41602 C 38.001953 137.22062 37.826615 137.06055 37.609375 137.06055 C 37.319385 137.06055 37.311138 136.96427 37.580078 136.69531 C 37.792658 136.48283 38.131299 136.44217 38.386719 136.60156 C 38.628769 136.75252 39.113784 136.92186 39.464844 136.97656 C 39.815914 137.03118 40.143606 137.11441 40.191406 137.16211 C 40.239206 137.20992 39.91287 138.24908 39.46875 139.47266 C 38.41704 142.3701 38.423184 142.98438 39.496094 142.98438 C 39.954354 142.98437 40.416901 143.21725 40.525391 143.5 C 40.688511 143.9251 40.887029 143.85561 41.667969 143.10742 C 42.187399 142.60983 42.611328 142.32407 42.611328 142.4707 C 42.611328 142.61727 42.823601 142.56019 43.082031 142.3457 C 43.467621 142.0257 43.571103 142.1202 43.658203 142.86914 C 43.795423 144.04914 44.883443 144.32521 46.882812 143.6875 C 50.285012 142.60235 52.552412 139.83539 56.669922 131.74609 C 57.529422 130.05752 58.678883 129.40512 62.689453 128.32227 C 63.866143 128.00456 65.41214 127.47104 66.125 127.13672 C 67.3743 126.5508 68.943359 126.31981 68.943359 126.72266 C 68.943359 126.82989 68.647216 127.29557 68.285156 127.75586 C 67.146066 129.20398 67.711281 131.32226 69.394531 131.91602 C 69.940791 132.1087 69.985259 132.36317 69.787109 134.18555 C 69.664369 135.31438 69.519597 136.68152 69.466797 137.22461 C 69.413987 137.7677 69.115374 139.08832 68.802734 140.16016 C 68.380674 141.60715 68.322095 142.28676 68.578125 142.79492 C 68.767775 143.17131 69.228612 144.66309 69.601562 146.11133 C 69.974513 147.55958 70.418401 149.27409 70.587891 149.92188 C 70.757381 150.56967 71.269693 151.90327 71.726562 152.88477 C 72.183442 153.86627 72.558547 154.93462 72.560547 155.25781 C 72.562317 155.58097 72.776216 156.17326 73.035156 156.57422 C 73.294096 156.97516 73.821724 158.5628 74.208984 160.10156 C 74.596244 161.64032 75.123929 163.22323 75.380859 163.62109 C 75.671949 164.07188 75.724314 164.42154 75.521484 164.54688 C 75.342484 164.65751 75.195312 165.05282 75.195312 165.42383 C 75.195312 165.95969 75.043655 166.05646 74.453125 165.9082 C 74.044305 165.80563 73.48879 165.86715 73.21875 166.04492 C 72.80885 166.31477 72.890064 166.50129 73.708984 167.17383 C 74.646934 167.94413 74.671563 168.02854 74.251953 169.06055 C 74.010603 169.65414 73.186445 172.06651 72.421875 174.41992 C 71.963595 175.83054 71.539694 177.04763 71.1875 178.01172 A 90 90 0 0 0 72.429688 178.26758 C 72.494587 178.22798 72.575024 178.20312 72.683594 178.20312 C 72.972794 178.20312 73.304212 177.82624 73.419922 177.36523 C 73.535632 176.90421 73.697297 176.59573 73.779297 176.67773 C 73.880338 176.77878 73.712166 177.59894 73.451172 178.46484 A 90 90 0 0 0 74.845703 178.71484 C 74.631209 178.49619 74.585049 178.06437 74.804688 177.67188 C 74.930167 177.44776 75.012178 177.34898 75.080078 177.39648 C 75.147948 177.44405 75.202584 177.63563 75.271484 177.99609 C 75.338482 178.34632 75.327966 178.64988 75.261719 178.78516 A 90 90 0 0 0 80.972656 179.54492 C 80.972485 179.54455 80.97295 179.54357 80.972656 179.54297 C 80.868496 179.37446 80.933207 179.14303 81.117188 179.0293 C 81.163157 179.0004 81.206094 178.9873 81.246094 178.98828 L 81.244141 178.99023 C 81.364051 178.99428 81.449219 179.12624 81.449219 179.33789 C 81.449219 179.44494 81.436909 179.51746 81.423828 179.58984 A 90 90 0 0 0 90 180 A 90 90 0 0 0 90.576172 179.99609 L 91.173828 177.82227 C 91.613028 176.21718 92.000385 175.41853 92.390625 175.31641 C 92.811695 175.20617 92.911285 174.95736 92.765625 174.37695 C 92.656625 173.94271 92.746061 173.3726 92.962891 173.11133 C 93.179751 172.85007 93.26615 172.49228 93.15625 172.31445 C 93.04634 172.13661 93.146959 171.86961 93.380859 171.72266 C 93.965479 171.35551 94.675914 169.71177 94.839844 168.34375 C 94.914744 167.71867 95.104979 167.05284 95.261719 166.86328 C 95.418445 166.67371 95.545905 166.14787 95.546875 165.69531 C 95.549055 164.7306 96.468437 161.17776 96.929688 160.35156 C 97.105187 160.03724 97.25 159.57016 97.25 159.3125 C 97.25 159.05483 97.693238 157.4842 98.236328 155.82227 C 98.779408 154.16036 99.224609 152.38681 99.224609 151.88281 C 99.224609 151.3788 99.463236 150.31753 99.753906 149.52539 C 100.1015 148.57816 100.30632 146.78203 100.35742 144.27539 C 100.41237 141.57947 100.59041 140.15485 100.96094 139.41211 C 101.70164 137.92734 102.27322 134.91645 102.02734 133.79688 C 101.84154 132.95093 100.54102 132.0688 100.54102 132.78906 C 100.54102 133.2436 99.183624 133.53127 98.808594 133.15625 C 98.564124 132.91183 98.587376 132.65716 98.884766 132.29883 C 99.182596 131.93988 99.24449 131.22886 99.09375 129.89648 C 98.90727 128.24827 98.967355 127.9298 99.546875 127.43359 C 99.912995 127.12011 100.21094 126.51327 100.21094 126.08594 C 100.21094 125.65861 100.38522 124.81471 100.5957 124.21094 C 100.94019 123.22274 100.90641 123.0661 100.26562 122.64062 C 99.874114 122.38068 99.552734 121.95042 99.552734 121.68359 C 99.552734 121.11978 102.6905 113.54726 103.37109 112.46875 C 103.62411 112.06782 103.83203 111.59065 103.83203 111.41016 C 103.83203 111.22968 104.35961 109.9689 105.00586 108.60742 C 105.65209 107.24595 106.09438 105.99198 105.98828 105.82031 C 105.88217 105.64863 105.94688 105.4145 106.13086 105.30078 C 106.7687 104.90657 106.48796 104.43879 105.82617 104.79297 C 105.46406 104.98671 105.11046 105.00983 105.00781 104.84375 C 104.74072 104.41161 105.6461 103.77515 106.2168 103.99414 C 106.51593 104.10893 106.77971 103.9493 106.89258 103.58789 C 107.94346 100.22334 109.85368 96.005197 112.34961 91.529297 C 114.00304 88.564209 115.56196 85.487402 115.81641 84.691406 C 116.07088 83.895412 116.5925 82.431216 116.97461 81.435547 C 117.68401 79.58706 118.66114 76.167969 118.48047 76.167969 C 118.23428 76.167969 117.01293 78.855442 116.91016 79.623047 C 116.84306 80.124198 116.45769 80.651714 115.97461 80.902344 C 115.17558 81.316867 115.15575 81.300885 115.27734 80.3125 L 115.40234 79.294922 L 114.86523 80.275391 C 114.56917 80.814353 114.16464 81.354292 113.9668 81.476562 C 113.43648 81.804322 111.42475 87.039492 111.62695 87.566406 C 111.72221 87.814655 111.6379 88.017578 111.4375 88.017578 C 111.23703 88.017578 111.07422 88.304873 111.07422 88.65625 C 111.07422 89.48846 110.46803 89.856714 110.20898 89.181641 C 110.08017 88.845874 109.78578 88.726151 109.39062 88.851562 C 108.93123 88.997358 108.82339 88.920591 108.9668 88.546875 C 109.10901 88.176193 108.9816 88.076938 108.47852 88.173828 C 107.60935 88.341218 107.31253 87.885836 107.94922 87.357422 C 108.64197 86.782485 108.55732 86.402515 107.78125 86.605469 C 107.36121 86.715308 107.12019 86.615134 107.11719 86.328125 C 107.11325 85.977143 107.04386 85.985851 106.79492 86.371094 C 106.61942 86.642641 106.4737 87.347198 106.4707 87.935547 C 106.46779 88.555107 106.29103 89.01619 106.05273 89.03125 C 105.7236 89.052039 105.7236 89.089848 106.05273 89.222656 C 106.27902 89.313965 106.46484 89.528857 106.46484 89.701172 C 106.46484 89.895371 106.23327 89.892557 105.85742 89.691406 C 105.3024 89.394381 105.25974 89.50401 105.33594 90.996094 C 105.39841 92.218943 105.30379 92.625 104.95508 92.625 C 104.69955 92.625 104.5079 92.514675 104.5293 92.378906 C 104.63141 91.732247 104.44692 91.34713 103.98633 91.25 C 103.58478 91.165317 103.79359 90.505749 105.01758 88.017578 C 106.39052 85.226634 110.11359 78.84921 111.79297 76.408203 C 112.13799 75.906697 112.87263 74.646627 113.42578 73.609375 C 114.47239 71.64686 115.74174 70.242188 116.4707 70.242188 C 117.07761 70.242188 117.90056 71.254723 118.07422 72.216797 C 118.15592 72.669373 118.17403 71.633852 118.11523 69.914062 C 117.92668 64.39848 117.2346 61.40613 115.19727 57.279297 C 114.19552 55.250157 113.37695 53.425124 113.37695 53.224609 C 113.37695 52.726303 114.74847 53.110588 115.29492 53.761719 C 115.5344 54.047109 115.4286 53.687014 115.0625 52.962891 C 114.69639 52.238772 114.07609 50.866652 113.68164 49.914062 L 112.96484 48.181641 L 113.66016 46.505859 C 114.54532 44.375894 114.24291 43.558955 112.94727 44.578125 C 112.46254 44.959405 111.91505 45.175827 111.72852 45.060547 C 111.54198 44.945267 110.41431 45.825927 109.22461 47.015625 C 108.03493 48.205329 107.00349 49.179688 106.92969 49.179688 C 106.85598 49.179688 106.79492 48.981085 106.79492 48.742188 C 106.79492 48.096643 105.40021 47.011418 104.73828 47.140625 C 104.02297 47.280293 104.02164 47.289388 104.81641 45.730469 C 105.35428 44.675459 105.89813 44.244219 107.86133 43.324219 C 110.36879 42.149179 112.44235 41.443881 114.35352 41.113281 C 114.98112 41.004731 115.96081 40.626008 116.53125 40.273438 C 117.1017 39.920878 117.812 39.632812 118.10742 39.632812 C 118.40286 39.632812 118.64258 39.400107 118.64258 39.117188 C 118.64258 38.815698 118.88311 38.637847 119.2207 38.685547 C 119.84451 38.773707 121.60555 38.442988 122.92188 37.992188 C 123.37444 37.837188 124.15256 37.622352 124.65039 37.513672 C 128.0162 36.778892 120.62044 36.648228 114.25586 37.330078 C 112.29459 37.540238 110.6044 37.627808 110.5 37.523438 C 110.07046 37.093897 111.50861 36.107281 113.28711 35.613281 C 114.80062 35.192901 116.56055 35.102369 121.93555 35.167969 C 130.47118 35.272199 130.35568 35.263876 130.91406 35.822266 C 131.31926 36.227516 132.48992 36.227229 139.57812 35.818359 C 148.67056 35.293879 156.15445 34.511576 156.63086 34.035156 C 157.26463 33.401376 151.80348 31.742853 146.95117 31.095703 C 135.87903 29.619033 133.1181 29.362302 133.2168 29.820312 C 133.25825 30.012523 133.10518 30.237313 132.87891 30.320312 C 132.65263 30.403282 132.46875 30.260383 132.46875 30.001953 C 132.46875 29.663693 131.70683 29.425031 129.75195 29.150391 C 128.18281 28.929941 126.89176 28.572604 126.69141 28.302734 C 126.50075 28.045884 125.46326 27.5157 124.38672 27.125 C 117.88972 24.767089 117.84803 24.755664 114.41016 24.615234 C 113.59323 24.581864 112.82937 24.572261 112.10938 24.587891 z M 90.576172 179.99609 L 90.576172 180 A 90.000041 90.000926 0 0 0 95.751953 179.81641 A 90 90 0 0 1 90.576172 179.99609 z M 95.751953 179.81641 A 90.000041 90.000926 0 0 0 96.546875 179.76172 A 90 90 0 0 1 95.751953 179.81641 z M 96.546875 179.76172 A 90.000041 90.000926 0 0 0 98.880859 179.56055 A 90 90 0 0 1 96.546875 179.76172 z M 81.423828 179.58984 A 90 90 0 0 1 80.972656 179.54492 C 80.973057 179.5458 80.973895 179.54673 80.974609 179.54883 A 90.000041 90.000926 0 0 0 81.423828 179.59375 C 81.424029 179.59264 81.423627 179.59095 81.423828 179.58984 z M 75.261719 178.78516 A 90 90 0 0 1 74.845703 178.71484 C 74.84631 178.71546 74.847046 178.71618 74.847656 178.7168 A 90.000041 90.000926 0 0 0 75.261719 178.78711 C 75.26192 178.7867 75.261518 178.78557 75.261719 178.78516 z M 73.451172 178.46484 A 90 90 0 0 1 72.875 178.35547 A 90.000041 90.000926 0 0 0 73.451172 178.4668 C 73.451375 178.46612 73.450969 178.46552 73.451172 178.46484 z M 72.875 178.35547 A 90.000041 90.000926 0 0 1 72.429688 178.26758 A 90 90 0 0 0 72.875 178.35547 z M 71.1875 178.01172 A 90 90 0 0 1 69.496094 177.63281 A 90.000041 90.000926 0 0 0 71.185547 178.01367 C 71.185777 178.01304 71.18727 178.01235 71.1875 178.01172 z M 153.56445 26.287109 A 90.000041 90.000926 0 0 1 153.98047 26.705078 A 90 90 0 0 0 153.56445 26.287109 z M 116.9707 26.837891 C 117.08509 26.842591 117.18358 26.871081 117.23828 26.925781 C 117.34766 27.035151 117.15165 27.113809 116.80469 27.099609 C 116.42126 27.083819 116.3429 27.005471 116.60547 26.900391 C 116.72427 26.852791 116.85631 26.832891 116.9707 26.837891 z M 25.025391 27.724609 A 90 90 0 0 0 24.572266 28.203125 A 90.000041 90.000926 0 0 1 25.025391 27.724609 z M 154.97461 27.724609 A 90 90 0 0 1 155.27539 28.041016 A 90.000041 90.000926 0 0 0 154.97461 27.724609 z M 155.27539 28.041016 A 90.000041 90.000926 0 0 1 155.64062 28.427734 A 90 90 0 0 0 155.27539 28.041016 z M 116.2168 28.337891 C 116.93023 28.316121 117.87771 28.415948 118.81055 28.642578 C 121.74391 29.355238 123.91864 29.506083 124.9707 29.070312 C 126.23076 28.548372 126.38432 28.820424 125.41602 29.865234 C 124.67981 30.659624 124.40766 30.729659 122.20312 30.693359 C 120.77283 30.669839 119.53405 30.472811 119.14844 30.207031 C 118.31596 29.633261 117.98633 29.639432 117.98633 30.232422 C 117.98633 30.985512 117.39192 31.151764 117.04102 30.496094 C 116.8649 30.167054 116.33768 29.693079 115.87109 29.443359 C 115.4045 29.193649 115.02344 28.883679 115.02344 28.755859 C 115.02344 28.500749 115.50338 28.359691 116.2168 28.337891 z M 113.32422 28.769531 C 113.3779 28.772491 113.35048 28.876353 113.21484 29.095703 C 113.09251 29.293643 113.37299 29.350144 113.93555 29.240234 C 114.4749 29.134844 115.11341 29.249788 115.47461 29.517578 C 116.1956 30.052098 116.30078 31.677533 115.64062 32.095703 C 114.99203 32.506593 113.90379 32.456524 113.44336 31.996094 C 113.22611 31.778854 113.04883 31.096132 113.04883 30.476562 C 113.04883 29.453222 112.99593 29.389702 112.47266 29.794922 C 112.00373 30.158052 112.01301 30.104129 112.52344 29.505859 C 112.92337 29.037089 113.23492 28.764531 113.32422 28.769531 z M 23.931641 28.886719 A 90 90 0 0 0 23.445312 29.416016 A 90.000041 90.000926 0 0 1 23.931641 28.886719 z M 156.06836 28.886719 A 90 90 0 0 1 156.55469 29.416016 A 90.000041 90.000926 0 0 0 156.06836 28.886719 z M 156.78516 29.669922 A 90.000041 90.000926 0 0 1 157.25586 30.195312 A 90 90 0 0 0 156.78516 29.669922 z M 114.5293 29.996094 C 114.29625 30.012545 114.0665 30.103419 113.88281 30.287109 C 113.46605 30.703929 113.43894 30.916196 113.75 31.291016 C 114.26179 31.907696 115.47957 31.725872 115.61523 31.013672 C 115.71747 30.477062 115.27108 30.072806 114.76172 30.003906 C 114.68531 29.993574 114.60698 29.99061 114.5293 29.996094 z M 130.56836 30.087891 C 130.76106 30.087891 130.72836 30.297451 130.49219 30.582031 C 130.26684 30.853581 130.03135 31.074219 129.96875 31.074219 C 129.90619 31.074219 129.94069 30.853581 130.04492 30.582031 C 130.14911 30.310481 130.38453 30.087891 130.56836 30.087891 z M 20.269531 33.099609 A 90 90 0 0 0 19.767578 33.720703 A 90.000041 90.000926 0 0 1 20.269531 33.099609 z M 19.767578 33.720703 A 90 90 0 0 0 19.376953 34.210938 A 90.000041 90.000926 0 0 1 19.767578 33.720703 z M 159.73047 33.099609 A 90 90 0 0 1 160.12891 33.591797 A 90.000041 90.000926 0 0 0 159.73047 33.099609 z M 147.11328 33.142578 C 148.38048 33.128508 150.23286 33.227604 151.22852 33.365234 L 153.04102 33.615234 L 151.22852 33.603516 C 150.23286 33.597036 148.38048 33.496006 147.11328 33.378906 L 144.8125 33.166016 L 147.11328 33.142578 z M 18.78125 34.974609 A 90 90 0 0 0 18.351562 35.535156 A 90.000041 90.000926 0 0 1 18.78125 34.974609 z M 161.21875 34.974609 A 90 90 0 0 1 161.49414 35.332031 A 90.000041 90.000926 0 0 0 161.21875 34.974609 z M 161.49414 35.332031 A 90.000041 90.000926 0 0 1 161.80664 35.744141 A 90 90 0 0 0 161.49414 35.332031 z M 17.34375 36.888672 A 90 90 0 0 0 16.947266 37.433594 A 90.000041 90.000926 0 0 1 17.34375 36.888672 z M 163.22461 37.673828 A 90.000041 90.000926 0 0 1 163.68555 38.324219 A 90 90 0 0 0 163.22461 37.673828 z M 116.99805 37.699219 C 117.14719 37.699219 117.29709 37.721878 117.41016 37.767578 C 117.63644 37.858918 117.45063 37.935547 116.99805 37.935547 C 116.54542 37.935547 116.35966 37.858878 116.58594 37.767578 C 116.69907 37.721878 116.84899 37.699219 116.99805 37.699219 z M 16.648438 37.849609 A 90.000041 90.000926 0 0 0 16.314453 38.324219 A 90 90 0 0 1 16.648438 37.849609 z M 15.410156 39.638672 A 90.000041 90.000926 0 0 0 14.970703 40.292969 A 90 90 0 0 1 15.410156 39.638672 z M 164.58984 39.638672 A 90.000041 90.000926 0 0 1 165.0293 40.292969 A 90 90 0 0 0 164.58984 39.638672 z M 165.9082 41.650391 A 90.000041 90.000926 0 0 1 166.32812 42.314453 A 90 90 0 0 0 165.9082 41.650391 z M 166.80664 43.087891 A 90.000041 90.000926 0 0 1 167.16211 43.675781 A 90 90 0 0 0 166.80664 43.087891 z M 167.16211 43.675781 A 90.000041 90.000926 0 0 1 167.56836 44.361328 A 90 90 0 0 0 167.16211 43.675781 z M 12.115234 44.902344 A 90 90 0 0 0 11.78125 45.486328 A 90.000041 90.000926 0 0 1 12.115234 44.902344 z M 111.95703 45.808594 L 111.80664 46.841797 C 111.68771 47.652147 111.84143 48.050938 112.51562 48.675781 C 113.4049 49.499941 113.80643 51.260883 112.94141 50.542969 C 112.62464 50.280238 112.40766 50.279837 112.14258 50.544922 C 111.87582 50.811663 111.63743 50.579618 111.25977 49.675781 C 110.60067 48.098197 110.61947 47.550011 111.35938 46.587891 L 111.95703 45.808594 z M 169.80664 48.396484 A 90 90 0 0 1 170.17188 49.105469 A 90.000041 90.000926 0 0 0 169.80664 48.396484 z M 170.95898 50.6875 A 90.000041 90.000926 0 0 1 171.30469 51.40625 A 90 90 0 0 0 170.95898 50.6875 z M 7.5839844 53.839844 A 90.000041 90.000926 0 0 0 7.3789062 54.3125 A 90 90 0 0 1 7.5839844 53.839844 z M 172.41602 53.839844 A 90.000041 90.000926 0 0 1 172.62109 54.3125 A 90 90 0 0 0 172.41602 53.839844 z M 6.8242188 55.625 A 90 90 0 0 0 6.640625 56.074219 A 90.000041 90.000926 0 0 1 6.8242188 55.625 z M 6.640625 56.074219 A 90.000041 90.000926 0 0 0 6.4589844 56.521484 A 90 90 0 0 1 6.640625 56.074219 z M 173.17578 55.625 A 90 90 0 0 1 173.35938 56.074219 A 90.000041 90.000926 0 0 0 173.17578 55.625 z M 173.35938 56.074219 A 90.000041 90.000926 0 0 1 173.54102 56.521484 A 90 90 0 0 0 173.35938 56.074219 z M 5.6582031 58.595703 A 90 90 0 0 0 5.3828125 59.34375 A 90.000041 90.000926 0 0 1 5.6582031 58.595703 z M 4.5976562 61.603516 A 90 90 0 0 0 4.3496094 62.363281 A 90.000041 90.000926 0 0 1 4.5976562 61.603516 z M 3.8730469 63.884766 A 90 90 0 0 0 3.6445312 64.650391 A 90.000041 90.000926 0 0 1 3.8730469 63.884766 z M 3.6445312 64.650391 A 90 90 0 0 0 3.4238281 65.416016 A 90.000041 90.000926 0 0 1 3.6445312 64.650391 z M 176.12695 63.884766 A 90 90 0 0 1 176.32812 64.558594 A 90.000041 90.000926 0 0 0 176.12695 63.884766 z M 177.05859 67.177734 A 90.000041 90.000926 0 0 1 177.24219 67.892578 A 90 90 0 0 0 177.05859 67.177734 z M 95.763672 68.425781 C 95.818872 68.448849 95.823325 68.508273 95.765625 68.601562 C 95.655025 68.780525 95.426195 68.927734 95.255859 68.927734 C 94.782409 68.927734 94.886825 68.69147 95.457031 68.472656 C 95.603481 68.416446 95.708472 68.402711 95.763672 68.425781 z M 94.527344 69.388672 C 94.512734 69.451652 94.324981 69.663339 93.957031 70.0625 C 93.504451 70.553452 93.17345 71.015867 93.21875 71.091797 C 93.26405 71.167728 93.300781 71.429389 93.300781 71.671875 C 93.300781 71.914363 92.908264 72.29277 92.427734 72.511719 C 91.558704 72.907678 91.554923 72.904989 92.101562 72.152344 C 92.403833 71.736166 92.80885 71.090569 93 70.71875 C 93.19115 70.346934 93.670023 69.845795 94.064453 69.605469 C 94.385143 69.410073 94.541944 69.325692 94.527344 69.388672 z M 177.64258 69.537109 A 90.000041 90.000926 0 0 1 177.79883 70.220703 A 90 90 0 0 0 177.64258 69.537109 z M 177.79883 70.220703 A 90.000041 90.000926 0 0 1 177.9707 70.998047 A 90 90 0 0 0 177.79883 70.220703 z M 2.1933594 70.25 A 90.000041 90.000926 0 0 0 2.0292969 70.998047 A 90 90 0 0 1 2.1933594 70.25 z M 80.861328 70.267578 C 80.903988 70.268838 80.941497 70.281311 80.966797 70.306641 C 81.068137 70.407981 80.885157 70.593185 80.560547 70.716797 C 80.091457 70.895418 80.05235 70.858275 80.375 70.533203 C 80.54245 70.364485 80.733418 70.263778 80.861328 70.267578 z M 92.169922 70.369141 C 92.288362 70.35875 92.293056 70.566354 92.128906 70.994141 C 92.020136 71.277602 91.721041 71.590393 91.462891 71.689453 C 91.091011 71.832157 91.105843 71.699128 91.533203 71.046875 C 91.820583 70.608283 92.051452 70.379451 92.169922 70.369141 z M 80.904297 72.068359 C 80.578127 72.123708 80.220689 72.640504 80.068359 73.371094 C 79.992869 73.733155 79.77911 74.000044 79.59375 73.964844 C 79.40838 73.929641 79.255859 74.113509 79.255859 74.375 C 79.255869 75.111964 79.560441 74.950285 80.582031 73.669922 C 81.180421 72.919937 81.410557 72.375399 81.210938 72.175781 C 81.117838 72.082722 81.013017 72.049899 80.904297 72.068359 z M 178.33008 72.738281 A 90.000041 90.000926 0 0 1 178.44531 73.345703 A 90 90 0 0 0 178.33008 72.738281 z M 102.71875 73.857422 C 103.19484 73.837049 103.50391 73.940045 103.50391 74.193359 C 103.50391 74.374392 103.29162 74.521484 103.03516 74.521484 C 102.77871 74.521484 102.48451 74.707305 102.37891 74.933594 C 102.22959 75.253566 102.14008 75.247315 101.98242 74.902344 C 101.8381 74.586533 101.60402 74.72918 101.16406 75.396484 C 100.82418 75.912015 100.54394 76.151896 100.54297 75.931641 C 100.54177 75.71139 100.03739 76.03684 99.421875 76.652344 C 98.806385 77.267848 98.214089 77.680887 98.105469 77.572266 C 97.996879 77.463647 97.90625 77.627845 97.90625 77.9375 C 97.90625 78.291106 97.693801 78.46699 97.332031 78.40625 C 96.938061 78.340099 96.721231 78.55852 96.644531 79.101562 C 96.558331 79.711674 96.464371 79.786858 96.238281 79.429688 C 96.030451 79.101418 95.9415 79.086367 95.9375 79.376953 C 95.93472 79.603242 95.710993 79.789062 95.439453 79.789062 C 95.132257 79.789062 94.945312 80.099321 94.945312 80.611328 C 94.945313 81.269621 94.781337 81.435547 94.123047 81.435547 C 93.670477 81.435547 93.300781 81.286498 93.300781 81.105469 C 93.300781 80.924435 93.521429 80.775391 93.792969 80.775391 C 94.064509 80.775391 94.287109 80.516703 94.287109 80.199219 C 94.287109 79.340318 97.593589 76.030693 99.605469 74.876953 C 100.6672 74.268094 101.92527 73.891382 102.71875 73.857422 z M 1.4414062 73.960938 A 90 90 0 0 0 1.3027344 74.746094 A 90.000041 90.000926 0 0 1 1.4414062 73.960938 z M 178.55859 73.960938 A 90 90 0 0 1 178.68359 74.671875 A 90.000041 90.000926 0 0 0 178.55859 73.960938 z M 92.205078 74.382812 C 92.269918 74.364492 92.327794 74.365838 92.371094 74.392578 C 92.549484 74.502835 92.438258 74.858108 92.117188 75.212891 C 91.299598 76.116326 90.888081 75.9813 91.519531 75.017578 C 91.741171 74.679311 92.010418 74.438012 92.205078 74.382812 z M 80.646484 74.851562 C 80.566664 74.851562 80.410708 75.000611 80.298828 75.181641 C 80.186938 75.362676 80.251649 75.509766 80.443359 75.509766 C 80.635069 75.509766 80.792969 75.362673 80.792969 75.181641 C 80.792969 75.000609 80.726284 74.851562 80.646484 74.851562 z M 82.912109 74.851562 C 82.844909 74.851562 82.63126 75.147703 82.4375 75.509766 C 82.24289 75.873445 82.221642 76.167969 82.388672 76.167969 C 82.554962 76.167969 82.768581 75.871825 82.863281 75.509766 C 82.957981 75.147703 82.979309 74.851562 82.912109 74.851562 z M 76.746094 75.615234 C 76.729894 75.606068 76.699297 75.607202 76.654297 75.617188 C 76.594297 75.630488 76.509424 75.657842 76.396484 75.701172 C 76.099334 75.815196 75.855469 76.041469 75.855469 76.203125 C 75.855469 76.626394 76.045531 76.56724 76.519531 75.996094 C 76.715199 75.760345 76.794693 75.642735 76.746094 75.615234 z M 178.88086 75.847656 A 90.000041 90.000926 0 0 1 178.97656 76.470703 A 90 90 0 0 0 178.88086 75.847656 z M 1.0097656 76.552734 A 90.000041 90.000926 0 0 0 0.90429688 77.279297 A 90 90 0 0 1 1.0097656 76.552734 z M 0.90429688 77.279297 A 90.000041 90.000926 0 0 0 0.79492188 78.068359 A 90 90 0 0 1 0.90429688 77.279297 z M 178.99023 76.552734 A 90.000041 90.000926 0 0 1 179.0957 77.279297 A 90 90 0 0 0 178.99023 76.552734 z M 179.0957 77.279297 A 90.000041 90.000926 0 0 1 179.20508 78.070312 A 90 90 0 0 0 179.0957 77.279297 z M 0.70703125 78.742188 A 90 90 0 0 0 0.64257812 79.28125 A 90.000041 90.000926 0 0 1 0.70703125 78.742188 z M 98.880859 79.839844 C 98.978509 79.829854 99.064128 79.847301 99.111328 79.894531 C 99.205828 79.989003 99.233175 80.322813 99.171875 80.636719 C 99.071525 81.150921 99.017882 81.156002 98.632812 80.691406 C 98.325882 80.32126 98.308806 80.11399 98.572266 79.951172 C 98.673186 79.888803 98.783259 79.849844 98.880859 79.839844 z M 0.52734375 80.275391 A 90 90 0 0 0 0.4765625 80.757812 A 90.000041 90.000926 0 0 1 0.52734375 80.275391 z M 0.4765625 80.757812 A 90.000041 90.000926 0 0 0 0.42773438 81.238281 A 90 90 0 0 1 0.4765625 80.757812 z M 179.47266 80.275391 A 90 90 0 0 1 179.52148 80.742188 A 90.000041 90.000926 0 0 0 179.47266 80.275391 z M 179.52148 80.742188 A 90.000041 90.000926 0 0 1 179.57227 81.240234 A 90 90 0 0 0 179.52148 80.742188 z M 92.642578 81.105469 C 92.823608 81.105469 92.970703 81.254515 92.970703 81.435547 C 92.970703 81.616582 92.823608 81.763672 92.642578 81.763672 C 92.461548 81.763672 92.3125 81.616578 92.3125 81.435547 C 92.3125 81.254514 92.461548 81.105469 92.642578 81.105469 z M 179.72266 82.945312 A 90.000041 90.000926 0 0 1 179.77344 83.625 A 90 90 0 0 0 179.72266 82.945312 z M 179.77344 83.625 A 90.000041 90.000926 0 0 1 179.82617 84.419922 A 90 90 0 0 0 179.77344 83.625 z M 0.27734375 82.955078 A 90.000041 90.000926 0 0 0 0.2265625 83.615234 A 90 90 0 0 1 0.27734375 82.955078 z M 88.574219 83.410156 C 89.143609 83.410156 87.727253 84.509134 86.101562 85.330078 C 85.082302 85.844784 83.731256 86.359475 83.097656 86.474609 C 82.288806 86.621583 82.900913 86.19679 85.158203 85.046875 C 86.926423 84.146103 88.464729 83.410156 88.574219 83.410156 z M 0.22460938 83.646484 A 90.000041 90.000926 0 0 0 0.17382812 84.419922 A 90 90 0 0 1 0.22460938 83.646484 z M 114.56055 83.853516 C 114.6597 83.835898 114.69336 83.925154 114.69336 84.115234 C 114.69336 84.378633 114.518 84.771045 114.30078 84.988281 C 114.08354 85.205519 113.78544 85.384766 113.64062 85.384766 C 113.17424 85.384766 113.35897 84.84437 114.03516 84.232422 C 114.29645 83.99596 114.46125 83.871136 114.56055 83.853516 z M 66.589844 84.396484 C 66.499324 84.396484 66.077514 84.766173 65.652344 85.21875 C 65.227164 85.671323 64.952469 86.042969 65.042969 86.042969 C 65.133479 86.042969 65.555299 85.671323 65.980469 85.21875 C 66.405639 84.766173 66.680344 84.396484 66.589844 84.396484 z M 179.96289 87.435547 A 90 90 0 0 1 179.98242 88.234375 A 90.000041 90.000926 0 0 0 179.96289 87.435547 z M 179.98242 88.234375 A 90 90 0 0 1 179.99414 88.96875 A 90.000041 90.000926 0 0 0 179.98242 88.234375 z M 0.037109375 87.4375 A 90 90 0 0 0 0.017578125 88.234375 A 90.000041 90.000926 0 0 1 0.037109375 87.4375 z M 0.017578125 88.234375 A 90 90 0 0 0 0.005859375 88.970703 A 90.000041 90.000926 0 0 1 0.017578125 88.234375 z M 78.197266 88.365234 C 77.896816 88.476729 77.193453 89.44708 77.189453 89.828125 C 77.187723 90.009157 77.470756 89.787762 77.816406 89.337891 C 78.162065 88.888022 78.378828 88.455 78.298828 88.375 C 78.275568 88.3516 78.240166 88.349364 78.197266 88.365234 z M 83.115234 88.675781 C 83.306974 88.675781 83.371646 88.822873 83.259766 89.003906 C 83.147886 89.18494 82.991909 89.333984 82.912109 89.333984 C 82.832269 89.333984 82.767578 89.184937 82.767578 89.003906 C 82.767578 88.822872 82.923524 88.675781 83.115234 88.675781 z M 98.732422 89.443359 C 98.818382 89.464484 98.927312 89.604938 99.007812 89.814453 C 99.230373 90.394446 99.041337 90.495844 98.716797 89.970703 C 98.597397 89.77763 98.56995 89.549171 98.65625 89.462891 C 98.67785 89.441301 98.703722 89.436359 98.732422 89.443359 z M 108.83203 89.6875 C 108.85821 89.661321 109.00277 89.794823 109.28711 90.066406 C 109.61435 90.3789 109.79197 90.723661 109.68164 90.833984 C 109.5713 90.944315 109.30279 90.6904 109.08594 90.267578 C 108.8974 89.90011 108.80583 89.71368 108.83203 89.6875 z M 180 90 A 90 90 0 0 1 179.99609 90.787109 A 90.000041 90.000926 0 0 0 180 90 z M 108.72656 90.847656 C 108.75436 90.858816 108.76953 90.884897 108.76953 90.929688 C 108.76953 91.108844 108.85887 91.489047 108.96875 91.775391 C 109.19023 92.35255 108.8509 92.441813 108.14062 91.992188 C 107.74777 91.743467 107.76021 91.612854 108.22266 91.150391 C 108.44835 90.924699 108.64336 90.814196 108.72656 90.847656 z M 0.005859375 91.021484 A 90.000041 90.000926 0 0 0 0.017578125 91.765625 A 90 90 0 0 1 0.005859375 91.021484 z M 0.017578125 91.765625 A 90.000041 90.000926 0 0 0 0.037109375 92.564453 A 90 90 0 0 1 0.017578125 91.765625 z M 179.98828 91.376953 A 90.000041 90.000926 0 0 1 179.98242 91.816406 A 90 90 0 0 0 179.98828 91.376953 z M 99.224609 91.638672 C 99.405629 91.638672 99.554688 91.852421 99.554688 92.113281 C 99.554687 92.374141 99.405639 92.677168 99.224609 92.789062 C 99.043579 92.900942 98.896484 92.6872 98.896484 92.314453 C 98.896484 91.941704 99.043579 91.638672 99.224609 91.638672 z M 179.97461 92.160156 A 90.000041 90.000926 0 0 1 179.96094 92.625 A 90 90 0 0 0 179.97461 92.160156 z M 179.95117 92.949219 A 90.000041 90.000926 0 0 1 179.92773 93.583984 A 90 90 0 0 0 179.95117 92.949219 z M 179.92773 93.583984 A 90.000041 90.000926 0 0 1 179.89258 94.380859 A 90 90 0 0 0 179.92773 93.583984 z M 179.89258 94.380859 A 90.000041 90.000926 0 0 1 179.86328 94.955078 A 90 90 0 0 0 179.89258 94.380859 z M 179.86328 94.955078 A 90 90 0 0 1 179.83008 95.515625 A 90.000041 90.000926 0 0 0 179.86328 94.955078 z M 57.414062 93.328125 C 57.399792 93.288215 57.214003 93.382901 56.845703 93.576172 C 56.438393 93.789911 56.107422 94.106598 56.107422 94.28125 C 56.107422 94.748852 56.264367 94.67907 56.960938 93.894531 C 57.272758 93.543331 57.428263 93.368035 57.414062 93.328125 z M 106.88672 93.408203 C 106.92132 93.373583 106.96703 93.419495 107.01953 93.550781 C 107.11459 93.788373 107.10351 94.072266 106.99414 94.181641 C 106.88467 94.291009 106.80611 94.09697 106.82031 93.75 C 106.82811 93.558288 106.85222 93.442763 106.88672 93.408203 z M 105.49609 93.613281 C 105.68784 93.613281 105.75641 93.76233 105.64453 93.943359 C 105.53264 94.12439 105.37472 94.271484 105.29492 94.271484 C 105.21508 94.271484 105.14844 94.12439 105.14844 93.943359 C 105.14844 93.76233 105.30437 93.613281 105.49609 93.613281 z M 102.51562 94.271484 C 102.69666 94.271484 102.8457 94.567616 102.8457 94.929688 C 102.8457 95.291738 102.69666 95.587891 102.51562 95.587891 C 102.33461 95.587891 102.18555 95.291747 102.18555 94.929688 C 102.18555 94.567625 102.3346 94.271484 102.51562 94.271484 z M 98.1875 95.291016 C 98.26557 95.307895 98.158265 95.739725 97.859375 96.472656 C 97.651535 96.982262 97.482375 97.803528 97.484375 98.296875 C 97.486625 98.790232 97.369969 99.119097 97.224609 99.029297 C 97.079259 98.939461 96.807744 99.128599 96.621094 99.449219 C 96.434434 99.769869 96.276484 99.956381 96.271484 99.863281 C 96.253834 99.564871 97.464396 96.392991 97.847656 95.732422 C 98.029106 95.419702 98.1407 95.280706 98.1875 95.291016 z M 0.17382812 95.582031 A 90 90 0 0 0 0.2265625 96.365234 A 90.000041 90.000926 0 0 1 0.17382812 95.582031 z M 71.705078 95.701172 C 71.665708 95.708782 71.621472 95.723973 71.576172 95.751953 C 71.395142 95.863831 71.246094 96.104126 71.246094 96.285156 C 71.246094 96.466259 71.395142 96.523987 71.576172 96.412109 C 71.757202 96.300219 71.90625 96.059939 71.90625 95.878906 C 71.90625 95.743107 71.823118 95.678352 71.705078 95.701172 z M 107.36719 95.945312 C 107.42689 95.96217 107.43641 96.126232 107.44141 96.453125 C 107.45225 97.18074 106.29888 97.762573 105.95312 97.203125 C 105.85175 97.03909 105.94706 96.904297 106.16406 96.904297 C 106.38108 96.904297 106.7556 96.646881 106.99609 96.330078 C 107.19964 96.061919 107.30729 95.928443 107.36719 95.945312 z M 0.2265625 96.380859 A 90 90 0 0 0 0.2734375 96.998047 A 90.000041 90.000926 0 0 1 0.2265625 96.380859 z M 179.76953 96.429688 A 90 90 0 0 1 179.71289 97.171875 A 90.000041 90.000926 0 0 0 179.76953 96.429688 z M 179.71289 97.171875 A 90 90 0 0 1 179.6543 97.878906 A 90.000041 90.000926 0 0 0 179.71289 97.171875 z M 55.777344 96.576172 C 55.760354 96.559179 55.626254 96.656619 55.365234 96.861328 C 55.048434 97.109777 54.789062 97.36922 54.789062 97.4375 C 54.789062 97.708391 55.060244 97.534595 55.490234 96.986328 C 55.694904 96.725292 55.794344 96.593142 55.777344 96.576172 z M 0.3125 97.488281 A 90.000041 90.000926 0 0 0 0.3671875 98.125 A 90 90 0 0 1 0.3125 97.488281 z M 179.63867 98.054688 A 90 90 0 0 1 179.58203 98.650391 A 90.000041 90.000926 0 0 0 179.63867 98.054688 z M 70.292969 98.220703 C 70.075829 98.220703 69.271484 99.638436 69.271484 100.02148 C 69.271484 100.08979 69.630719 99.82733 70.068359 99.4375 C 70.803729 98.782472 70.907099 98.220703 70.292969 98.220703 z M 0.42773438 98.761719 A 90 90 0 0 0 0.47460938 99.220703 A 90.000041 90.000926 0 0 1 0.42773438 98.761719 z M 0.47460938 99.220703 A 90.000041 90.000926 0 0 0 0.52734375 99.724609 A 90 90 0 0 1 0.47460938 99.220703 z M 179.52539 99.230469 A 90.000041 90.000926 0 0 1 179.4668 99.771484 A 90 90 0 0 0 179.52539 99.230469 z M 179.4668 99.771484 A 90 90 0 0 1 179.40234 100.34766 A 90.000041 90.000926 0 0 0 179.4668 99.771484 z M 179.40234 100.34766 A 90 90 0 0 1 179.33594 100.90234 A 90.000041 90.000926 0 0 0 179.40234 100.34766 z M 179.33594 100.90234 A 90.000041 90.000926 0 0 1 179.25977 101.51172 A 90 90 0 0 0 179.33594 100.90234 z M 0.63476562 100.66992 A 90.000041 90.000926 0 0 0 0.70703125 101.25781 A 90 90 0 0 1 0.63476562 100.66992 z M 93.136719 100.69141 L 93.238281 101.75977 C 93.295081 102.34812 93.281984 103.31008 93.208984 103.89844 L 93.076172 104.9668 L 93.023438 103.76172 C 92.994468 103.09795 92.80074 102.49869 92.59375 102.42969 C 92.32396 102.33976 92.346961 102.07477 92.675781 101.49609 L 93.136719 100.69141 z M 0.79492188 101.93164 A 90 90 0 0 0 0.90429688 102.72266 A 90.000041 90.000926 0 0 1 0.79492188 101.93164 z M 179.18164 102.10352 A 90 90 0 0 1 179.0957 102.7207 A 90.000041 90.000926 0 0 0 179.18164 102.10352 z M 179.0957 102.7207 A 90 90 0 0 1 178.99414 103.41406 A 90.000041 90.000926 0 0 0 179.0957 102.7207 z M 102.72266 102.25 C 102.8406 102.26281 102.83817 102.48507 102.72266 102.94531 C 102.51826 103.75968 102.97997 104.23202 103.23438 103.46875 C 103.39357 102.9912 104.49023 103.45348 104.49023 103.99805 C 104.49023 104.23954 104.32033 104.54075 104.11133 104.66992 C 103.85561 104.82795 103.81738 104.75444 103.99805 104.44336 C 104.14573 104.18908 103.87239 104.34042 103.39062 104.7793 C 102.83261 105.28763 102.51562 105.41692 102.51562 105.13477 C 102.51562 104.89119 102.27031 104.42091 101.9707 104.08984 C 101.6448 103.72971 101.5792 103.48633 101.80664 103.48633 C 102.01574 103.48633 102.18555 103.27454 102.18555 103.01367 C 102.18555 102.75281 102.35701 102.43484 102.56445 102.30664 C 102.63087 102.26554 102.68336 102.246 102.72266 102.25 z M 84.917969 102.30078 C 84.951369 102.29278 84.982512 102.30087 85.007812 102.32617 C 85.109153 102.42751 85.008153 102.69274 84.783203 102.91602 C 84.458133 103.23867 84.419036 103.20151 84.597656 102.73242 C 84.690366 102.48898 84.817669 102.32468 84.917969 102.30078 z M 178.91797 103.91016 A 90.000041 90.000926 0 0 1 178.79883 104.65625 A 90 90 0 0 0 178.91797 103.91016 z M 75.947266 104.59961 C 75.981856 104.56499 76.027578 104.61089 76.080078 104.74219 C 76.175188 104.97978 76.164068 105.26368 76.054688 105.37305 C 75.945317 105.48242 75.866659 105.28838 75.880859 104.94141 C 75.888759 104.7497 75.912666 104.63411 75.947266 104.59961 z M 98.742188 104.60547 C 98.775588 104.59747 98.806731 104.60556 98.832031 104.63086 C 98.933361 104.7322 98.830409 104.99742 98.605469 105.2207 C 98.280389 105.54335 98.245208 105.50427 98.423828 105.03516 C 98.516528 104.79172 98.641897 104.62937 98.742188 104.60547 z M 63.974609 104.62109 C 63.819379 104.68047 63.066125 105.61371 60.953125 108.3418 C 60.777905 108.56808 60.761982 108.74914 60.919922 108.74414 C 61.224422 108.73397 64.005859 105.04261 64.005859 104.64844 C 64.005859 104.62434 63.996809 104.61309 63.974609 104.62109 z M 1.3027344 105.25391 A 90.000041 90.000926 0 0 0 1.4414062 106.03906 A 90 90 0 0 1 1.3027344 105.25391 z M 101.03516 105.46094 C 101.3067 105.46094 101.5293 105.60999 101.5293 105.79102 C 101.5293 105.97205 101.3067 106.12109 101.03516 106.12109 C 100.76361 106.12109 100.54102 105.97205 100.54102 105.79102 C 100.54102 105.60999 100.76361 105.46094 101.03516 105.46094 z M 88.115234 105.80078 C 88.518254 105.78603 88.39754 106.40195 87.875 107.02344 C 87.60689 107.34232 87.158763 107.89772 86.876953 108.25977 C 86.595133 108.62183 86.701094 108.2182 87.115234 107.36328 C 87.529384 106.50836 87.979464 105.80578 88.115234 105.80078 z M 76.337891 105.94336 C 76.357791 105.95076 76.379544 105.98246 76.402344 106.03906 C 76.493644 106.26536 76.493644 106.63505 76.402344 106.86133 C 76.311014 107.08763 76.236328 106.90181 76.236328 106.44922 C 76.236328 106.1098 76.278391 105.92116 76.337891 105.94336 z M 81.34375 106.23047 C 81.42154 106.30825 81.032819 107.08604 80.480469 107.95703 C 79.928109 108.82802 79.474609 109.42805 79.474609 109.28906 C 79.474609 108.88061 81.18883 106.07557 81.34375 106.23047 z M 102.8457 106.58984 C 103.18117 106.58984 103.38282 106.70736 103.29492 106.84961 C 103.20702 106.99185 103.00535 107.10742 102.8457 107.10742 C 102.68604 107.10742 102.48253 106.99184 102.39453 106.84961 C 102.30663 106.70737 102.51021 106.58984 102.8457 106.58984 z M 178.36914 107.05078 A 90.000041 90.000926 0 0 1 178.2168 107.82422 A 90 90 0 0 0 178.36914 107.05078 z M 178.2168 107.82422 A 90.000041 90.000926 0 0 1 178.10352 108.38086 A 90 90 0 0 0 178.2168 107.82422 z M 178.10352 108.38086 A 90 90 0 0 1 177.98242 108.94141 A 90.000041 90.000926 0 0 0 178.10352 108.38086 z M 2.0292969 109.00195 A 90 90 0 0 0 2.1933594 109.75 A 90.000041 90.000926 0 0 1 2.0292969 109.00195 z M 85.839844 109.53711 C 85.928744 109.53934 85.939769 109.66898 85.855469 109.88867 C 85.636659 110.45891 85.400391 110.56331 85.400391 110.08984 C 85.400391 109.91951 85.545649 109.68873 85.724609 109.57812 C 85.771219 109.54923 85.810144 109.53635 85.839844 109.53711 z M 73.521484 109.75391 C 73.542584 109.77947 73.550781 109.84661 73.550781 109.95117 C 73.550781 110.12778 73.320593 110.56072 73.039062 110.91211 C 72.556422 111.51454 72.550402 111.5044 72.919922 110.72852 C 73.279792 109.97289 73.456184 109.67721 73.521484 109.75391 z M 177.7832 109.84766 A 90 90 0 0 1 177.66211 110.375 A 90.000041 90.000926 0 0 0 177.7832 109.84766 z M 177.66211 110.375 A 90.000041 90.000926 0 0 1 177.5293 110.94141 A 90 90 0 0 0 177.66211 110.375 z M 77.140625 110.08398 C 77.161725 110.10954 77.171875 110.17668 77.171875 110.28125 C 77.171875 110.45787 76.941696 110.8908 76.660156 111.24219 C 76.177516 111.84464 76.171506 111.83252 76.541016 111.05664 C 76.900886 110.301 77.075325 110.00718 77.140625 110.08398 z M 2.4609375 110.90625 A 90.000041 90.000926 0 0 0 2.6054688 111.5 A 90 90 0 0 1 2.4609375 110.90625 z M 177.40039 111.47852 A 90 90 0 0 1 177.24219 112.10352 A 90.000041 90.000926 0 0 0 177.40039 111.47852 z M 56.335938 111.8418 C 56.399738 111.8277 56.435547 111.84734 56.435547 111.90234 C 56.435547 112.02282 55.583889 113.00343 54.542969 114.08398 C 52.117089 116.60222 50.958173 117.24832 52.814453 115.04688 C 54.026183 113.60982 55.888798 111.9416 56.335938 111.8418 z M 72.345703 112.04492 C 72.354003 112.06511 72.335816 112.11848 72.291016 112.20898 C 72.111766 112.57105 71.175854 113.69702 70.208984 114.71094 C 69.242124 115.72487 68.970239 115.94746 69.605469 115.20508 C 70.240699 114.46271 71.178573 113.33673 71.689453 112.70312 C 72.072613 112.22794 72.321103 111.98422 72.345703 112.04492 z M 96.931641 112.10156 C 97.149281 112.13527 97.25 112.31497 97.25 112.65234 C 97.25 113.0126 97.12262 113.35757 96.96875 113.41797 C 96.81488 113.47832 96.400192 114.40559 96.044922 115.48047 C 95.321986 117.66774 94.752569 118.1281 94.417969 116.79492 C 94.105639 115.55052 94.64257 114.20574 95.503906 114.08203 C 96.046696 114.00403 96.203403 113.7735 96.158203 113.10742 C 96.117693 112.51092 96.279988 112.19683 96.673828 112.11523 C 96.772718 112.09513 96.859041 112.09026 96.931641 112.10156 z M 2.7578125 112.10938 A 90 90 0 0 0 2.9570312 112.88086 A 90.000041 90.000926 0 0 1 2.7578125 112.10938 z M 2.9570312 112.88086 A 90 90 0 0 0 3.1328125 113.53906 A 90.000041 90.000926 0 0 1 2.9570312 112.88086 z M 100.33008 112.22461 C 100.3804 112.17437 100.42476 112.26397 100.47266 112.49023 C 100.54388 112.82626 100.45872 113.24636 100.2832 113.42188 C 100.07711 113.62796 100.02988 113.41118 100.15234 112.81055 C 100.22256 112.46611 100.27988 112.27481 100.33008 112.22461 z M 78.269531 112.49805 L 78.269531 112.5 C 78.358531 112.50223 78.367503 112.63188 78.283203 112.85156 C 78.064383 113.42177 77.830078 113.52425 77.830078 113.05078 C 77.830078 112.88044 77.9773 112.65163 78.15625 112.54102 C 78.20287 112.51222 78.239931 112.49729 78.269531 112.49805 z M 177.10156 112.65625 A 90.000041 90.000926 0 0 1 176.98242 113.10547 A 90 90 0 0 0 177.10156 112.65625 z M 75.328125 112.82617 C 75.371585 112.87759 75.262657 113.1302 75.029297 113.48633 C 74.718157 113.9612 74.400319 114.34961 74.324219 114.34961 C 74.086119 114.34961 74.852462 113.08249 75.232422 112.84766 C 75.282122 112.81606 75.313525 112.80897 75.328125 112.82617 z M 176.83203 113.66797 A 90 90 0 0 1 176.64258 114.34961 A 90.000041 90.000926 0 0 0 176.83203 113.66797 z M 3.25 113.95898 A 90.000041 90.000926 0 0 0 3.4238281 114.58398 A 90 90 0 0 1 3.25 113.95898 z M 3.4238281 114.58398 A 90.000041 90.000926 0 0 0 3.6445312 115.35156 A 90 90 0 0 1 3.4238281 114.58398 z M 3.6445312 115.35156 A 90.000041 90.000926 0 0 0 3.8730469 116.11523 A 90 90 0 0 1 3.6445312 115.35156 z M 93.613281 114.70117 C 93.897171 114.70939 93.45774 115.74671 92.40625 118.0293 C 91.27841 120.47767 91.196772 120.56525 89.882812 120.7832 C 88.447652 121.02128 84.285027 122.73122 78.373047 125.50781 C 74.520008 127.31742 74.539062 127.31005 74.539062 126.92969 C 74.539062 126.17562 75.727186 125.19746 77.253906 124.69531 C 78.204205 124.38275 79.750653 123.77761 80.689453 123.35156 C 81.628253 122.92546 82.487439 122.57812 82.599609 122.57812 C 82.711789 122.57813 84.239181 121.73686 85.994141 120.70898 C 88.046671 119.5068 90.043111 117.98928 91.587891 116.45312 C 92.735221 115.31221 93.392471 114.69417 93.613281 114.70117 z M 176.48828 114.89453 A 90.000041 90.000926 0 0 1 176.31836 115.47852 A 90 90 0 0 0 176.48828 114.89453 z M 44.771484 115.33594 C 44.851324 115.33594 44.916016 115.48498 44.916016 115.66602 C 44.916016 115.84707 44.760069 115.99414 44.568359 115.99414 C 44.376609 115.99414 44.309995 115.84705 44.421875 115.66602 C 44.533765 115.48497 44.691684 115.33594 44.771484 115.33594 z M 73.550781 115.33594 C 73.567771 115.35294 73.468382 115.48704 73.263672 115.74805 C 72.833692 116.29636 72.564453 116.47012 72.564453 116.19922 C 72.564453 116.13087 72.821872 115.87149 73.138672 115.62305 C 73.399692 115.41835 73.533781 115.31894 73.550781 115.33594 z M 176.26367 115.66406 A 90.000041 90.000926 0 0 1 176.08984 116.23828 A 90 90 0 0 0 176.26367 115.66406 z M 175.89844 116.85742 A 90 90 0 0 1 175.74023 117.35938 A 90.000041 90.000926 0 0 0 175.89844 116.85742 z M 49.621094 117.33398 C 49.678414 117.4113 49.237735 117.9953 48.640625 118.62891 C 48.043505 119.26252 47.551781 119.62211 47.550781 119.42969 C 47.547961 119.04181 49.455604 117.11074 49.621094 117.33398 z M 4.3496094 117.63867 A 90.000041 90.000926 0 0 0 4.5976562 118.39648 A 90 90 0 0 1 4.3496094 117.63867 z M 94.03125 117.74023 C 94.23533 117.76347 94.439446 117.9316 94.541016 118.23633 C 94.613366 118.45337 94.371154 118.62891 93.996094 118.62891 C 93.522954 118.62891 93.379105 118.47492 93.515625 118.11914 C 93.623415 117.83826 93.82716 117.71693 94.03125 117.74023 z M 175.5625 117.91211 A 90.000041 90.000926 0 0 1 175.34961 118.55469 A 90 90 0 0 0 175.5625 117.91211 z M 175.16406 119.10156 A 90 90 0 0 1 174.98438 119.62305 A 90.000041 90.000926 0 0 0 175.16406 119.10156 z M 5.1484375 120.00586 A 90.000041 90.000926 0 0 0 5.3828125 120.65625 A 90 90 0 0 1 5.1484375 120.00586 z M 5.3828125 120.65625 A 90.000041 90.000926 0 0 0 5.6582031 121.40625 A 90 90 0 0 1 5.3828125 120.65625 z M 174.66602 120.52539 A 90 90 0 0 1 174.4375 121.15234 A 90.000041 90.000926 0 0 0 174.66602 120.52539 z M 174.36719 121.33984 A 90 90 0 0 1 174.12109 121.99219 A 90.000041 90.000926 0 0 0 174.36719 121.33984 z M 174.12109 121.99219 A 90 90 0 0 1 173.88086 122.61719 A 90.000041 90.000926 0 0 0 174.12109 121.99219 z M 6.1660156 122.73828 A 90 90 0 0 0 6.4316406 123.41406 A 90.000041 90.000926 0 0 1 6.1660156 122.73828 z M 173.77734 122.88477 A 90 90 0 0 1 173.54102 123.47656 A 90.000041 90.000926 0 0 0 173.77734 122.88477 z M 6.5800781 123.77734 A 90.000041 90.000926 0 0 0 6.8242188 124.375 A 90 90 0 0 1 6.5800781 123.77734 z M 173.01758 124.75586 A 90.000041 90.000926 0 0 1 172.83594 125.1875 A 90 90 0 0 0 173.01758 124.75586 z M 7.3789062 125.68945 A 90 90 0 0 0 7.5605469 126.10547 A 90.000041 90.000926 0 0 1 7.3789062 125.68945 z M 7.5605469 126.10547 A 90.000041 90.000926 0 0 0 7.7675781 126.57422 A 90 90 0 0 1 7.5605469 126.10547 z M 87.007812 125.86914 C 87.647462 125.86914 87.406989 126.71219 86.349609 128.17188 C 85.562079 129.25896 85.46589 129.53122 85.9375 129.33789 C 87.19231 128.82348 87.703125 128.76369 87.703125 129.13477 C 87.703125 129.3445 88.001221 129.83598 88.363281 130.22461 C 89.457961 131.39963 89.221064 131.83217 87.621094 131.58789 C 85.710754 131.2962 85.048784 130.91569 85.302734 130.25391 C 85.442364 129.88994 85.385163 129.78967 85.126953 129.94922 C 84.483533 130.34689 84.686409 130.85324 85.917969 131.92383 L 87.095703 132.94531 L 85.560547 136.89648 C 84.716567 139.06885 83.391788 142.549 82.617188 144.63086 C 81.842587 146.71271 80.809779 149.45154 80.324219 150.71875 C 79.838669 151.98598 79.317712 153.54215 79.164062 154.17578 C 79.010402 154.80938 78.422035 156.57463 77.859375 158.09961 C 77.296716 159.62458 76.782997 160.92599 76.716797 160.99219 C 76.571797 161.13717 76.377763 160.46608 75.501953 156.80859 C 74.032163 150.67059 73.220703 145.9903 73.220703 143.63281 C 73.220703 142.06469 73.055831 140.91862 72.769531 140.50781 C 71.843601 139.17917 71.529842 134.75791 72.263672 133.38672 C 72.441862 133.05375 72.810564 132.78125 73.083984 132.78125 C 73.357394 132.78125 75.018601 131.92481 76.775391 130.87891 C 79.97026 128.97683 86.317742 125.86914 87.007812 125.86914 z M 172.25195 126.53125 A 90 90 0 0 1 171.97656 127.14648 A 90.000041 90.000926 0 0 0 172.25195 126.53125 z M 171.97656 127.14648 A 90 90 0 0 1 171.68945 127.77539 A 90.000041 90.000926 0 0 0 171.97656 127.14648 z M 171.58984 127.98828 A 90 90 0 0 1 171.30469 128.59375 A 90.000041 90.000926 0 0 0 171.58984 127.98828 z M 171.30469 128.59375 A 90 90 0 0 1 170.95898 129.3125 A 90.000041 90.000926 0 0 0 171.30469 128.59375 z M 170.95898 129.3125 A 90 90 0 0 1 170.60742 130.0293 A 90.000041 90.000926 0 0 0 170.95898 129.3125 z M 170.60742 130.0293 A 90 90 0 0 1 170.25 130.74219 A 90.000041 90.000926 0 0 0 170.60742 130.0293 z M 170.25 130.74219 A 90 90 0 0 1 169.55078 132.0918 A 90.000041 90.000926 0 0 0 170.25 130.74219 z M 9.1757812 129.58984 A 90.000041 90.000926 0 0 0 9.46875 130.18164 A 90 90 0 0 1 9.1757812 129.58984 z M 9.46875 130.18164 A 90.000041 90.000926 0 0 0 9.828125 130.89453 A 90 90 0 0 1 9.46875 130.18164 z M 10.242188 131.69727 A 90.000041 90.000926 0 0 0 10.564453 132.30859 A 90 90 0 0 1 10.242188 131.69727 z M 10.564453 132.30859 A 90.000041 90.000926 0 0 0 10.943359 133.01172 A 90 90 0 0 1 10.564453 132.30859 z M 10.943359 133.01172 A 90.000041 90.000926 0 0 0 11.328125 133.71094 A 90 90 0 0 1 10.943359 133.01172 z M 11.328125 133.71094 A 90.000041 90.000926 0 0 0 11.71875 134.40625 A 90 90 0 0 1 11.328125 133.71094 z M 169.08594 132.95703 A 90 90 0 0 1 168.77539 133.52344 A 90.000041 90.000926 0 0 0 169.08594 132.95703 z M 88.966797 133.16602 C 89.718467 133.20757 90.957497 133.56693 90.810547 133.80469 C 90.614467 134.12192 90.435514 134.1336 89.677734 133.88086 C 89.406184 133.79029 88.978763 133.65061 88.726562 133.57031 C 88.474422 133.48987 88.349366 133.34399 88.447266 133.24609 C 88.520726 133.17269 88.716237 133.15292 88.966797 133.16602 z M 168.74023 133.58984 A 90 90 0 0 1 168.36523 134.25781 A 90.000041 90.000926 0 0 0 168.74023 133.58984 z M 13.037109 136.6543 A 90.000041 90.000926 0 0 0 13.341797 137.1543 A 90 90 0 0 1 13.037109 136.6543 z M 95.695312 136.85547 C 95.729913 136.82092 95.775625 136.86681 95.828125 136.99805 C 95.923225 137.23565 95.912104 137.51959 95.802734 137.62891 C 95.693364 137.73828 95.614706 137.54426 95.628906 137.19727 C 95.636806 137.00548 95.660713 136.88997 95.695312 136.85547 z M 166.74414 137.01367 A 90 90 0 0 1 166.32812 137.68555 A 90.000041 90.000926 0 0 0 166.74414 137.01367 z M 165.89062 138.37891 A 90 90 0 0 1 165.4707 139.03125 A 90.000041 90.000926 0 0 0 165.89062 138.37891 z M 165.01367 139.72852 A 90 90 0 0 1 164.58984 140.36133 A 90.000041 90.000926 0 0 0 165.01367 139.72852 z M 15.505859 140.50391 A 90.000041 90.000926 0 0 0 15.957031 141.16211 A 90 90 0 0 1 15.505859 140.50391 z M 164.11133 141.0625 A 90 90 0 0 1 163.68555 141.67578 A 90.000041 90.000926 0 0 0 164.11133 141.0625 z M 163.1875 142.38086 A 90 90 0 0 1 162.75781 142.97461 A 90.000041 90.000926 0 0 0 163.1875 142.38086 z M 162.75781 142.97461 A 90 90 0 0 1 162.28516 143.61719 A 90.000041 90.000926 0 0 0 162.75781 142.97461 z M 162.28516 143.61719 A 90 90 0 0 1 161.80664 144.25586 A 90.000041 90.000926 0 0 0 162.28516 143.61719 z M 161.80664 144.25586 A 90 90 0 0 1 161.38281 144.81445 A 90.000041 90.000926 0 0 0 161.80664 144.25586 z M 16.90625 142.50781 A 90.000041 90.000926 0 0 0 17.34375 143.11328 A 90 90 0 0 1 16.90625 142.50781 z M 17.34375 143.11328 A 90.000041 90.000926 0 0 0 17.816406 143.75391 A 90 90 0 0 1 17.34375 143.11328 z M 91.603516 142.74023 C 91.806086 142.71127 91.982422 142.83046 91.982422 143.12109 C 91.982422 143.40771 91.749511 143.64453 91.462891 143.64453 C 91.176251 143.64453 90.998612 143.46691 91.070312 143.25195 C 91.172023 142.94679 91.400946 142.76923 91.603516 142.74023 z M 18.441406 144.58203 A 90.000041 90.000926 0 0 0 18.78125 145.02539 A 90 90 0 0 1 18.441406 144.58203 z M 18.78125 145.02539 A 90.000041 90.000926 0 0 0 19.271484 145.6543 A 90 90 0 0 1 18.78125 145.02539 z M 19.271484 145.6543 A 90.000041 90.000926 0 0 0 19.767578 146.2793 A 90 90 0 0 1 19.271484 145.6543 z M 89.414062 144.97852 C 89.574083 145.02116 89.681694 145.26222 89.621094 145.67383 C 89.563244 146.06697 89.329806 146.45079 89.103516 146.52539 C 88.655466 146.67294 88.577835 146.29556 88.890625 145.48047 C 89.039525 145.09246 89.254092 144.93582 89.414062 144.97852 z M 161.24805 144.98828 A 90 90 0 0 1 160.83398 145.51953 A 90.000041 90.000926 0 0 0 161.24805 144.98828 z M 160.83398 145.51953 A 90 90 0 0 1 160.4082 146.06055 A 90.000041 90.000926 0 0 0 160.83398 145.51953 z M 20.900391 147.66406 A 90.000041 90.000926 0 0 0 21.289062 148.12695 A 90 90 0 0 1 20.900391 147.66406 z M 158.78906 148.03516 A 90 90 0 0 1 158.30469 148.60352 A 90.000041 90.000926 0 0 0 158.78906 148.03516 z M 158.30469 148.60352 A 90 90 0 0 1 157.82812 149.1543 A 90.000041 90.000926 0 0 0 158.30469 148.60352 z M 21.814453 148.74414 A 90.000041 90.000926 0 0 0 22.330078 149.33594 A 90 90 0 0 1 21.814453 148.74414 z M 86.330078 149.23828 C 86.518278 149.23828 86.771878 149.5494 86.892578 149.92969 C 87.013268 150.30997 86.94901 150.78341 86.75 150.98242 C 86.48699 151.24545 86.388672 151.19966 86.388672 150.8125 C 86.388672 150.51956 86.29738 150.0461 86.1875 149.75977 C 86.0776 149.4734 86.141878 149.23828 86.330078 149.23828 z M 22.962891 150.04883 A 90.000041 90.000926 0 0 0 23.392578 150.52539 A 90 90 0 0 1 22.962891 150.04883 z M 23.392578 150.52539 A 90.000041 90.000926 0 0 0 23.931641 151.11328 A 90 90 0 0 1 23.392578 150.52539 z M 156.67188 150.45508 A 90 90 0 0 1 156.25 150.91797 A 90.000041 90.000926 0 0 0 156.67188 150.45508 z M 156.12109 151.05664 A 90 90 0 0 1 155.64062 151.57227 A 90.000041 90.000926 0 0 0 156.12109 151.05664 z M 155.64062 151.57227 A 90 90 0 0 1 155.09375 152.15234 A 90.000041 90.000926 0 0 0 155.64062 151.57227 z M 155.09375 152.15234 A 90 90 0 0 1 153.98047 153.29688 A 90.000041 90.000926 0 0 0 155.09375 152.15234 z M 153.98047 153.29688 A 90 90 0 0 1 153.41992 153.85938 A 90.000041 90.000926 0 0 0 153.98047 153.29688 z M 24.548828 151.77539 A 90.000041 90.000926 0 0 0 25.580078 152.84961 A 90 90 0 0 1 24.548828 151.77539 z M 153.41602 153.86328 A 90 90 0 0 1 152.84961 154.41992 A 90.000041 90.000926 0 0 0 153.41602 153.86328 z M 152.84961 154.41992 A 90 90 0 0 1 152.27539 154.97461 A 90.000041 90.000926 0 0 0 152.84961 154.41992 z M 152.27539 154.97461 A 90 90 0 0 1 151.71484 155.50781 A 90.000041 90.000926 0 0 0 152.27539 154.97461 z M 26.703125 153.98047 A 90.000041 90.000926 0 0 0 27.273438 154.53906 A 90 90 0 0 1 26.703125 153.98047 z M 27.904297 155.14844 A 90.000041 90.000926 0 0 0 28.427734 155.64062 A 90 90 0 0 1 27.904297 155.14844 z M 151.67383 155.54688 A 90 90 0 0 1 151.11328 156.06836 A 90.000041 90.000926 0 0 0 151.67383 155.54688 z M 151.11328 156.06836 A 90 90 0 0 1 150.52539 156.60742 A 90.000041 90.000926 0 0 0 151.11328 156.06836 z M 150.52539 156.60742 A 90 90 0 0 1 149.97656 157.10352 A 90.000041 90.000926 0 0 0 150.52539 156.60742 z M 29.109375 156.27344 A 90.000041 90.000926 0 0 0 29.601562 156.72266 A 90 90 0 0 1 29.109375 156.27344 z M 29.601562 156.72266 A 90.000041 90.000926 0 0 0 30.195312 157.25586 A 90 90 0 0 1 29.601562 156.72266 z M 30.195312 157.25586 A 90.000041 90.000926 0 0 0 30.792969 157.7832 A 90 90 0 0 1 30.195312 157.25586 z M 30.792969 157.7832 A 90.000041 90.000926 0 0 0 32.003906 158.82227 A 90 90 0 0 1 30.792969 157.7832 z M 149.90039 157.17188 A 90 90 0 0 1 149.33594 157.66992 A 90.000041 90.000926 0 0 0 149.90039 157.17188 z M 149.33594 157.66992 A 90 90 0 0 1 148.73438 158.19336 A 90.000041 90.000926 0 0 0 149.33594 157.66992 z M 148.73438 158.19336 A 90 90 0 0 1 148.12695 158.71094 A 90.000041 90.000926 0 0 0 148.73438 158.19336 z M 146.90039 159.73047 A 90 90 0 0 1 146.2793 160.23242 A 90.000041 90.000926 0 0 0 146.90039 159.73047 z M 146.2793 160.23242 A 90 90 0 0 1 145.6543 160.72852 A 90.000041 90.000926 0 0 0 146.2793 160.23242 z M 145.6543 160.72852 A 90 90 0 0 1 144.46094 161.65234 A 90.000041 90.000926 0 0 0 145.6543 160.72852 z M 33.861328 160.34766 A 90.000041 90.000926 0 0 0 34.480469 160.83398 A 90 90 0 0 1 33.861328 160.34766 z M 84.158203 161.07422 C 84.293833 161.05131 84.4171 161.12938 84.4375 161.32617 C 84.45108 161.45741 84.285589 161.62281 84.068359 161.69531 C 83.851089 161.76772 83.732287 161.65082 83.804688 161.43359 C 83.875398 161.22144 84.022563 161.09722 84.158203 161.07422 z M 35.175781 161.375 A 90.000041 90.000926 0 0 0 35.744141 161.80664 A 90 90 0 0 1 35.175781 161.375 z M 35.744141 161.80664 A 90.000041 90.000926 0 0 0 36.382812 162.28516 A 90 90 0 0 1 35.744141 161.80664 z M 143.72266 162.20703 A 90 90 0 0 1 143.12305 162.64844 A 90.000041 90.000926 0 0 0 143.72266 162.20703 z M 84.908203 162.40625 C 85.179743 162.40625 85.400391 162.55139 85.400391 162.73242 C 85.400391 162.91347 85.179743 163.0625 84.908203 163.0625 C 84.636653 163.0625 84.414062 162.91345 84.414062 162.73242 C 84.414062 162.55142 84.636653 162.40625 84.908203 162.40625 z M 82.857422 162.5293 C 82.892012 162.49476 82.939688 162.54064 82.992188 162.67188 C 83.087298 162.90949 83.076167 163.19342 82.966797 163.30273 C 82.857427 163.4121 82.780722 163.21805 82.794922 162.87109 C 82.802822 162.67931 82.822822 162.5638 82.857422 162.5293 z M 37.058594 162.7832 A 90.000041 90.000926 0 0 0 37.671875 163.22461 A 90 90 0 0 1 37.058594 162.7832 z M 37.671875 163.22461 A 90.000041 90.000926 0 0 0 38.324219 163.68555 A 90 90 0 0 1 37.671875 163.22461 z M 38.324219 163.68555 A 90.000041 90.000926 0 0 0 38.978516 164.14062 A 90 90 0 0 1 38.324219 163.68555 z M 38.978516 164.14062 A 90.000041 90.000926 0 0 0 40.300781 165.0332 A 90 90 0 0 1 38.978516 164.14062 z M 40.300781 165.0332 A 90.000041 90.000926 0 0 0 40.96875 165.4707 A 90 90 0 0 1 40.300781 165.0332 z M 40.96875 165.4707 A 90.000041 90.000926 0 0 0 41.638672 165.90234 A 90 90 0 0 1 40.96875 165.4707 z M 142.45312 163.13477 A 90 90 0 0 1 141.83789 163.57227 A 90.000041 90.000926 0 0 0 142.45312 163.13477 z M 141.79297 163.60352 A 90 90 0 0 1 141.16211 164.04297 A 90.000041 90.000926 0 0 0 141.79297 163.60352 z M 141.16211 164.04297 A 90 90 0 0 1 140.53906 164.46875 A 90.000041 90.000926 0 0 0 141.16211 164.04297 z M 139.17578 165.37695 A 90 90 0 0 1 138.50586 165.81055 A 90.000041 90.000926 0 0 0 139.17578 165.37695 z M 138.50586 165.81055 A 90 90 0 0 1 137.89453 166.19922 A 90.000041 90.000926 0 0 0 138.50586 165.81055 z M 137.76953 166.27734 A 90 90 0 0 1 137.1543 166.6582 A 90.000041 90.000926 0 0 0 137.76953 166.27734 z M 137.1543 166.6582 A 90 90 0 0 1 136.47266 167.07422 A 90.000041 90.000926 0 0 0 137.1543 166.6582 z M 136.47266 167.07422 A 90 90 0 0 1 135.78711 167.48242 A 90.000041 90.000926 0 0 0 136.47266 167.07422 z M 135.78711 167.48242 A 90 90 0 0 1 135.09961 167.88477 A 90.000041 90.000926 0 0 0 135.78711 167.48242 z M 135.09961 167.88477 A 90 90 0 0 1 134.40625 168.28125 A 90.000041 90.000926 0 0 0 135.09961 167.88477 z M 134.40625 168.28125 A 90 90 0 0 1 133.71094 168.67188 A 90.000041 90.000926 0 0 0 134.40625 168.28125 z M 133.71094 168.67188 A 90 90 0 0 1 133.01172 169.05664 A 90.000041 90.000926 0 0 0 133.71094 168.67188 z M 133.01172 169.05664 A 90 90 0 0 1 132.30859 169.43555 A 90.000041 90.000926 0 0 0 133.01172 169.05664 z M 132.30859 169.43555 A 90 90 0 0 1 131.60352 169.80664 A 90.000041 90.000926 0 0 0 132.30859 169.43555 z M 131.60352 169.80664 A 90 90 0 0 1 130.89453 170.17188 A 90.000041 90.000926 0 0 0 131.60352 169.80664 z M 130.89453 170.17188 A 90 90 0 0 1 130.18164 170.53125 A 90.000041 90.000926 0 0 0 130.89453 170.17188 z M 130.18164 170.53125 A 90 90 0 0 1 129.4668 170.88477 A 90.000041 90.000926 0 0 0 130.18164 170.53125 z M 129.4668 170.88477 A 90 90 0 0 1 128.76562 171.22461 A 90.000041 90.000926 0 0 0 129.4668 170.88477 z M 42.314453 166.32812 A 90.000041 90.000926 0 0 0 42.992188 166.74805 A 90 90 0 0 1 42.314453 166.32812 z M 43.71875 167.1875 A 90.000041 90.000926 0 0 0 44.359375 167.56836 A 90 90 0 0 1 43.71875 167.1875 z M 45.048828 167.9707 A 90.000041 90.000926 0 0 0 45.742188 168.36523 A 90 90 0 0 1 45.048828 167.9707 z M 45.742188 168.36523 A 90.000041 90.000926 0 0 0 46.439453 168.75586 A 90 90 0 0 1 45.742188 168.36523 z M 46.439453 168.75586 A 90.000041 90.000926 0 0 0 47.138672 169.13867 A 90 90 0 0 1 46.439453 168.75586 z M 47.962891 169.57812 A 90.000041 90.000926 0 0 0 48.548828 169.88672 A 90 90 0 0 1 47.962891 169.57812 z M 48.548828 169.88672 A 90.000041 90.000926 0 0 0 49.257812 170.25 A 90 90 0 0 1 48.548828 169.88672 z M 49.257812 170.25 A 90.000041 90.000926 0 0 0 49.970703 170.60742 A 90 90 0 0 1 49.257812 170.25 z M 49.970703 170.60742 A 90.000041 90.000926 0 0 0 51.40625 171.30469 A 90 90 0 0 1 49.970703 170.60742 z M 82.197266 170.3418 C 82.425466 170.33378 82.612331 170.36809 82.707031 170.46289 C 82.829571 170.58543 82.642126 170.89755 82.291016 171.1543 C 81.469256 171.75531 80.462891 171.75355 80.462891 171.15234 C 80.462891 170.78109 81.512676 170.3664 82.197266 170.3418 z M 127.99805 171.58594 A 90 90 0 0 1 127.34375 171.88672 A 90.000041 90.000926 0 0 0 127.99805 171.58594 z M 127.26172 171.92383 A 90 90 0 0 1 126.57422 172.23242 A 90.000041 90.000926 0 0 0 127.26172 171.92383 z M 126.57422 172.23242 A 90 90 0 0 1 125.84375 172.55469 A 90.000041 90.000926 0 0 0 126.57422 172.23242 z M 125.84375 172.55469 A 90 90 0 0 1 125.18164 172.83984 A 90.000041 90.000926 0 0 0 125.84375 172.55469 z M 52.853516 171.97656 A 90.000041 90.000926 0 0 0 53.582031 172.30273 A 90 90 0 0 1 52.853516 171.97656 z M 53.582031 172.30273 A 90.000041 90.000926 0 0 0 54.3125 172.62109 A 90 90 0 0 1 53.582031 172.30273 z M 125.04102 172.89844 A 90 90 0 0 1 124.375 173.17578 A 90.000041 90.000926 0 0 0 125.04102 172.89844 z M 124.375 173.17578 A 90 90 0 0 1 123.66406 173.4668 A 90.000041 90.000926 0 0 0 124.375 173.17578 z M 55.783203 173.24219 A 90.000041 90.000926 0 0 0 56.521484 173.54102 A 90 90 0 0 1 55.783203 173.24219 z M 123.60547 173.49219 A 90 90 0 0 1 122.99609 173.73438 A 90.000041 90.000926 0 0 0 123.60547 173.49219 z M 122.79492 173.8125 A 90 90 0 0 1 122.15234 174.06055 A 90.000041 90.000926 0 0 0 122.79492 173.8125 z M 122.15234 174.06055 A 90 90 0 0 1 121.40625 174.3418 A 90.000041 90.000926 0 0 0 122.15234 174.06055 z M 121.40625 174.3418 A 90 90 0 0 1 120.65625 174.61719 A 90.000041 90.000926 0 0 0 121.40625 174.3418 z M 120.65625 174.61719 A 90 90 0 0 1 119.94336 174.87305 A 90.000041 90.000926 0 0 0 120.65625 174.61719 z M 57.318359 173.85742 A 90.000041 90.000926 0 0 0 58.753906 174.40234 A 90 90 0 0 1 57.318359 173.85742 z M 58.753906 174.40234 A 90.000041 90.000926 0 0 0 59.503906 174.67578 A 90 90 0 0 1 58.753906 174.40234 z M 74.302734 174.70703 C 74.337334 174.67247 74.383047 174.72033 74.435547 174.85156 C 74.530647 175.08916 74.517573 175.37311 74.408203 175.48242 C 74.298833 175.5918 74.222128 175.39581 74.236328 175.04883 C 74.244228 174.85704 74.268134 174.74348 74.302734 174.70898 L 74.302734 174.70703 z M 119.86914 174.90039 A 90 90 0 0 1 119.15234 175.14844 A 90.000041 90.000926 0 0 0 119.86914 174.90039 z M 119.15234 175.14844 A 90 90 0 0 1 118.39648 175.40234 A 90.000041 90.000926 0 0 0 119.15234 175.14844 z M 118.39648 175.40234 A 90 90 0 0 1 115.35156 176.35547 A 90.000041 90.000926 0 0 0 118.39648 175.40234 z M 115.35156 176.35547 A 90 90 0 0 1 114.58594 176.57812 A 90.000041 90.000926 0 0 0 115.35156 176.35547 z M 61.009766 175.20312 A 90.000041 90.000926 0 0 0 61.765625 175.45703 A 90 90 0 0 1 61.009766 175.20312 z M 61.765625 175.45703 A 90.000041 90.000926 0 0 0 63.285156 175.94336 A 90 90 0 0 1 61.765625 175.45703 z M 63.285156 175.94336 A 90.000041 90.000926 0 0 0 64.048828 176.17773 A 90 90 0 0 1 63.285156 175.94336 z M 64.048828 176.17773 A 90.000041 90.000926 0 0 0 64.8125 176.4043 A 90 90 0 0 1 64.048828 176.17773 z M 64.8125 176.4043 A 90.000041 90.000926 0 0 0 65.580078 176.62305 A 90 90 0 0 1 64.8125 176.4043 z M 65.580078 176.62305 A 90.000041 90.000926 0 0 0 66.955078 177 A 90 90 0 0 1 65.580078 176.62305 z M 114.58398 176.57812 A 90 90 0 0 1 113.04688 177 A 90.000041 90.000926 0 0 0 114.58398 176.57812 z M 113.04688 177 A 90 90 0 0 1 112.27344 177.20117 A 90.000041 90.000926 0 0 0 113.04688 177 z M 112.27344 177.20117 A 90 90 0 0 1 111.5 177.39453 A 90.000041 90.000926 0 0 0 112.27344 177.20117 z M 111.5 177.39453 A 90 90 0 0 1 110.79102 177.56641 A 90.000041 90.000926 0 0 0 111.5 177.39453 z M 67.177734 177.05859 A 90.000041 90.000926 0 0 0 67.892578 177.24219 A 90 90 0 0 1 67.177734 177.05859 z M 67.892578 177.24219 A 90.000041 90.000926 0 0 0 68.666016 177.43555 A 90 90 0 0 1 67.892578 177.24219 z M 110.66602 177.5957 A 90 90 0 0 1 109.94727 177.76172 A 90.000041 90.000926 0 0 0 110.66602 177.5957 z M 109.94727 177.76172 A 90 90 0 0 1 109.16797 177.93555 A 90.000041 90.000926 0 0 0 109.94727 177.76172 z M 109.16797 177.93555 A 90 90 0 0 1 108.38867 178.10156 A 90.000041 90.000926 0 0 0 109.16797 177.93555 z M 108.38867 178.10156 A 90 90 0 0 1 107.76367 178.23047 A 90.000041 90.000926 0 0 0 108.38867 178.10156 z M 107.46484 178.28906 A 90 90 0 0 1 106.82422 178.41406 A 90.000041 90.000926 0 0 0 107.46484 178.28906 z M 106.82422 178.41406 A 90 90 0 0 1 104.4668 178.83008 A 90.000041 90.000926 0 0 0 106.82422 178.41406 z M 104.4668 178.83008 A 90 90 0 0 1 103.67969 178.95508 A 90.000041 90.000926 0 0 0 104.4668 178.83008 z M 103.67969 178.95508 A 90 90 0 0 1 102.89062 179.07227 A 90.000041 90.000926 0 0 0 103.67969 178.95508 z M 102.89062 179.07227 A 90 90 0 0 1 102.10938 179.18164 A 90.000041 90.000926 0 0 0 102.89062 179.07227 z M 102.08984 179.18555 A 90 90 0 0 1 101.33203 179.2832 A 90.000041 90.000926 0 0 0 102.08984 179.18555 z M 101.28516 179.28906 A 90 90 0 0 1 100.51758 179.38281 A 90.000041 90.000926 0 0 0 101.28516 179.28906 z M 100.51758 179.38281 A 90 90 0 0 1 99.724609 179.47266 A 90.000041 90.000926 0 0 0 100.51758 179.38281 z M 99.724609 179.47266 A 90 90 0 0 1 99.009766 179.54883 A 90.000041 90.000926 0 0 0 99.724609 179.47266 z "
       style="display:inline;fill:#00222b;stroke-width:0.930637"
       id="path847-6" />
  </g>
</svg>
