<?xml version="1.0" encoding="UTF-8" standalone="no"?>
<svg
   xmlns:dc="http://purl.org/dc/elements/1.1/"
   xmlns:cc="http://creativecommons.org/ns#"
   xmlns:rdf="http://www.w3.org/1999/02/22-rdf-syntax-ns#"
   xmlns:svg="http://www.w3.org/2000/svg"
   xmlns="http://www.w3.org/2000/svg"
   xmlns:sodipodi="http://sodipodi.sourceforge.net/DTD/sodipodi-0.dtd"
   xmlns:inkscape="http://www.inkscape.org/namespaces/inkscape"
   inkscape:version="1.0 (4035a4fb49, 2020-05-01)"
   sodipodi:docname="greenie_dark.svg"
   viewBox="0 0 180 180"
   height="180"
   width="180"
   id="svg833"
   version="1.1">
  <metadata
     id="metadata839">
    <rdf:RDF>
      <cc:Work
         rdf:about="">
        <dc:format>image/svg+xml</dc:format>
        <dc:type
           rdf:resource="http://purl.org/dc/dcmitype/StillImage" />
        <dc:title></dc:title>
      </cc:Work>
    </rdf:RDF>
  </metadata>
  <defs
     id="defs837" />
  <sodipodi:namedview
     inkscape:current-layer="layer1"
     inkscape:window-maximized="0"
     inkscape:window-y="0"
     inkscape:window-x="0"
     inkscape:cy="55.437171"
     inkscape:cx="120.79082"
     inkscape:zoom="2.7906114"
     showgrid="false"
     id="namedview835"
     inkscape:window-height="1094"
     inkscape:window-width="1738"
     inkscape:pageshadow="2"
     inkscape:pageopacity="0"
     guidetolerance="10"
     gridtolerance="10"
     objecttolerance="10"
     borderopacity="1"
     bordercolor="#666666"
     pagecolor="#ffffff"
     inkscape:document-rotation="0" />
  <g
     style="display:inline"
     inkscape:label="bg2"
     id="layer1"
     inkscape:groupmode="layer">
    <circle
       style="display:inline;fill:#00222b;stroke-width:0.930637"
       id="path847"
       cx="90"
       cy="90"
       r="90" />
  </g>
  <g
     style="display:inline"
     inkscape:label="circle"
     id="layer2"
     inkscape:groupmode="layer">
    <path
       d="M 90.000041,0 A 90.000041,90.000926 0 0 0 0,90.000926 90.000041,90.000926 0 0 0 71.186417,178.01302 c 0.352338,-0.96439 0.776911,-2.18249 1.23549,-3.59403 0.764569,-2.35341 1.588784,-4.76428 1.830136,-5.35787 0.419604,-1.03201 0.395541,-1.1161 -0.542413,-1.8864 -0.818918,-0.67254 -0.90008,-0.85919 -0.490178,-1.12904 0.270038,-0.17777 0.824664,-0.23921 1.233484,-0.13664 0.590537,0.14826 0.743302,0.0497 0.743302,-0.48616 0,-0.37101 0.146439,-0.76524 0.325447,-0.87588 0.202821,-0.12534 0.150464,-0.47535 -0.140629,-0.92614 -0.256928,-0.39786 -0.783945,-1.98093 -1.171206,-3.51969 -0.387259,-1.53876 -0.916283,-3.12677 -1.175223,-3.52771 -0.258939,-0.40096 -0.472338,-0.9927 -0.474107,-1.31586 -0.0017,-0.32319 -0.376829,-1.39107 -0.833706,-2.37257 -0.456872,-0.9815 -0.969573,-2.31542 -1.139063,-2.96321 -0.169492,-0.64778 -0.613435,-2.36272 -0.986383,-3.81097 -0.372947,-1.44824 -0.832898,-2.94038 -1.022546,-3.31677 -0.256027,-0.50816 -0.199075,-1.18675 0.222992,-2.63374 0.312638,-1.07184 0.612148,-2.39198 0.664955,-2.93507 0.05281,-0.54309 0.196678,-1.91072 0.319419,-3.03955 0.198148,-1.82238 0.154522,-2.07742 -0.391741,-2.2701 -1.683243,-0.59376 -2.24802,-2.71241 -1.108929,-4.16053 0.362059,-0.46029 0.65692,-0.92539 0.65692,-1.03262 0,-0.40285 -1.567216,-0.17206 -2.816518,0.41386 -0.712862,0.33432 -2.260592,0.86757 -3.437278,1.18528 -4.010567,1.08285 -5.159254,1.73667 -6.018755,3.42524 -4.11751,8.0893 -6.385307,10.85605 -9.787504,11.9412 -1.999372,0.63771 -3.087114,0.36036 -3.22433,-0.81964 -0.0871,-0.74894 -0.190975,-0.84234 -0.576563,-0.52234 -0.258431,0.21449 -0.470091,0.27111 -0.470091,0.12454 0,-0.14663 -0.424773,0.13924 -0.944195,0.63683 -0.780939,0.74819 -0.97795,0.81684 -1.141073,0.39174 -0.10849,-0.28275 -0.572324,-0.51429 -1.030582,-0.51429 -1.072906,0 -1.077811,-0.61419 -0.02611,-3.51163 0.444122,-1.22358 0.769008,-2.2625 0.721208,-2.31031 -0.0478,-0.0477 -0.374161,-0.13221 -0.725225,-0.18683 -0.351065,-0.0547 -0.836737,-0.2227 -1.078795,-0.37366 -0.25542,-0.15939 -0.593005,-0.12028 -0.805582,0.0922 -0.268949,0.26896 -0.261892,0.36562 0.02812,0.36562 0.217234,0 0.393752,0.1602 0.393752,0.3556 0,0.22167 -0.362519,0.2748 -0.964287,0.1427 -0.767098,-0.16848 -1.038724,-0.0722 -1.327903,0.46808 -0.51171,0.95614 -1.000173,0.84501 -0.986385,-0.225 0.0126,-0.98377 0.928937,-2.89868 0.984376,-2.05718 0.01817,0.27588 0.190762,0.13026 0.39174,-0.32946 0.197835,-0.45259 0.336617,-0.93612 0.307366,-1.07479 -0.121024,-0.57382 1.031119,-5.39243 1.587055,-6.63555 0.330063,-0.73807 0.770389,-2.06493 0.978348,-2.94916 0.503971,-2.14279 1.376587,-3.77685 2.657813,-4.97615 1.280051,-1.19822 2.714571,-3.37436 2.477012,-3.75875 -0.276184,-0.44688 0.615152,-1.00677 1.112946,-0.6991 0.361455,0.22337 0.310832,0.46515 -0.25915,1.26562 -0.387715,0.5445 -0.705137,1.06212 -0.705137,1.14913 0,0.0871 -0.665287,1.3224 -1.478569,2.74622 -1.718015,3.00773 -1.892895,3.68813 -0.496207,1.93062 0.543087,-0.68342 0.988393,-1.3643 0.988393,-1.51274 0,-0.14842 0.851498,-1.1269 1.892411,-2.17571 1.040916,-1.0488 3.696015,-4.05499 5.900225,-6.67975 2.20421,-2.62476 4.531038,-5.27722 5.170986,-5.89425 0.639947,-0.61704 1.092897,-1.2363 1.006474,-1.37613 -0.08642,-0.13985 -0.0072,-0.34836 0.176786,-0.46206 0.183979,-0.11371 0.33549,-0.34596 0.33549,-0.5163 0,-0.59487 -0.632133,-0.30039 -1.61317,0.74933 -0.543732,0.5818 -1.065264,0.98186 -1.157144,0.88998 -0.09188,-0.0919 0.399624,-0.78468 1.09085,-1.54087 0.691229,-0.75621 1.848905,-2.1582 2.573438,-3.11387 1.123278,-1.48161 6.904986,-8.28974 8.718755,-10.267749 0.462027,-0.503867 0.498397,-0.730276 0.180803,-1.112958 -0.330155,-0.397811 0.246599,-1.090867 3.379019,-4.062094 2.077801,-1.970877 4.222096,-3.902708 4.765182,-4.293124 l 0.988393,-0.709161 -0.853796,0.960279 c -3.752827,4.233099 -8.723219,12.222919 -12.370987,19.886587 -0.81859,1.71979 -2.103152,3.78901 -2.854689,4.5985 -0.751533,0.80946 -1.032092,1.19551 -0.624776,0.8558 1.028853,-0.85808 0.932643,-0.15227 -0.1125,0.82568 -0.870258,0.81431 -3.09777,3.70571 -3.09777,4.02192 0,0.0961 0.505923,-0.27132 1.12299,-0.81764 0.617069,-0.54631 1.186406,-0.94185 1.265626,-0.87792 0.07922,0.064 0.425102,-0.10614 0.76942,-0.37768 0.386993,-0.3052 0.274227,-0.0217 -0.295312,0.74131 -1.196081,1.60236 -0.900102,1.5625 0.930134,-0.12457 1.535669,-1.41554 1.836479,-1.28433 0.956251,0.41787 -0.946879,1.83107 -0.281323,1.28898 0.867856,-0.70716 0.622119,-1.08061 1.242354,-1.96679 1.378126,-1.96876 0.13577,-0.002 0.247099,-0.21362 0.247099,-0.47009 0,-0.25646 0.12006,-0.51623 0.267188,-0.57658 0.147126,-0.0604 0.881843,-0.9465 1.633259,-1.97077 0.751421,-1.02426 2.621665,-2.93199 4.156475,-4.23889 2.873011,-2.446391 3.106334,-2.75153 3.387055,-4.431736 0.09074,-0.543096 0.272664,-1.062622 0.403795,-1.153138 0.131139,-0.09051 0.330329,-0.41207 0.441964,-0.715192 0.111633,-0.303123 0.729575,-0.80108 1.374109,-1.10693 0.644531,-0.30586 1.173213,-0.771003 1.173213,-1.032604 0,-0.261599 0.136162,-0.390604 0.30335,-0.287272 0.167187,0.103337 0.640246,-0.29547 1.052679,-0.885948 0.412436,-0.590481 0.848128,-1.147 0.968303,-1.237514 0.120176,-0.09053 0.538073,-0.793584 0.928126,-1.562962 0.390055,-0.76938 0.912921,-1.400239 1.161161,-1.400239 0.248237,0 0.538294,-0.331974 0.644867,-0.739292 0.194898,-0.744904 2.393632,-2.003807 4.214733,-2.412749 0.484733,-0.10885 0.969113,-0.42375 1.074778,-0.699115 0.145195,-0.378363 0.0504,-0.439081 -0.387723,-0.24911 -0.318853,0.138257 -1.062995,0.318823 -1.653349,0.401791 -0.923896,0.129846 -1.041749,0.06957 -0.847769,-0.435941 0.179573,-0.467963 0.104465,-0.541533 -0.369641,-0.359603 -0.386793,0.148418 -0.205783,-0.215455 0.518303,-1.040636 1.235142,-1.40759 1.753328,-1.475929 1.25558,-0.166741 -0.520859,1.369972 -0.170966,1.210056 1.028573,-0.470095 0.613703,-0.859597 1.600294,-2.025065 2.193749,-2.589536 1.06511,-1.013085 1.431506,-2.09935 0.707144,-2.09935 -0.24357,0 -0.312537,-0.448411 -0.198884,-1.295774 0.0956,-0.712706 0.09502,-1.37345 0,-1.468541 -0.320916,-0.32092 -2.648283,2.167449 -3.226341,3.449364 -0.315448,0.699547 -0.690452,1.199484 -0.833705,1.110951 -0.143247,-0.08854 -0.354376,-0.01113 -0.468082,0.172768 -0.282667,0.457371 -1.484597,0.424939 -1.484597,-0.04018 0,-0.206372 0.545554,-0.837232 1.211384,-1.400236 1.835659,-1.552196 4.048068,-3.93778 4.052011,-4.369466 0.002,-0.211201 -0.164371,-0.439838 -0.369644,-0.508264 -0.406714,-0.135573 0.372024,-1.075024 1.108929,-1.33796 0.229517,-0.08189 0.323477,-0.24942 0.208929,-0.373665 -0.290786,-0.315408 -2.315876,1.113447 -3.869197,2.730162 -1.653611,1.721093 -2.052597,1.752502 -0.709152,0.05626 1.264704,-1.596838 3.983827,-3.953082 5.199108,-4.504066 0.976248,-0.442609 2.696185,-1.747887 2.318306,-1.759839 -0.485592,-0.01538 -2.133391,0.847129 -3.600002,1.884394 -0.839436,0.593693 -2.022903,1.249791 -2.631697,1.458499 -1.580883,0.541966 -2.617789,1.273385 -2.370538,1.673453 0.127701,0.206638 0.05187,0.245204 -0.18884,0.09643 -0.225378,-0.139288 -0.680933,0.006 -1.040624,0.331476 -1.41242,1.278233 -0.853761,0.112942 1.01049,-2.107387 3.204043,-3.816031 1.631399,-2.850881 -3.521652,2.159619 -0.971763,0.944885 -1.972041,1.833499 -2.221876,1.974797 -0.249833,0.1413 -1.104055,0.867354 -1.898439,1.613188 -0.79438,0.745831 -1.743431,1.450829 -2.109376,1.566978 -0.36594,0.116149 -1.097531,0.676542 -1.627233,1.245549 -0.529702,0.569006 -0.780684,0.929489 -0.556474,0.801573 0.276675,-0.157844 0.343578,-0.06483 0.206921,0.291297 -0.11075,0.288598 -0.368563,0.470079 -0.572544,0.401788 -0.203981,-0.06828 -0.777843,0.311399 -1.27567,0.84376 -0.49783,0.532356 -0.906029,0.802859 -0.906029,0.602684 0,-0.821801 -1.035715,0.01637 -5.265404,4.250939 -4.849168,4.854849 -6.219476,6.100527 -5.729466,5.211214 0.664777,-1.206454 3.75487,-4.561664 6.776123,-7.356739 1.761115,-1.629272 3.286238,-3.169347 3.389063,-3.42124 0.155275,-0.380366 0.08888,-0.386012 -0.39576,-0.03415 -0.320943,0.233017 0.0091,-0.101356 0.733262,-0.743309 0.887021,-0.786374 1.393997,-1.042613 1.556919,-0.787509 0.236109,0.369712 0.291539,0.294649 0.375671,-0.508265 0.05906,-0.563686 3.548472,-3.198447 4.256921,-3.214318 0.327485,-0.0074 0.517494,-0.140596 0.421875,-0.295317 -0.196789,-0.318411 0.924297,-1.423044 2.010938,-1.982832 0.397747,-0.204901 1.434787,-0.959386 2.304241,-1.675465 2.969839,-2.445947 3.557583,-2.869183 5.767637,-4.154504 1.216539,-0.707522 2.309497,-1.508386 2.428795,-1.77993 0.119291,-0.271545 0.289163,-2.088618 0.379689,-4.037988 0.141153,-3.039426 0.09669,-3.517404 -0.321429,-3.356954 -0.268162,0.102895 -0.661609,0.957142 -0.873884,1.898457 -0.59854,2.654182 -1.017597,3.017466 -1.022546,0.887955 -0.0063,-2.63631 1.289023,-7.033425 3.778797,-12.835176 4.46493,-10.404345 5.647334,-12.344818 10.532806,-17.272948 4.35228,-4.390258 7.49903,-5.582641 14.0344,-5.31568 3.43787,0.140432 3.47934,0.151266 9.97634,2.509177 1.07654,0.390697 2.11358,0.920393 2.30424,1.177245 0.20035,0.269862 1.49246,0.627327 3.0616,0.847774 1.95488,0.274644 2.71609,0.513528 2.71609,0.851796 0,0.25843 0.18353,0.402397 0.40981,0.319423 0.22627,-0.08299 0.37895,-0.30802 0.3375,-0.500228 -0.0987,-0.458011 2.66293,-0.200985 13.73507,1.275683 4.85231,0.647146 10.31275,2.305322 9.67898,2.939093 -0.47641,0.476427 -7.95933,1.257455 -17.05177,1.781937 -7.0882,0.408869 -8.25932,0.409246 -8.66452,0.0041 -0.55838,-0.558394 -0.44227,-0.548681 -8.9779,-0.652908 -5.375,-0.06564 -7.13493,0.0236 -8.64844,0.443976 -1.7785,0.494001 -3.21793,1.48097 -2.78839,1.91051 0.1044,0.104369 1.79543,0.01726 3.7567,-0.192856 6.36458,-0.68185 13.76001,-0.551965 10.3942,0.182812 -0.49783,0.108688 -1.27511,0.325141 -1.72767,0.480139 -1.31632,0.450808 -3.07866,0.781245 -3.70247,0.693088 -0.33759,-0.0477 -0.57656,0.130435 -0.57656,0.431924 0,0.282925 -0.24095,0.514291 -0.53639,0.514291 -0.29542,0 -1.00455,0.288294 -1.575,0.640855 -0.57044,0.352562 -1.55009,0.731182 -2.17769,0.839739 -1.91117,0.330593 -3.98539,1.036814 -6.49285,2.211855 -1.9632,0.920001 -2.50767,1.349703 -3.04554,2.404713 -0.79477,1.558918 -0.79381,1.54995 -0.0785,1.410282 0.66193,-0.129207 2.05715,0.957596 2.05715,1.603141 0,0.238898 0.0609,0.435941 0.13461,0.435941 0.0738,0 1.10651,-0.973933 2.29619,-2.163637 1.1897,-1.189701 2.31659,-2.069992 2.50313,-1.954708 0.18653,0.115281 0.7347,-0.100865 1.21943,-0.482147 1.29564,-1.019168 1.59833,-0.203384 0.71317,1.926582 l -0.69711,1.677471 0.71719,1.731715 c 0.39445,0.952589 1.01603,2.325465 1.38214,3.049584 0.3661,0.724123 0.47052,1.082945 0.23104,0.797555 -0.54645,-0.651131 -1.91654,-1.034696 -1.91654,-0.53639 0,0.200515 0.81836,2.02492 1.82011,4.05406 2.03733,4.126833 2.72841,7.118699 2.91696,12.634281 0.0588,1.719789 0.0414,2.756842 -0.0403,2.304266 -0.17366,-0.962074 -0.99623,-1.974797 -1.60314,-1.974797 -0.72896,0 -1.99892,1.404481 -3.04553,3.366996 -0.55315,1.037252 -1.28823,2.296963 -1.63325,2.798469 -1.67938,2.441007 -5.40118,8.818774 -6.77412,11.609718 -1.22399,2.488171 -1.43414,3.147716 -1.03259,3.232399 0.46059,0.09713 0.64453,0.482366 0.54242,1.129025 -0.0214,0.135769 0.17035,0.24509 0.42588,0.24509 0.34871,0 0.44417,-0.406402 0.3817,-1.629251 -0.0762,-1.492084 -0.0327,-1.600834 0.52232,-1.303809 0.37585,0.201151 0.6067,0.204339 0.6067,0.01014 0,-0.172315 -0.18554,-0.386822 -0.41183,-0.478131 -0.32913,-0.132808 -0.32913,-0.17207 0,-0.192859 0.2383,-0.01506 0.41496,-0.475316 0.41787,-1.094876 0.003,-0.588349 0.14794,-1.293428 0.32344,-1.564975 0.24894,-0.385243 0.31949,-0.393172 0.32343,-0.04219 0.003,0.287009 0.24291,0.387072 0.66295,0.277233 0.77607,-0.202954 0.8615,0.176412 0.16875,0.751349 -0.63669,0.528414 -0.34083,0.985033 0.52834,0.817643 0.50308,-0.09689 0.63039,9.72e-4 0.48818,0.371654 -0.14341,0.373716 -0.0355,0.451156 0.42389,0.305361 0.39515,-0.125412 0.69081,-0.0063 0.81962,0.329467 0.25905,0.675073 0.86385,0.307875 0.86385,-0.524335 0,-0.351377 0.16315,-0.638845 0.36362,-0.638845 0.2004,0 0.2861,-0.203765 0.19084,-0.452014 -0.2022,-0.526914 1.80808,-5.761365 2.3384,-6.089125 0.19784,-0.12227 0.60192,-0.662392 0.89798,-1.201354 l 0.5384,-0.980364 -0.12452,1.016527 c -0.12159,0.988385 -0.10195,1.005154 0.69708,0.590631 0.48308,-0.25063 0.86705,-0.77855 0.93415,-1.279701 0.10277,-0.767605 1.3248,-3.455391 1.57099,-3.455391 0.18067,0 -0.7973,3.418975 -1.5067,5.267462 -0.38211,0.995669 -0.90268,2.460514 -1.15715,3.256508 -0.25445,0.795996 -1.81397,3.873374 -3.4674,6.838462 -2.49593,4.4759 -4.40538,8.693158 -5.45626,12.057708 -0.11287,0.36141 -0.37787,0.52061 -0.677,0.40582 -0.5707,-0.21899 -1.47446,0.41764 -1.20737,0.84978 0.10265,0.16608 0.45552,0.14354 0.81763,-0.0502 0.66179,-0.35418 0.9432,0.11404 0.30536,0.50825 -0.18398,0.11372 -0.24874,0.34664 -0.14263,0.51832 0.1061,0.17167 -0.33613,1.42694 -0.98236,2.78841 -0.64625,1.36148 -1.17523,2.622 -1.17523,2.80248 0,0.18049 -0.20702,0.6578 -0.46004,1.05873 -0.68059,1.07851 -3.81898,8.65124 -3.81898,9.21505 0,0.26683 0.32166,0.6963 0.71317,0.95625 0.64078,0.42547 0.67395,0.58282 0.32946,1.57102 -0.21048,0.60377 -0.3837,1.44701 -0.3837,1.87434 0,0.42733 -0.29885,1.03453 -0.66497,1.34801 -0.579516,0.49621 -0.638466,0.81476 -0.45199,2.46297 0.15074,1.33238 0.0889,2.04375 -0.208927,2.4027 -0.297391,0.35833 -0.320772,0.6134 -0.0763,0.85782 0.375027,0.37502 1.731697,0.0869 1.731697,-0.36764 0,-0.72026 1.30081,0.16052 1.48661,1.00647 0.24588,1.11957 -0.32604,4.13226 -1.06674,5.61703 -0.37053,0.74274 -0.54773,2.16572 -0.60268,4.86164 -0.0511,2.50664 -0.25711,4.30419 -0.6047,5.25142 -0.29067,0.79214 -0.52834,1.85249 -0.52834,2.3565 0,0.504 -0.445313,2.27763 -0.988394,3.93954 -0.543082,1.66193 -0.98638,3.23187 -0.98638,3.48954 0,0.25766 -0.143922,0.72631 -0.319422,1.04063 -0.461253,0.8262 -1.381972,4.37912 -1.384151,5.34383 -9.73e-4,0.45256 -0.128536,0.97763 -0.285267,1.1672 -0.156731,0.18956 -0.346976,0.85552 -0.421876,1.4806 -0.163929,1.36802 -0.873859,3.01189 -1.458482,3.37904 -0.233902,0.14695 -0.334907,0.41279 -0.225,0.59063 0.109898,0.17783 0.02398,0.5363 -0.192858,0.79756 -0.216825,0.26127 -0.305868,0.83139 -0.196874,1.26563 0.145669,0.58041 0.04541,0.82995 -0.375669,0.94019 -0.390236,0.10212 -0.778213,0.90008 -1.217413,2.50517 L 90.57655,180 A 90.000041,90.000926 0 0 0 180,90.00098 90.000041,90.000926 0 0 0 89.999967,5.4e-5 Z m 26.969889,26.837553 c -0.11439,-0.0048 -0.24482,0.01473 -0.36362,0.06228 -0.26257,0.105071 -0.18455,0.183093 0.19888,0.198887 0.34696,0.01423 0.54331,-0.06341 0.43393,-0.17277 -0.0547,-0.05469 -0.1548,-0.08368 -0.26919,-0.0884 z m -0.75336,1.500686 c -0.71342,0.02178 -1.1933,0.162753 -1.1933,0.417861 0,0.127816 0.38118,0.437347 0.84777,0.68706 0.46659,0.249714 0.99309,0.723649 1.16921,1.05269 0.3509,0.655673 0.94618,0.489921 0.94618,-0.26317 0,-0.59299 0.32871,-0.599871 1.16119,-0.02612 0.38561,0.265774 1.62525,0.462647 3.05555,0.486165 2.20453,0.03625 2.47608,-0.03326 3.21229,-0.827686 0.9683,-1.044814 0.8161,-1.317491 -0.44396,-0.795546 -1.05206,0.43577 -3.22804,0.284755 -6.1614,-0.427906 -0.93284,-0.226633 -1.8801,-0.325121 -2.59353,-0.303351 z m -2.89286,0.431922 c -0.0893,-0.0049 -0.39963,0.266508 -0.79956,0.735278 -0.51043,0.598272 -0.52113,0.65242 -0.0522,0.289287 0.52327,-0.405219 0.57657,-0.342306 0.57657,0.681035 0,0.619566 0.17851,1.303536 0.39576,1.520774 0.46043,0.460429 1.54716,0.50929 2.19576,0.09844 0.66015,-0.41817 0.55625,-2.042964 -0.16474,-2.577482 -0.3612,-0.267794 -0.99948,-0.38262 -1.53883,-0.277235 -0.56256,0.109914 -0.84352,0.05326 -0.72119,-0.144637 0.13564,-0.219353 0.16216,-0.322496 0.10848,-0.325452 z m 1.4384,1.233496 c 0.50936,0.06889 0.95603,0.473895 0.85379,1.010501 -0.13566,0.712197 -1.3545,0.893917 -1.86629,0.277237 -0.31106,-0.374813 -0.28421,-0.587654 0.13255,-1.004476 0.24492,-0.244922 0.57429,-0.32459 0.87991,-0.283262 z m 15.80626,0.08436 c -0.18383,0 -0.42014,0.222655 -0.52433,0.494202 -0.10423,0.271547 -0.13696,0.492193 -0.0744,0.492193 0.0626,0 0.29695,-0.220646 0.5223,-0.492193 0.23617,-0.284576 0.269,-0.494202 0.0763,-0.494202 z m 16.54553,3.053602 -2.30223,0.0241 2.30223,0.212949 c 1.2672,0.117097 3.11863,0.218522 4.11429,0.225003 l 1.81208,0.01211 -1.81208,-0.251119 c -0.99566,-0.137636 -2.84709,-0.237059 -4.11429,-0.222995 z m -30.11585,4.558306 c -0.14906,0 -0.2987,0.02265 -0.41183,0.0683 -0.22628,0.09131 -0.0408,0.166745 0.41183,0.166745 0.45258,0 0.6381,-0.07543 0.41182,-0.166745 -0.11307,-0.04565 -0.26268,-0.0683 -0.41182,-0.0683 z m -5.04041,8.108121 -0.59865,0.77947 c -0.73991,0.96212 -0.7576,1.510171 -0.0985,3.087755 0.37766,0.903837 0.61517,1.136617 0.88193,0.869876 0.26508,-0.265085 0.48278,-0.264931 0.79955,-0.0022 0.86502,0.717914 0.46337,-1.042153 -0.4259,-1.866313 -0.6742,-0.624843 -0.82808,-1.023821 -0.70915,-1.834171 z M 95.76366,68.424807 c -0.05522,-0.02307 -0.16092,-0.008 -0.307367,0.04821 -0.570214,0.218814 -0.674342,0.454023 -0.200894,0.454023 0.170345,0 0.399672,-0.146488 0.51027,-0.32545 0.05765,-0.09329 0.05321,-0.15372 -0.0022,-0.176788 z m -1.235492,0.964296 c 0.01457,-0.06298 -0.143379,0.02157 -0.464063,0.216966 -0.394431,0.240326 -0.873583,0.741142 -1.064732,1.112958 -0.19115,0.371819 -0.595723,1.016203 -0.897992,1.432381 -0.54664,0.752645 -0.543582,0.755561 0.325446,0.359602 0.480537,-0.218949 0.873884,-0.597253 0.873884,-0.839741 0,-0.242486 -0.03711,-0.502648 -0.08237,-0.578579 -0.04526,-0.07593 0.286714,-0.539636 0.739287,-1.030588 0.367954,-0.399161 0.555927,-0.610019 0.570536,-0.672999 z m -13.666747,0.877912 c -0.127915,-0.0038 -0.318709,0.09646 -0.486163,0.265178 -0.322645,0.325072 -0.284272,0.363446 0.184823,0.184825 0.324607,-0.123612 0.507144,-0.308485 0.405804,-0.409825 -0.02534,-0.02533 -0.06183,-0.03892 -0.104466,-0.04018 z m 11.308263,0.102452 c -0.118472,0.01031 -0.349458,0.238421 -0.63683,0.677013 -0.427366,0.652253 -0.442188,0.78557 -0.07032,0.642866 0.258148,-0.09906 0.558193,-0.411635 0.666965,-0.695096 0.164155,-0.427787 0.158645,-0.635174 0.04018,-0.624783 z m -11.266076,1.699571 c 0.10872,-0.01846 0.214265,0.01342 0.307366,0.106479 0.199615,0.199618 -0.03037,0.744672 -0.628796,1.494657 -1.02159,1.280363 -1.325892,1.442106 -1.325894,0.705142 0,-0.261491 0.152133,-0.445029 0.337502,-0.409826 0.185364,0.0352 0.398619,-0.232587 0.474107,-0.594648 0.152329,-0.73059 0.509552,-1.24645 0.835715,-1.301799 z m 21.814962,1.787971 c -0.79348,0.03396 -2.05211,0.411689 -3.11384,1.020548 -2.01188,1.15374 -5.317634,4.462804 -5.317634,5.321705 0,0.317484 -0.222653,0.576569 -0.494197,0.576569 -0.271542,0 -0.492188,0.148435 -0.492188,0.329469 0,0.181029 0.369082,0.329468 0.821653,0.329468 0.658286,0 0.823661,-0.165378 0.823661,-0.823671 0,-0.512007 0.186996,-0.821662 0.494198,-0.821662 0.271541,0 0.495441,-0.185544 0.498214,-0.411833 0.0036,-0.290586 0.09154,-0.27604 0.29933,0.05223 0.226095,0.357171 0.319604,0.282651 0.405802,-0.327461 0.07671,-0.543043 0.295089,-0.763255 0.689064,-0.697104 0.36177,0.06074 0.574552,-0.11448 0.574552,-0.468086 0,-0.309655 0.09029,-0.474249 0.19889,-0.36563 0.108616,0.108621 0.700357,-0.304594 1.315845,-0.920098 0.61551,-0.615504 1.11978,-0.939454 1.12098,-0.719203 9.7e-4,0.220255 0.28088,-0.02086 0.62076,-0.536391 0.43996,-0.667304 0.67532,-0.810011 0.81964,-0.4942 0.15766,0.344971 0.24645,0.352112 0.39577,0.03214 0.1056,-0.226289 0.40046,-0.411836 0.65691,-0.411836 0.25646,0 0.46809,-0.148434 0.46809,-0.329467 0,-0.253314 -0.3094,-0.355869 -0.78549,-0.335496 z m -10.512726,0.526347 c -0.194661,0.0552 -0.465414,0.296559 -0.687053,0.634826 -0.631447,0.963722 -0.21893,1.098304 0.598661,0.194869 0.321069,-0.354783 0.431522,-0.709395 0.253125,-0.819652 -0.04325,-0.02674 -0.09985,-0.02846 -0.164733,-0.01014 z m -11.55938,0.468085 c 0.07983,0 0.146651,0.148434 0.146651,0.329466 0,0.181032 -0.157844,0.32947 -0.349555,0.32947 -0.191711,0 -0.256525,-0.148435 -0.144637,-0.32947 0.111877,-0.18103 0.267713,-0.329466 0.347541,-0.329466 z m 2.266073,0 c 0.06721,0 0.04445,0.296873 -0.05022,0.658936 -0.09468,0.362059 -0.307821,0.656925 -0.474108,0.656925 -0.167025,0 -0.14441,-0.293246 0.05021,-0.656925 0.193764,-0.362063 0.406913,-0.658936 0.474108,-0.658936 z m -6.257815,0.765409 c 0.18,-0.03994 0.126279,0.06536 -0.134608,0.379692 -0.474007,0.571146 -0.664954,0.63019 -0.664954,0.206921 0,-0.161656 0.243254,-0.388211 0.540401,-0.502235 0.112942,-0.04333 0.199152,-0.07107 0.259152,-0.08437 z m 22.226801,4.22281 c -0.09763,0.01 -0.208448,0.04812 -0.309375,0.110489 -0.263456,0.162818 -0.246532,0.371156 0.06036,0.741302 0.385072,0.464596 0.438032,0.459962 0.538382,-0.05424 0.0613,-0.313906 0.0342,-0.648839 -0.0603,-0.743311 -0.0472,-0.04723 -0.131368,-0.06422 -0.229018,-0.05423 z m -6.239741,1.26564 c -0.181028,0 -0.329464,0.148434 -0.329464,0.329467 0,0.181031 0.148435,0.329469 0.329464,0.329469 0.181029,0 0.329465,-0.148434 0.329465,-0.329469 0,-0.181032 -0.148434,-0.329467 -0.329465,-0.329467 z M 88.5737,83.409564 c -0.109489,0 -1.646957,0.736522 -3.415181,1.637294 -2.257288,1.149915 -2.870004,1.575336 -2.06116,1.428362 0.633599,-0.115134 1.984091,-0.630393 3.00335,-1.145099 1.625687,-0.820944 3.042383,-1.920557 2.472991,-1.920557 z m 25.98752,0.443978 c -0.0993,0.01762 -0.26506,0.14323 -0.52635,0.379692 -0.67619,0.611948 -0.86013,1.151127 -0.39375,1.151127 0.14482,0 0.44171,-0.178525 0.65895,-0.395763 0.21722,-0.217236 0.39374,-0.610494 0.39374,-0.873893 0,-0.19008 -0.0334,-0.278781 -0.13255,-0.261163 z m -47.971234,0.542417 c 0.09051,0 -0.183536,0.371093 -0.608708,0.82367 -0.425169,0.452573 -0.847653,0.823667 -0.938169,0.823667 -0.09051,0 0.183536,-0.371094 0.608707,-0.823667 0.42517,-0.452577 0.847655,-0.82367 0.93817,-0.82367 z m 11.607595,3.969684 c 0.04292,-0.01587 0.07719,-0.01326 0.100456,0.01014 0.07999,0.08 -0.136489,0.512417 -0.482144,0.962286 -0.345648,0.449871 -0.628517,0.671216 -0.626785,0.490184 0.0038,-0.381045 0.708029,-1.351019 1.008483,-1.462514 z m 4.917859,0.309377 c -0.191713,0 -0.347547,0.148434 -0.347547,0.329468 0,0.181031 0.06482,0.329468 0.144639,0.329468 0.07983,0 0.235664,-0.148434 0.347546,-0.329468 0.111878,-0.181033 0.04706,-0.329468 -0.144638,-0.329468 z m 15.617417,0.767419 c -0.02866,-0.007 -0.05468,-0.0015 -0.0763,0.02009 -0.08628,0.08628 -0.05909,0.315191 0.06026,0.508264 0.324543,0.525141 0.513853,0.423295 0.291293,-0.156698 -0.08051,-0.209515 -0.18927,-0.35053 -0.27523,-0.371655 z m 10.098893,0.245091 c -0.0262,0.02618 0.0666,0.213118 0.25514,0.580586 0.21685,0.422822 0.48429,0.676855 0.59463,0.566524 0.11033,-0.110323 -0.0665,-0.454924 -0.39374,-0.767418 -0.28434,-0.271583 -0.42985,-0.405871 -0.45603,-0.379692 z m -0.10446,1.159164 c -0.0832,-0.03346 -0.27857,0.07766 -0.50426,0.303352 -0.46245,0.462463 -0.47526,0.593031 -0.0824,0.841752 0.71028,0.449626 1.04916,0.36019 0.82768,-0.216969 -0.10988,-0.286344 -0.19887,-0.66661 -0.19887,-0.845767 0,-0.04479 -0.0144,-0.07121 -0.0422,-0.08237 z m -9.50225,0.791529 c -0.18103,0 -0.32946,0.304265 -0.32946,0.677014 0,0.372747 0.14843,0.585993 0.32946,0.474113 0.18103,-0.111894 0.32947,-0.416162 0.32947,-0.677022 0,-0.26086 -0.14845,-0.474105 -0.32947,-0.474105 z m -41.81185,1.689519 c 0.01423,0.03991 -0.140187,0.215334 -0.452008,0.566534 -0.696576,0.784539 -0.853796,0.855324 -0.853796,0.387722 0,-0.174652 0.331973,-0.491404 0.739287,-0.705143 0.368301,-0.193271 0.552245,-0.289023 0.566517,-0.249113 z m 49.4739,0.08033 c -0.0345,0.03456 -0.0584,0.149809 -0.0662,0.341521 -0.0142,0.34697 0.0633,0.541291 0.17277,0.431923 0.10937,-0.109375 0.12126,-0.393218 0.0262,-0.63081 -0.0525,-0.131286 -0.098,-0.177246 -0.1326,-0.142626 z m -1.39017,0.204916 c -0.19172,0 -0.34754,0.148434 -0.34754,0.329463 0,0.181031 0.0648,0.329466 0.14464,0.329466 0.0798,0 0.23767,-0.148435 0.34956,-0.329466 0.11188,-0.181029 0.0451,-0.329463 -0.14665,-0.329463 z m -2.98126,0.658929 c -0.18102,0 -0.32945,0.294872 -0.32945,0.656934 0,0.36206 0.14843,0.658929 0.32945,0.658929 0.18104,0 0.32948,-0.296878 0.32948,-0.658929 0,-0.362072 -0.14844,-0.656934 -0.32948,-0.656934 z m -4.327225,1.018543 c -0.04676,-0.01031 -0.160073,0.12924 -0.341521,0.44196 -0.383263,0.660569 -1.59265,3.83202 -1.575002,4.13043 0.0054,0.0931 0.1629,-0.0932 0.349555,-0.41385 0.186651,-0.32062 0.457326,-0.509716 0.602676,-0.41988 0.14536,0.0898 0.263417,-0.23992 0.261167,-0.733277 -0.002,-0.493347 0.165825,-1.314509 0.373656,-1.824115 0.298898,-0.732931 0.407534,-1.164389 0.329469,-1.181268 z m -26.48372,0.409827 c 0.118031,-0.02282 0.200893,0.04299 0.200893,0.178789 0,0.181033 -0.148435,0.420486 -0.329464,0.532376 -0.18103,0.111878 -0.329466,0.05453 -0.329466,-0.126573 0,-0.18103 0.148435,-0.420488 0.329466,-0.532366 0.04526,-0.02798 0.08923,-0.04464 0.128569,-0.05225 z m 35.662525,0.245095 c -0.0599,-0.01687 -0.16811,0.115543 -0.37166,0.383702 -0.24049,0.316803 -0.61468,0.574567 -0.8317,0.574567 -0.217,0 -0.31231,0.135293 -0.21094,0.299328 0.34576,0.559448 1.49947,-0.02172 1.48863,-0.749335 -0.005,-0.326893 -0.0146,-0.491405 -0.0743,-0.508262 z m -51.589317,0.630809 c 0.01698,0.01697 -0.08257,0.148793 -0.287277,0.409829 -0.429983,0.548267 -0.701116,0.722906 -0.701116,0.452015 0,-0.06828 0.259762,-0.328128 0.576562,-0.576577 0.261019,-0.204709 0.39484,-0.30226 0.411831,-0.285267 z m 14.514515,1.645324 c 0.614134,0 0.510377,0.560397 -0.225,1.215425 -0.437635,0.38983 -0.795537,0.65291 -0.795537,0.5846 0,-0.38305 0.803402,-1.800025 1.020537,-1.800025 z m 22.843537,2.469005 -0.460045,0.80559 c -0.328817,0.57868 -0.352189,0.84422 -0.08237,0.93415 0.206989,0.069 0.400941,0.66817 0.429913,1.33194 l 0.05223,1.20538 0.132594,-1.06876 c 0.07302,-0.58836 0.08686,-1.55119 0.03014,-2.13954 z m 9.586625,1.55895 c -0.0393,-0.004 -0.0923,0.0152 -0.15872,0.0563 -0.20744,0.1282 -0.37767,0.44629 -0.37767,0.70715 0,0.26087 -0.1706,0.47411 -0.3797,0.47411 -0.22744,0 -0.16118,0.24254 0.16472,0.60267 0.29961,0.33107 0.54443,0.80108 0.54443,1.04466 0,0.28215 0.31788,0.15276 0.8759,-0.35557 0.48177,-0.43888 0.75438,-0.58978 0.6067,-0.3355 -0.18067,0.31108 -0.14322,0.38504 0.1125,0.22701 0.209,-0.12917 0.3797,-0.43151 0.3797,-0.673 0,-0.54457 -1.09641,-1.00591 -1.2556,-0.52836 -0.2544,0.76327 -0.71666,0.29003 -0.51226,-0.52434 0.11551,-0.46024 0.11794,-0.68228 0,-0.69509 z m -17.805156,0.0522 c -0.100308,0.0239 -0.226718,0.18648 -0.319419,0.42992 -0.17862,0.46909 -0.140253,0.50747 0.18482,0.18482 0.224945,-0.22328 0.32634,-0.4893 0.225,-0.59064 -0.02533,-0.0253 -0.05696,-0.0321 -0.09039,-0.0241 z m -8.96987,2.29824 c -0.03459,0.0345 -0.0584,0.14981 -0.06629,0.34152 -0.01423,0.34697 0.06339,0.54129 0.172768,0.43192 0.109374,-0.10937 0.121205,-0.39321 0.02612,-0.6308 -0.05253,-0.1313 -0.09798,-0.17725 -0.132593,-0.14263 z m 22.795319,0.006 c -0.100291,0.0239 -0.226711,0.18647 -0.319411,0.42991 -0.178621,0.46911 -0.142269,0.50747 0.182807,0.18482 0.224941,-0.22328 0.326328,-0.48929 0.225,-0.59063 -0.02534,-0.0253 -0.05488,-0.0321 -0.08834,-0.0241 z m -34.768539,0.016 c 0.02218,-0.008 0.03214,0.002 0.03214,0.0261 0,0.39417 -2.781218,4.08609 -3.085716,4.09626 -0.157941,0.005 -0.143117,-0.17551 0.03214,-0.40179 2.113002,-2.72809 2.866201,-3.6612 3.021429,-3.72058 z m 37.060736,0.83974 c -0.27155,0 -0.4942,0.14844 -0.4942,0.32947 0,0.18103 0.22265,0.32947 0.4942,0.32947 0.27154,0 0.49419,-0.14844 0.49419,-0.32947 0,-0.18103 -0.22265,-0.32947 -0.49419,-0.32947 z m -12.91943,0.33952 c -0.135769,0.005 -0.586299,0.70804 -1.000447,1.56296 -0.414147,0.85492 -0.52088,1.25805 -0.239062,0.89599 0.281812,-0.36205 0.730331,-0.91863 0.998436,-1.23751 0.522539,-0.62149 0.644098,-1.23619 0.241073,-1.22144 z m -11.778354,0.14262 c -0.05953,-0.0222 -0.100456,0.16684 -0.100456,0.50626 0,0.45259 0.07342,0.63812 0.164731,0.41182 0.09131,-0.22628 0.09131,-0.59736 0,-0.82366 -0.02282,-0.0566 -0.04444,-0.087 -0.06429,-0.0944 z m 5.006252,0.28729 c -0.154914,-0.1549 -1.868305,2.64916 -1.868305,3.05761 0,0.13899 0.452111,-0.46094 1.004466,-1.33193 0.552354,-0.87099 0.941629,-1.6479 0.863839,-1.72568 z m 21.501582,0.3596 c -0.33549,0 -0.53791,0.11691 -0.45001,0.25915 0.088,0.14223 0.29035,0.25715 0.45001,0.25715 0.15965,0 0.3621,-0.11491 0.45,-0.25715 0.0879,-0.14225 -0.11453,-0.25915 -0.45,-0.25915 z m -17.005597,2.94713 c -0.02965,-7.6e-4 -0.06785,0.0113 -0.114514,0.0402 -0.178956,0.11061 -0.325446,0.34195 -0.325446,0.51228 0,0.47347 0.237215,0.36934 0.456026,-0.2009 0.08431,-0.21969 0.0729,-0.34932 -0.01603,-0.35155 z m -12.318755,0.21697 c -0.06526,-0.0767 -0.240801,0.2187 -0.600671,0.97433 -0.369514,0.77588 -0.364119,0.78525 0.118522,0.18282 0.281534,-0.35139 0.512277,-0.78367 0.512277,-0.96028 0,-0.10456 -0.0085,-0.17131 -0.03014,-0.19687 z m 3.62009,0.32946 c -0.06526,-0.0768 -0.240799,0.21669 -0.600669,0.97233 -0.369512,0.77588 -0.362112,0.78727 0.120535,0.18482 0.281533,-0.35139 0.510269,-0.78365 0.510269,-0.96027 0,-0.10457 -0.0085,-0.17132 -0.03014,-0.19688 z m -20.804474,1.75783 c -0.447142,0.0998 -2.309925,1.76722 -3.521653,3.20427 -1.856278,2.20145 -0.698203,1.55595 1.727679,-0.96229 1.040916,-1.08055 1.892412,-2.06123 1.892412,-2.18171 0,-0.055 -0.03456,-0.0744 -0.09844,-0.0603 z m 16.009158,0.2028 c -0.02464,-0.0607 -0.273757,0.18373 -0.656918,0.65891 -0.510887,0.6336 -1.448029,1.75878 -2.083261,2.50115 -0.635229,0.74238 -0.364184,0.51973 0.602679,-0.4942 0.966864,-1.01392 1.904004,-2.13908 2.08326,-2.50115 0.04481,-0.0905 0.06245,-0.14452 0.05424,-0.16471 z m 24.585279,0.0563 c -0.07259,-0.0113 -0.158252,-0.006 -0.257142,0.0141 -0.393842,0.0816 -0.556806,0.39592 -0.516294,0.99242 0.04523,0.66608 -0.110111,0.89634 -0.652903,0.97434 -0.861344,0.12371 -1.399158,1.46767 -1.08683,2.71207 0.334598,1.33318 0.904289,0.87343 1.627233,-1.31384 0.355265,-1.07488 0.770233,-2.00285 0.924108,-2.0632 0.153871,-0.0604 0.28125,-0.40515 0.28125,-0.76541 0,-0.33737 -0.101778,-0.51673 -0.319422,-0.55044 z m 3.399109,0.12254 c -0.0502,0.0502 -0.10657,0.24217 -0.17679,0.58661 -0.12246,0.60063 -0.0755,0.8168 0.13059,0.61071 0.17552,-0.17551 0.26006,-0.59411 0.18884,-0.93014 -0.0479,-0.22626 -0.0923,-0.31742 -0.14262,-0.26718 z m -22.060054,0.27523 c -0.02964,-7.6e-4 -0.06785,0.0134 -0.114512,0.0422 -0.178955,0.11061 -0.325447,0.33994 -0.325447,0.51028 0,0.47347 0.235208,0.36931 0.454019,-0.2009 0.08431,-0.21968 0.07489,-0.34932 -0.01407,-0.35155 z m -2.941072,0.32746 c -0.01457,-0.0172 -0.04672,-0.0114 -0.09643,0.0202 -0.379959,0.23483 -1.14613,1.50269 -0.908034,1.50269 0.07606,0 0.393991,-0.38898 0.705132,-0.86385 0.233354,-0.35613 0.342786,-0.60751 0.299331,-0.65893 z m 18.285276,1.87433 c -0.220806,-0.007 -0.879679,0.61089 -2.027011,1.75181 -1.544779,1.53616 -3.540324,3.05479 -5.592859,4.25697 -1.754964,1.02788 -3.282914,1.86831 -3.395091,1.86831 -0.112173,0 -0.971689,0.34737 -1.91049,0.77347 -0.938799,0.42605 -2.48497,1.03141 -3.435271,1.34397 -1.526721,0.50215 -2.714063,1.47988 -2.714063,2.23395 0,0.38036 -0.02004,0.38728 3.833037,-1.42233 5.911979,-2.77659 10.076007,-4.48497 11.511165,-4.72305 1.31396,-0.21795 1.395375,-0.30589 2.523215,-2.75426 1.051485,-2.28259 1.49126,-3.32062 1.207368,-3.32884 z m -48.843102,0.63483 c -0.07983,0 -0.237671,0.14842 -0.349555,0.32947 -0.111878,0.18103 -0.04507,0.32947 0.146651,0.32947 0.191711,0 0.347546,-0.14842 0.347546,-0.32947 0,-0.18104 -0.06482,-0.32947 -0.144639,-0.32947 z m 28.779923,0 c -0.01699,-0.017 -0.150807,0.0826 -0.41183,0.2873 -0.3168,0.24844 -0.574555,0.5082 -0.574555,0.57655 0,0.2709 0.269126,0.0963 0.699109,-0.45201 0.204705,-0.26101 0.304265,-0.39484 0.287276,-0.41184 z m -23.930369,1.9989 c -0.165495,-0.22324 -2.072024,1.70745 -2.069197,2.09533 0.0014,0.19242 0.491726,-0.16796 1.088842,-0.80157 0.597114,-0.63361 1.037675,-1.21644 0.980355,-1.29376 z m 44.411406,0.4058 c -0.204083,-0.0233 -0.408508,0.0988 -0.516296,0.37968 -0.136522,0.35578 0.0067,0.50828 0.480134,0.50828 0.375062,0 0.616773,-0.1747 0.544421,-0.39174 -0.101569,-0.30473 -0.304179,-0.47298 -0.508259,-0.49622 z m -7.023218,8.12821 c -0.690069,0 -7.038619,3.10825 -10.233487,5.01033 -1.756788,1.0459 -3.416988,1.90247 -3.690405,1.90247 -0.273415,0 -0.643457,0.27173 -0.821652,0.6047 -0.733824,1.37119 -0.419677,5.79307 0.506251,7.12171 0.286303,0.41081 0.452011,1.55782 0.452011,3.12594 0,2.35749 0.810338,7.03666 2.280133,13.17466 0.875813,3.65749 1.070399,4.32966 1.215402,4.18468 0.06622,-0.0662 0.580423,-1.36792 1.143083,-2.89289 0.562663,-1.52498 1.150131,-3.28988 1.303794,-3.92348 0.153654,-0.63363 0.675606,-2.19019 1.161162,-3.45742 0.485558,-1.26721 1.517587,-4.00727 2.292189,-6.08912 0.774597,-2.08186 2.099095,-5.56209 2.94308,-7.73446 l 1.534823,-3.94959 -1.177233,-1.02257 c -1.231562,-1.07059 -1.434941,-1.57712 -0.791517,-1.97479 0.258205,-0.15955 0.31642,-0.0586 0.176784,0.30537 -0.253947,0.66178 0.407965,1.04226 2.318305,1.33395 1.59997,0.24428 1.835974,-0.18907 0.741295,-1.36409 -0.362058,-0.38863 -0.658928,-0.87913 -0.658928,-1.08886 0,-0.37108 -0.511042,-0.3115 -1.765849,0.20291 -0.471614,0.19333 -0.3757,-0.0781 0.41183,-1.16519 1.057382,-1.45968 1.298578,-2.30426 0.658929,-2.30426 z m 1.958706,7.29651 c -0.25056,-0.0131 -0.446853,0.007 -0.520313,0.0804 -0.09794,0.0979 0.02707,0.245 0.279241,0.32544 0.252196,0.0803 0.680689,0.21882 0.952233,0.30939 0.757788,0.25274 0.934948,0.24093 1.131026,-0.0763 0.146947,-0.23776 -1.090512,-0.59731 -1.842187,-0.63886 z m 6.727904,3.69043 c -0.03461,0.0345 -0.05839,0.14973 -0.06629,0.34152 -0.01423,0.34699 0.06339,0.5413 0.172769,0.43193 0.109375,-0.10932 0.121205,-0.3932 0.02611,-0.6308 -0.05253,-0.13124 -0.09798,-0.17725 -0.132595,-0.1427 z m -4.092188,5.88422 c -0.202572,0.029 -0.43065,0.20713 -0.532366,0.51229 -0.07166,0.21496 0.105103,0.39173 0.39174,0.39173 0.286629,0 0.520313,-0.2357 0.520313,-0.52232 0,-0.29063 -0.177118,-0.41066 -0.379687,-0.3817 z m -2.189734,2.23797 c -0.159972,-0.0427 -0.373416,0.11423 -0.522321,0.50224 -0.312785,0.81509 -0.235109,1.1922 0.212946,1.04465 0.226284,-0.0746 0.458447,-0.45665 0.516294,-0.84979 0.06055,-0.41161 -0.04695,-0.65446 -0.206919,-0.6971 z m -3.083707,4.26098 c -0.188196,0 -0.252516,0.23396 -0.142625,0.52033 0.109881,0.28633 0.200893,0.75973 0.200893,1.05267 0,0.38716 0.09857,0.4338 0.361607,0.17077 0.199011,-0.19901 0.263331,-0.67241 0.142641,-1.05269 -0.120697,-0.38029 -0.374303,-0.69108 -0.562502,-0.69108 z m -2.171653,11.83473 c -0.135637,0.023 -0.282853,0.14743 -0.353571,0.35958 -0.07241,0.21723 0.04593,0.3356 0.26317,0.26319 0.217235,-0.0725 0.38322,-0.23842 0.369643,-0.36966 -0.02036,-0.19679 -0.143606,-0.27602 -0.279242,-0.25311 z m 0.74933,1.33192 c -0.271543,0 -0.494196,0.14647 -0.494196,0.32747 0,0.18103 0.222653,0.32947 0.494196,0.32947 0.271546,0 0.492189,-0.14842 0.492189,-0.32947 0,-0.18103 -0.220643,-0.32747 -0.492189,-0.32747 z m -2.049106,0.12452 c -0.03459,0.0345 -0.0564,0.14973 -0.06429,0.34151 -0.01423,0.34696 0.06339,0.54129 0.172768,0.43192 0.109375,-0.10931 0.121206,-0.3932 0.02611,-0.63082 -0.05253,-0.13124 -0.1,-0.17723 -0.13459,-0.14269 z m -0.660938,7.81278 c -0.684593,0.0246 -1.733705,0.43837 -1.733705,0.80962 0,0.60121 1.006359,0.60301 1.828123,0.002 0.351113,-0.25675 0.538392,-0.56854 0.41585,-0.69108 -0.0947,-0.0948 -0.282072,-0.12862 -0.510268,-0.1206 z m -7.895093,4.36545 c -0.03461,0.0345 -0.0584,0.14973 -0.06629,0.34152 -0.01423,0.34698 0.06339,0.5413 0.172768,0.43192 0.109375,-0.10931 0.121206,-0.3932 0.02612,-0.6308 -0.05253,-0.13123 -0.09799,-0.17726 -0.132594,-0.1427 z m -0.522321,1.96879 c -0.08196,-0.082 -0.243894,0.22804 -0.359599,0.68906 -0.115708,0.46101 -0.448079,0.83773 -0.737277,0.83773 -0.108573,0 -0.188225,0.0247 -0.253126,0.0643 a 90.000041,90.000926 0 0 0 1.020536,0.19888 c 0.261335,-0.86665 0.430591,-1.68885 0.329466,-1.78997 z m 1.299777,0.71918 c -0.06787,-0.0475 -0.149744,0.0511 -0.275224,0.27522 -0.220265,0.39361 -0.173859,0.8266 0.04219,1.04466 a 90.000041,90.000926 0 0 0 0.41585,0.0703 c 0.0668,-0.13467 0.07517,-0.43824 0.008,-0.78953 -0.06891,-0.36046 -0.122973,-0.55309 -0.190846,-0.60066 z m 6.165403,1.59312 c -0.03998,-9.8e-4 -0.08258,0.0114 -0.12857,0.0403 -0.183981,0.11373 -0.248795,0.34579 -0.144638,0.5143 9.74e-4,0.002 9.74e-4,0.002 0.0022,0.005 a 90.000041,90.000926 0 0 0 0.45,0.0442 c 0.01326,-0.0735 0.02612,-0.14645 0.02612,-0.25514 0,-0.21165 -0.08496,-0.3435 -0.204912,-0.34755 z"
       style="display:inline;fill:#0088a9;stroke-width:1.09121"
       id="path848"
       inkscape:export-xdpi="96"
       inkscape:export-ydpi="96" />
  </g>
</svg>
