<?xml version="1.0" encoding="UTF-8" standalone="no"?>
<svg
   xmlns:dc="http://purl.org/dc/elements/1.1/"
   xmlns:cc="http://creativecommons.org/ns#"
   xmlns:rdf="http://www.w3.org/1999/02/22-rdf-syntax-ns#"
   xmlns:svg="http://www.w3.org/2000/svg"
   xmlns="http://www.w3.org/2000/svg"
   xmlns:sodipodi="http://sodipodi.sourceforge.net/DTD/sodipodi-0.dtd"
   xmlns:inkscape="http://www.inkscape.org/namespaces/inkscape"
   inkscape:version="1.0 (4035a4fb49, 2020-05-01)"
   sodipodi:docname="jaeger.svg"
   viewBox="0 0 400 400"
   height="400"
   width="400"
   id="svg833"
   version="1.1">
  <metadata
     id="metadata839">
    <rdf:RDF>
      <cc:Work
         rdf:about="">
        <dc:format>image/svg+xml</dc:format>
        <dc:type
           rdf:resource="http://purl.org/dc/dcmitype/StillImage" />
        <dc:title />
      </cc:Work>
    </rdf:RDF>
  </metadata>
  <defs
     id="defs837" />
  <sodipodi:namedview
     inkscape:current-layer="layer2"
     inkscape:window-maximized="0"
     inkscape:window-y="17"
     inkscape:window-x="145"
     inkscape:cy="234.44587"
     inkscape:cx="341.7484"
     inkscape:zoom="1.3014184"
     showgrid="false"
     id="namedview835"
     inkscape:window-height="976"
     inkscape:window-width="1600"
     inkscape:pageshadow="2"
     inkscape:pageopacity="0"
     guidetolerance="10"
     gridtolerance="10"
     objecttolerance="10"
     borderopacity="1"
     bordercolor="#666666"
     pagecolor="#ffffff"
     inkscape:document-rotation="0" />
  <g
     style="display:inline"
     inkscape:groupmode="layer"
     id="layer2"
     inkscape:label="bg">
    <circle
       style="fill:#ffffff;stroke-width:1.1373"
       id="path841"
       cx="200"
       cy="200"
       r="200" />
    <circle
       style="display:inline;fill:#0088a9;fill-opacity:1;stroke-width:4.15061"
       id="path947"
       cx="200"
       cy="200"
       r="200" />
  </g>
  <g
     style="display:inline"
     inkscape:label="fg"
     id="layer1"
     inkscape:groupmode="layer">
    <path
       id="path913"
       style="display:inline;fill:#ececec;stroke-width:2.26354"
       d="M 201.39258,0 A 200,199.99999 0 0 1 202.58203,0.01172 200,200 0 0 0 201.39258,0 Z m 2.70117,0.03711 a 200,199.99999 0 0 1 0.86523,0.01953 200,200 0 0 0 -0.86523,-0.01953 z m -9.33008,0.02734 a 200,200 0 0 0 -1.79883,0.05273 200,199.99999 0 0 1 1.79883,-0.05273 z m 11.23242,0.01953 a 200,200 0 0 1 0.76953,0.02539 200,199.99999 0 0 0 -0.76953,-0.02539 z m 2.32032,0.08398 a 200,200 0 0 1 1.10156,0.04883 200,199.99999 0 0 0 -1.10156,-0.04883 z m -18.54102,0.08789 a 200,200 0 0 0 -1.89063,0.105469 200,199.99999 0 0 1 1.89063,-0.105469 z m 20.91602,0.02539 a 200,200 0 0 1 1.1875,0.06641 200,199.99999 0 0 0 -1.1875,-0.06641 z m 1.1875,0.06641 a 200,200 0 0 1 0.97656,0.06055 200,199.99999 0 0 0 -0.97656,-0.06055 z m -25.17969,0.08789 a 200,199.99999 0 0 0 -0.65625,0.04687 200,200 0 0 1 0.67187,-0.04687 200,199.99999 0 0 0 -0.0156,0 z m 27.55273,0.06836 a 200,200 0 0 1 1.18555,0.08789 200,199.99999 0 0 0 -1.18555,-0.08789 z m 1.18555,0.08789 a 200,200 0 0 1 0.96484,0.07813 200,199.99999 0 0 0 -0.96484,-0.07813 z m -31.51563,0.05078 a 200,199.99999 0 0 0 -2.76367,0.242188 200,200 0 0 1 2.76367,-0.242188 z m 33.0918,0.07813 a 200,199.99999 0 0 1 1.00195,0.08789 200,200 0 0 0 -1.00195,-0.08789 z m 2.01563,0.181641 a 200,200 0 0 1 0.81054,0.08008 200,199.99999 0 0 0 -0.81054,-0.08008 z m -38.57227,0.04883 a 200,199.99999 0 0 0 -1.85156,0.189453 200,200 0 0 1 1.85156,-0.189453 z m 40.90234,0.1875 a 200,200 0 0 1 1.08008,0.119141 200,199.99999 0 0 0 -1.08008,-0.119141 z m 1.70118,0.191406 a 200,199.99999 0 0 1 0.86914,0.101563 200,200 0 0 0 -0.86914,-0.101563 z m 0.86914,0.101563 a 200,199.99999 0 0 1 1.17968,0.146484 200,200 0 0 0 -1.17968,-0.146484 z m 2.64062,0.337891 a 200,199.99999 0 0 1 0.89649,0.121093 200,200 0 0 0 -0.89649,-0.121093 z m 3.30469,0.46875 a 200,199.99999 0 0 1 1.12109,0.173828 200,200 0 0 0 -1.12109,-0.173828 z m 6.77539,1.144531 a 200,200 0 0 1 1,0.1875 200,199.99999 0 0 0 -1,-0.1875 z m -75.85352,0.490234 a 200,199.99999 0 0 0 -0.61718,0.125 200,200 0 0 1 0.61718,-0.125 z m 78.51758,0.02539 a 200,199.99999 0 0 1 1.04297,0.210938 200,200 0 0 0 -1.04297,-0.210938 z m 1.04297,0.210938 a 200,199.99999 0 0 1 1.16406,0.24414 200,200 0 0 0 -1.16406,-0.24414 z m -83.0664,0.496093 a 200,199.99999 0 0 0 -2.11133,0.47461 200,200 0 0 1 2.11133,-0.47461 z m 85.5039,0.02344 a 200,199.99999 0 0 1 1.04883,0.232422 200,200 0 0 0 -1.04883,-0.232422 z m -88.01367,0.542969 a 200,199.99999 0 0 0 -1.75391,0.416016 200,200 0 0 1 1.75391,-0.416016 z m 90.45703,0.0078 a 200,199.99999 0 0 1 0.92383,0.216797 200,200 0 0 0 -0.92383,-0.216797 z m 6.48633,1.621094 a 200,200 0 0 1 1.14844,0.310547 200,199.99999 0 0 0 -1.14844,-0.310547 z m 1.14844,0.310547 a 200,200 0 0 1 2.28906,0.642578 200,199.99999 0 0 0 -2.28906,-0.642578 z m 2.28906,0.642578 a 200,200 0 0 1 0.57812,0.166016 200,199.99999 0 0 0 -0.57812,-0.166016 z m 0.57812,0.166016 a 200,199.99999 0 0 1 0.76368,0.224609 200,200 0 0 0 -0.76368,-0.224609 z m -108.83984,-0.75 a 200,200 0 0 0 -2.27539,0.640625 200,199.99999 0 0 1 2.27539,-0.640625 z m -3.75586,1.076172 a 200,200 0 0 0 -1.56445,0.46875 200,199.99999 0 0 1 1.56445,-0.46875 z M 257.44531,8.423817 A 200,200 0 0 1 258.125,8.628895 200,199.99999 0 0 0 257.44531,8.423817 Z M 258.125,8.628895 A 200,199.99999 0 0 1 258.78125,8.830067 200,200 0 0 0 258.125,8.628895 Z M 140.78125,8.962882 a 200,200 0 0 0 -1.84375,0.578125 200,199.99999 0 0 1 1.84375,-0.578125 z m 120.07031,0.515625 a 200,200 0 0 1 0.95703,0.308594 200,199.99999 0 0 0 -0.95703,-0.308594 z m 2.45899,0.802734 a 200,199.99999 0 0 1 1.12695,0.38086 200,200 0 0 0 -1.12695,-0.38086 z m -126.98243,0.117188 a 200,199.99999 0 0 0 -1.62109,0.552734 200,200 0 0 1 1.62109,-0.552734 z m 129.03711,0.582031 a 200,200 0 0 1 0.83203,0.289063 200,199.99999 0 0 0 -0.83203,-0.289063 z m 1.32032,0.460938 a 200,199.99999 0 0 1 1.11914,0.40039 200,200 0 0 0 -1.11914,-0.40039 z m -133.39649,0.0039 a 200,199.99999 0 0 0 -3.30469,1.203125 200,200 0 0 1 3.30469,-1.203125 z m 138.77735,1.986334 a 200,200 0 0 1 1.10742,0.431641 200,199.99999 0 0 0 -1.10742,-0.431641 z m 1.10742,0.431641 a 200,200 0 0 1 1.10547,0.439453 200,199.99999 0 0 0 -1.10547,-0.439453 z m 1.10547,0.439453 a 200,200 0 0 1 0.62109,0.25 200,199.99999 0 0 0 -0.62109,-0.25 z m 0.62109,0.25 a 200,199.99999 0 0 1 0.67578,0.273437 200,200 0 0 0 -0.67578,-0.273437 z m 1.58203,0.646484 a 200,200 0 0 1 0.7461,0.310547 200,199.99999 0 0 0 -0.7461,-0.310547 z m 0.7461,0.310547 a 200,199.99999 0 0 1 0.54296,0.228516 200,200 0 0 0 -0.54296,-0.228516 z m 1.99414,0.847656 a 200,199.99999 0 0 1 0.73437,0.31836 200,200 0 0 0 -0.73437,-0.31836 z m 8.54296,3.927735 a 200,199.99999 0 0 1 0.81836,0.40039 200,200 0 0 0 -0.81836,-0.40039 z m 0.81836,0.40039 a 200,199.99999 0 0 1 1.06446,0.529297 200,200 0 0 0 -1.06446,-0.529297 z m 1.06446,0.529297 a 200,199.99999 0 0 1 1.0625,0.537109 200,200 0 0 0 -1.0625,-0.537109 z m 2.99023,1.53125 a 200,200 0 0 1 0.91211,0.480469 200,199.99999 0 0 0 -0.91211,-0.480469 z m 2.28516,1.212891 a 200,199.99999 0 0 1 1.04492,0.568359 200,200 0 0 0 -1.04492,-0.568359 z m -190.07422,0.117187 a 200,199.99999 0 0 0 -1.72656,0.94336 200,200 0 0 1 1.72656,-0.94336 z m 194.05273,2.087891 a 200,200 0 0 1 0.79688,0.455078 200,199.99999 0 0 0 -0.79688,-0.455078 z m 3.08399,1.791016 a 200,200 0 0 1 1.02148,0.609374 200,199.99999 0 0 0 -1.02148,-0.609374 z m 2.21679,1.333984 a 200,199.99999 0 0 1 1.01368,0.623047 200,200 0 0 0 -1.01368,-0.623047 z m 1.84571,1.140625 a 200,200 0 0 1 0.88281,0.552734 200,199.99999 0 0 0 -0.88281,-0.552734 z M 93.74805,30.54882 a 200,200 0 0 0 -3.98633,2.566406 200,199.99999 0 0 1 3.98633,-2.566406 z m 214.31054,1.154296 a 200,200 0 0 1 0.99805,0.644532 200,199.99999 0 0 0 -0.99805,-0.644532 z m 0.99805,0.644532 a 200,200 0 0 1 0.74023,0.486328 200,199.99999 0 0 0 -0.74023,-0.486328 z m 1.16992,0.767578 a 200,199.99999 0 0 1 0.99024,0.658203 200,200 0 0 0 -0.99024,-0.658203 z m 2.20703,1.478515 a 200,199.99999 0 0 1 0.75196,0.513672 200,200 0 0 0 -0.75196,-0.513672 z m 2.53321,1.751953 a 200,200 0 0 1 0.75586,0.53125 200,199.99999 0 0 0 -0.75586,-0.53125 z m 1.26562,0.894532 a 200,199.99999 0 0 1 0.8418,0.605468 200,200 0 0 0 -0.8418,-0.605468 z m -234.29296,1.3125 a 200,199.99999 0 0 0 -1.61328,1.193359 200,200 0 0 1 1.61328,-1.193359 z m 240.13085,3.019531 a 200,199.99999 0 0 1 0.71289,0.552734 200,200 0 0 0 -0.71289,-0.552734 z m 7.17578,5.798828 a 200,199.99999 0 0 1 0.90625,0.771485 200,200 0 0 0 -0.90625,-0.771485 z m 2.08789,1.792969 a 200,199.99999 0 0 1 0.61328,0.537109 200,200 0 0 0 -0.61328,-0.537109 z m 5.89063,5.339844 a 200,199.99999 0 0 1 0.86328,0.818359 200,200 0 0 0 -0.86328,-0.818359 z m 2.74805,2.642578 a 200,199.99999 0 0 1 0.67382,0.662109 200,200 0 0 0 -0.67382,-0.662109 z m 2.20703,2.195312 a 200,200 0 0 1 0.66211,0.673828 200,199.99999 0 0 0 -0.66211,-0.673828 z m 2.48633,2.558594 a 200,200 0 0 1 0.81835,0.863281 200,199.99999 0 0 0 -0.81835,-0.863281 z m 5.62109,6.140625 a 200,200 0 0 1 0.53711,0.613281 200,199.99999 0 0 0 -0.53711,-0.613281 z m 1.55859,1.794922 a 200,200 0 0 1 0.77149,0.90625 200,199.99999 0 0 0 -0.77149,-0.90625 z m 4.10938,4.953125 a 200,199.99999 0 0 1 0.5664,0.710937 200,200 0 0 0 -0.5664,-0.710937 z m 1.9082,2.416016 a 200,200 0 0 1 0.55274,0.71289 200,199.99999 0 0 0 -0.55274,-0.71289 z M 38.41211,82.132813 a 200,200 0 0 0 -1.38086,1.916016 200,199.99999 0 0 1 1.38086,-1.916016 z m 323.73047,0.78125 a 200,200 0 0 1 0.60547,0.841797 200,199.99999 0 0 0 -0.60547,-0.841797 z m 0.96875,1.351562 a 200,199.99999 0 0 1 0.53125,0.75586 200,200 0 0 0 -0.53125,-0.75586 z M 35.66407,85.996094 a 200,199.99999 0 0 0 -0.35157,0.507813 200,200 0 0 1 0.35157,-0.507813 z m 329.21679,0.806641 a 200,200 0 0 1 0.51367,0.751953 200,199.99999 0 0 0 -0.51367,-0.751953 z m -330.19922,0.625 a 200,199.99999 0 0 0 -1.00781,1.490234 200,200 0 0 1 1.00781,-1.490234 z m 331.5332,1.34375 a 200,200 0 0 1 0.65821,0.990234 200,199.99999 0 0 0 -0.65821,-0.990234 z m 0.93946,1.419922 a 200,199.99999 0 0 1 0.48632,0.740234 200,200 0 0 0 -0.48632,-0.740234 z m 0.48632,0.740234 a 200,199.99999 0 0 1 0.64454,0.998047 200,200 0 0 0 -0.64454,-0.998047 z m 1.36524,2.125 a 200,199.99999 0 0 1 0.55273,0.882812 200,200 0 0 0 -0.55273,-0.882812 z m 1.07031,1.714844 a 200,200 0 0 1 0.62305,1.013672 200,199.99999 0 0 0 -0.62305,-1.013672 z m 1.34766,2.208984 a 200,199.99999 0 0 1 0.60937,1.021484 200,200 0 0 0 -0.60937,-1.021484 z m 1.94531,3.308591 a 200,199.99999 0 0 1 0.45508,0.79688 200,200 0 0 0 -0.45508,-0.79688 z m -348.46093,3.03711 a 200,200 0 0 0 -1.05469,1.93555 200,199.99999 0 0 1 1.05469,-1.93555 z m 350.55273,0.69336 a 200,200 0 0 1 0.56836,1.04492 200,199.99999 0 0 0 -0.56836,-1.04492 z m 1.30078,2.41797 a 200,199.99999 0 0 1 0.48047,0.91211 200,200 0 0 0 -0.48047,-0.91211 z m 1.47461,2.83984 a 200,200 0 0 1 0.53711,1.0625 200,199.99999 0 0 0 -0.53711,-1.0625 z m 0.53711,1.0625 a 200,200 0 0 1 0.52929,1.06446 200,199.99999 0 0 0 -0.52929,-1.06446 z m 0.52929,1.06446 a 200,200 0 0 1 0.40039,0.81836 200,199.99999 0 0 0 -0.40039,-0.81836 z m -253.47265,1.9707 c -3.35142,0.0167 -5.64708,0.51364 -8.59571,1.43164 -7.39902,2.30351 -11.57741,5.57504 -11.19921,8.76953 0.20809,1.75769 2.09869,3.50511 8.26953,7.64453 10.58689,7.10176 21.06296,17.45577 23.96289,23.68555 2.6536,5.70065 2.93592,12.06115 0.88672,19.96484 -2.20005,8.48549 -3.95571,11.37004 -7.51563,12.3418 -1.71111,0.46709 -3.4045,1.27207 -3.76367,1.79102 -0.43747,0.63205 -0.65897,0.58696 -0.66797,-0.13868 -0.007,-0.59584 -0.61129,-0.85452 -1.3418,-0.57421 -0.73042,0.28033 -1.13457,0.82105 -0.89843,1.20312 0.23613,0.38208 -0.34686,0.9 -1.29688,1.14844 -0.96716,0.25291 -2.00541,1.56901 -2.35937,2.99023 -0.34771,1.39602 -1.11901,2.93689 -1.71094,3.42578 -1.47298,1.21653 -2.42251,6.66797 -1.16211,6.66797 0.66294,0 0.63039,0.41339 -0.0996,1.29297 -0.59081,0.71191 -0.83357,1.6856 -0.53906,2.16211 0.29449,0.47654 0.12773,1.11676 -0.36914,1.42383 -1.35551,0.83775 -1.08532,2.23242 0.43164,2.23242 0.73333,0 1.33203,0.39978 1.33203,0.88867 0,0.48889 -0.42365,0.88867 -0.94141,0.88867 -0.51774,0 -0.72103,0.35363 -0.45312,0.78711 0.26791,0.43352 -0.10996,1.28455 -0.83789,1.88868 -0.72796,0.60416 -1.32227,1.98694 -1.32227,3.07421 0,1.08724 -0.67428,3.32721 -1.49805,4.97852 l -1.49804,3.00195 -0.71875,-2.64258 c -0.39615,-1.45396 -0.53728,-3.14475 -0.31055,-3.75586 0.22676,-0.6111 -0.13916,-1.10937 -0.81641,-1.10937 -0.67726,0 -1.36641,0.39387 -1.52929,0.875 -0.17574,0.51873 -2.16164,0.65104 -4.88086,0.32813 -3.93022,-0.4667 -4.64327,-0.84659 -4.99218,-2.67188 -0.22389,-1.17111 -0.0601,-2.34577 0.36328,-2.60742 0.42329,-0.26162 0.76952,-1.4492 0.76952,-2.64258 0,-2.60915 1.75569,-2.89525 2.41016,-0.39258 0.5072,1.9396 1.74128,2.22718 3.8125,0.88867 1.13947,-0.73634 1.10672,-0.8639 -0.22266,-0.875 -0.85555,-0.007 -1.47776,-0.31497 -1.38086,-0.68164 0.2544,-0.96311 -1.18586,-5.03117 -1.96679,-5.55468 -0.86731,-0.58145 5.36558,-10.10736 8.10742,-12.39063 2.80256,-2.33389 2.12596,-2.27357 -5.5957,0.50781 -13.45152,4.84529 -23.28687,10.48782 -26.53125,15.22266 -2.19513,3.2036 -8.07825,6.45132 -14.85156,8.19727 -4.51483,1.16379 -7.33789,3.92194 -7.33789,7.17187 0,2.33449 0.0668,2.36211 3.77929,1.5332 2.07778,-0.46393 5.57735,-1.41071 7.77735,-2.10351 8.07254,-2.54209 11.74569,-1.73985 29.77734,6.50195 5.37777,2.45806 10.77778,4.7664 12,5.12891 1.22222,0.36252 7.22287,2.56801 13.33398,4.90039 11.26071,4.29776 23.44202,7.46737 33.83789,8.80469 8.17569,1.05259 38.79712,1.065 47.13477,0.0195 3.88253,-0.48682 14.15134,-2.31957 22.82031,-4.07032 26.52243,-5.35634 24.43371,-5.14469 34.08594,-3.44921 7.07162,1.24216 11.23999,1.41036 22.05859,0.88867 13.11683,-0.63251 13.36326,-0.68136 14.82813,-2.97461 0.81935,-1.2826 1.17665,-2.04363 0.79492,-1.69141 -0.38175,0.35223 -1.79948,-0.14799 -3.15235,-1.11133 -1.35289,-0.96333 -3.46633,-1.75195 -4.69531,-1.75195 -2.88267,0 -5.04687,-0.84224 -5.04687,-1.96484 0,-0.57478 4.45047,-0.68234 12.66601,-0.30469 6.96666,0.32024 17.06754,0.72971 22.44532,0.91016 5.62125,0.18866 14.81535,1.32136 21.62695,2.66601 6.5166,1.2864 13.7166,2.2196 16,2.07227 3.86203,-0.24934 4.12935,-0.42315 3.84179,-2.49024 -0.17003,-1.22223 -0.44577,-2.36444 -0.61132,-2.53711 -0.16563,-0.17269 -3.42423,-0.65792 -7.24414,-1.08008 -15.4436,-1.70671 -35.31877,-5.49282 -37.57422,-7.1582 -1.62258,-1.19809 -5.39972,-2.02659 -13.37305,-2.93359 -6.11111,-0.69518 -13.51002,-1.9056 -16.44336,-2.68946 -2.93333,-0.78387 -9.93442,-2.38025 -15.55664,-3.54687 -5.62222,-1.16662 -13.40163,-3.25531 -17.28906,-4.64258 l -7.06836,-2.52344 0.21289,-5.33203 c 0.15462,-3.89431 0.96351,-6.84539 3,-10.93359 1.53396,-3.07938 3.06911,-5.77238 3.41211,-5.98438 0.77173,-0.47695 41.919,14.31007 63.35547,22.76758 8.71529,3.43851 16.31702,6.07516 16.89062,5.85938 0.58269,-0.21918 0.25892,-0.65487 -0.73437,-0.98633 -2.27993,-0.76089 -25.68472,-12.47747 -29.7793,-14.9082 -1.71111,-1.0158 -4.50959,-2.76694 -6.2207,-3.89258 -1.71111,-1.12565 -6.51241,-3.48913 -10.66797,-5.25196 -4.15555,-1.76282 -9.18223,-3.98459 -11.16992,-4.9375 -1.98769,-0.95294 -4.18748,-1.7277 -4.88868,-1.7207 -0.7012,0.007 -4.15455,-1.09426 -7.67382,-2.44531 -5.63886,-2.16475 -6.34031,-2.68555 -5.91992,-4.38477 0.68901,-2.78511 -1.74594,-3.96454 -16.16016,-7.83203 l -12.47852,-3.34961 -1.57617,-4.10937 c -1.73896,-4.53746 -4.01546,-9.79948 -4.89648,-11.31446 -3.87807,-6.6686 -8.8163,-11.91015 -11.21875,-11.91015 -0.59164,0 -1.81668,-0.82097 -2.72461,-1.82422 -1.63669,-1.80851 -1.63017,-1.81589 0.80859,-0.88867 4.90948,1.86658 7.25371,0.63725 6.37891,-3.34571 -0.71854,-3.2714 -2.91096,-4.11443 -20.92383,-8.02539 -14.30667,-3.10626 -19.86911,-4.05652 -47.11133,-8.05859 -11.44378,-1.68118 -17.49962,-2.45189 -21.80859,-2.42969 z m -107.40234,2.75391 a 200,199.99999 0 0 0 -0.79297,1.73828 200,200 0 0 1 0.79297,-1.73828 z m -0.9336,2.05078 a 200,199.99999 0 0 0 -0.73632,1.66406 200,200 0 0 1 0.73632,-1.66406 z m 365.81836,1.85156 a 200,200 0 0 1 0.31836,0.73437 200,199.99999 0 0 0 -0.31836,-0.73437 z m 0.9375,2.18555 a 200,200 0 0 1 0.22852,0.54296 200,199.99999 0 0 0 -0.22852,-0.54296 z m 0.22852,0.54296 a 200,199.99999 0 0 1 0.31054,0.7461 200,200 0 0 0 -0.31054,-0.7461 z m 0.68359,1.65235 a 200,200 0 0 1 0.27344,0.67578 200,199.99999 0 0 0 -0.27344,-0.67578 z m 0.27344,0.67578 a 200,199.99999 0 0 1 0.25,0.62109 200,200 0 0 0 -0.25,-0.62109 z m 0.25,0.62109 a 200,199.99999 0 0 1 0.43945,1.10547 200,200 0 0 0 -0.43945,-1.10547 z m 0.43945,1.10547 a 200,199.99999 0 0 1 0.43164,1.10742 200,200 0 0 0 -0.43164,-1.10742 z M 12.03516,131.64844 A 200,200 0 0 0 11.3711,133.5 a 200,199.99999 0 0 1 0.66406,-1.85156 z m 376.11132,0.53515 a 200,200 0 0 1 0.40039,1.11914 200,199.99999 0 0 0 -0.40039,-1.11914 z m 0.57227,1.60743 a 200,199.99999 0 0 1 0.28906,0.83203 200,200 0 0 0 -0.28906,-0.83203 z m 0.60742,1.75976 a 200,200 0 0 1 0.38086,1.12695 200,199.99999 0 0 0 -0.38086,-1.12695 z M 9.83789,138.01953 a 200,199.99999 0 0 0 -0.57617,1.80273 200,200 0 0 1 0.57617,-1.80273 z m 380.36328,0.16016 a 200,199.99999 0 0 1 0.30859,0.95703 200,200 0 0 0 -0.30859,-0.95703 z m 0.95703,3.02734 a 200,200 0 0 1 0.20117,0.65625 200,199.99999 0 0 0 -0.20117,-0.65625 z m 0.20117,0.65625 a 200,199.99999 0 0 1 0.20508,0.67969 200,200 0 0 0 -0.20508,-0.67969 z m 0.48438,1.62109 a 200,200 0 0 1 0.22461,0.76368 200,199.99999 0 0 0 -0.22461,-0.76368 z m 0.22461,0.76368 a 200,199.99999 0 0 1 0.16601,0.57812 200,200 0 0 0 -0.16601,-0.57812 z m 0.16601,0.57812 a 200,199.99999 0 0 1 0.64258,2.28906 200,200 0 0 0 -0.64258,-2.28906 z m 0.64258,2.28906 a 200,199.99999 0 0 1 0.31055,1.14844 200,200 0 0 0 -0.31055,-1.14844 z M 7.75,144.83984 A 200,199.99999 0 0 0 7.16407,146.92969 200,200 0 0 1 7.75,144.83984 Z m 386.8418,8.98633 a 200,200 0 0 1 0.21679,0.92383 200,199.99999 0 0 0 -0.21679,-0.92383 z m 0.53515,2.31836 a 200,200 0 0 1 0.23242,1.04883 200,199.99999 0 0 0 -0.23242,-1.04883 z M 4.45313,157.99609 a 200,200 0 0 0 -0.53321,2.56446 200,199.99999 0 0 1 0.53321,-2.56446 z m 391.18163,0.47071 a 200,200 0 0 1 0.24415,1.16406 200,199.99999 0 0 0 -0.24415,-1.16406 z m 0.24415,1.16406 a 200,200 0 0 1 0.21093,1.04297 200,199.99999 0 0 0 -0.21093,-1.04297 z m 0.53906,2.70703 a 200,199.99999 0 0 1 0.1875,1 200,200 0 0 0 -0.1875,-1 z m -392.91211,0.3457 a 200,199.99999 0 0 0 -0.33789,1.82227 200,200 0 0 1 0.33789,-1.82227 z m -0.54492,2.99414 a 200,199.99999 0 0 0 -0.12891,0.75 200,200 0 0 1 0.12891,-0.75 z m 394.61523,3.31446 a 200,200 0 0 1 0.17383,1.12109 200,199.99999 0 0 0 -0.17383,-1.12109 z m 0.52149,3.52929 a 200,200 0 0 1 0.12109,0.89649 200,199.99999 0 0 0 -0.12109,-0.89649 z m 0.3125,2.35743 a 200,200 0 0 1 0.14648,1.17968 200,199.99999 0 0 0 -0.14648,-1.17968 z m 0.14648,1.17968 a 200,200 0 0 1 0.10156,0.86914 200,199.99999 0 0 0 -0.10156,-0.86914 z m 0.17383,1.49024 a 200,199.99999 0 0 1 0.11914,1.08008 200,200 0 0 0 -0.11914,-1.08008 z m 0.27539,2.59961 a 200,199.99999 0 0 1 0.0801,0.81054 200,200 0 0 0 -0.0801,-0.81054 z m 0.17383,1.82422 a 200,200 0 0 1 0.0879,1.00195 200,199.99999 0 0 0 -0.0879,-1.00195 z m 0.13867,1.61328 a 200,199.99999 0 0 1 0.0781,0.96484 200,200 0 0 0 -0.0781,-0.96484 z m 0.0781,0.96484 a 200,199.99999 0 0 1 0.0879,1.18555 200,200 0 0 0 -0.0879,-1.18555 z m 0.1836,2.58203 a 200,199.99999 0 0 1 0.0605,0.97656 200,200 0 0 0 -0.0605,-0.97656 z m 0.0605,0.97656 a 200,199.99999 0 0 1 0.0664,1.1875 200,200 0 0 0 -0.0664,-1.1875 z m -399.29296,0 a 200,199.99999 0 0 0 -0.21283,4.42383 200,200 0 0 1 0.21289,-4.42383 z m 399.42388,2.46094 a 200,199.99999 0 0 1 0.0488,1.10156 200,200 0 0 0 -0.0488,-1.10156 z m 0.10743,2.65235 a 200,199.99999 0 0 1 0.0254,0.76953 200,200 0 0 0 -0.0254,-0.76953 z m 0.0527,1.80664 a 200,200 0 0 1 0.0195,0.86523 200,199.99999 0 0 0 -0.0195,-0.86523 z m 0.0449,2.37695 a 200,200 0 0 1 0.0117,1.18945 200,199.99999 0 0 0 -0.0117,-1.18945 z M 0,201.39258 A 200,199.99999 0 0 0 0.0117,202.58203 200,200 0 0 1 0,201.39258 Z m 399.98828,0 a 200,199.99999 0 0 1 -0.0117,1.18945 200,200 0 0 0 0.0117,-1.18945 z M 0.03711,204.09375 a 200,199.99999 0 0 0 0.0195,0.86523 200,200 0 0 1 -0.0195,-0.86523 z m 399.91406,0 a 200,199.99999 0 0 1 -0.0195,0.86523 200,200 0 0 0 0.0195,-0.86523 z m -204.54297,0.90234 c 0.16909,0.0147 0.39061,0.0772 0.66797,0.1836 0.79329,0.30447 1.21784,1.10319 0.94531,1.77343 -0.27254,0.67025 -0.75145,1.85324 -1.06445,2.62891 -0.44013,1.09111 -0.0899,1.3408 1.54492,1.10938 1.41486,-0.20027 2.11781,0.14268 2.12891,1.03515 0.032,2.8432 2.13955,5.18983 4.2168,4.69336 1.87002,-0.44691 1.91264,-0.37423 0.57617,1.04102 -1.72746,1.82931 -0.55903,5.15853 2.35937,6.72461 3.22818,1.73232 2.58168,4.77927 -1.47265,6.94336 -1.98934,1.06184 -4.44954,1.93164 -5.46485,1.93164 -1.01531,0 -2.49752,0.59085 -3.29492,1.3125 -0.7974,0.72162 -4.23031,1.71223 -7.62695,2.20312 -6.24847,0.90306 -28.18799,1.28662 -28.96875,0.50586 -0.23302,-0.23305 -3.38662,-0.84579 -7.00782,-1.35937 -3.62117,-0.51357 -7.46036,-1.5073 -8.53124,-2.20899 -1.70647,-1.11814 -2.01066,-1.10859 -2.4668,0.0801 -0.28622,0.7459 -0.89905,1.12167 -1.36133,0.83594 -1.04294,-0.64456 -0.40313,-4.36561 0.82031,-4.77344 1.95338,-0.65111 0.81069,-2.82278 -1.54687,-2.93945 -2.09584,-0.1038 -2.16011,-0.17753 -0.44531,-0.50782 2.38096,-0.45858 2.62876,-1.74387 0.44531,-2.31445 -1.18033,-0.30842 -1.07891,-0.43156 0.42578,-0.50977 1.83118,-0.0952 1.94569,-0.42523 1.5,-4.32421 -0.26544,-2.32222 -0.63639,-5.02222 -0.82617,-6 -0.32118,-1.6548 -0.264,-1.67062 0.82031,-0.22266 0.64072,0.85555 1.98684,1.55664 2.99219,1.55664 1.00536,0 1.99539,0.49827 2.20117,1.10938 0.29909,0.88867 0.64444,0.88762 1.72265,-0.002 0.74154,-0.6118 3.60699,-1.16296 6.36719,-1.22656 4.83198,-0.11138 5.01758,-0.20526 5.01758,-2.51758 0,-1.32086 0.27116,-2.67157 0.60156,-3.00195 0.75072,-0.75073 3.03097,5.68296 2.38477,6.72851 -0.25982,0.42043 0.014,1.35102 0.60937,2.06836 0.94511,1.1388 1.22175,1.11558 2.16602,-0.17578 1.18691,-1.6232 3.12695,-0.9597 3.12695,1.06836 0,1.58311 -0.0544,1.58581 4.02149,-0.11719 2.74653,-1.14757 3.48365,-1.18796 4.0957,-0.22265 0.56288,0.88793 0.74671,0.90462 0.75781,0.0664 0.0237,-1.93438 1.65655,-1.19984 1.95313,0.87891 0.15622,1.095 0.99092,2.12614 1.85547,2.29102 1.50331,0.28656 1.50331,0.16233 0,-2.85743 -1.00315,-2.01507 -2.21508,-3.16774 -3.34961,-3.18554 -3.21952,-0.0495 2.49468,-2.43201 7.47656,-3.11719 2.62103,-0.36049 4.29842,-0.99189 3.98437,-1.5 -0.29824,-0.48264 -1.50103,-0.63713 -2.66992,-0.34375 -1.54246,0.38713 -2.125,0.16359 -2.125,-0.81641 0,-0.81251 0.80722,-1.34961 2.02539,-1.34961 1.11345,0 2.86814,-0.59145 3.90039,-1.31445 1.71822,-1.20351 1.9188,-1.15907 2.36133,0.5332 0.27769,1.0618 0.90102,1.58798 1.4668,1.23829 0.54178,-0.33477 0.74357,-1.37114 0.44726,-2.30469 -0.31071,-0.97902 -0.27098,-1.37213 0.23633,-1.32813 z m -195.32421,1 a 200,200 0 0 0 0.0254,0.76953 200,199.99999 0 0 1 -0.0254,-0.76953 z m 399.82031,0 a 200,200 0 0 1 -0.0254,0.76953 200,199.99999 0 0 0 0.0254,-0.76953 z M 0.16797,208.31641 a 200,200 0 0 0 0.0488,1.10156 200,199.99999 0 0 1 -0.0488,-1.10156 z m 399.65234,0 a 200,200 0 0 1 -0.0488,1.10156 200,199.99999 0 0 0 0.0488,-1.10156 z m -242.55469,1.26367 c 0.0591,0.007 0.10542,0.0273 0.13672,0.0586 0.25098,0.25098 -0.32131,1.02345 -1.26953,1.7168 -2.61789,1.91425 -3.92675,1.46756 -1.39648,-0.47656 1.06305,-0.81677 2.11498,-1.34723 2.52929,-1.29883 z M 0.28125,210.69141 a 200,200 0 0 0 0.0664,1.1875 200,199.99999 0 0 1 -0.0664,-1.1875 z m 0.0664,1.1875 a 200,200 0 0 0 0.0606,0.97656 200,199.99999 0 0 1 -0.0606,-0.97656 z m 399.35937,-1.1875 a 200,200 0 0 1 -0.0664,1.1875 200,199.99999 0 0 0 0.0664,-1.1875 z m -0.0664,1.1875 a 200,200 0 0 1 -0.0605,0.97656 200,199.99999 0 0 0 0.0605,-0.97656 z m -251.30079,-1.04102 c 1.83958,0 2.00871,0.21036 1.07618,1.33398 -0.6086,0.73333 -1.58965,1.33204 -2.18165,1.33204 -0.59198,0 -1.07617,-0.59871 -1.07617,-1.33204 0,-0.82322 0.83386,-1.33398 2.18164,-1.33398 z m 55.32032,0.44727 c 0.88635,-0.10731 2.64453,1.31434 2.64453,2.32812 0,0.42902 -0.35027,0.7793 -0.7793,0.7793 -1.15857,0 -2.8507,-2.2958 -2.18359,-2.96289 0.0834,-0.0833 0.19169,-0.12903 0.31836,-0.14453 z m -27.6836,0.55468 c 0.48334,0.006 0.93347,0.0716 1.23438,0.19336 0.6018,0.24351 -0.1056,0.42601 -1.57227,0.40821 -1.46667,-0.0181 -1.95862,-0.21606 -1.09375,-0.44141 0.43242,-0.11268 0.94829,-0.16716 1.43164,-0.16016 z m 14.15625,0.78516 c -0.53613,0.12174 -0.44611,1.49355 0.57227,3.46289 0.78193,1.51209 1.61186,2.75 1.84375,2.75 0.914,0 0.35265,-3.31127 -0.83789,-4.93945 -0.70853,-0.96895 -1.25646,-1.34654 -1.57813,-1.27344 z M 0.5039,214.25195 a 200,200 0 0 0 0.0879,1.18555 200,199.99999 0 0 1 -0.0879,-1.18555 z m 0.0879,1.18555 a 200,200 0 0 0 0.0781,0.96484 200,199.99999 0 0 1 -0.0781,-0.96484 z m 398.89257,-1.18555 a 200,200 0 0 1 -0.0879,1.18555 200,199.99999 0 0 0 0.0879,-1.18555 z m -0.0879,1.18555 a 200,200 0 0 1 -0.0781,0.96484 200,199.99999 0 0 0 0.0781,-0.96484 z m -225.7539,-0.0176 c 0.37848,-0.0275 0.66211,0.14389 0.66211,0.58203 0,0.47733 -0.63403,1.10916 -1.40821,1.40625 -0.86578,0.3322 -1.27112,0.13394 -1.05468,-0.51562 0.27682,-0.83046 1.16998,-1.42686 1.80078,-1.47266 z m -15.79688,1.16406 c -0.30151,0.0106 -0.74661,0.17057 -1.31836,0.47657 -0.97778,0.52328 -1.77734,1.35095 -1.77734,1.83984 0,0.57182 0.63387,0.54948 1.77734,-0.0625 0.97778,-0.52329 1.77735,-1.35095 1.77735,-1.83984 0,-0.28587 -0.15748,-0.42517 -0.45899,-0.41407 z M 0.72071,217.01367 a 200,199.99999 0 0 0 0.0879,1.00195 200,200 0 0 1 -0.0879,-1.00195 z m 398.54687,0 a 200,199.99999 0 0 1 -0.0879,1.00195 200,200 0 0 0 0.0879,-1.00195 z M 96.9375,217.94922 c 0.99706,0 1.8125,0.37592 1.8125,0.83594 0,1.47175 -1.29803,1.68355 -2.48046,0.40429 -0.95213,-1.03003 -0.83795,-1.24023 0.66796,-1.24023 z M 0.90235,219.0293 a 200,200 0 0 0 0.0801,0.81054 200,199.99999 0 0 1 -0.0801,-0.81054 z m 398.18359,0 a 200,200 0 0 1 -0.0801,0.81054 200,199.99999 0 0 0 0.0801,-0.81054 z m -222.25196,0.92578 c -0.54707,0.0781 -1.16281,0.55872 -1.4375,1.38281 -0.19354,0.58055 0.28255,1.05469 1.05664,1.05469 0.77407,0 1.40821,-0.63219 1.40821,-1.40625 0,-0.78487 -0.48029,-1.10945 -1.02735,-1.03125 z M 1.13867,221.35937 a 200,200 0 0 0 0.11915,1.08008 200,199.99999 0 0 1 -0.11915,-1.08008 z m 397.71094,0 a 200,200 0 0 1 -0.11914,1.08008 200,199.99999 0 0 0 0.11914,-1.08008 z M 1.33008,223.06055 a 200,199.99999 0 0 0 0.10156,0.86914 200,200 0 0 1 -0.10156,-0.86914 z m 0.10156,0.86914 a 200,199.99999 0 0 0 0.14649,1.17968 200,200 0 0 1 -0.14649,-1.17968 z m 397.22656,-0.86914 a 200,199.99999 0 0 1 -0.10156,0.86914 200,200 0 0 0 0.10156,-0.86914 z m -0.10156,0.86914 a 200,199.99999 0 0 1 -0.14648,1.17968 200,200 0 0 0 0.14648,-1.17968 z m -292.47461,-0.63282 c 0.85556,-0.007 1.55664,0.38611 1.55664,0.875 0,1.08409 -0.0998,1.08409 -1.77734,0 -1.13947,-0.73633 -1.10867,-0.8639 0.2207,-0.875 z m -104.3125,3.27344 a 200,199.99999 0 0 0 0.1211,0.89649 200,200 0 0 1 -0.1211,-0.89649 z m 396.44922,0 a 200,199.99999 0 0 1 -0.12109,0.89649 200,200 0 0 0 0.12109,-0.89649 z M 2.23828,229.875 a 200,199.99999 0 0 0 0.17383,1.12109 200,200 0 0 1 -0.17383,-1.12109 z m 395.51172,0 a 200,199.99999 0 0 1 -0.17383,1.12109 A 200,200 0 0 0 397.75,229.875 Z M 3.38282,236.65039 a 200,200 0 0 0 0.1875,1 200,199.99999 0 0 1 -0.1875,-1 z m 393.22265,0 a 200,200 0 0 1 -0.1875,1 200,199.99999 0 0 0 0.1875,-1 z M 3.89844,239.31445 a 200,199.99999 0 0 0 0.21094,1.04297 200,200 0 0 1 -0.21094,-1.04297 z m 0.21094,1.04297 a 200,199.99999 0 0 0 0.24414,1.16406 200,200 0 0 1 -0.24414,-1.16406 z m 391.98046,-1.04297 a 200,199.99999 0 0 1 -0.21093,1.04297 200,200 0 0 0 0.21093,-1.04297 z m -0.21093,1.04297 a 200,199.99999 0 0 1 -0.24415,1.16406 200,200 0 0 0 0.24415,-1.16406 z m -391.25,2.4375 a 200,199.99999 0 0 0 0.23242,1.04883 200,200 0 0 1 -0.23242,-1.04883 z m 390.73046,0 a 200,199.99999 0 0 1 -0.23242,1.04883 200,200 0 0 0 0.23242,-1.04883 z M 5.17969,245.23828 a 200,199.99999 0 0 0 0.2168,0.92383 200,200 0 0 1 -0.2168,-0.92383 z m 389.6289,0 a 200,199.99999 0 0 1 -0.21679,0.92383 200,200 0 0 0 0.21679,-0.92383 z M 6.80078,251.72461 a 200,200 0 0 0 0.31055,1.14844 200,199.99999 0 0 1 -0.31055,-1.14844 z m 0.31055,1.14844 a 200,200 0 0 0 0.64258,2.28906 200,199.99999 0 0 1 -0.64258,-2.28906 z m 0.64258,2.28906 a 200,200 0 0 0 0.16601,0.57812 200,199.99999 0 0 1 -0.16601,-0.57812 z m 0.16601,0.57812 a 200,199.99999 0 0 0 0.22461,0.76368 200,200 0 0 1 -0.22461,-0.76368 z m 385.26758,-4.01562 a 200,200 0 0 1 -0.31055,1.14844 200,199.99999 0 0 0 0.31055,-1.14844 z m -0.31055,1.14844 a 200,200 0 0 1 -0.64258,2.28906 200,199.99999 0 0 0 0.64258,-2.28906 z m -0.64258,2.28906 a 200,200 0 0 1 -0.16601,0.57812 200,199.99999 0 0 0 0.16601,-0.57812 z m -0.16601,0.57812 a 200,199.99999 0 0 1 -0.22461,0.76368 200,200 0 0 0 0.22461,-0.76368 z M 8.42383,257.44531 a 200,200 0 0 0 0.20508,0.67969 200,199.99999 0 0 1 -0.20508,-0.67969 z m 0.20508,0.67969 a 200,199.99999 0 0 0 0.20117,0.65625 200,200 0 0 1 -0.20117,-0.65625 z m 382.93554,-0.67969 a 200,200 0 0 1 -0.20508,0.67969 200,199.99999 0 0 0 0.20508,-0.67969 z m -0.20508,0.67969 a 200,199.99999 0 0 1 -0.20117,0.65625 200,200 0 0 0 0.20117,-0.65625 z M 9.47852,260.85156 a 200,200 0 0 0 0.30859,0.95703 200,199.99999 0 0 1 -0.30859,-0.95703 z m 381.03124,0 a 200,200 0 0 1 -0.30859,0.95703 200,199.99999 0 0 0 0.30859,-0.95703 z m -380.22851,2.45899 a 200,199.99999 0 0 0 0.38086,1.12695 200,200 0 0 1 -0.38086,-1.12695 z m 379.42578,0 a 200,199.99999 0 0 1 -0.38086,1.12695 200,200 0 0 0 0.38086,-1.12695 z m -378.72656,2.05468 a 200,200 0 0 0 0.28907,0.83203 200,199.99999 0 0 1 -0.28907,-0.83203 z m 378.02734,0 a 200,200 0 0 1 -0.28906,0.83203 200,199.99999 0 0 0 0.28906,-0.83203 z m -377.5664,1.32032 a 200,199.99999 0 0 0 0.40039,1.11914 200,200 0 0 1 -0.40039,-1.11914 z m 377.10546,0 a 200,199.99999 0 0 1 -0.40039,1.11914 200,200 0 0 0 0.40039,-1.11914 z m -375.11523,5.38086 a 200,200 0 0 0 0.43165,1.10742 200,199.99999 0 0 1 -0.43165,-1.10742 z m 0.43165,1.10742 a 200,200 0 0 0 0.43945,1.10547 200,199.99999 0 0 1 -0.43945,-1.10547 z m 0.43945,1.10547 a 200,200 0 0 0 0.25,0.62109 200,199.99999 0 0 1 -0.25,-0.62109 z m 0.25,0.62109 a 200,199.99999 0 0 0 0.27344,0.67578 200,200 0 0 1 -0.27344,-0.67578 z m 372.0039,-2.83398 a 200,200 0 0 1 -0.43164,1.10742 200,199.99999 0 0 0 0.43164,-1.10742 z m -0.43164,1.10742 a 200,200 0 0 1 -0.43945,1.10547 200,199.99999 0 0 0 0.43945,-1.10547 z m -0.43945,1.10547 a 200,200 0 0 1 -0.25,0.62109 200,199.99999 0 0 0 0.25,-0.62109 z m -0.25,0.62109 a 200,199.99999 0 0 1 -0.27344,0.67578 200,200 0 0 0 0.27344,-0.67578 z m -370.23633,1.58203 a 200,200 0 0 0 0.31055,0.7461 200,199.99999 0 0 1 -0.31055,-0.7461 z m 0.31055,0.7461 a 200,199.99999 0 0 0 0.22852,0.54296 200,200 0 0 1 -0.22852,-0.54296 z m 369.27929,-0.7461 a 200,200 0 0 1 -0.31054,0.7461 200,199.99999 0 0 0 0.31054,-0.7461 z m -0.31054,0.7461 a 200,199.99999 0 0 1 -0.22852,0.54296 200,200 0 0 0 0.22852,-0.54296 z m -368.12109,1.99414 a 200,199.99999 0 0 0 0.31836,0.73437 200,200 0 0 1 -0.31836,-0.73437 z m 367.27343,0 a 200,199.99999 0 0 1 -0.31836,0.73437 200,200 0 0 0 0.31836,-0.73437 z m -363.3457,8.54296 a 200,199.99999 0 0 0 0.40039,0.81836 200,200 0 0 1 -0.40039,-0.81836 z m 0.40039,0.81836 a 200,199.99999 0 0 0 0.5293,1.06446 200,200 0 0 1 -0.5293,-1.06446 z m 0.5293,1.06446 a 200,199.99999 0 0 0 0.53711,1.0625 200,200 0 0 1 -0.53711,-1.0625 z m 358.48827,-1.88282 a 200,199.99999 0 0 1 -0.40039,0.81836 200,200 0 0 0 0.40039,-0.81836 z m -0.40039,0.81836 a 200,199.99999 0 0 1 -0.52929,1.06446 200,200 0 0 0 0.52929,-1.06446 z m -0.52929,1.06446 a 200,199.99999 0 0 1 -0.53711,1.0625 200,200 0 0 0 0.53711,-1.0625 z M 22.7461,292.63867 a 200,200 0 0 0 0.48047,0.91211 200,199.99999 0 0 1 -0.48047,-0.91211 z m 354.49609,0 a 200,200 0 0 1 -0.48047,0.91211 200,199.99999 0 0 0 0.48047,-0.91211 z m -353.2832,2.28516 a 200,199.99999 0 0 0 0.56836,1.04492 200,200 0 0 1 -0.56836,-1.04492 z m 352.07031,0 a 200,199.99999 0 0 1 -0.56836,1.04492 200,200 0 0 0 0.56836,-1.04492 z m -349.86523,3.97851 a 200,200 0 0 0 0.45507,0.79688 200,199.99999 0 0 1 -0.45507,-0.79688 z m 347.66015,0 a 200,200 0 0 1 -0.45508,0.79688 200,199.99999 0 0 0 0.45508,-0.79688 z m -345.86914,3.08399 a 200,200 0 0 0 0.60938,1.02148 200,199.99999 0 0 1 -0.60938,-1.02148 z m 344.07812,0 a 200,200 0 0 1 -0.60937,1.02148 200,199.99999 0 0 0 0.60937,-1.02148 z m -342.74413,2.21679 a 200,199.99999 0 0 0 0.62304,1.01368 200,200 0 0 1 -0.62304,-1.01368 z m 341.41015,0 a 200,199.99999 0 0 1 -0.62305,1.01368 200,200 0 0 0 0.62305,-1.01368 z m -340.26953,1.84571 a 200,200 0 0 0 0.55274,0.88281 200,199.99999 0 0 1 -0.55274,-0.88281 z m 339.1289,0 a 200,200 0 0 1 -0.55273,0.88281 200,199.99999 0 0 0 0.55273,-0.88281 z m -337.85546,2.00976 a 200,200 0 0 0 0.64453,0.99805 200,199.99999 0 0 1 -0.64453,-0.99805 z m 0.64453,0.99805 a 200,200 0 0 0 0.48633,0.74023 200,199.99999 0 0 1 -0.48633,-0.74023 z m 335.9375,-0.99805 a 200,200 0 0 1 -0.64454,0.99805 200,199.99999 0 0 0 0.64454,-0.99805 z m -0.64454,0.99805 a 200,200 0 0 1 -0.48632,0.74023 200,199.99999 0 0 0 0.48632,-0.74023 z m -334.52538,1.16992 a 200,199.99999 0 0 0 0.6582,0.99024 200,200 0 0 1 -0.6582,-0.99024 z m 333.75781,0 a 200,199.99999 0 0 1 -0.65821,0.99024 200,200 0 0 0 0.65821,-0.99024 z m -332.2793,2.20703 a 200,199.99999 0 0 0 0.51368,0.75196 200,200 0 0 1 -0.51368,-0.75196 z m 330.80078,0 a 200,199.99999 0 0 1 -0.51367,0.75196 200,200 0 0 0 0.51367,-0.75196 z M 36.34571,314.9668 a 200,200 0 0 0 0.53125,0.75586 200,199.99999 0 0 1 -0.53125,-0.75586 z m 327.29687,0 a 200,200 0 0 1 -0.53125,0.75586 200,199.99999 0 0 0 0.53125,-0.75586 z m -326.40234,1.26562 a 200,199.99999 0 0 0 0.60547,0.8418 200,200 0 0 1 -0.60547,-0.8418 z m 325.50781,0 a 200,199.99999 0 0 1 -0.60547,0.8418 200,200 0 0 0 0.60547,-0.8418 z m -321.17578,5.83789 a 200,199.99999 0 0 0 0.55273,0.71289 200,200 0 0 1 -0.55273,-0.71289 z m 316.84375,0 a 200,199.99999 0 0 1 -0.55274,0.71289 200,200 0 0 0 0.55274,-0.71289 z M 47.3711,329.24609 a 200,199.99999 0 0 0 0.77148,0.90625 200,200 0 0 1 -0.77148,-0.90625 z m 305.24609,0 a 200,199.99999 0 0 1 -0.77149,0.90625 200,200 0 0 0 0.77149,-0.90625 z m -303.45312,2.08789 a 200,199.99999 0 0 0 0.53711,0.61328 200,200 0 0 1 -0.53711,-0.61328 z m 301.66015,0 a 200,199.99999 0 0 1 -0.53711,0.61328 200,200 0 0 0 0.53711,-0.61328 z m -296.32031,5.89063 a 200,199.99999 0 0 0 0.81836,0.86328 200,200 0 0 1 -0.81836,-0.86328 z m 290.98046,0 a 200,199.99999 0 0 1 -0.81835,0.86328 200,200 0 0 0 0.81835,-0.86328 z m -288.33788,2.74805 a 200,199.99999 0 0 0 0.66211,0.67382 200,200 0 0 1 -0.66211,-0.67382 z m 285.69531,0 a 200,199.99999 0 0 1 -0.66211,0.67382 200,200 0 0 0 0.66211,-0.67382 z m -283.5,2.20703 a 200,200 0 0 0 0.67383,0.66211 200,199.99999 0 0 1 -0.67383,-0.66211 z m 281.30468,0 a 200,200 0 0 1 -0.67382,0.66211 200,199.99999 0 0 0 0.67382,-0.66211 z m -278.74609,2.48633 a 200,200 0 0 0 0.86329,0.81835 200,199.99999 0 0 1 -0.86329,-0.81835 z m 276.1875,0 a 200,200 0 0 1 -0.86328,0.81835 200,199.99999 0 0 0 0.86328,-0.81835 z m -270.04687,5.62109 a 200,200 0 0 0 0.61328,0.53711 200,199.99999 0 0 1 -0.61328,-0.53711 z m 263.90624,0 a 200,200 0 0 1 -0.61328,0.53711 200,199.99999 0 0 0 0.61328,-0.53711 z M 69.83594,351.8457 a 200,200 0 0 0 0.90625,0.77149 200,199.99999 0 0 1 -0.90625,-0.77149 z m 260.3164,0 a 200,200 0 0 1 -0.90625,0.77149 200,199.99999 0 0 0 0.90625,-0.77149 z m -252.94726,6.01758 a 200,200 0 0 0 0.71289,0.55274 200,199.99999 0 0 1 -0.71289,-0.55274 z m 245.57812,0 a 200,200 0 0 1 -0.71289,0.55274 200,199.99999 0 0 0 0.71289,-0.55274 z m -239.86913,4.2793 a 200,200 0 0 0 0.84179,0.60547 200,199.99999 0 0 1 -0.84179,-0.60547 z m 234.16015,0 a 200,200 0 0 1 -0.8418,0.60547 200,199.99999 0 0 0 0.8418,-0.60547 z m -232.80859,0.96875 a 200,199.99999 0 0 0 0.75586,0.53125 200,200 0 0 1 -0.75586,-0.53125 z m 231.45703,0 a 200,199.99999 0 0 1 -0.75586,0.53125 200,200 0 0 0 0.75586,-0.53125 z m -228.91992,1.76953 a 200,200 0 0 0 0.75195,0.51367 200,199.99999 0 0 1 -0.75195,-0.51367 z m 226.38281,0 a 200,200 0 0 1 -0.75196,0.51367 200,199.99999 0 0 0 0.75196,-0.51367 z m -224.41406,1.33398 a 200,200 0 0 0 0.99023,0.65821 200,199.99999 0 0 1 -0.99023,-0.65821 z m 222.44531,0 a 200,200 0 0 1 -0.99024,0.65821 200,199.99999 0 0 0 0.99024,-0.65821 z M 90.19141,367.1543 a 200,199.99999 0 0 0 0.74023,0.48632 200,200 0 0 1 -0.74023,-0.48632 z m 0.74023,0.48632 a 200,199.99999 0 0 0 0.99805,0.64454 200,200 0 0 1 -0.99805,-0.64454 z m 218.86523,-0.48632 a 200,199.99999 0 0 1 -0.74023,0.48632 200,200 0 0 0 0.74023,-0.48632 z m -0.74023,0.48632 a 200,199.99999 0 0 1 -0.99805,0.64454 200,200 0 0 0 0.99805,-0.64454 z m -216,1.36524 a 200,199.99999 0 0 0 0.88282,0.55273 200,200 0 0 1 -0.88282,-0.55273 z m 213.875,0 a 200,199.99999 0 0 1 -0.88281,0.55273 200,200 0 0 0 0.88281,-0.55273 z m -212.16015,1.07031 a 200,200 0 0 0 1.01367,0.62305 200,199.99999 0 0 1 -1.01367,-0.62305 z m 210.44531,0 a 200,200 0 0 1 -1.01368,0.62305 200,199.99999 0 0 0 1.01368,-0.62305 z m -208.23633,1.34766 a 200,199.99999 0 0 0 1.02149,0.60937 200,200 0 0 1 -1.02149,-0.60937 z m 206.02734,0 a 200,199.99999 0 0 1 -1.02148,0.60937 200,200 0 0 0 1.02148,-0.60937 z m -202.71875,1.94531 a 200,199.99999 0 0 0 0.79688,0.45508 200,200 0 0 1 -0.79688,-0.45508 z m 199.41016,0 a 200,199.99999 0 0 1 -0.79688,0.45508 200,200 0 0 0 0.79688,-0.45508 z m -195.67969,2.0918 a 200,200 0 0 0 1.04492,0.56836 200,199.99999 0 0 1 -1.04492,-0.56836 z m 191.94922,0 a 200,200 0 0 1 -1.04492,0.56836 200,199.99999 0 0 0 1.04492,-0.56836 z m -189.53125,1.30078 a 200,199.99999 0 0 0 0.91211,0.48047 200,200 0 0 1 -0.91211,-0.48047 z m 187.11328,0 a 200,199.99999 0 0 1 -0.91211,0.48047 200,200 0 0 0 0.91211,-0.48047 z m -184.27344,1.47461 a 200,200 0 0 0 1.0625,0.53711 200,199.99999 0 0 1 -1.0625,-0.53711 z m 1.0625,0.53711 a 200,200 0 0 0 1.06446,0.52929 200,199.99999 0 0 1 -1.06446,-0.52929 z m 1.06446,0.52929 a 200,200 0 0 0 0.81836,0.40039 200,199.99999 0 0 1 -0.81836,-0.40039 z m 179.30664,-1.0664 a 200,200 0 0 1 -1.0625,0.53711 200,199.99999 0 0 0 1.0625,-0.53711 z m -1.0625,0.53711 a 200,200 0 0 1 -1.06446,0.52929 200,199.99999 0 0 0 1.06446,-0.52929 z m -1.06446,0.52929 a 200,200 0 0 1 -0.81836,0.40039 200,199.99999 0 0 0 0.81836,-0.40039 z m -168.55273,4.00977 a 200,200 0 0 0 0.73437,0.31836 200,199.99999 0 0 1 -0.73437,-0.31836 z m 159.92578,0 a 200,200 0 0 1 -0.73437,0.31836 200,199.99999 0 0 0 0.73437,-0.31836 z M 122.2168,384.25 a 200,200 0 0 0 0.54296,0.22852 200,199.99999 0 0 1 -0.54296,-0.22852 z m 0.54296,0.22852 a 200,199.99999 0 0 0 0.7461,0.31054 200,200 0 0 1 -0.7461,-0.31054 z M 277.77148,384.25 a 200,200 0 0 1 -0.54296,0.22852 200,199.99999 0 0 0 0.54296,-0.22852 z m -0.54296,0.22852 a 200,199.99999 0 0 1 -0.7461,0.31054 200,200 0 0 0 0.7461,-0.31054 z m -152.81641,0.68359 a 200,200 0 0 0 0.67578,0.27344 200,199.99999 0 0 1 -0.67578,-0.27344 z m 0.67578,0.27344 a 200,199.99999 0 0 0 0.62109,0.25 200,200 0 0 1 -0.62109,-0.25 z m 0.62109,0.25 a 200,199.99999 0 0 0 1.10547,0.43945 200,200 0 0 1 -1.10547,-0.43945 z m 1.10547,0.43945 a 200,199.99999 0 0 0 1.10742,0.43164 200,200 0 0 1 -1.10742,-0.43164 z m 148.76172,-0.96289 a 200,200 0 0 1 -0.67578,0.27344 200,199.99999 0 0 0 0.67578,-0.27344 z m -0.67578,0.27344 a 200,199.99999 0 0 1 -0.62109,0.25 200,200 0 0 0 0.62109,-0.25 z m -0.62109,0.25 a 200,199.99999 0 0 1 -1.10547,0.43945 200,200 0 0 0 1.10547,-0.43945 z m -1.10547,0.43945 a 200,199.99999 0 0 1 -1.10742,0.43164 200,200 0 0 0 1.10742,-0.43164 z m -140.99024,2.02148 a 200,200 0 0 0 1.11914,0.40039 200,199.99999 0 0 1 -1.11914,-0.40039 z m 135.6211,0 a 200,200 0 0 1 -1.11914,0.40039 200,199.99999 0 0 0 1.11914,-0.40039 z m -134.01367,0.57227 a 200,199.99999 0 0 0 0.83203,0.28906 200,200 0 0 1 -0.83203,-0.28906 z m 132.40624,0 a 200,199.99999 0 0 1 -0.83203,0.28906 200,200 0 0 0 0.83203,-0.28906 z m -130.64648,0.60742 a 200,200 0 0 0 1.12695,0.38086 200,199.99999 0 0 1 -1.12695,-0.38086 z m 128.88672,0 a 200,200 0 0 1 -1.12695,0.38086 200,199.99999 0 0 0 1.12695,-0.38086 z m -126.25781,0.875 a 200,199.99999 0 0 0 0.95703,0.30859 200,200 0 0 1 -0.95703,-0.30859 z m 123.6289,0 a 200,199.99999 0 0 1 -0.95703,0.30859 200,200 0 0 0 0.95703,-0.30859 z m -120.60156,0.95703 a 200,200 0 0 0 0.65625,0.20117 200,199.99999 0 0 1 -0.65625,-0.20117 z m 0.65625,0.20117 a 200,199.99999 0 0 0 0.67969,0.20508 200,200 0 0 1 -0.67969,-0.20508 z m 116.91797,-0.20117 a 200,200 0 0 1 -0.65625,0.20117 200,199.99999 0 0 0 0.65625,-0.20117 z m -0.65625,0.20117 a 200,199.99999 0 0 1 -0.67969,0.20508 200,200 0 0 0 0.67969,-0.20508 z m -114.64063,0.48438 a 200,200 0 0 0 0.76368,0.22461 200,199.99999 0 0 1 -0.76368,-0.22461 z m 0.76368,0.22461 a 200,199.99999 0 0 0 0.57812,0.16601 200,200 0 0 1 -0.57812,-0.16601 z m 0.57812,0.16601 a 200,199.99999 0 0 0 2.28906,0.64258 200,200 0 0 1 -2.28906,-0.64258 z m 2.28906,0.64258 a 200,199.99999 0 0 0 1.14844,0.31055 200,200 0 0 1 -1.14844,-0.31055 z m 109.38868,-1.0332 a 200,200 0 0 1 -0.76368,0.22461 200,199.99999 0 0 0 0.76368,-0.22461 z m -0.76368,0.22461 a 200,199.99999 0 0 1 -0.57812,0.16601 200,200 0 0 0 0.57812,-0.16601 z m -0.57812,0.16601 a 200,199.99999 0 0 1 -2.28906,0.64258 200,200 0 0 0 2.28906,-0.64258 z m -2.28906,0.64258 a 200,199.99999 0 0 1 -1.14844,0.31055 200,200 0 0 0 1.14844,-0.31055 z m -99.04688,1.71485 a 200,200 0 0 0 0.92383,0.21679 200,199.99999 0 0 1 -0.92383,-0.21679 z m 92.33594,0 a 200,200 0 0 1 -0.92383,0.21679 200,199.99999 0 0 0 0.92383,-0.21679 z m -90.01758,0.53515 a 200,200 0 0 0 1.04883,0.23242 200,199.99999 0 0 1 -1.04883,-0.23242 z m 87.69922,0 a 200,200 0 0 1 -1.04883,0.23242 200,199.99999 0 0 0 1.04883,-0.23242 z m -85.37695,0.50781 a 200,200 0 0 0 1.16406,0.24415 200,199.99999 0 0 1 -1.16406,-0.24415 z m 1.16406,0.24415 a 200,200 0 0 0 1.04297,0.21093 200,199.99999 0 0 1 -1.04297,-0.21093 z m 81.89062,-0.24415 a 200,200 0 0 1 -1.16406,0.24415 200,199.99999 0 0 0 1.16406,-0.24415 z m -1.16406,0.24415 a 200,200 0 0 1 -1.04297,0.21093 200,199.99999 0 0 0 1.04297,-0.21093 z m -78.01953,0.53906 a 200,199.99999 0 0 0 1,0.1875 200,200 0 0 1 -1,-0.1875 z m 75.3125,0 a 200,199.99999 0 0 1 -1,0.1875 200,200 0 0 0 1,-0.1875 z m -68.6582,1.1582 a 200,200 0 0 0 1.12109,0.17383 200,199.99999 0 0 1 -1.12109,-0.17383 z m 62.0039,0 a 200,200 0 0 1 -1.12109,0.17383 200,199.99999 0 0 0 1.12109,-0.17383 z m -58.47461,0.52149 a 200,200 0 0 0 0.89649,0.12109 200,199.99999 0 0 1 -0.89649,-0.12109 z m 54.94532,0 a 200,200 0 0 1 -0.89649,0.12109 200,199.99999 0 0 0 0.89649,-0.12109 z m -52.58789,0.3125 a 200,200 0 0 0 1.17968,0.14648 200,199.99999 0 0 1 -1.17968,-0.14648 z m 1.17968,0.14648 a 200,200 0 0 0 0.86914,0.10156 200,199.99999 0 0 1 -0.86914,-0.10156 z m 49.05078,-0.14648 a 200,200 0 0 1 -1.17968,0.14648 200,199.99999 0 0 0 1.17968,-0.14648 z m -1.17968,0.14648 a 200,200 0 0 1 -0.86914,0.10156 200,199.99999 0 0 0 0.86914,-0.10156 z m -46.38086,0.17383 a 200,199.99999 0 0 0 1.08008,0.11914 200,200 0 0 1 -1.08008,-0.11914 z m 44.89062,0 a 200,199.99999 0 0 1 -1.08008,0.11914 200,200 0 0 0 1.08008,-0.11914 z m -42.29101,0.27539 a 200,199.99999 0 0 0 0.81054,0.0801 200,200 0 0 1 -0.81054,-0.0801 z m 39.6914,0 a 200,199.99999 0 0 1 -0.81054,0.0801 200,200 0 0 0 0.81054,-0.0801 z m -37.86718,0.17383 a 200,200 0 0 0 1.00195,0.0879 200,199.99999 0 0 1 -1.00195,-0.0879 z m 36.04296,0 a 200,200 0 0 1 -1.00195,0.0879 200,199.99999 0 0 0 1.00195,-0.0879 z m -34.42968,0.13867 a 200,199.99999 0 0 0 0.96484,0.0781 200,200 0 0 1 -0.96484,-0.0781 z m 0.96484,0.0781 a 200,199.99999 0 0 0 1.18555,0.0879 200,200 0 0 1 -1.18555,-0.0879 z m 31.85156,-0.0781 a 200,199.99999 0 0 1 -0.96484,0.0781 200,200 0 0 0 0.96484,-0.0781 z m -0.96484,0.0781 a 200,199.99999 0 0 1 -1.18555,0.0879 200,200 0 0 0 1.18555,-0.0879 z m -28.30469,0.1836 a 200,199.99999 0 0 0 0.97656,0.0605 200,200 0 0 1 -0.97656,-0.0605 z m 0.97656,0.0605 a 200,199.99999 0 0 0 1.1875,0.0664 200,200 0 0 1 -1.1875,-0.0664 z m 24.7461,-0.0605 a 200,199.99999 0 0 1 -0.97656,0.0605 200,200 0 0 0 0.97656,-0.0605 z m -0.97656,0.0605 a 200,199.99999 0 0 1 -1.1875,0.0664 200,200 0 0 0 1.1875,-0.0664 z m -21.3086,0.13086 a 200,199.99999 0 0 0 1.10156,0.0488 200,200 0 0 1 -1.10156,-0.0488 z m 18.84766,0 a 200,199.99999 0 0 1 -1.10156,0.0488 200,200 0 0 0 1.10156,-0.0488 z m -16.19531,0.10743 a 200,199.99999 0 0 0 0.76953,0.0254 200,200 0 0 1 -0.76953,-0.0254 z m 13.54296,0 a 200,199.99999 0 0 1 -0.76953,0.0254 200,200 0 0 0 0.76953,-0.0254 z m -11.73632,0.0527 a 200,200 0 0 0 0.86523,0.0195 200,199.99999 0 0 1 -0.86523,-0.0195 z m 9.92968,0 a 200,200 0 0 1 -0.86523,0.0195 200,199.99999 0 0 0 0.86523,-0.0195 z m -7.55273,0.0449 a 200,200 0 0 0 1.18945,0.0117 200,199.99999 0 0 1 -1.18945,-0.0117 z m 5.17578,0 a 200,200 0 0 1 -1.18945,0.0117 200,199.99999 0 0 0 1.18945,-0.0117 z" />
  </g>
</svg>
