<?xml version="1.0" encoding="UTF-8" standalone="no"?>
<svg
   xmlns:dc="http://purl.org/dc/elements/1.1/"
   xmlns:cc="http://creativecommons.org/ns#"
   xmlns:rdf="http://www.w3.org/1999/02/22-rdf-syntax-ns#"
   xmlns:svg="http://www.w3.org/2000/svg"
   xmlns="http://www.w3.org/2000/svg"
   xmlns:sodipodi="http://sodipodi.sourceforge.net/DTD/sodipodi-0.dtd"
   xmlns:inkscape="http://www.inkscape.org/namespaces/inkscape"
   inkscape:version="1.0 (4035a4fb49, 2020-05-01)"
   sodipodi:docname="jaeger.svg"
   viewBox="0 0 400 400"
   height="400"
   width="400"
   id="svg833"
   version="1.1">
  <metadata
     id="metadata839">
    <rdf:RDF>
      <cc:Work
         rdf:about="">
        <dc:format>image/svg+xml</dc:format>
        <dc:type
           rdf:resource="http://purl.org/dc/dcmitype/StillImage" />
        <dc:title></dc:title>
      </cc:Work>
    </rdf:RDF>
  </metadata>
  <defs
     id="defs837" />
  <sodipodi:namedview
     inkscape:current-layer="layer1"
     inkscape:window-maximized="0"
     inkscape:window-y="17"
     inkscape:window-x="145"
     inkscape:cy="380.35393"
     inkscape:cx="479.09575"
     inkscape:zoom="0.9202418"
     showgrid="false"
     id="namedview835"
     inkscape:window-height="976"
     inkscape:window-width="1600"
     inkscape:pageshadow="2"
     inkscape:pageopacity="0"
     guidetolerance="10"
     gridtolerance="10"
     objecttolerance="10"
     borderopacity="1"
     bordercolor="#666666"
     pagecolor="#ffffff" />
  <g
     style="display:inline"
     inkscape:label="Image 1"
     id="layer1"
     inkscape:groupmode="layer">
    <path
       inkscape:export-ydpi="23.466665"
       inkscape:export-xdpi="23.466665"
       d="M 199.77604,3.1348802e-5 A 200,199.99999 0 0 0 0,200.00001 200,199.99999 0 0 0 200,400 200,199.99999 0 0 0 400,200.00001 200,199.99999 0 0 0 200,3.1348802e-5 a 200,199.99999 0 0 0 -0.22396,0 z M 125.83507,113.38196 c 4.30897,-0.0222 10.36524,0.74938 21.80902,2.43056 27.24222,4.00207 32.80444,4.95276 47.11111,8.05902 18.01287,3.91096 20.20682,4.75291 20.92536,8.02431 0.8748,3.98296 -1.47072,5.21207 -6.3802,3.34549 -2.43876,-0.92722 -2.44574,-0.91962 -0.80905,0.88889 0.90793,1.00325 2.13407,1.82465 2.72571,1.82465 2.40245,0 7.34067,5.24113 11.21874,11.90973 0.88102,1.51498 3.15688,6.77676 4.89584,11.31422 l 1.57638,4.11111 12.47918,3.34896 c 14.41422,3.86749 16.84873,5.04649 16.15971,7.8316 -0.42038,1.69922 0.28129,2.22067 5.92015,4.38542 3.51927,1.35105 6.9724,2.45105 7.6736,2.44445 0.7012,-0.007 2.9012,0.76755 4.88889,1.72049 1.98769,0.95291 7.01458,3.17466 11.17013,4.93748 4.15556,1.76283 8.95556,4.12609 10.66667,5.25174 1.71111,1.12564 4.51111,2.87831 6.22222,3.89411 4.09458,2.43073 27.49785,14.14709 29.77778,14.90798 0.99329,0.33146 1.31707,0.76693 0.73438,0.98611 -0.5736,0.21578 -8.1736,-2.42087 -16.88889,-5.85938 -21.43647,-8.45751 -62.58416,-23.24431 -63.35589,-22.76736 -0.343,0.212 -1.87924,2.905 -3.4132,5.98438 -2.03649,4.0882 -2.84538,7.03798 -3,10.93229 l -0.21178,5.33334 7.06771,2.52257 c 3.88743,1.38727 11.66772,3.47574 17.28994,4.64236 5.62222,1.16662 12.62222,2.763 15.55555,3.54687 2.93334,0.78386 10.33334,1.99406 16.44445,2.68924 7.97333,0.907 11.74895,1.73593 13.37153,2.93402 2.25545,1.66538 22.13105,5.45127 37.57465,7.15798 3.81991,0.42216 7.07917,0.90891 7.2448,1.0816 0.16555,0.17267 0.44108,1.31424 0.61111,2.53647 0.28755,2.06709 0.02,2.24024 -3.84203,2.48958 -2.2834,0.14733 -9.4834,-0.78478 -16,-2.07118 -6.8116,-1.34465 -16.00548,-2.478 -21.62673,-2.66667 -5.37778,-0.18044 -15.47778,-0.58947 -22.44444,-0.90971 -8.21554,-0.37765 -12.66667,-0.27098 -12.66667,0.3038 0,1.1226 2.16422,1.96529 5.04689,1.96529 1.22898,0 3.34155,0.7884 4.69444,1.75173 1.35287,0.96334 2.77103,1.46334 3.15278,1.11111 0.38173,-0.35222 0.0242,0.40838 -0.79515,1.69098 -1.46487,2.29325 -1.71129,2.34318 -14.82812,2.97569 -10.8186,0.52169 -14.98566,0.35327 -22.05728,-0.88889 -9.65223,-1.69547 -7.5644,-1.90669 -34.08683,3.44965 -8.66897,1.75075 -18.93864,3.58262 -22.82117,4.06944 -8.33765,1.04547 -38.95798,1.0326 -47.13367,-0.02 -10.39587,-1.33731 -22.57785,-4.50604 -33.83856,-8.8038 -6.11111,-2.33238 -12.11111,-4.53853 -13.33333,-4.90105 -1.22222,-0.36251 -6.62222,-2.67042 -12,-5.12848 -18.03164,-8.2418 -21.70524,-9.04383 -29.77778,-6.50174 -2.2,0.6928 -5.7,1.64025 -7.77778,2.10418 -3.71246,0.82891 -3.77777,0.80151 -3.77777,-1.53298 0,-3.24993 2.82197,-6.00809 7.3368,-7.17189 6.77331,-1.74595 12.65731,-4.99431 14.85244,-8.19791 3.24438,-4.73484 13.07973,-10.37693 26.53125,-15.22222 7.72166,-2.78138 8.39804,-2.84256 5.59548,-0.50867 -2.74184,2.28327 -8.97495,11.80918 -8.10764,12.39063 0.78093,0.52351 2.22142,4.59244 1.96702,5.55555 -0.0969,0.36667 0.52465,0.67307 1.3802,0.68056 1.32938,0.0111 1.36169,0.13866 0.22222,0.875 -2.07122,1.33851 -3.30528,1.05071 -3.81248,-0.88889 -0.65447,-2.50267 -2.40974,-2.2168 -2.40974,0.39235 0,1.19338 -0.34578,2.38247 -0.76909,2.64409 -0.42333,0.26165 -0.58673,1.4348 -0.36284,2.60591 0.34891,1.82529 1.06109,2.20691 4.99131,2.6736 2.71922,0.32291 4.70622,0.18889 4.88196,-0.32984 0.16288,-0.48113 0.85051,-0.875 1.52777,-0.875 0.67725,0 1.04445,0.5 0.81769,1.11111 -0.22673,0.61111 -0.0871,2.30124 0.30905,3.7552 l 0.72049,2.64236 1.49651,-3.00174 c 0.82377,-1.65131 1.49826,-3.89191 1.49826,-4.97915 0,-1.08727 0.59498,-2.47051 1.32294,-3.07467 0.72793,-0.60413 1.10471,-1.45364 0.8368,-1.88716 -0.26791,-0.43348 -0.0629,-0.78817 0.45484,-0.78817 0.51776,0 0.94098,-0.4 0.94098,-0.88889 0,-0.48889 -0.6,-0.88889 -1.33333,-0.88889 -1.51696,0 -1.78607,-1.39316 -0.43056,-2.23091 0.49687,-0.30707 0.66256,-0.94882 0.36807,-1.42536 -0.29451,-0.47651 -0.0509,-1.44953 0.53991,-2.16144 0.73,-0.87958 0.76184,-1.2934 0.0989,-1.2934 -1.2604,0 -0.30978,-5.45014 1.1632,-6.66667 0.59193,-0.48889 1.36235,-2.03107 1.71006,-3.42709 0.35396,-1.42122 1.3922,-2.73667 2.35936,-2.98958 0.95002,-0.24844 1.53302,-0.76549 1.29689,-1.14757 -0.23614,-0.38207 0.16889,-0.9228 0.89931,-1.20314 0.73051,-0.28031 1.33451,-0.0229 1.342,0.57294 0.009,0.72564 0.2292,0.77093 0.66667,0.13888 0.35917,-0.51895 2.05277,-1.32457 3.76388,-1.79166 3.55992,-0.97176 5.31558,-3.8548 7.51563,-12.34029 2.0492,-7.90369 1.76646,-14.26462 -0.88714,-19.96527 -2.89993,-6.22978 -13.37493,-16.58402 -23.96182,-23.68578 -6.17084,-4.13942 -8.061,-5.8864 -8.26909,-7.64409 -0.3782,-3.19449 3.79889,-6.46731 11.19791,-8.77082 2.94863,-0.918 5.24407,-1.41389 8.59549,-1.43055 z m 69.57813,91.61981 c -0.50731,-0.044 -0.54684,0.34909 -0.23613,1.32811 0.29631,0.93355 0.0956,1.97078 -0.44618,2.30555 -0.56578,0.34969 -1.18931,-0.17777 -1.467,-1.23957 -0.44253,-1.69227 -0.64289,-1.73649 -2.36111,-0.53298 -1.03225,0.723 -2.7876,1.31422 -3.90105,1.31422 -1.21817,0 -2.02431,0.53818 -2.02431,1.35069 0,0.98 0.58254,1.20311 2.125,0.81598 1.16889,-0.29338 2.37016,-0.13889 2.6684,0.34375 0.31405,0.50811 -1.36335,1.13951 -3.98438,1.5 -4.98188,0.68518 -10.6952,3.0668 -7.47568,3.11631 1.13453,0.0178 2.3458,1.17069 3.34895,3.18576 1.50331,3.01976 1.50331,3.1442 0,2.85764 -0.86455,-0.16488 -1.69967,-1.19491 -1.85589,-2.28991 -0.29658,-2.07875 -1.92769,-2.8146 -1.9514,-0.88022 -0.0111,0.83822 -0.19578,0.82193 -0.75866,-0.066 -0.61205,-0.96531 -1.34896,-0.92535 -4.09549,0.22222 -4.07587,1.703 -4.02085,1.70111 -4.02085,0.118 0,-2.02806 -1.94155,-2.69089 -3.12846,-1.06769 -0.94427,1.29136 -1.21983,1.31414 -2.16494,0.17534 -0.59533,-0.71734 -0.8692,-1.64902 -0.60938,-2.06945 0.6462,-1.04555 -1.63468,-7.47815 -2.3854,-6.72742 -0.3304,0.33038 -0.60071,1.68087 -0.60071,3.00173 0,2.31232 -0.18711,2.40598 -5.01909,2.51736 -2.7602,0.0636 -5.6248,0.61564 -6.36633,1.22744 -1.07822,0.88958 -1.42313,0.89067 -1.72222,0.002 -0.20578,-0.61111 -1.19602,-1.11111 -2.20138,-1.11111 -1.00535,0 -2.35235,-0.7 -2.99307,-1.55555 -1.08431,-1.44796 -1.1406,-1.43258 -0.81942,0.22222 0.18978,0.97778 0.56094,3.67778 0.82638,6 0.44569,3.89898 0.33118,4.22942 -1.5,4.32464 -1.50469,0.0782 -1.60742,0.202 -0.42709,0.51042 2.18345,0.57058 1.93653,1.85565 -0.44444,2.31423 -1.7148,0.33029 -1.6514,0.40315 0.44444,0.50695 2.35756,0.11667 3.50027,2.28811 1.54689,2.93922 -1.22344,0.40783 -1.86238,4.12976 -0.81944,4.77432 0.46228,0.28573 1.07486,-0.0909 1.36108,-0.8368 0.45614,-1.18867 0.76056,-1.19794 2.46703,-0.0798 1.07089,0.70169 4.91006,1.69649 8.53124,2.21006 3.6212,0.51358 6.77567,1.1246 7.00869,1.35765 0.78076,0.78076 22.72029,0.39784 28.96876,-0.50522 3.39664,-0.49089 6.82933,-1.48149 7.62673,-2.20311 0.7974,-0.72165 2.27982,-1.31252 3.29513,-1.31252 1.01531,0 3.47422,-0.86871 5.46356,-1.93055 4.05433,-2.16409 4.70038,-5.21213 1.4722,-6.94445 -2.9184,-1.56608 -4.08682,-4.89464 -2.35936,-6.72395 1.33647,-1.41525 1.29536,-1.48858 -0.57466,-1.04167 -2.07725,0.49647 -4.18503,-1.84951 -4.217,-4.69271 -0.0111,-0.89247 -0.71363,-1.23498 -2.12849,-1.03471 -1.63483,0.23142 -1.98527,-0.02 -1.54514,-1.11111 0.313,-0.77567 0.79171,-1.95822 1.06425,-2.62847 0.27253,-0.67024 -0.15289,-1.46811 -0.94618,-1.77258 -0.27736,-0.10644 -0.49931,-0.16933 -0.6684,-0.184 z m -38.14238,4.58506 c -0.41431,-0.0484 -1.46646,0.48183 -2.52951,1.2986 -2.53027,1.94412 -1.22031,2.38994 1.39758,0.47569 0.94822,-0.69335 1.52007,-1.46602 1.26909,-1.717 -0.0313,-0.0313 -0.078,-0.0504 -0.13711,-0.0573 z m -8.92533,1.25694 c -1.34778,0 -2.18229,0.51011 -2.18229,1.33333 0,0.73333 0.4844,1.33333 1.07638,1.33333 0.592,0 1.57369,-0.6 2.18229,-1.33333 0.93253,-1.12362 0.7632,-1.33333 -1.07638,-1.33333 z m 55.32118,0.44791 c -0.12667,0.0155 -0.23607,0.0607 -0.31945,0.144 -0.66711,0.66709 1.02545,2.96353 2.18402,2.96353 0.42903,0 0.77952,-0.35049 0.77952,-0.77951 0,-1.01378 -1.75774,-2.43544 -2.64409,-2.32813 z m -27.68403,0.55382 c -0.48335,-0.007 -0.99986,0.0471 -1.43228,0.15978 -0.86487,0.22535 -0.37294,0.42458 1.09373,0.44271 1.46667,0.0178 2.17473,-0.16622 1.57293,-0.40973 -0.30091,-0.12178 -0.75104,-0.18667 -1.23438,-0.19267 z m 14.15625,0.78473 c 0.32167,-0.0731 0.8696,0.30534 1.57813,1.27429 1.19054,1.62818 1.75254,4.93925 0.83854,4.93925 -0.23189,0 -1.06183,-1.23791 -1.84376,-2.75 -1.01838,-1.96934 -1.10904,-3.3418 -0.57291,-3.46354 z m -16.49133,2.79514 c -0.6308,0.0458 -1.52352,0.64349 -1.80034,1.47395 -0.21644,0.64956 0.18978,0.84783 1.05556,0.51563 0.77418,-0.29709 1.40798,-0.93065 1.40798,-1.40798 0,-0.43814 -0.28472,-0.60914 -0.6632,-0.5816 z m -15.79687,1.16493 c 0.30151,-0.0111 0.46007,0.12733 0.46007,0.4132 0,0.48889 -0.8,1.31698 -1.77778,1.84027 -1.14347,0.61198 -1.77778,0.63422 -1.77778,0.0624 0,-0.48889 0.8,-1.31698 1.77778,-1.84026 0.57175,-0.306 1.0162,-0.46509 1.31771,-0.47569 z m -60.90798,1.36458 c -1.50591,0 -1.6188,0.20955 -0.66667,1.23958 1.18243,1.27926 2.47916,1.06897 2.47916,-0.40278 0,-0.46002 -0.81544,-0.8368 -1.81249,-0.8368 z m 79.89756,2.0052 c 0.54706,-0.0782 1.02604,0.2464 1.02604,1.03127 0,0.77406 -0.63391,1.40797 -1.40798,1.40797 -0.77409,0 -1.24909,-0.475 -1.05555,-1.05555 0.27469,-0.82409 0.89042,-1.30554 1.43749,-1.38369 z m -70.75174,3.34202 c -1.32937,0.0111 -1.36169,0.13867 -0.22222,0.875 1.67753,1.08409 1.77778,1.08409 1.77778,0 0,-0.48889 -0.7,-0.88249 -1.55556,-0.875 z"
       style="fill:#0088a9;stroke-width:0.883034"
       id="path847" />
  </g>
</svg>
