<?xml version="1.0" encoding="UTF-8" standalone="no"?>
<svg
   xmlns:dc="http://purl.org/dc/elements/1.1/"
   xmlns:cc="http://creativecommons.org/ns#"
   xmlns:rdf="http://www.w3.org/1999/02/22-rdf-syntax-ns#"
   xmlns:svg="http://www.w3.org/2000/svg"
   xmlns="http://www.w3.org/2000/svg"
   xmlns:sodipodi="http://sodipodi.sourceforge.net/DTD/sodipodi-0.dtd"
   xmlns:inkscape="http://www.inkscape.org/namespaces/inkscape"
   inkscape:version="1.0 (4035a4fb49, 2020-05-01)"
   sodipodi:docname="mow1.svg"
   viewBox="0 0 150 150"
   height="150"
   width="150"
   id="svg833"
   version="1.1">
  <metadata
     id="metadata839">
    <rdf:RDF>
      <cc:Work
         rdf:about="">
        <dc:format>image/svg+xml</dc:format>
        <dc:type
           rdf:resource="http://purl.org/dc/dcmitype/StillImage" />
        <dc:title></dc:title>
      </cc:Work>
    </rdf:RDF>
  </metadata>
  <defs
     id="defs837">
    <clipPath
       id="clipPath865"
       clipPathUnits="userSpaceOnUse">
      <circle
         style="fill:#ffffff;stroke-width:1.34789"
         id="circle867"
         cy="82.800003"
         cx="129.5"
         r="75" />
    </clipPath>
  </defs>
  <sodipodi:namedview
     inkscape:current-layer="layer1"
     inkscape:window-maximized="0"
     inkscape:window-y="0"
     inkscape:window-x="0"
     inkscape:cy="94.201049"
     inkscape:cx="106.23265"
     inkscape:zoom="4.3136335"
     showgrid="false"
     id="namedview835"
     inkscape:window-height="1141"
     inkscape:window-width="1754"
     inkscape:pageshadow="2"
     inkscape:pageopacity="0"
     guidetolerance="10"
     gridtolerance="10"
     objecttolerance="10"
     borderopacity="1"
     bordercolor="#666666"
     pagecolor="#ffffff" />
  <g
     inkscape:label="bg"
     id="layer1"
     inkscape:groupmode="layer">
    <circle
       r="75"
       cx="75"
       cy="75"
       id="path848"
       style="fill:#220b28;stroke-width:1.34789" />
  </g>
  <g
     id="g841"
     inkscape:label="Image"
     inkscape:groupmode="layer">
    <path
       transform="translate(-54.5,-7.8000031)"
       clip-path="url(#clipPath865)"
       id="path845"
       d="M 0,80.32 V 0 h 52.487994 52.487996 l 1.832,0.71105242 c 2.51975,0.97798518 5.51806,0.97545268 6.56228,-0.005543 C 113.90099,0.20692501 114.51963,0 115.47951,0 c 1.45912,0 1.53517,0.45255584 0.16367,0.9740001 C 114.85172,1.27491 114.24,2.40773 114.24,3.5724707 c 0,0.8786371 0.95912,2.8472771 1.48562,3.0493155 0.23365,0.089658 1.39897,-0.3120092 2.5896,-0.8925945 2.41423,-1.1772477 3.71706,-1.5753411 4.19298,-1.281209 0.63286,0.3911299 -0.32405,3.1860279 -1.54282,4.5061933 -2.25249,2.439884 -2.4639,4.025431 -0.66104,4.957728 1.45361,0.751688 1.4501,1.064088 -0.0267,2.374608 -1.95235,1.732566 -1.47293,2.103846 3.0876,2.391124 5.50433,0.346731 9.0971,0.718064 9.34489,0.965847 0.12496,0.124968 0.0715,0.472307 -0.11882,0.771865 -0.30998,0.487891 -0.95911,0.532344 -6.22869,0.426555 -3.84278,-0.07714 -6.3265,-0.269715 -7.16264,-0.555343 -0.7311,-0.249742 -2.60985,-0.439243 -4.38112,-0.441903 -2.92678,-0.0044 -4.25907,-0.360759 -2.78745,-0.745596 1.082,-0.282949 0.59145,-1.268138 -1.03292,-2.074451 -2.33158,-1.157363 -5.06911,-1.221703 -10.63301,-0.249909 -5.720636,0.999168 -6.192946,1.107804 -7.348146,1.690135 -0.734096,0.370053 -0.831347,0.540928 -0.520819,0.915091 0.210019,0.25304 0.580208,0.460073 0.822656,0.460073 0.242451,0 0.440819,0.26858 0.440819,0.596845 0,2.181447 -4.964768,4.886402 -16.212144,8.832864 -1.788678,0.62761 -4.020678,1.204714 -4.96,1.282454 -0.939322,0.07774 -2.499856,0.453142 -3.467856,0.834225 -0.968,0.381083 -2.24327,0.764582 -2.833933,0.852217 -0.965069,0.143187 -1.052953,0.09324 -0.866982,-0.492703 0.363827,-1.146326 -0.319731,-1.053144 -3.222794,0.439327 -3.749232,1.927488 -3.984595,2.070457 -5.065417,3.076928 l -0.925847,0.862157 0.765258,0.619667 0.765257,0.61967 -1.375132,1.282291 c -0.756327,0.705264 -1.70048,1.982442 -2.098119,2.838176 C 53.86465,42.339853 53.183427,43.472 52.748464,44 c -0.434966,0.528 -1.486384,2.069594 -2.336486,3.425763 -1.105232,1.763178 -1.874221,2.625722 -2.69881,3.027146 C 47.078925,50.76167 46.452,50.98408 46.32,50.947149 c -0.132,-0.03693 -0.24,0.05938 -0.24,0.214029 0,0.387196 -1.51033,0.976972 -2.982838,1.164784 -1.748103,0.22296 -2.327607,0.619004 -3.27753,2.239923 C 39.357389,55.35465 38.805142,56 38.592422,56 38.03945,56 34.959718,57.548358 33.36,58.630643 c -1.531474,1.036112 -1.663665,1.641981 -0.617226,2.828915 1.035815,1.174887 3.346352,1.713722 7.409914,1.728052 3.095712,0.01091 3.52584,-0.05409 3.623466,-0.54761 0.07209,-0.364451 -0.08738,-0.56 -0.456692,-0.56 -0.427004,0 -0.476553,-0.09091 -0.200188,-0.367274 0.276368,-0.276368 0.866457,-0.262617 2.384,0.05555 2.483539,0.520698 3.756844,1.035898 5.840403,2.363133 0.888976,0.566281 2.048323,1.252077 2.576323,1.523987 0.528,0.271914 2.109971,1.15904 3.515491,1.971395 2.376925,1.373802 5.545168,2.79928 11.844509,5.329165 2.744637,1.102275 8.212112,4.054186 9.670563,5.221171 0.489191,0.391431 1.537437,1.057949 2.329437,1.481159 1.210224,0.646688 3.485002,2.277699 3.144554,2.254636 -0.0575,-0.0039 2.275888,2.420365 5.185315,5.387245 2.90943,2.966877 6.590176,6.893491 8.17944,8.725808 3.489721,4.023425 7.077541,7.235745 12.887331,11.538575 4.06604,3.01138 10.52006,9.12904 10.06647,9.54186 -0.1049,0.0955 -0.25501,-0.006 -0.33359,-0.22641 -0.0786,-0.22 -0.28862,-0.4 -0.46679,-0.4 -0.17816,0 -0.70616,-0.26457 -1.17333,-0.58793 -0.46717,-0.32336 -1.10188,-0.67902 -1.41046,-0.79036 -0.52499,-0.18943 -0.52777,-0.15163 -0.0432,0.58793 0.28483,0.4347 0.60931,0.7909 0.72106,0.79156 0.11176,6.4e-4 0.45934,0.62418 0.7724,1.3856 0.71419,1.73706 3.56378,4.71176 5.21763,5.44671 0.68924,0.30629 1.46917,0.68576 1.73317,0.84328 0.264,0.15751 1.344,0.73142 2.4,1.27534 1.056,0.54393 2.424,1.29232 3.04,1.6631 2.22397,1.33863 5.29176,2.82168 5.84,2.82321 0.6479,0.002 0.68668,-0.25493 0.22618,-1.49761 -0.34201,-0.92294 -3.30562,-3.94083 -3.86994,-3.94083 -0.39793,0 -2.83624,-1.9468 -2.83624,-2.26452 0,-0.13057 0.56904,0.0375 1.26454,0.37356 0.6955,0.33603 1.32653,0.61096 1.4023,0.61096 0.18233,0 -0.50653,-1.94884 -0.90489,-2.56 -0.17208,-0.264 -0.62263,-1.23549 -1.00123,-2.15887 l -0.68836,-1.67887 2.28382,0.18615 c 1.2561,0.10239 2.85982,0.40362 3.56382,0.6694 0.704,0.26579 1.74528,0.52693 2.31395,0.58031 0.58527,0.0549 1.90445,0.70956 3.04,1.50854 2.25907,1.58951 4.40605,2.87212 4.40605,2.6322 0,-0.0877 -1.32623,-1.68936 -2.94717,-3.55911 -1.97532,-2.27854 -3.6373,-3.84337 -5.04,-4.74542 -3.64099,-2.34146 -8.98931,-5.36452 -9.17039,-5.18344 -0.38916,0.38916 0.58476,1.43432 2.74808,2.94911 2.76873,1.9387 3.72514,2.72 3.32965,2.72 -0.28053,0 -1.69162,-0.87249 -2.04017,-1.26145 -0.088,-0.0982 -0.808,-0.52332 -1.6,-0.94472 -2.18584,-1.16299 -4.62673,-3.11475 -5.97642,-4.77878 -0.66694,-0.82228 -1.32309,-1.54305 -1.4581,-1.60172 -0.13502,-0.0587 -0.24548,-0.28556 -0.24548,-0.50422 0,-0.21865 -0.36255,-0.73815 -0.80567,-1.15443 -2.85922,-2.6861 -3.24833,-9.267374 -0.50552,-8.550113 0.37602,0.09833 0.70119,-0.02118 0.80686,-0.296547 0.0974,-0.25369 0.0539,-0.385174 -0.0966,-0.292182 -0.15046,0.09299 -0.53113,-0.11553 -0.84593,-0.46338 C 121.78049,94.035446 120.80388,93.875949 120.48,94.4 c -0.3392,0.548842 -2.41833,0.350528 -3.36079,-0.320563 -0.82989,-0.590931 -0.8879,-0.595888 -0.74881,-0.064 0.11502,0.439849 -0.0356,0.576563 -0.63521,0.576563 -0.53786,0 -0.73234,-0.139795 -0.61605,-0.442832 0.14053,-0.366234 0.21673,-0.368998 0.44049,-0.016 0.26423,0.416835 0.30857,0.367779 0.40959,-0.453168 0.0271,-0.22 -0.50528,-1.110026 -1.183,-1.977834 -1.41225,-1.808358 -2.59992,-3.995139 -2.32118,-4.273868 0.10432,-0.104327 0.41534,0.132492 0.69115,0.526262 0.39758,0.567619 0.59494,0.638374 0.95264,0.341514 0.24814,-0.205943 0.45117,-0.574762 0.45117,-0.819597 0,-0.244839 0.17455,-0.724659 0.38789,-1.066266 0.21333,-0.341606 0.29767,-0.711321 0.1874,-0.821584 -0.36482,-0.364819 -1.39424,0.426941 -1.44585,1.112045 -0.0279,0.370237 0.0846,0.589549 0.24993,0.48736 0.48388,-0.299062 0.34546,0.0564 -0.19742,0.506954 -0.27394,0.22734 -0.47288,0.280972 -0.44211,0.11918 0.13623,-0.71624 -0.056,-1.060201 -0.49778,-0.890678 -0.56183,0.215594 -1.23685,-1.199011 -0.72712,-1.523789 0.1729,-0.110166 -0.37157,-0.462259 -1.20994,-0.782435 -0.83836,-0.320173 -1.96995,-0.94497 -2.51465,-1.388435 -0.92265,-0.751184 -0.9466,-0.755517 -0.35035,-0.06338 0.352,0.408608 1.288,1.073593 2.08,1.477744 1.25533,0.640589 1.32718,0.728537 0.56023,0.685811 -0.48388,-0.02694 -0.87988,-0.15249 -0.88,-0.278966 -1.3e-4,-0.126474 -0.18023,-0.166762 -0.40023,-0.08952 -0.63806,0.224007 -2.92368,-1.541078 -3.26973,-2.525068 -0.2621,-0.745255 -0.20827,-0.980704 0.31701,-1.386564 0.61933,-0.478528 0.61749,-0.485273 -0.0873,-0.318835 -0.396,0.09352 -0.72,0.03951 -0.72,-0.120009 0,-0.159524 0.18,-0.300164 0.4,-0.312535 0.22,-0.01235 0.13055,-0.128374 -0.19878,-0.257789 -0.54862,-0.21559 -0.52766,-0.281888 0.2502,-0.791564 0.47355,-0.310285 0.75185,-0.713424 0.62934,-0.911655 -0.13299,-0.215168 -0.0739,-0.265299 0.1498,-0.127056 0.20319,0.125581 0.36944,0.07583 0.36944,-0.110557 0,-0.186387 0.108,-0.321833 0.24,-0.300992 0.132,0.02083 0.312,0.009 0.4,-0.0263 0.088,-0.03531 0.592,-0.1184 1.12,-0.184636 l 0.96,-0.120429 -1.01703,0.386742 c -0.55937,0.212707 -1.10373,0.475107 -1.2097,0.583107 -0.27862,0.283972 2.48545,0.254394 2.86673,-0.03069 0.72014,-0.538428 2.99221,-0.579404 3.73673,-0.06739 0.69422,0.477424 0.71429,0.475209 0.30409,-0.03357 C 114.35927,78.005126 114.2689,77.76 114.4,77.76 c 0.1311,0 0.0407,-0.252 -0.20082,-0.56 -0.39505,-0.503722 -0.38461,-0.517277 0.10388,-0.13488 0.29868,0.233818 0.87468,0.382262 1.28,0.329875 0.40531,-0.05239 0.92652,0.02272 1.15823,0.166922 0.6231,0.38776 0.8017,0.02845 0.37871,-0.761917 -0.20452,-0.382147 -0.45494,-0.611731 -0.55648,-0.510182 -0.24091,0.240902 -1.04352,-0.428375 -1.04352,-0.87016 0,-0.18809 0.22346,-0.06246 0.49657,0.27918 0.47754,0.59736 0.4888,0.590506 0.29373,-0.178838 -0.12329,-0.486246 0.20725,-0.149664 0.84279,0.858202 0.93244,1.478694 2.20691,2.444166 2.20691,1.67184 0,-0.159524 -0.20456,-0.290042 -0.45457,-0.290042 -0.25002,0 -0.5491,-0.430349 -0.66462,-0.95633 -0.11553,-0.525984 -0.34297,-1.03848 -0.50543,-1.138886 -0.16246,-0.100406 -0.29538,-0.31785 -0.29538,-0.483213 0,-0.165363 0.63574,0.310215 1.41276,1.056835 0.82128,0.789146 1.27209,1.444432 1.07677,1.565149 -0.20103,0.12424 -0.0784,0.345491 0.30516,0.550791 0.8694,0.465286 1.04531,0.199139 1.04531,-1.581508 0,-2.806086 0.58868,-3.317193 1.24816,-1.08368 0.38593,1.307066 0.46931,1.393354 0.85031,0.88 0.37428,-0.5043 0.47338,-0.51446 0.86964,-0.08916 0.24597,0.264 0.62056,1.092 0.8324,1.84 0.21492,0.758829 0.58083,1.36 0.82778,1.36 0.24343,0 0.87044,0.36 1.39335,0.8 1.21446,1.021898 1.65836,1.011411 1.65836,-0.03918 0,-0.715571 -0.0718,-0.779558 -0.48773,-0.4344 -0.73935,0.6136 -0.91281,0.155037 -0.29693,-0.784921 0.41746,-0.637117 0.49626,-1.191428 0.33379,-2.347767 -0.11699,-0.83255 -0.2314,-1.693731 -0.25425,-1.913731 -0.0229,-0.22 -0.17004,-0.4 -0.3271,-0.4 -0.15705,0 -0.18986,-0.154829 -0.0729,-0.344067 0.13605,-0.220138 0.48864,-0.08479 0.97889,0.375782 0.86268,0.810448 1.05942,1.567098 0.23075,0.887466 -0.48193,-0.395248 -0.51131,-0.359155 -0.29373,0.360819 0.13297,0.44 0.30529,1.448 0.38294,2.24 0.24796,2.529187 0.38138,2.814896 1.42124,3.043286 0.53656,0.117847 1.14733,0.489319 1.35727,0.825492 0.43307,0.693436 0.89537,0.775625 1.41877,0.252227 0.54324,-0.543242 0.13949,-1.361271 -0.4361,-0.883571 -0.69244,0.574665 -0.93011,0.04656 -0.29492,-0.655309 0.31647,-0.349699 0.45734,-0.792288 0.32192,-1.011405 -0.14676,-0.237475 -0.1072,-0.307046 0.10133,-0.17817 0.20332,0.125661 0.52629,-0.341104 0.7961,-1.150556 0.57082,-1.712455 1.06919,-1.60608 0.94983,0.202736 -0.05,0.757123 0.055,1.760102 0.23319,2.228841 l 0.32402,0.852256 -0.83516,-0.547219 c -0.82775,-0.542365 -0.83301,-0.54047 -0.59367,0.213629 0.27742,0.87408 2.13361,2.887763 2.6619,2.887763 0.19514,0 0.32459,-0.421334 0.28768,-0.936298 -0.0624,-0.870032 -0.10675,-0.900492 -0.62712,-0.430403 -1.16139,1.049178 -0.47717,-0.142336 1.05276,-1.833299 1.36192,-1.505258 1.5416,-1.62105 1.2414,-0.8 -0.19304,0.528 -0.40683,1.237418 -0.47508,1.576483 -0.0683,0.339063 -0.27883,0.712115 -0.46796,0.829005 -0.24219,0.14968 -0.23057,0.46119 0.0393,1.053482 0.21074,0.462531 0.51574,0.759027 0.67778,0.658883 0.16203,-0.100144 0.24897,0.06943 0.1932,0.376835 -0.0558,0.307405 0.10044,0.629133 0.34712,0.714957 0.31785,0.110576 0.3996,-0.03107 0.28057,-0.486237 -0.13092,-0.500637 -0.0396,-0.60871 0.41406,-0.490074 0.43978,0.115005 0.56926,-0.01712 0.52982,-0.540646 -0.0409,-0.54311 -0.12359,-0.600288 -0.38258,-0.264563 -0.29524,0.382726 -0.5416,0.434841 -1.37039,0.289904 -0.31204,-0.05457 1.49429,-0.998029 1.91082,-0.998029 0.17471,0 0.23834,0.206698 0.14139,0.459325 -0.0969,0.25263 -0.004,0.517213 0.20577,0.587961 0.27763,0.09349 0.25086,0.290391 -0.098,0.720589 -0.51749,0.638186 -0.57892,0.638861 1.04,-0.01142 0.33155,-0.133174 0.56,-0.08042 0.56,0.129299 0,0.194832 0.2965,0.354237 0.65889,0.354237 0.37469,0 0.57016,0.143552 0.45318,0.332826 -0.1338,0.216496 0.11126,0.263373 0.70112,0.134118 0.52891,-0.115901 0.74909,-0.08558 0.52833,0.07275 -0.22577,0.161943 0.40121,0.289389 1.55401,0.315892 1.06287,0.02445 2.08998,0.201923 2.28248,0.394416 0.25332,0.253324 0.20919,0.349993 -0.15977,0.349993 -0.39877,0 -0.97442,0.73697 -0.9328,1.194192 0.0319,0.350656 -1.14543,2.656935 -1.78327,3.493187 -0.78694,1.031722 -3.72597,2.437533 -4.86744,2.328218 -0.86076,-0.08244 -1.31669,0.01197 -1.27684,0.264403 0.0988,0.625735 -0.0674,1.059523 -0.34116,0.890339 -0.30439,-0.188124 -0.18549,1.047562 0.13127,1.36433 0.0924,0.09244 0.45116,-0.08811 0.79714,-0.401226 0.43834,-0.396688 0.88482,-0.50511 1.47258,-0.35759 0.46392,0.116438 1.03057,0.05645 1.2592,-0.133302 0.22864,-0.189754 0.53887,-0.3229 0.6894,-0.295885 0.15052,0.02701 0.34568,0.02214 0.43368,-0.01082 0.088,-0.03297 0.55809,-0.112419 1.04464,-0.176557 2.56673,-0.338358 7.04475,-3.497443 7.90642,-5.577712 0.34197,-0.82559 0.49448,-0.898474 1.57641,-0.753357 2.70826,0.363255 17.93713,-1.935075 24.83253,-3.747705 3.04229,-0.799741 4.189,-0.96634 5.52,-0.801952 0.924,0.114118 1.68,0.325491 1.68,0.469718 0,0.144224 -0.54,0.477373 -1.2,0.740326 -2.65115,1.056263 -19.90001,4.353476 -26.32,5.031213 -4.36958,0.46128 -5.16058,0.689469 -7.84,2.261674 -3.64957,2.141462 -6.75587,3.244112 -10.08,3.578121 -0.61394,0.06169 -0.77817,0.239252 -0.70614,0.763447 0.12486,0.908701 -2.85352,3.532853 -4.52233,3.984483 -1.63459,0.44236 -4.94221,0.4219 -6.66306,-0.0412 -1.96993,-0.53014 -3.94099,-1.764211 -4.38928,-2.748105 -0.21073,-0.462515 -0.47669,-0.747392 -0.59102,-0.633066 -0.27609,0.276103 -0.35654,1.474845 -0.099,1.474845 0.28863,0 0.97081,1.992516 0.97081,2.835536 0,0.6518 2.31884,3.24446 2.90181,3.24446 0.1307,0 0.83723,-0.50094 1.57006,-1.11321 l 1.33242,-1.1132 0.93786,0.69338 c 0.51581,0.38136 0.93785,0.78719 0.93785,0.90184 0,0.83941 3.6858,1.23563 5.76211,0.61942 1.69046,-0.50169 4.57684,-0.68802 5.11671,-0.3303 0.31132,0.20628 0.49732,0.90933 0.53169,2.00967 0.029,0.93082 0.0656,1.93879 0.0812,2.23993 0.0156,0.30115 0.35232,0.85901 0.74832,1.2397 0.84637,0.81365 3.40752,2.03192 3.68607,1.75337 0.10609,-0.10609 0.15857,-0.85583 0.11662,-1.6661 -0.1131,-2.18508 0.21083,-3.3145 0.95066,-3.3145 0.36586,0 0.74516,0.32264 0.92004,0.7826 1.02238,2.68908 6.44556,8.36085 9.59485,10.03466 1.15047,0.61147 2.90353,1.59629 3.89569,2.1885 0.99216,0.59222 2.31024,1.28831 2.92907,1.54687 1.65543,0.69168 14.3982,3.89514 17.187,4.32072 1.32,0.20143 3.64464,0.57333 5.16587,0.82645 1.52122,0.25311 4.08403,0.4602 5.69513,0.4602 3.07715,0 13.01452,1.09425 14.60805,1.60856 0.63064,0.20354 -0.61746,0.2546 -3.86905,0.15827 -4.3842,-0.12987 -4.68496,-0.10424 -3.472,0.29591 0.7304,0.24096 3.36956,0.56897 5.8648,0.72892 3.34612,0.2145 4.61299,0.41123 4.8271,0.74958 0.44014,0.69555 0.36095,0.93876 -0.30566,0.93876 -0.49542,0 -1.23428,0.89254 -0.92177,1.11349 0.0481,0.034 1.1319,0.24257 2.40836,0.46341 2.44156,0.42241 2.84096,0.9831 0.70028,0.9831 -0.69361,0 -1.26111,0.13134 -1.26111,0.29187 0,0.34679 0.91498,0.49711 7.04,1.15654 6.86378,0.73896 6.84526,0.73508 6.35171,1.32978 -0.33299,0.40122 -0.82905,0.46135 -2.50349,0.30342 -7.23425,-0.68229 -9.46001,-0.85005 -15.20822,-1.14629 -3.52,-0.18141 -8.416,-0.40292 -10.88,-0.49225 -2.464,-0.0893 -4.84,-0.22277 -5.28,-0.29654 -0.44,-0.0738 -2.34794,-0.23176 -4.23986,-0.35111 -1.89192,-0.11934 -3.37662,-0.31932 -3.29932,-0.44439 0.0773,-0.12507 0.83324,-0.19611 1.67986,-0.15785 6.86728,0.31029 16.09932,0.41077 16.09932,0.17522 0,-0.55794 -3.78688,-0.99882 -11.36,-1.32256 -7.78689,-0.33289 -11.16049,-0.62276 -17.00107,-1.46079 -5.45945,-0.78335 -5.36109,-0.45845 0.20107,0.6642 8.40087,1.6956 8.85117,1.77023 9.48173,1.57123 0.58434,-0.18441 0.58435,-0.17992 2e-5,0.19266 -0.34669,0.22107 -1.18767,0.31504 -2,0.22347 -1.58266,-0.17839 -1.91122,0.24064 -0.44175,0.56339 1.2358,0.27143 1.24324,0.8 0.0113,0.8 -0.61695,0 -1.06692,0.22083 -1.28668,0.63146 -0.32146,0.60065 -0.65612,0.62797 -6.86048,0.56 -3.5874,-0.0393 -6.39494,-0.15039 -6.23897,-0.24686 0.15597,-0.0965 -0.25388,-0.17986 -0.91077,-0.18534 -0.65689,-0.005 -2.34635,-0.12359 -3.75435,-0.2625 -2.42607,-0.23933 -2.52652,-0.22428 -1.92,0.28763 0.61115,0.51583 0.56068,0.53146 -1.12,0.34681 -0.968,-0.10635 -3.056,-0.3347 -4.64,-0.50745 -1.584,-0.17275 -4.08088,-0.5389 -5.54861,-0.81365 -3.74331,-0.70073 -3.91604,-0.28539 -0.672,1.61589 1.05043,0.61564 3.02379,1.57522 4.38524,2.13241 1.36145,0.55718 2.61217,1.13648 2.77937,1.28733 0.1672,0.15085 0.5717,0.27427 0.89888,0.27427 0.32719,0 0.50589,0.144 0.39712,0.32 -0.11642,0.18836 0.2378,0.32226 0.86111,0.32548 0.58239,0.003 2.13889,0.28912 3.45889,0.63579 1.32,0.34666 3.984,0.71231 5.92,0.81256 1.936,0.10025 3.844,0.24889 4.24,0.33031 0.396,0.0814 0.72,0.0365 0.72,-0.0999 0,-0.54444 -1.94014,-1.02543 -5.44,-1.34865 -5.74874,-0.53091 -6.76366,-0.69711 -8.14717,-1.33412 l -1.29283,-0.59527 2.72,0.10922 c 1.496,0.0601 4.088,0.33579 5.76,0.61271 3.07113,0.50864 9.83011,1.27787 16,1.82093 1.848,0.16266 5.088,0.51137 7.2,0.77491 2.112,0.26354 5.352,0.66747 7.2,0.89761 3.69002,0.45955 24.60317,0.6095 27.3427,0.19605 0.87049,-0.13137 1.62988,-0.19168 1.68753,-0.13403 0.29762,0.29762 -0.37473,1.12331 -1.05339,1.29365 -1.07575,0.26999 -0.97125,0.72923 0.22576,0.99214 1.45192,0.31889 0.54171,0.77197 -1.6426,0.81764 -0.968,0.0202 -2.12,0.1444 -2.56,0.27592 -1.43474,0.42884 2.68774,0.76498 6.52422,0.53196 3.61059,-0.21929 11.31295,0.29465 11.84789,0.79054 0.168,0.15575 -0.10391,0.42357 -0.64,0.63038 -1.02719,0.39625 -3.31654,0.22526 -6.76355,-0.50516 -2.9057,-0.61573 -5.9059,-0.59488 -7.37884,0.0513 -0.65435,0.28705 -1.54972,0.50026 -1.98972,0.47381 -0.44,-0.0265 -1.952,0.17234 -3.36,0.44175 -1.408,0.2694 -3.712,0.6202 -5.12,0.77956 -5.25397,0.59465 -11.62932,1.27658 -15.04,1.60875 -1.936,0.18855 -4.312,0.55602 -5.28,0.81659 -2.4198,0.65138 -7.55122,0.95826 -9.04858,0.54115 -0.93904,-0.26158 -1.40292,-0.23528 -2.08,0.11794 l -0.87142,0.4546 1.17382,0.002 c 0.64561,9.6e-4 1.41916,0.0961 1.71901,0.21117 0.48144,0.18475 0.45643,0.27745 -0.21383,0.79289 -0.7491,0.57606 -0.71097,0.58464 2.921,0.6573 6.55716,0.13117 8.79943,0.0188 10.79486,-0.54112 1.27328,-0.35726 2.44392,-0.47978 3.34237,-0.34981 3.79954,0.54964 7.89022,0.56371 12.52819,0.0431 2.67002,-0.29971 5.86258,-0.49575 7.09458,-0.43563 2.06963,0.101 2.17307,0.13893 1.36,0.49878 -0.95981,0.4248 -1.18173,1.04532 -0.37385,1.04532 0.27839,0 1.3661,0.504 2.41715,1.12 1.05104,0.616 2.0422,1.12 2.20258,1.12 0.16038,0 0.44573,0.288 0.63412,0.64 0.18838,0.352 0.55345,0.64 0.81125,0.64 0.62467,0 0.59918,0.52148 -0.0374,0.76576 -0.27839,0.10683 -51.68639,0.19424 -114.24,0.19424 L 0,160.64 Z m 22.839182,76.50567 c 1.910664,-0.0223 2.147254,-0.0882 1.803368,-0.5026 -0.217698,-0.26231 -0.84733,-0.4721 -1.399182,-0.4662 -0.551852,0.006 -2.652539,-0.0685 -4.668191,-0.16541 -4.159792,-0.19993 -5.815549,-0.009 -5.565824,0.64176 0.198217,0.51655 1.296943,0.64463 4.910647,0.57245 1.496,-0.0299 3.709632,-0.0659 4.919182,-0.08 z M 26.64,156.58807 c -0.22,-0.0888 -0.58,-0.0888 -0.8,0 -0.22,0.0888 -0.04,0.16141 0.4,0.16141 0.44,0 0.62,-0.0726 0.4,-0.16141 z m 185.60609,-6.71797 c -0.21665,-0.0877 -0.64865,-0.093 -0.96,-0.0119 -0.31135,0.0811 -0.13409,0.15285 0.39391,0.15937 0.528,0.007 0.78274,-0.0599 0.56609,-0.14752 z m 1.42724,-0.30343 c -0.10633,-0.10634 -0.38233,-0.1177 -0.61333,-0.0252 -0.25527,0.10215 -0.17945,0.17798 0.19333,0.19333 0.33734,0.0139 0.52634,-0.0617 0.42,-0.16807 z M 166.16,135.78807 c -0.22,-0.0888 -0.58,-0.0888 -0.8,0 -0.22,0.0888 -0.04,0.16141 0.4,0.16141 0.44,0 0.62,-0.0726 0.4,-0.16141 z m -21.2,-2.14889 c 0,-0.66578 -0.65418,-1.06277 -2.1608,-1.31126 -1.13436,-0.1871 -1.33018,-0.14465 -1.17679,0.25509 0.21064,0.54893 1.94454,1.47887 2.77759,1.4897 0.308,0.004 0.56,-0.19108 0.56,-0.43353 z M 94.860339,103.74673 c -0.341187,-0.31529 -1.320646,-1.05343 -2.176579,-1.6403 -0.85593,-0.58687 -2.58393,-2.156123 -3.84,-3.487217 C 83.084605,92.516048 78.607846,88.833603 71.68,84.500845 c -4.411917,-2.759271 -6.578608,-3.82033 -10.4,-5.093027 -3.384083,-1.127056 -4.969299,-1.830752 -6.72,-2.983082 -0.704,-0.463379 -1.604,-0.938214 -2,-1.055187 -1.130371,-0.333895 -0.943798,0.942067 0.24,1.641353 0.528,0.311898 0.96,0.724967 0.96,0.91793 0,0.192963 1.779603,1.230592 3.954672,2.30584 6.057638,2.994602 15.764605,9.037722 21.965328,13.674624 0.968,0.723872 2.135795,1.55249 2.595101,1.841373 0.459305,0.288886 1.035305,0.715814 1.28,0.948726 0.244694,0.232915 1.236899,1.070743 2.204899,1.86184 0.968,0.791098 2.119341,1.763205 2.558538,2.160235 0.439196,0.39704 1.439504,1.02317 2.222902,1.39141 0.783402,0.36825 1.933485,1.01549 2.555744,1.43833 0.622259,0.42283 1.413107,0.76879 1.75744,0.76879 0.61928,0 0.619341,-0.006 0.0057,-0.57327 z m 37.990151,-3.71552 c 0.2012,0.12435 0.28932,-0.210378 0.23164,-0.879866 -0.0512,-0.594307 0.0228,-1.268067 0.16443,-1.497242 0.31365,-0.5075 0.047,-0.839155 -0.43509,-0.54119 -0.21366,0.132048 -0.27069,0.645667 -0.14567,1.312042 0.13376,0.713046 0.0814,1.095046 -0.15019,1.095046 -0.19558,0 -0.336,0.396 -0.31203,0.88 0.0377,0.76158 0.0623,0.78247 0.18288,0.15525 0.0766,-0.39861 0.28543,-0.634428 0.46403,-0.52404 z M 131.2,99.68 c 0,-0.616 -0.0562,-1.12 -0.12499,-1.12 -0.0687,0 -0.18383,0.504 -0.25574,1.12 -0.0719,0.616 -0.0157,1.12 0.12499,1.12 0.14066,0 0.25574,-0.504 0.25574,-1.12 z m 3.22025,0.496 c -0.13957,-0.2728 -0.31994,-0.708134 -0.40081,-0.967408 -0.094,-0.30127 -0.26876,-0.122259 -0.48428,0.496 -0.31179,0.894398 -0.28154,0.967408 0.4008,0.967408 0.56244,0 0.67767,-0.11802 0.48429,-0.496 z M 130,100.24702 c -0.61566,-0.21602 -0.47418,-1.166742 0.24,-1.612758 0.75541,-0.47176 0.8233,-1.123772 0.17318,-1.663321 -0.38458,-0.319171 -0.50333,-0.241907 -0.67413,0.438608 -0.11403,0.454317 -0.29996,0.768774 -0.41318,0.698797 -0.11323,-0.06998 -0.21831,0.183017 -0.23351,0.562211 -0.0152,0.379193 -0.1317,0.923443 -0.25888,1.209443 -0.18327,0.41209 -0.0447,0.51869 0.66763,0.51368 0.49439,-0.003 0.71889,-0.0695 0.49889,-0.14666 z m 1.74176,-0.96093 c -0.0811,-0.311351 -0.15285,-0.13409 -0.15938,0.39391 -0.007,0.528 0.0599,0.78274 0.14752,0.56609 0.0877,-0.21665 0.093,-0.64865 0.0119,-0.96 z M 128.38073,99.04 c 0.1422,-1.218026 -0.19782,-1.534006 -0.48187,-0.447802 -0.0968,0.370138 -0.32926,0.577344 -0.51732,0.461114 -0.18785,-0.116096 -0.34154,0.0029 -0.34154,0.264339 0,0.261482 0.252,0.541277 0.56,0.621763 0.308,0.08049 0.58025,0.163046 0.60499,0.183466 0.0247,0.0204 0.10383,-0.46688 0.17574,-1.08288 z m 6.53865,-0.5152 -0.47902,-1.0848 0.0356,1.12 c 0.0434,1.366291 0.22003,1.75199 0.61934,1.352685 0.19077,-0.190775 0.12558,-0.705053 -0.17594,-1.387885 z m 1.33447,0.4352 c -0.0647,-0.827299 0.0304,-1.175152 0.30615,-1.12 0.22,0.044 0.4,-0.064 0.4,-0.24 0,-0.430115 -0.54827,-0.407302 -0.82111,0.03416 -0.15259,0.24689 -0.30221,0.222659 -0.49399,-0.08 -0.40788,-0.643712 -0.3644,1.219354 0.0464,1.986874 0.49693,0.928516 0.66692,0.752946 0.56259,-0.581037 z m 1.80991,-0.397021 c 0.10573,0.02477 0.36864,-0.01693 0.58424,-0.09266 0.2156,-0.07573 -0.009,-0.140528 -0.49815,-0.144 -0.53616,-0.0038 -1.01337,0.223923 -1.2,0.572646 -0.50143,0.936928 -0.35652,1.092768 0.30591,0.328979 0.33868,-0.390489 0.70228,-0.689721 0.808,-0.664963 z M 128.96,96.258931 c 0,-0.180073 -0.21427,-0.245181 -0.47616,-0.144685 -0.26969,0.103492 -0.44314,0.0199 -0.4,-0.192796 0.0419,-0.206538 -0.24408,-0.397514 -0.63548,-0.424394 -0.39139,-0.02688 -0.6474,0.05506 -0.56889,0.182086 0.2478,0.400954 -0.61521,1.913975 -1.19947,2.102903 -0.7994,0.258496 -0.72384,1.080883 0.08,0.870675 0.40172,-0.105053 0.64,-0.0098 0.64,0.255802 0,0.232739 0.576,-0.194541 1.28,-0.949511 0.704,-0.754973 1.28,-1.520009 1.28,-1.70008 z M 131.73193,97.52 c -0.0888,-0.22 -0.16141,-0.04 -0.16141,0.4 0,0.44 0.0726,0.62 0.16141,0.4 0.0888,-0.22 0.0888,-0.58 0,-0.8 z m 6.75474,0.02 c -0.0697,-0.209002 -0.30127,-0.414202 -0.51467,-0.456 -0.2134,-0.0418 -0.2395,-0.0026 -0.058,0.08733 0.1815,0.08983 0.2486,0.295034 0.14912,0.456 -0.0995,0.160967 -0.0164,0.292669 0.18467,0.292669 0.20106,0 0.30855,-0.171002 0.23889,-0.38 z m -12.43951,-1.367917 c 0.63876,-2.126752 0.6564,-2.474246 0.11508,-2.266521 -0.28109,0.107862 -0.60242,0.04832 -0.71406,-0.132324 -0.11164,-0.18064 -0.51728,0.318484 -0.90142,1.109162 -0.38415,0.790682 -0.55631,1.4376 -0.3826,1.4376 0.17371,0 0.31584,0.20705 0.31584,0.460112 0,0.893962 1.26324,0.403843 1.56716,-0.608029 z m -1.06152,0.189395 c -0.0982,-0.158928 0.0358,-0.466908 0.29788,-0.684403 0.38742,-0.321523 0.47648,-0.301923 0.47648,0.104858 0,0.597408 -0.52192,0.988016 -0.77436,0.579545 z M 136.64,96.64 c 0,-0.176 -0.144,-0.32 -0.32,-0.32 -0.176,0 -0.32,0.144 -0.32,0.32 0,0.176 0.144,0.32 0.32,0.32 0.176,0 0.32,-0.144 0.32,-0.32 z m -3.07296,-1.013334 C 133.47639,95.48 133.26673,95.36 133.10111,95.36 c -0.16561,0 -0.30111,0.12 -0.30111,0.266666 0,0.146668 0.20967,0.266668 0.46592,0.266668 0.25626,0 0.39176,-0.12 0.30112,-0.266668 z M 137.20574,95.36 c 0.33336,-0.533795 0.31958,-0.64 -0.083,-0.64 -0.26549,0 -0.48271,0.06022 -0.48271,0.133827 0,0.07361 -0.0874,0.361607 -0.19424,0.64 -0.27819,0.724957 0.28567,0.625664 0.75998,-0.133827 z m -12.96742,-1.44 c 0.11464,-0.599702 0.0167,-0.8 -0.39133,-0.8 -0.29934,0 -0.70829,0.36 -0.90877,0.8 -0.33279,0.730416 -0.29876,0.8 0.39134,0.8 0.5521,0 0.79705,-0.215629 0.90876,-0.8 z M 120.4,93.954544 c 0.31568,-0.239632 0.56,-0.846355 0.56,-1.39064 0,-1.073424 0.70862,-1.865501 1.34598,-1.504509 0.33601,0.190311 0.33715,0.151789 0.006,-0.204435 -0.32758,-0.352432 -0.53168,-0.361683 -1.03566,-0.04695 -0.84984,0.530739 -1.11898,0.493513 -0.63635,-0.08801 0.62466,-0.752666 0.17057,-0.561386 -0.51041,0.215005 -0.33528,0.382256 -0.41091,0.578211 -0.16808,0.435459 0.30494,-0.179258 0.39155,-0.122032 0.28,0.184992 -0.0888,0.244499 -0.33701,0.404045 -0.55151,0.354544 -0.2145,-0.0495 -0.32518,0.0945 -0.24595,0.32 0.0792,0.225501 0.0299,0.719194 -0.10957,1.097098 -0.39562,1.071769 0.0976,1.362204 1.06552,0.627446 z M 118.90876,92.88 c 0.11977,-0.66 0.49919,-1.759533 0.84315,-2.443408 0.45423,-0.903117 0.5235,-1.306381 0.25309,-1.473498 -0.2673,-0.165206 -0.21952,-0.382864 0.16945,-0.77183 0.66353,-0.66353 0.3615,-1.088854 -0.35245,-0.496326 -0.31922,0.264931 -0.45567,0.72847 -0.36069,1.225318 0.18269,0.95567 -0.0546,1.706406 -0.46006,1.455795 -0.16043,-0.09915 -0.20227,-0.324953 -0.093,-0.501785 0.10929,-0.176832 -0.0733,-0.151648 -0.40574,0.05597 -0.88217,0.550924 -2.09717,2.533686 -1.88747,3.08016 0.20102,0.523849 0.82494,0.287644 0.82494,-0.312304 0,-0.211277 0.31043,-0.578007 0.68984,-0.814954 l 0.68985,-0.430816 -0.68985,0.876995 c -0.85772,1.090416 -0.88198,1.750685 -0.0643,1.750685 0.47075,0 0.67937,-0.296877 0.84326,-1.2 z M 122.88,92.399952 c 0,-0.528163 -0.56342,0.07275 -0.74546,0.795062 -0.17627,0.699444 -0.16636,0.703101 0.28138,0.103824 0.25524,-0.341638 0.46408,-0.746137 0.46408,-0.898886 z m -0.83236,-0.612314 c -0.28533,-0.461664 -0.76832,0.04288 -0.75746,0.791248 0.01,0.678064 0.0253,0.681152 0.46975,0.09397 0.25276,-0.33393 0.38223,-0.732279 0.28771,-0.88522 z m -4.68815,-1.629136 c 0.13228,-0.484825 0.38451,-0.893072 0.56051,-0.907212 0.52196,-0.04194 1.12,-0.655661 1.12,-1.149357 0,-0.252839 -0.12891,-0.380032 -0.28647,-0.282656 -0.15756,0.09738 -0.37834,-0.06236 -0.49062,-0.354967 -0.16519,-0.43046 -0.53722,-0.201052 -1.94902,1.201837 C 115.35422,89.619766 114.567,90.58 114.56452,90.8 c -0.005,0.475488 0.83306,0.53697 1.11442,0.08172 0.10819,-0.175053 0.51268,-0.486631 0.89888,-0.692391 0.61041,-0.325219 0.65027,-0.311142 0.30496,0.107722 -0.21848,0.265008 -0.29487,0.584195 -0.16976,0.709302 0.12511,0.125111 -0.006,0.138042 -0.29041,0.02874 -0.6329,-0.24287 -1.03369,0.321747 -0.75111,1.058138 0.18183,0.473862 0.2867,0.44152 0.82785,-0.255325 0.3408,-0.438851 0.72786,-1.194586 0.86014,-1.679408 z M 130.88,90.56 c -0.63044,-0.407421 -1.3718,-0.407421 -1.12,0 0.10877,0.176 0.51327,0.317795 0.89889,0.315101 0.56999,-0.004 0.61134,-0.06291 0.22111,-0.315101 z m -16.43179,-0.78975 c -0.0991,-0.258365 -0.0203,-0.568615 0.17521,-0.689444 0.23209,-0.143443 0.26772,-0.0637 0.10264,0.229751 -0.13905,0.247193 0.11288,0.08944 0.55985,-0.350557 0.44697,-0.44 0.90742,-1.25657 1.02323,-1.814598 0.1765,-0.850538 0.1196,-1.001248 -0.35195,-0.932042 -0.66357,0.0974 -0.9343,0.679408 -0.45408,0.976202 0.18529,0.114515 0.33689,0.352208 0.33689,0.528208 0,0.176 -0.12522,0.242611 -0.27827,0.148022 -0.49729,-0.307347 -2.00556,1.247632 -1.78009,1.835216 0.11376,0.296445 0.35083,0.538992 0.52683,0.538992 0.176,0 0.23889,-0.211389 0.13974,-0.46975 z m 7.14537,-0.977984 c -0.22263,-0.268253 -0.47068,-0.421834 -0.55122,-0.34129 -0.22192,0.22192 0.22897,0.829024 0.61571,0.829024 0.21219,0 0.18791,-0.18361 -0.0645,-0.487734 z M 113.41319,86 c -0.11982,-1.080294 -0.12604,-1.085798 -0.50015,-0.441894 -0.29498,0.507721 -0.0365,1.047987 0.55348,1.156995 0.0146,0.0026 -0.009,-0.319101 -0.0533,-0.715101 z m 29.30039,-0.08773 c -0.22263,-0.268253 -0.48809,-0.404423 -0.58991,-0.302599 -0.10183,0.101821 0.0267,0.319098 0.2856,0.482832 0.67743,0.428419 0.76594,0.375997 0.30431,-0.180233 z m -18.00413,-5.942647 0.0694,-0.989107 -0.62945,0.800218 c -0.77395,0.983916 -0.78547,1.179446 -0.0695,1.178633 0.39741,-3.2e-4 0.58017,-0.287817 0.62945,-0.989744 z M 121.28,79.84 c 0,-0.264 -0.0566,-0.48 -0.12576,-0.48 -0.0692,0 -0.20865,0.216 -0.30996,0.48 -0.10131,0.264 -0.0447,0.48 0.12576,0.48 0.17048,0 0.30996,-0.216 0.30996,-0.48 z m -7.88821,-0.62975 c 0.0991,-0.258365 0.0203,-0.568615 -0.17521,-0.689444 -0.21525,-0.133033 -0.2654,-0.07396 -0.12714,0.149751 0.12558,0.203193 0.0758,0.369443 -0.11055,0.369443 -0.18639,0 -0.33889,0.144 -0.33889,0.32 0,0.489632 0.54835,0.380403 0.75179,-0.14975 z m 1.98137,0.12846 c 0.3444,-0.55726 -0.0478,-0.675276 -0.48674,-0.146444 -0.2524,0.304124 -0.27668,0.487734 -0.0645,0.487734 0.18716,0 0.43522,-0.153581 0.55123,-0.34129 z M 118.4,79.37889 c 0,-0.165612 -0.144,-0.390112 -0.32,-0.498886 -0.176,-0.108774 -0.32,0.02672 -0.32,0.301114 0,0.274387 0.144,0.498886 0.32,0.498886 0.176,0 0.32,-0.135501 0.32,-0.301114 z m -9.76227,-0.335222 c 0.11211,-0.181395 -0.0164,-0.23504 -0.30111,-0.125763 -0.55437,0.212733 -0.6558,0.442099 -0.19551,0.442099 0.16562,0 0.3891,-0.142352 0.49662,-0.316336 z m 15.78729,-1.082646 c 0.1076,-0.941636 -0.38997,-1.782736 -0.80757,-1.36513 -0.12827,0.128269 -0.067,0.499466 0.13627,0.824877 0.31755,0.508467 0.25801,0.612969 -0.42344,0.743238 -0.91609,0.17512 -1.47554,-0.565328 -1.20597,-1.596153 0.0943,-0.360592 0.0149,-0.752372 -0.17643,-0.870621 -0.4599,-0.284234 -0.46513,1.88575 -0.007,2.742496 0.25269,0.472144 0.60569,0.612038 1.36,0.538963 0.85565,-0.08289 1.03556,-0.245814 1.12376,-1.01767 z M 134.7151,77.62667 c 0.007,-0.818701 -0.17661,-0.563284 -0.4398,0.613334 -0.15683,0.701094 -0.12714,0.830547 0.11008,0.48 0.17865,-0.264 0.32703,-0.756 0.32972,-1.093334 z M 41.386186,30.267826 c 0.753363,-0.81289 2.39904,-1.641897 5.653814,-2.848096 2.841194,-1.052929 4.177066,-1.671809 12.48,-5.781708 9.032147,-4.470854 10.624531,-5.174033 17.56792,-7.757798 C 82.396637,11.904751 84.8,10.652646 84.8,9.8623814 84.8,9.4107469 81.885424,9.7404179 78.77273,10.544133 74.036403,11.767079 68.744458,13.99063 59.52,18.633678 c -6.842582,3.444153 -10.452554,5.066859 -13.12,5.897529 -6.155494,1.916886 -7.95081,2.688278 -8.977146,3.85721 -1.618435,1.843298 -1.144816,2.854994 1.518724,3.244122 1.149772,0.167975 1.565104,0.118702 1.644032,-0.195039 0.05809,-0.230887 0.418345,-0.75724 0.800576,-1.169674 z M 237.44,160.14838 c 2.73455,-0.56389 3.2,-0.5622 3.2,0.0116 0,0.39041 -0.49273,0.47414 -2.64,0.44865 l -2.64,-0.0314 2.08,-0.42892 z M 230.72,159.68 c 0.6204,-0.40093 0.96,-0.40093 0.96,0 0,0.176 -0.324,0.3178 -0.72,0.3151 -0.58222,-0.004 -0.62815,-0.0643 -0.24,-0.3151 z m 1.6,0 c 0,-0.176 0.2245,-0.32 0.49889,-0.32 0.27438,0 0.40988,0.144 0.30111,0.32 -0.10877,0.176 -0.33327,0.32 -0.49889,0.32 -0.16561,0 -0.30111,-0.144 -0.30111,-0.32 z m 6.56543,-4.474 c -0.46954,-0.51884 -0.5005,-0.72227 -0.17041,-1.12 0.22184,-0.2673 0.54,-0.486 0.70702,-0.486 0.53048,0 1.21796,0.89022 1.21796,1.57714 0,0.86116 -0.98666,0.87739 -1.75457,0.0289 z M 203.2,141.58992 c -1.144,-0.22758 -4.6,-0.50552 -7.68,-0.61762 -5.45891,-0.1987 -11.72493,-0.94112 -12.27256,-1.4541 -0.47822,-0.44797 5.18752,-0.80028 11.79256,-0.7333 5.96312,0.0605 16.66755,0.81598 17.05532,1.20375 0.0942,0.0942 -0.17665,0.17573 -0.60199,0.18108 -1.16341,0.0146 -0.19203,0.47331 2.10667,0.99474 l 1.92,0.43553 -2.88,0.20612 c -4.31209,0.3086 -7.12591,0.24416 -9.44,-0.2162 z m 9.76,-3.0388 c -1.056,-0.13625 -3.576,-0.33305 -5.6,-0.43732 -2.024,-0.10428 -4.328,-0.32827 -5.12,-0.49776 -0.792,-0.16949 -2.952,-0.32456 -4.8,-0.34459 -1.848,-0.02 -3.648,-0.15485 -4,-0.29959 -0.61311,-0.25211 -0.61494,-0.27336 -0.0436,-0.50573 0.76274,-0.3102 18.40103,0.11088 20.52357,0.48996 0.88,0.15717 2.32,0.30571 3.2,0.3301 0.88,0.0244 1.39057,0.12678 1.1346,0.22754 -0.25598,0.10076 -0.75113,0.4494 -1.10034,0.77474 -0.67326,0.62723 -1.1414,0.65654 -4.19426,0.26265 z m 9.39621,-0.27728 c 0.36828,-0.23333 0.36828,-0.30696 0,-0.47279 -0.3103,-0.13973 3.77423,-0.0485 4.76379,0.10643 0.044,0.007 0.08,0.15652 0.08,0.33252 0,0.18787 -1.09007,0.31798 -2.64,0.3151 -1.60732,-0.003 -2.46937,-0.113 -2.20379,-0.28126 z m 0.52379,-7.89051 -0.96,-0.4678 1.44,0.17861 c 0.792,0.0982 1.5768,0.31525 1.744,0.48224 0.47904,0.47844 -1.13318,0.3385 -2.224,-0.19305 z m -3.52,-1.33067 c -3.68015,-0.50389 -4.69128,-1.58829 -1.17637,-1.26162 2.47797,0.23031 4.30147,0.77239 4.03711,1.20013 -0.17868,0.2891 -1.06009,0.30804 -2.86074,0.0615 z m 5.76,-1.3687 c -2.288,-0.11649 -4.484,-0.31874 -4.88,-0.44945 -1.16617,-0.3849 -0.8261,-0.83451 0.6312,-0.83451 1.23582,0 1.29731,-0.0372 0.72,-0.43581 -0.74606,-0.51511 -5.58107,-1.27079 -6.319,-0.98761 -0.28149,0.10801 -0.43347,0.40047 -0.33776,0.6499 0.24487,0.63812 -0.39559,0.58099 -4.14661,-0.36984 -4.43907,-1.12525 -4.87991,-1.48978 -1.50783,-1.2468 1.496,0.10779 2.972,0.26738 3.28,0.35464 0.3489,0.0988 0.56,-0.0164 0.56,-0.30559 0,-0.25534 0.32152,-0.54832 0.71448,-0.65109 1.20833,-0.31598 0.30751,-0.6977 -4.55448,-1.92992 -6.94742,-1.76074 -11.98028,-3.15826 -12.16,-3.37656 -0.088,-0.10689 -0.56058,-0.37041 -1.05017,-0.58561 -0.73887,-0.32475 -0.87826,-0.56842 -0.82008,-1.43349 0.0716,-1.06376 -0.81024,-2.80222 -1.42136,-2.80222 -0.1859,0 -0.58124,-0.22014 -0.87855,-0.4892 -0.30785,-0.2786 -1.28801,-0.52954 -2.27683,-0.58291 -0.95495,-0.0516 -2.18104,-0.29059 -2.72464,-0.53121 -2.04428,-0.90489 -0.85098,-3.01322 2.85736,-5.04839 2.72311,-1.49446 8.14232,-3.88248 8.60067,-3.78995 0.11353,0.0229 0.47353,-0.18475 0.8,-0.46148 0.32648,-0.27673 1.21282,-0.69816 1.96964,-0.93651 1.81753,-0.57242 2.16114,-1.13159 0.51371,-0.83599 -3.61491,0.64864 -5.22715,0.80547 -6.54518,0.63669 -1.43327,-0.18353 -5.96636,0.58329 -9.9362,1.68082 -0.98539,0.27242 -2.13739,0.43524 -2.56,0.36182 -0.63878,-0.11099 -0.41665,-0.29954 1.31711,-1.11799 1.14702,-0.54148 2.94702,-1.22137 4,-1.51089 1.05299,-0.28952 2.28652,-0.729252 2.74119,-0.977188 0.98394,-0.536563 3.12111,-0.821001 3.35274,-0.44622 0.09,0.145696 0.65506,0.400566 1.25559,0.56638 1.41684,0.391208 6.581,-0.571638 9.365,-1.746083 3.13354,-1.321904 2.57255,-1.813283 -1.76999,-1.550352 -2.59169,0.156922 -2.74452,0.132698 -2.15001,-0.340752 0.8867,-0.706147 3.73427,-1.486489 11.2,-3.069225 7.46631,-1.582861 10.47197,-2.099984 13.12,-2.257303 L 228,90.72 l -0.0885,1.384291 c -0.0487,0.761357 -0.3163,1.731891 -0.59467,2.156739 -0.41398,0.631824 -0.42699,0.799226 -0.0715,0.919536 0.23907,0.0809 3.02667,0.295863 6.19467,0.477696 3.168,0.181837 6.084,0.421911 6.48,0.533498 0.64403,0.181478 0.72,0.405283 0.72,2.121174 v 1.918296 l -1.2,-0.22842 c -1.84107,-0.350432 -6.93276,-0.221591 -7.96207,0.20148 -0.87889,0.36124 -0.80225,0.40287 1.80207,0.97885 1.496,0.33086 3.764,0.90936 5.04,1.28555 l 2.32,0.68399 v 12.41566 12.41566 l -1.04,-0.19959 c -1.94676,-0.37361 -2.48349,-0.68135 -2.25723,-1.29417 0.1158,-0.31363 0.36505,-0.68098 0.55389,-0.81632 0.51843,-0.37158 -0.73251,-1.19392 -1.81618,-1.19392 -0.98364,0 -5.20695,0.60028 -6.00048,0.85288 -0.36,0.11459 -0.20915,0.39564 0.60342,1.12424 1.17903,1.05718 0.9673,1.57857 -0.60342,1.48587 -0.44,-0.026 -2.672,-0.14253 -4.96,-0.25903 z m -0.588,-2.62522 c -0.64435,-0.23471 -1.01137,-0.22737 -1.264,0.0252 -0.26133,0.26134 -0.0199,0.34929 0.908,0.33074 1.24996,-0.025 1.25392,-0.0289 0.356,-0.356 z M 215.84,123.52 c 0.10877,-0.176 -0.0352,-0.32 -0.32,-0.32 -0.28477,0 -0.42877,0.144 -0.32,0.32 0.10877,0.176 0.25277,0.32 0.32,0.32 0.0672,0 0.21123,-0.144 0.32,-0.32 z m 19.54211,-0.35578 c 0.37369,-0.60463 -0.5703,-0.91421 -2.80322,-0.91932 -2.2789,-0.005 -3.21809,0.48917 -1.46778,0.77263 3.49206,0.56554 4.00133,0.58303 4.271,0.14669 z M 214.68335,97.577965 c 0.87717,-0.188119 1.76589,-0.548119 1.97494,-0.8 0.32199,-0.387968 0.1075,-0.457965 -1.40336,-0.457965 -1.98955,0 -5.01493,0.562963 -5.01493,0.933184 0,0.758307 1.80627,0.890333 4.44335,0.324781 z M 197.6,125.43698 c -4.32899,-1.16121 -7.58213,-2.16803 -9.28,-2.87207 -2.1627,-0.89679 -9.06115,-3.22214 -13.76,-4.63825 -6.16101,-1.85677 -7.008,-2.14629 -9.79868,-3.34941 -4.62726,-1.99492 -6.01668,-3.23035 -4.80661,-4.27387 1.67037,-1.44047 7.47585,-3.02155 9.57962,-2.60895 1.9408,0.38065 2.30567,0.52127 2.30567,0.88863 0,0.79053 1.99456,3.11366 3.36063,3.91423 1.49141,0.87402 2.38823,1.14747 3.75937,1.14628 0.484,-3.2e-4 0.88,0.1336 0.88,0.29783 0,0.16423 0.20433,0.2986 0.45407,0.2986 0.24973,0 0.86173,0.2076 1.36,0.46133 1.33589,0.68029 5.92575,2.79681 6.66593,3.07386 1.76299,0.6599 3.3346,1.45059 4.59814,2.31336 0.80189,0.54755 2.98535,1.42396 5.12,2.05511 3.86078,1.1415 5.16363,1.75355 5.15936,2.42372 -0.006,0.99605 -3.24841,1.49972 -5.5975,0.8696 z M 123.68,120.96 c 0.10877,-0.176 -0.0469,-0.32 -0.34584,-0.32 -0.52822,0 -1.08303,-0.53237 -1.75082,-1.68 -0.49651,-0.85327 0.0985,-0.66973 1.29666,0.4 0.5914,0.528 1.18881,0.96 1.32759,0.96 0.13878,0 0.16944,0.216 0.0681,0.48 -0.10131,0.264 -0.32128,0.48 -0.48884,0.48 -0.16756,0 -0.21565,-0.144 -0.10688,-0.32 z m -2.75039,-8.67929 c -1.12728,-0.72561 -3.05761,-2.21251 -4.28961,-3.30424 -1.232,-1.09172 -3.104,-2.57155 -4.16,-3.28851 -1.056,-0.71696 -2.36539,-1.78606 -2.90975,-2.37576 -1.21784,-1.3193 -2.51014,-3.438971 -2.25326,-3.695861 0.1045,-0.104496 0.75224,0.182077 1.43942,0.636831 0.68718,0.45476 2.16611,1.25864 3.28651,1.78641 3.49906,1.64825 11.47054,9.28974 11.47547,11.00042 0.002,0.80371 -0.29689,0.71595 -2.58878,-0.75929 z m 3.37952,-2.66622 c -4.86473,-3.94179 -5.2731,-4.30229 -7.06077,-6.2332 -2.01386,-2.1752 -2.13175,-3.01319 -0.38054,-2.70497 1.11908,0.19696 3.75545,2.76137 5.71982,5.56368 0.55518,0.792 1.85608,2.14551 2.89089,3.00781 1.66571,1.38802 2.36575,2.43219 1.6306,2.43219 -0.13798,0 -1.39798,-0.92948 -2.8,-2.06551 z M 190.4,96.324294 c 0,-0.8179 7.31815,-2.955846 9.65882,-2.821753 L 201.76,93.6 l -1.44,0.851373 c -2.1603,1.277232 -9.92,2.742285 -9.92,1.872921 z m 8.59545,-5.13494 c 0.4155,-0.346144 0.94372,-0.629354 1.17383,-0.629354 0.23011,0 0.64615,-0.08741 0.92455,-0.194237 0.28198,-0.108205 0.50617,-0.03011 0.50617,0.17633 0,0.41799 -1.91908,1.303513 -2.78972,1.287261 -0.48679,-0.0091 -0.45968,-0.102781 0.18517,-0.64 z M 151.68,85.76 c -0.616,-0.337245 -0.93948,-0.61921 -0.71884,-0.626586 0.22064,-0.0074 0.9385,0.274586 1.59526,0.626586 0.65676,0.352 0.98024,0.633965 0.71884,0.626586 C 153.01387,86.37921 152.296,86.097245 151.68,85.76 Z m -3.04,-0.343654 c -0.51665,-0.247168 -0.46082,-0.27082 0.28964,-0.122708 0.58643,0.115738 1.03846,0.02896 1.22437,-0.235081 0.22955,-0.326016 0.26578,-0.312432 0.16383,0.06144 -0.16016,0.587402 -0.82428,0.704698 -1.67784,0.296346 z M 147.2,84.8 c 0.44,-0.140912 1.088,-0.256205 1.44,-0.256205 0.50677,0 0.47347,0.05334 -0.16,0.256205 -0.44,0.140912 -1.088,0.256205 -1.44,0.256205 -0.50677,0 -0.47347,-0.05334 0.16,-0.256205 z m -1.76,-0.32 c 0.352,-0.151261 0.928,-0.275018 1.28,-0.275018 h 0.64 L 146.72,84.48 c -0.352,0.151261 -0.928,0.275018 -1.28,0.275018 h -0.64 z m 21.36609,0.09824 c 0.31135,-0.08113 0.74335,-0.0758 0.96,0.01187 0.21665,0.08766 -0.0381,0.154039 -0.56609,0.147517 -0.528,-0.0065 -0.70526,-0.07824 -0.39391,-0.159373 z M 169.84,84.26807 c 0.22,-0.08877 0.58,-0.08877 0.8,0 0.22,0.08877 0.04,0.161405 -0.4,0.161405 -0.44,0 -0.62,-0.07263 -0.4,-0.161405 z M 171.52,84.16 c 0,-0.176 0.144,-0.32 0.32,-0.32 0.176,0 0.32,0.144 0.32,0.32 0,0.176 -0.144,0.32 -0.32,0.32 -0.176,0 -0.32,-0.144 -0.32,-0.32 z m 1.11123,-0.01418 c -0.0976,-0.157878 0.15249,-0.356627 0.55568,-0.441661 0.4032,-0.08503 1.76952,-0.377257 3.03626,-0.649382 1.26674,-0.272125 2.70674,-0.487351 3.2,-0.478282 0.82709,0.0152 0.79729,0.05483 -0.38317,0.509453 -0.704,0.27113 -1.568,0.612576 -1.92,0.758768 -0.97339,0.404269 -4.28761,0.626586 -4.48877,0.301104 z M 141.12,83.893334 c 0,-0.146668 0.20967,-0.266668 0.46592,-0.266668 0.25626,0 0.39176,0.12 0.30112,0.266668 C 141.79639,84.04 141.58673,84.16 141.42111,84.16 141.2555,84.16 141.12,84.04 141.12,83.893334 Z m -2.77333,-1.187411 c 0,-0.256256 0.12,-0.465923 0.26666,-0.465923 0.14667,0 0.26667,0.135501 0.26667,0.301114 0,0.165612 -0.12,0.37528 -0.26667,0.465923 -0.14666,0.09065 -0.26666,-0.04485 -0.26666,-0.301114 z m -2.7133,-1.553219 c -0.23013,-1.052758 0.47045,-3.131085 0.80837,-2.398122 0.11295,0.24498 0.14152,0.107175 0.0635,-0.306233 -0.078,-0.413411 -0.0436,-0.653085 0.0764,-0.532611 0.39069,0.391984 0.24845,2.334156 -0.15949,2.177712 -0.23308,-0.08939 -0.4177,0.26336 -0.48196,0.920828 L 135.83607,82.08 Z M 139.08428,81.44 c 0.10131,-0.264 0.24079,-0.48 0.30996,-0.48 0.0692,0 0.12576,0.216 0.12576,0.48 0,0.264 -0.13948,0.48 -0.30996,0.48 -0.17047,0 -0.22707,-0.216 -0.12576,-0.48 z M 130,79.46807 c -0.24949,-0.100672 -0.39634,-0.78351 -0.39027,-1.814736 0.006,-1.082345 0.10444,-1.487564 0.28397,-1.173334 0.28112,0.492042 0.80912,3.220224 0.61443,3.174736 C 130.44866,79.640848 130.22,79.556842 130,79.46807 Z m 1.52,-0.286956 c 0,-0.299415 -0.14969,-0.406372 -0.37438,-0.267504 -0.25525,0.15775 -0.30616,0.0536 -0.16,-0.327287 0.11791,-0.307267 0.21438,-0.786889 0.21438,-1.065827 0,-0.854195 0.29322,-0.270909 0.49173,0.978163 0.10326,0.649738 0.10687,1.181341 0.008,1.181341 -0.0988,0 -0.17973,-0.224499 -0.17973,-0.498886 z m 1.0148,-0.812276 c -0.23053,-0.369139 -0.32934,-0.760966 -0.21957,-0.870732 0.23427,-0.234276 0.79278,0.563043 0.79987,1.141894 0.007,0.552781 -0.0956,0.504934 -0.5803,-0.271162 z m -6.95261,-0.05985 c -0.10196,-0.2657 -0.1586,-0.677917 -0.12587,-0.916039 0.11521,-0.838189 -0.0197,-1.268621 -0.33632,-1.072947 -0.176,0.108774 -0.32,0.122339 -0.32,0.03014 0,-0.0922 0.27387,-0.314195 0.60859,-0.493334 0.52703,-0.282055 0.58764,-0.229956 0.45224,0.388742 -0.12791,0.584493 -0.0913,0.627136 0.20113,0.234448 0.28028,-0.376339 0.31524,-0.272678 0.16188,0.48 -0.10983,0.53903 -0.079,0.799795 0.0703,0.594659 0.18432,-0.253264 0.44225,-0.130557 0.84082,0.4 0.56104,0.746839 0.55865,0.765341 -0.0989,0.765341 -0.45389,0 -0.59538,-0.130557 -0.43351,-0.4 0.16543,-0.275354 0.0728,-0.264125 -0.29733,0.03604 -0.4575,0.37105 -0.56527,0.364036 -0.72302,-0.04705 z M 127.81516,76.96 c -0.14264,-0.352 -0.44873,-0.83161 -0.6802,-1.065798 -0.46161,-0.467047 -0.27761,-1.028813 0.32393,-0.988938 0.25212,0.0167 0.2378,0.08253 -0.0423,0.194467 -0.31681,0.126605 -0.24776,0.35617 0.27429,0.911863 0.38373,0.40846 0.62703,0.93295 0.54066,1.165532 -0.1084,0.291911 -0.23736,0.224669 -0.41639,-0.217126 z M 132.2407,76 c 0.004,-0.704 0.0691,-0.95432 0.14562,-0.556269 0.0765,0.398051 0.0736,0.974051 -0.006,1.28 C 132.30022,77.02968 132.2376,76.703991 132.24115,76 Z m 0.60982,0.48 c 0,-0.44 0.0726,-0.62 0.16141,-0.4 0.0888,0.22 0.0888,0.58 0,0.8 -0.0888,0.22 -0.16141,0.04 -0.16141,-0.4 z m 2.38244,0.373334 c -0.0906,-0.146668 0.0385,-0.266668 0.28704,-0.266668 0.24852,0 0.37768,0.12 0.28704,0.266668 C 135.71639,77 135.58723,77.12 135.52,77.12 c -0.0672,0 -0.19639,-0.12 -0.28704,-0.266666 z M 133.34556,75.92 c -0.15772,-0.821066 -0.0547,-1.3196 0.20942,-1.013334 0.30033,0.348256 0.50306,1.893334 0.24842,1.893334 -0.15883,0 -0.36486,-0.396 -0.45784,-0.88 z m -13.3343,-0.05896 c -0.40861,-0.763501 -0.42636,-1.524493 -0.0411,-1.762592 0.15958,-0.09863 0.21355,0.113606 0.11992,0.471635 -0.0993,0.379891 0.067,0.913091 0.39944,1.280442 0.31332,0.346214 0.40842,0.629478 0.21133,0.629478 -0.19708,0 -0.5074,-0.278534 -0.68959,-0.618963 z M 131.0096,75.12 130.4,74.4 l 0.72,0.609597 c 0.396,0.335277 0.72,0.659277 0.72,0.72 0,0.25608 -0.25753,0.06702 -0.8304,-0.609597 z m -12.58434,-0.453334 c 0.017,-0.394746 0.082,-0.443968 0.19874,-0.150458 0.14646,0.368278 0.22107,0.368278 0.4791,0 0.25265,-0.360602 0.28407,-0.356477 0.18126,0.02381 -0.18778,0.694595 -0.888,0.797837 -0.8591,0.126666 z M 131.52,74.56 c 0,-0.176 0.1525,-0.32 0.33889,-0.32 0.18638,0 0.24988,0.144 0.14111,0.32 -0.10877,0.176 -0.26127,0.32 -0.33889,0.32 -0.0776,0 -0.14111,-0.144 -0.14111,-0.32 z m 6.72,-6.242118 C 133.72017,67.762707 128.20381,66.694579 125.71726,65.893117 120.50639,64.213552 115.2,61.645872 115.2,60.803974 c 0,-0.475555 0.14858,-0.429203 2.49655,0.778864 5.15033,2.649924 12.85804,4.905799 19.86751,5.814788 7.35543,0.953846 14.25745,0.114038 15.87594,-1.931719 2.77214,-3.503952 3.02288,-4.186745 2.2208,-6.047539 -0.31729,-0.736102 -0.91618,-1.80385 -1.33086,-2.372771 l -0.75397,-1.034403 1.05201,0.205126 c 0.57861,0.112822 1.09732,0.318214 1.1527,0.456429 0.0554,0.138214 0.30736,0.171981 0.56,0.07504 0.25262,-0.09694 0.45932,-0.01686 0.45932,0.177977 0,0.194832 0.19511,0.354237 0.43358,0.354237 0.23847,0 1.17447,0.783379 2.08,1.740845 1.87001,1.977257 2.10261,3.10703 1.00897,4.900736 -0.73802,1.210438 -3.46487,3.050525 -5.29413,3.572486 -4.31189,1.230359 -10.86191,1.55177 -16.78842,0.823815 z M 59.68,62.655152 C 59.328,62.449619 58.824,62.066243 58.56,61.80321 57.50697,60.754026 55.180336,59.52 54.255238,59.52 51.953174,59.52 49.28,57.947117 49.28,56.592595 c 0,-0.78159 1.11209,-1.746681 3.092096,-2.683376 1.920912,-0.908739 3.624762,-0.975472 9.227904,-0.361427 3.97519,0.435638 3.903846,0.356218 2.998979,3.33849 -0.340547,1.122377 -0.339536,1.550812 0.0057,2.4 0.870983,2.142614 0.837671,2.439392 -0.327203,2.915008 -1.62657,0.664131 -3.859763,0.884592 -4.597437,0.453862 z m 92.73917,-7.937712 c -1.6372,-1.530093 -6.04108,-4.401664 -9.12838,-5.952198 -2.72139,-1.366768 -6.33079,-3.573348 -6.33079,-3.870285 0,-0.170307 2.00789,0.143955 3.68,0.575971 3.63549,0.93929 8.76027,3.286736 10.24,4.690512 1.61359,1.530774 2.7034,2.910758 2.38303,3.017549 -0.19089,0.06363 -0.18681,0.510457 0.0109,1.2 0.1733,0.604243 0.27633,1.137373 0.22897,1.184736 -0.0474,0.04736 -0.53506,-0.333466 -1.08377,-0.846285 z m -58.500901,-0.0233 c -0.351047,-0.137034 -0.475363,-0.259274 -0.276256,-0.271642 0.199104,-0.01238 0.53376,-0.704579 0.74368,-1.538236 0.209917,-0.833661 0.494749,-1.661661 0.63296,-1.84 0.138211,-0.178343 0.340329,-0.794132 0.449152,-1.368426 0.4508,-2.378982 4.098489,-6.890086 7.369725,-9.114147 4.33497,-2.947277 12.84954,-4.688426 20.93684,-4.281386 2.20806,0.111133 4.07874,0.266144 4.15706,0.344471 0.0783,0.07833 -0.24396,0.474755 -0.71619,0.880953 -0.75947,0.653271 -0.81916,0.842307 -0.51693,1.637242 0.59707,1.570393 0.63833,1.537696 -3.08103,2.441331 -2.27645,0.553066 -3.93728,1.361536 -3.93728,1.916608 0,0.435744 2.49715,1.237101 4.56,1.463341 1.85254,0.203174 2.17638,0.43896 1.44,1.048464 -1.20846,1.000249 -12.55022,7.118109 -12.92762,6.973289 -0.6414,-0.246128 -0.96936,-1.336835 -0.93887,-3.122451 0.0214,-1.254953 -0.0893,-1.588137 -0.57931,-1.743587 -1.57894,-0.500867 -4.84607,1.54791 -5.96453,3.740285 -0.80579,1.579475 -1.57467,2.011635 -2.76872,1.556185 -2.666262,-1.016998 -4.132211,-0.948387 -5.542822,0.259415 -0.961546,0.823299 -2.348858,1.288016 -3.039859,1.018281 z M 80.618931,46.21462 c -0.426685,-0.514125 -2.175638,-0.500928 -5.174105,0.03905 l -1.195175,0.215232 0.395175,-1.094211 c 0.937692,-2.596416 4.293894,-7.836777 6.313507,-9.857901 2.844077,-2.846198 7.465549,-5.184391 15.361667,-7.772094 2.940221,-0.963565 3.229053,-0.996544 8.8,-1.004787 4.60622,-0.0068 6.12857,0.104302 7.6,0.554728 1.012,0.309788 1.84,0.729947 1.84,0.933687 0,0.20374 0.30098,0.690814 0.66884,1.082386 l 0.66884,0.71195 -1.70884,0.3484 c -2.56224,0.522393 -5.68936,0.905387 -6.63224,0.812285 -6.49368,-0.641207 -9.193714,-0.285264 -13.340827,1.758713 -2.93912,1.448595 -4.175447,2.530451 -4.435472,3.881289 -0.09916,0.515165 -0.269024,1.392711 -0.377463,1.950099 -0.13439,0.690772 -0.932732,1.735085 -2.507452,3.28 -1.27066,1.246612 -2.701264,2.806564 -3.179124,3.466564 -0.956416,1.320963 -2.323129,1.627468 -3.097331,0.694614 z M 61.76,43.39336 c 0,-0.245654 0.711101,-0.902954 1.580224,-1.460669 0.86912,-0.557715 1.62512,-1.128483 1.68,-1.268374 0.148099,-0.377536 3.2076,-1.663235 3.429229,-1.441072 0.271481,0.272141 -3.397965,3.540419 -4.632973,4.12647 C 62.530448,43.959974 61.76,43.976326 61.76,43.39336 Z m 53.12,-19.409694 c -0.792,-0.140925 -2.196,-0.266901 -3.12,-0.279947 -1.67934,-0.02371 -2.17563,-0.390154 -1.12,-0.826976 0.308,-0.127452 2.288,-0.304226 4.4,-0.392832 3.47688,-0.145867 3.9129,-0.101832 4.61092,0.465669 0.43992,0.357665 0.67224,0.786415 0.54111,0.998595 -0.25815,0.417702 -3.05884,0.436414 -5.31203,0.03549 z m -6.78,-1.162262 c 0.231,-0.09244 0.507,-0.08107 0.61333,0.02526 0.10634,0.106333 -0.0827,0.181965 -0.42,0.16807 -0.37278,-0.01535 -0.4486,-0.09118 -0.19333,-0.193334 z M 157.849,1.2 C 156.96713,0.05972798 157.04139,0 159.34111,0 c 2.30741,0 2.64331,0.20986484 1.75603,1.0971428 C 160.49607,1.6982195 158.28839,1.7681287 157.849,1.2 Z"
       style="fill:#aa00d4;stroke-width:0.32" />
  </g>
</svg>
