<?xml version="1.0" encoding="UTF-8" standalone="no"?>
<svg
   xmlns:dc="http://purl.org/dc/elements/1.1/"
   xmlns:cc="http://creativecommons.org/ns#"
   xmlns:rdf="http://www.w3.org/1999/02/22-rdf-syntax-ns#"
   xmlns:svg="http://www.w3.org/2000/svg"
   xmlns="http://www.w3.org/2000/svg"
   xmlns:sodipodi="http://sodipodi.sourceforge.net/DTD/sodipodi-0.dtd"
   xmlns:inkscape="http://www.inkscape.org/namespaces/inkscape"
   id="svg3462"
   version="1.1"
   inkscape:version="1.0 (4035a4fb49, 2020-05-01)"
   width="360"
   height="360"
   viewBox="0 0 360 360"
   sodipodi:docname="stuper2_bw.svg">
  <metadata
     id="metadata3468">
    <rdf:RDF>
      <cc:Work
         rdf:about="">
        <dc:format>image/svg+xml</dc:format>
        <dc:type
           rdf:resource="http://purl.org/dc/dcmitype/StillImage" />
        <dc:title />
      </cc:Work>
    </rdf:RDF>
  </metadata>
  <defs
     id="defs3466">
    <clipPath
       clipPathUnits="userSpaceOnUse"
       id="clipPath3497">
      <rect
         style="fill:#9d83ff;fill-opacity:1"
         id="rect3499"
         width="325.53116"
         height="130.67096"
         x="65.908585"
         y="111.75806" />
    </clipPath>
    <clipPath
       id="clipPath3497-8"
       clipPathUnits="userSpaceOnUse">
      <rect
         y="111.75806"
         x="65.908585"
         height="130.67096"
         width="325.53116"
         id="rect3499-7"
         style="fill:#9d83ff;fill-opacity:1" />
    </clipPath>
  </defs>
  <sodipodi:namedview
     pagecolor="#ffffff"
     bordercolor="#666666"
     borderopacity="1"
     objecttolerance="10"
     gridtolerance="10"
     guidetolerance="10"
     inkscape:pageopacity="0"
     inkscape:pageshadow="2"
     inkscape:window-width="1738"
     inkscape:window-height="1066"
     id="namedview3464"
     showgrid="false"
     inkscape:zoom="1.2337886"
     inkscape:cx="134.41436"
     inkscape:cy="331.22441"
     inkscape:window-x="27"
     inkscape:window-y="30"
     inkscape:window-maximized="0"
     inkscape:current-layer="layer3"
     fit-margin-top="0"
     fit-margin-left="0"
     fit-margin-right="0"
     fit-margin-bottom="0"
     inkscape:document-rotation="0" />
  <g
     style="display:inline"
     inkscape:label="bg2"
     id="layer3"
     inkscape:groupmode="layer">
    <ellipse
       style="display:inline;fill:#cccccc"
       id="path839"
       cx="184.79665"
       cy="188.03871"
       rx="175.47577"
       ry="84.698463" />
  </g>
  <g
     style="display:inline"
     inkscape:groupmode="layer"
     id="layer1"
     inkscape:label="bg">
    <path
       id="path855"
       style="fill:#5a2ca0;stroke-width:0.983136"
       d="M 180,0 A 180,180 0 0 0 0,180 180,180 0 0 0 180,360 180,180 0 0 0 360,180 180,180 0 0 0 180,0 Z m -15.63281,119.17773 c 1.77516,0.0551 4.52629,0.53304 6.4414,1.18165 4.34118,1.47024 9.97533,5.07579 15.65625,10.01757 1.41108,1.22749 3.22557,2.77164 4.03125,3.43164 0.80568,0.66 2.77237,2.3475 4.3711,3.75 1.59873,1.4025 3.78799,3.32289 4.86523,4.26758 1.07724,0.94468 2.84898,2.27453 3.9375,2.95703 2.06229,1.29306 2.42198,1.89287 1.33985,2.23633 -0.4335,0.13758 -0.52299,0.27517 -0.2793,0.42578 0.31482,0.19457 0.51887,0.75298 0.5957,1.62305 0.0126,0.14299 0.29305,0.18982 0.62305,0.10352 0.44505,-0.11638 0.59961,-0.01 0.59961,0.41406 0,0.6109 0.73508,0.7849 1.06445,0.25195 0.10893,-0.17625 0.36936,-0.25468 0.58008,-0.17383 0.21069,0.0809 0.5241,0.007 0.69531,-0.16406 0.21504,-0.21504 0.51844,-0.16679 0.98242,0.1582 0.48639,0.34068 0.82369,0.39034 1.22461,0.17578 0.43431,-0.23243 0.55469,-0.18952 0.55469,0.19922 0,0.34776 0.17874,0.44795 0.59961,0.33789 0.32985,-0.0862 0.66323,-0.0516 0.74219,0.0762 0.079,0.12777 0.85662,0.24436 1.72656,0.25976 0.86994,0.0154 1.91758,0.11328 2.33008,0.21875 0.4125,0.10548 1.04053,0.21367 1.39453,0.23828 0.354,0.0246 0.90559,0.27961 1.22461,0.56836 0.76956,0.6966 1.4745,0.66564 1.66797,-0.0742 0.2043,-0.78123 1.22148,-0.77927 2.32422,0.006 0.75123,0.53491 1.05931,0.57572 2.5957,0.33203 1.0374,-0.16454 1.7839,-0.16752 1.84375,-0.006 0.0554,0.14924 0.23054,0.19143 0.38867,0.0937 0.15813,-0.0977 0.45137,-0.0582 0.65039,0.0879 0.19902,0.14612 1.20529,0.26013 2.23633,0.25195 1.03104,-0.008 1.87479,0.0693 1.875,0.17383 0,0.37605 1.27382,0.51315 1.94141,0.20898 0.4818,-0.21952 0.86953,-0.20995 1.32031,0.0312 0.53958,0.28877 0.63871,0.25961 0.64258,-0.19336 0.003,-0.39159 0.0713,-0.43202 0.25,-0.15039 0.1347,0.21233 0.46796,0.2974 0.74414,0.19141 0.3006,-0.11535 0.50195,-0.0436 0.50195,0.17773 0,0.28451 0.0973,0.28817 0.42578,0.0156 0.33633,-0.27914 0.49133,-0.24034 0.74024,0.1875 0.17328,0.2979 0.31921,0.38612 0.32421,0.19531 0.0102,-0.38847 1.24654,-0.17522 1.53907,0.26562 0.0993,0.14962 0.97794,0.30716 1.95117,0.34961 0.97323,0.0425 2.47834,0.26119 3.3457,0.48633 1.30008,0.33745 1.54623,0.50394 1.4043,0.95117 -0.22437,0.70696 1.22046,1.33951 1.85547,0.8125 0.31074,-0.25787 0.51775,-0.2565 0.83398,0.006 0.32124,0.26663 0.44886,0.26475 0.54102,-0.0117 0.17802,-0.53406 4.17961,-0.4214 4.58203,0.12891 0.50538,0.69117 1.57626,0.89903 1.875,0.36523 0.22203,-0.39674 0.4203,-0.4125 1.29687,-0.10937 0.56931,0.19687 1.16899,0.53591 1.33399,0.75391 0.23424,0.30947 0.55276,0.3267 1.45312,0.0762 1.17837,-0.32787 1.85337,-0.14547 1.125,0.30468 -0.2226,0.13759 -0.31259,0.40054 -0.19922,0.58399 0.29557,0.47822 1.27829,0.412 1.47461,-0.0996 0.12702,-0.33103 0.38207,-0.3715 1.07813,-0.17188 0.56298,0.16148 0.9802,0.14937 1.0918,-0.0312 0.11136,-0.18014 0.31476,-0.18612 0.52929,-0.0156 0.19158,0.1522 0.99234,0.36852 1.7793,0.48242 0.78693,0.11391 1.35129,0.33386 1.25586,0.48828 -0.0954,0.15441 0.10722,0.28125 0.44922,0.28125 0.34197,0 0.85605,0.12484 1.14258,0.27735 0.2865,0.15251 1.1587,0.43862 1.93945,0.63672 0.78078,0.1981 1.35368,0.46856 1.27148,0.60156 -0.0822,0.13299 0.008,0.33958 0.20118,0.45898 0.23544,0.14551 0.27007,0.0867 0.10546,-0.17969 -0.18651,-0.30176 -0.10798,-0.33966 0.32813,-0.15624 1.79622,0.75544 2.78684,1.03768 3.72461,1.05859 0.5775,0.0129 2.13117,0.29672 3.45117,0.63086 1.32,0.33413 2.73594,0.68033 3.14844,0.76953 1.95021,0.42174 5.0618,1.43114 6.57617,2.13476 1.74192,0.80934 4.8643,2.68151 5.125,3.07227 0.17448,0.2615 9.14698,6.31987 10.26562,6.93164 4.16074,2.27548 4.93562,2.90268 10.5254,8.51367 3.93531,3.95023 4.60925,4.77489 5.52539,6.75 0.57402,1.2375 1.52058,2.74641 2.10351,3.35352 1.14927,1.19697 1.16503,2.04687 0.0371,2.04687 h -0.66211 l 0.72656,0.78711 c 0.40002,0.43376 1.16688,0.97663 1.70313,1.20508 0.53625,0.22845 0.97596,0.51518 0.97656,0.63672 0,0.274 2.05179,1.08029 4.04883,1.5918 0.825,0.21131 1.76961,0.54944 2.09961,0.75195 0.33,0.20251 1.01581,0.45503 1.52344,0.56055 1.07175,0.22279 3.76781,2.76503 4.04297,3.8125 0.33825,1.28775 -0.43497,2.50379 -1.8711,2.94336 -2.26296,0.69265 -10.18059,0.16724 -14.19531,-0.94141 -0.66,-0.18226 -2.46576,-0.30544 -4.01367,-0.27344 -2.65665,0.0549 -2.80653,0.025 -2.66211,-0.52734 0.19344,-0.73972 -0.97825,-1.33222 -2.08399,-1.05469 -0.72942,0.18307 -0.76341,0.14223 -0.5625,-0.6582 l 0.21289,-0.85156 -0.57812,0.71289 c -0.55488,0.68523 -0.5761,1.97197 -0.0273,1.63281 0.14625,-0.0904 0.26562,-0.0205 0.26562,0.1543 0,0.49747 -2.40982,0.34 -3.86914,-0.25196 -0.99672,-0.40432 -1.19187,-0.58189 -0.80469,-0.73047 0.28161,-0.10807 0.42092,-0.34291 0.31055,-0.52148 -0.12939,-0.20935 -0.45675,-0.0836 -0.91992,0.35156 -0.60306,0.56655 -0.7168,0.59357 -0.7168,0.17188 0,-0.30229 -0.24045,-0.50196 -0.60156,-0.50196 -0.33,0 -0.59961,0.18524 -0.59961,0.41211 0,0.24 -0.31365,0.41211 -0.75,0.41211 -0.4125,0 -0.75,-0.12518 -0.75,-0.27929 0,-0.15412 -0.15406,-0.18555 -0.34375,-0.0684 -0.18966,0.11723 -1.33719,0.24296 -2.54883,0.27929 -1.21164,0.0363 -2.37648,0.21159 -2.58984,0.38867 -0.21336,0.17707 -1.29445,0.29582 -2.40235,0.26368 -1.1079,-0.0321 -2.01571,0.019 -2.01562,0.11523 1.8e-4,0.21979 -0.90464,0.27092 -1.49024,0.084 -0.38877,-0.12411 -0.38877,-0.17406 0,-0.41993 0.35193,-0.22257 0.30906,-0.27953 -0.20898,-0.2832 -0.35748,-0.002 -0.70076,0.14923 -0.76367,0.33789 -0.0845,0.25352 -0.27721,0.25739 -0.73633,0.0117 -0.34167,-0.18285 -0.71798,-0.23708 -0.83594,-0.11914 -0.11799,0.11795 -4.2183,0.23546 -9.11328,0.25976 -10.54542,0.0524 -13.37004,0.21855 -14.32422,0.84376 -0.38766,0.254 -0.85248,0.46093 -1.03125,0.46093 -0.17877,0 -0.89071,0.27992 -1.58398,0.6211 -4.28877,2.11061 -7.26814,2.6799 -14.76172,2.82226 -3.47483,0.066 -7.24407,0.80679 -9.75,1.91797 -0.7425,0.32924 -2.0925,0.68882 -3,0.79883 -0.9075,0.11001 -2.32539,0.40077 -3.15039,0.64648 -1.74504,0.51972 -11.45256,0.7815 -12.89844,0.34766 -0.495,-0.14853 -1.68736,-0.18449 -2.64844,-0.0801 -1.5378,0.16708 -3.66125,-0.0329 -7.85156,-0.74023 -0.92496,-0.15614 -1.20117,-0.33781 -1.20117,-0.79297 0,-0.48648 0.27241,-0.62398 1.54492,-0.7793 1.66563,-0.2033 2.20508,-0.4235 2.20508,-0.90039 0,-0.43967 0.78905,-1.16211 1.26953,-1.16211 0.22629,0 0.55506,-0.14297 0.73047,-0.31836 0.17538,-0.17539 0.74817,-0.33077 1.27344,-0.3457 0.65904,-0.0188 0.85909,-0.12334 0.64453,-0.33789 -0.32652,-0.32653 -0.37178,-0.34113 -2.24024,-0.67969 -0.85317,-0.1546 -1.11309,-0.11778 -0.95703,0.13477 0.1179,0.19076 0.40874,0.34765 0.64649,0.34765 0.67515,0 0.50825,0.50994 -0.23047,0.70313 -0.40824,0.10675 -0.89064,-0.024 -1.25196,-0.33985 -0.32319,-0.2825 -0.49441,-0.35499 -0.38086,-0.16015 0.27909,0.47887 -0.17971,0.72187 -0.71874,0.38086 -0.37741,-0.23873 -0.37426,-0.27683 0.0156,-0.28907 0.35355,-0.0111 0.33058,-0.10518 -0.10547,-0.43554 -0.30528,-0.23127 -0.46108,-0.57304 -0.3457,-0.75977 0.14778,-0.23911 0.36936,-0.19407 0.75,0.15039 0.38061,0.34446 0.60222,0.38755 0.75,0.14844 0.11538,-0.18673 0.12703,-0.42167 0.0254,-0.52344 -0.38172,-0.38171 1.65618,-0.98096 2.25195,-0.66211 0.33141,0.17736 0.57422,0.18984 0.57422,0.0293 0,-0.15292 -0.34276,-0.36214 -0.75977,-0.4668 -0.74319,-0.18654 -0.7476,-0.2057 -0.22656,-0.89648 0.29235,-0.38756 0.68525,-0.64554 0.8711,-0.57422 0.51567,0.19788 0.77407,-0.81809 0.34375,-1.34961 -0.23973,-0.29609 -0.25201,-0.39288 -0.0332,-0.26172 0.23265,0.13943 0.29668,0.01 0.19141,-0.39258 -0.17526,-0.67024 -0.41714,-0.7508 -0.87695,-0.29101 -0.40665,0.40666 -1.38798,0.0232 -1.19922,-0.46875 0.0806,-0.20995 -0.11283,-0.44983 -0.43164,-0.53321 -0.31881,-0.0834 -0.52104,-0.0577 -0.44922,0.0586 0.0718,0.11624 0.005,0.40881 -0.14649,0.64844 -0.23028,0.36404 -0.27545,0.35069 -0.27929,-0.0762 -0.006,-0.64936 0.58141,-2.03148 1.15234,-2.71484 0.58191,-0.69652 0.21376,-1.03799 -0.42773,-0.39648 -0.45228,0.45226 -0.54898,0.45566 -1.01368,0.0352 -0.28254,-0.25568 -0.60447,-0.37402 -0.71484,-0.26367 -0.11034,0.11037 -0.20117,0.0281 -0.20117,-0.18359 0,-0.23617 -0.22886,-0.32588 -0.59375,-0.23047 -0.47241,0.12354 -0.54543,0.0538 -0.35352,-0.33985 0.1329,-0.27255 0.16483,-0.8633 0.0703,-1.3125 -0.13419,-0.63778 -0.27163,-0.75351 -0.62305,-0.52929 -0.32643,0.20829 -0.34152,0.28963 -0.0566,0.29297 0.216,0.002 0.31117,0.13399 0.21289,0.29297 -0.0992,0.16043 -0.45052,0.0163 -0.79102,-0.32422 -0.58911,-0.5891 -0.63798,-0.59344 -1.20312,-0.082 -0.56577,0.51204 -0.57938,0.51078 -0.36914,-0.0371 0.35322,-0.9205 1.09893,-1.64649 1.6914,-1.64649 0.3279,0 0.46838,-0.13355 0.34571,-0.33203 -0.11337,-0.18345 -0.0204,-0.46373 0.20703,-0.62109 0.28413,-0.19664 0.17952,-0.2206 -0.33594,-0.0762 -0.4125,0.11555 -0.85561,0.36092 -0.98437,0.54493 -0.12876,0.18402 -0.14834,-0.0365 -0.043,-0.49024 0.16254,-0.69973 0.0951,-0.82422 -0.44141,-0.82422 -0.34788,0 -0.63281,0.13383 -0.63281,0.29883 0,0.47024 -1.08422,0.35144 -1.51367,-0.16601 -0.48879,-0.58895 -1.65082,-1.24472 -1.35352,-0.76368 0.2967,0.48007 -1.58817,0.53919 -1.93164,0.0605 -0.0825,-0.11495 -1.02711,-0.20148 -2.09961,-0.19336 -1.22733,0.009 -2.14259,-0.13829 -2.4668,-0.39844 -0.28332,-0.22734 -0.78571,-0.34254 -1.11718,-0.25586 -0.33147,0.0867 -1.11167,0.0279 -1.73438,-0.13085 -0.62271,-0.15874 -1.44469,-0.3196 -1.82617,-0.35743 -0.38148,-0.0378 -0.80334,-0.24579 -0.9375,-0.46289 -0.15243,-0.24659 -0.48571,-0.31929 -0.88867,-0.1914 -0.43458,0.13793 -0.61812,0.0851 -0.5625,-0.16211 0.11796,-0.52444 -3.62904,-0.52445 -3.95313,0 -0.1683,0.27231 -0.30068,0.28873 -0.44531,0.0547 -0.11286,-0.18262 -0.0381,-0.33203 0.16406,-0.33203 0.20226,0 0.26925,-0.0979 0.15039,-0.21679 -0.11883,-0.11885 -0.68102,-0.17598 -1.25,-0.12696 -0.72309,0.0623 -1.08842,-0.0533 -1.21484,-0.38281 -0.0995,-0.25923 -0.30345,-0.39598 -0.45117,-0.30469 -0.14772,0.0913 -0.26758,0.0224 -0.26758,-0.15234 0,-0.51859 -0.85561,-0.36117 -1.49023,0.27344 -0.54409,0.54409 -0.68193,0.55766 -1.7754,0.17187 -0.99573,-0.35132 -1.21259,-0.35356 -1.34375,-0.0117 -0.10434,0.27194 -0.55977,0.37824 -1.37304,0.32032 -0.66966,-0.0477 -1.2168,0.0116 -1.2168,0.13281 0,0.38354 -1.59695,0.54551 -3.08594,0.3125 -0.831,-0.13004 -1.50914,-0.10551 -1.60937,0.0566 -0.0953,0.15411 -0.43104,0.2113 -0.7461,0.12891 -0.61962,-0.16204 -2.35937,0.57683 -2.35937,1.00195 0,0.14318 0.13578,0.34528 0.30078,0.44726 0.65292,0.40353 0.23953,0.75 -0.89453,0.75 -1.02372,0 -1.22144,-0.10712 -1.38281,-0.75 -0.21594,-0.86048 -0.31228,-0.88579 -1.41211,-0.375 -0.74565,0.34628 -1.13448,1.125 -0.5625,1.125 0.39117,0 0.0142,1.92254 -0.42774,2.18164 -0.2184,0.12812 -0.32684,0.41417 -0.24218,0.63477 0.25278,0.65876 2.34563,-0.19064 2.46875,-1.00195 0.0877,-0.57798 0.25881,-0.63527 1.65039,-0.55469 1.33551,0.0773 1.56596,0.18043 1.64648,0.74609 0.0762,0.53542 -0.20792,0.80066 -1.5293,1.42578 -0.89238,0.42216 -1.78433,0.76758 -1.98046,0.76758 -0.19615,0 -0.65408,0.18498 -1.01954,0.41211 -0.45933,0.28549 -1.12903,0.35651 -2.16601,0.22656 -1.21887,-0.15274 -1.5,-0.29748 -1.5,-0.76953 0,-0.40722 0.30092,-0.65912 1.00586,-0.84179 0.84441,-0.21882 0.97834,-0.36703 0.83008,-0.91993 -0.0971,-0.36216 -0.17939,-0.88864 -0.18165,-1.16992 -0.003,-0.34596 -0.34408,-0.5753 -1.05664,-0.70898 -0.57933,-0.10868 -1.12833,-0.31659 -1.21875,-0.46289 -0.28293,-0.45754 -1.6289,-0.30583 -1.6289,0.18359 0,0.53465 -0.34703,0.58265 -0.81836,0.11133 -0.19812,-0.19813 -0.56887,-0.2432 -0.88672,-0.10742 -0.29985,0.12809 -0.92271,0.203 -1.38477,0.16601 -0.46206,-0.037 -1.01873,0.0792 -1.23632,0.25977 -0.40725,0.338 -1.49726,0.29573 -1.86524,-0.0723 -0.3807,-0.38071 -0.70898,-0.21313 -0.70898,0.36133 0,0.68565 -0.78549,1.06174 -1.00782,0.48242 -0.0869,-0.22655 0.105,-0.74648 0.42579,-1.15429 0.61296,-0.77926 0.79297,-1.56069 0.28711,-1.24805 -0.17109,0.10574 -0.22,-0.0181 -0.11524,-0.29102 0.14475,-0.3772 0.26991,-0.39953 0.61719,-0.11132 0.35409,0.29388 0.56278,0.20211 1.11328,-0.48829 0.54468,-0.68309 0.83088,-0.81047 1.46094,-0.65234 0.44853,0.11258 0.86863,0.0591 0.98242,-0.125 0.10929,-0.17686 0.37131,-0.25468 0.58203,-0.17383 0.21069,0.0809 0.51631,0.013 0.67969,-0.15039 0.19611,-0.1961 0.67853,-0.13677 1.42187,0.17383 1.4361,0.60003 1.44354,0.59813 1.01368,-0.20508 -0.19869,-0.37125 -0.33842,-0.70875 -0.31055,-0.75 0.0279,-0.0412 0.0462,-0.24297 0.041,-0.44922 -0.005,-0.2086 -0.21619,-0.10915 -0.47461,0.22461 -0.46191,0.59663 -0.46375,0.59608 -0.36523,-0.0293 0.0545,-0.3459 -0.096,-0.86371 -0.33398,-1.1504 -0.69666,-0.83943 -0.0509,-1.5338 1.3164,-1.41601 1.43709,0.12382 2.55278,-0.79931 2.33594,-1.93359 -0.10641,-0.55663 -0.27455,-0.70296 -0.63281,-0.55469 -0.26766,0.11079 -0.72297,0.27049 -1.01172,0.35351 -0.28875,0.083 -0.52344,0.30323 -0.52344,0.49024 0,0.33179 -0.63245,0.4634 -2.63867,0.55078 -0.68583,0.0299 -0.9401,0.16488 -0.83399,0.44141 0.084,0.2189 0.0211,0.39843 -0.13867,0.39843 -0.15981,0 -0.28906,-0.21957 -0.28906,-0.48632 0,-0.33741 -0.18384,-0.43736 -0.60156,-0.32813 -0.33021,0.0864 -0.5241,0.0363 -0.43164,-0.11328 0.16551,-0.26778 -0.25216,-0.39234 -0.9961,-0.29492 -0.20853,0.0273 -0.66826,-0.15298 -1.02148,-0.40039 -0.46656,-0.32679 -0.79681,-0.36695 -1.20508,-0.14844 -0.30912,0.16543 -0.48235,0.43 -0.38476,0.58789 0.21915,0.35462 -0.79789,0.72525 -2.36719,0.86133 -0.14139,0.0123 -0.18824,0.20305 -0.10352,0.42383 0.22443,0.5849 -0.71059,2.35385 -1.15429,2.18359 -0.56602,-0.2172 -0.76192,0.96899 -0.21094,1.27734 0.3159,0.17678 0.39404,0.44515 0.24023,0.82422 -0.21414,0.52783 -0.24686,0.52214 -0.53906,-0.10547 -0.17112,-0.36762 -0.56077,-0.74845 -0.86719,-0.8457 -0.30639,-0.0973 -0.55859,-0.37701 -0.55859,-0.62109 0,-0.36524 -0.12694,-0.34789 -0.71875,0.0957 -0.39549,0.29645 -0.64481,0.66078 -0.55469,0.80859 0.0919,0.15079 -0.21908,0.18231 -0.70703,0.0723 l -0.86914,-0.19727 0.75,0.44336 0.75,0.44141 -0.82422,0.01 c -0.45375,0.006 -0.83903,-0.15703 -0.85547,-0.36328 -0.0165,-0.20625 -0.12576,-0.0375 -0.24219,0.375 -0.16416,0.58153 -0.37666,0.72671 -0.94531,0.64844 -0.40338,-0.0555 -0.86083,-0.22426 -1.01758,-0.375 -0.40341,-0.38793 -0.58735,-0.34884 -1.31836,0.28516 -0.82215,0.71305 -0.82544,1.03869 -0.008,0.77929 0.35067,-0.1113 0.56509,-0.0847 0.47656,0.0586 -0.32598,0.52743 0.62626,1.34774 1.48438,1.27929 1.50834,-0.12031 1.90039,0.006 1.90039,0.60352 0,0.36496 0.24176,0.61341 0.65234,0.67383 0.95253,0.14016 0.9616,0.64124 0.0215,1.07812 -0.52971,0.24612 -0.85597,0.27192 -0.92188,0.0742 -0.0561,-0.16841 -0.66408,-0.30802 -1.35156,-0.31055 -0.68751,-0.002 -1.45172,-0.13831 -1.69922,-0.30078 -0.39999,-0.26259 -0.39999,-0.33056 0,-0.61718 0.33471,-0.23983 0.14256,-0.26851 -0.75,-0.11328 -0.66,0.11477 -1.47078,0.2417 -1.80078,0.2832 -0.33,0.0415 -0.65654,0.0922 -0.72656,0.11328 -0.07,0.0211 0.168,0.35368 0.52929,0.73828 l 0.65625,0.69922 -2.43359,0.0312 c -1.33824,0.0168 -2.72256,-0.087 -3.07812,-0.23047 -0.35556,-0.14342 -0.47774,-0.26884 -0.27149,-0.2793 0.51942,-0.0263 0.47451,-0.61914 -0.0469,-0.61914 -0.28677,0 -0.36884,-0.21696 -0.25586,-0.67578 0.0914,-0.37125 0.0512,-0.56988 -0.0879,-0.4414 -0.3585,0.33114 -0.44232,1.9771 -0.11133,2.18164 0.43371,0.26806 0.32318,0.73437 -0.17383,0.73437 -0.2475,0 -0.44922,0.13578 -0.44922,0.30078 0,0.5097 -0.77957,0.33035 -1.36133,-0.3125 -0.48012,-0.53051 -0.5865,-0.54877 -0.81054,-0.14843 -0.32034,0.57239 -0.86901,0.61346 -0.65235,0.0488 0.1089,-0.28377 -0.0813,-0.41406 -0.60937,-0.41406 -0.50454,0 -0.77078,0.16788 -0.77735,0.48828 -0.008,0.38633 -0.12601,0.34742 -0.57226,-0.1875 -0.69717,-0.83572 -1.01898,-0.86635 -0.76758,-0.0742 0.10473,0.33 0.0802,0.61043 -0.0547,0.62305 -0.65457,0.0613 -1.36668,0.24754 -1.51758,0.39844 -0.0923,0.0923 -0.33972,-0.0656 -0.54882,-0.35157 -0.20907,-0.28593 -0.48862,-0.41176 -0.6211,-0.27929 -0.13245,0.13246 -0.0415,0.38114 0.20117,0.55273 0.35823,0.25326 0.33673,0.27951 -0.10937,0.13477 -0.30225,-0.0981 -0.61266,-0.17969 -0.69141,-0.17969 -0.0788,0 -0.0656,-0.1257 0.0293,-0.2793 0.0949,-0.1536 0.0582,-0.3489 -0.082,-0.43554 -0.35406,-0.21883 -0.33819,0.78256 0.0195,1.23632 0.16095,0.20415 0.21295,0.57658 0.11719,0.82618 -0.22917,0.59718 -1.0918,0.58644 -1.0918,-0.0137 0,-0.25723 -0.13699,-0.38293 -0.30469,-0.27929 -0.1677,0.10364 -0.22773,0.31319 -0.13281,0.46679 0.0949,0.1536 -0.0261,0.2793 -0.26953,0.2793 -0.24351,0 -0.51396,0.16875 -0.59961,0.375 -0.10656,0.25657 -0.35345,0.14828 -0.7832,-0.34375 -0.54054,-0.61889 -0.73034,-0.67315 -1.36328,-0.38476 -0.62328,0.28399 -0.7845,0.24583 -1.04883,-0.24805 -0.29469,-0.55066 -0.34318,-0.55467 -0.9043,-0.0742 -0.66885,0.57269 -0.78497,1.26399 -0.21875,1.30078 0.20625,0.0134 -0.0304,0.20835 -0.52539,0.4336 -0.495,0.22526 -1.13703,0.34064 -1.42578,0.25586 -0.28875,-0.0848 -0.52539,-0.0147 -0.52539,0.15624 0,0.17095 -0.1963,0.23513 -0.4375,0.14258 -0.24117,-0.0926 -0.84828,0.035 -1.34961,0.28516 -0.5013,0.25009 -0.91211,0.34564 -0.91211,0.21094 0,-0.55371 -0.95299,-0.55513 -1.50586,-0.002 -0.32625,0.32626 -0.81874,0.59375 -1.09375,0.59375 -0.27498,0 -0.40839,0.0896 -0.29688,0.20118 0.3198,0.31981 -1.88633,0.99603 -3.74804,1.14843 -1.31292,0.10748 -1.73309,0.0377 -1.86524,-0.30664 -0.24921,-0.64943 -0.79101,-0.54237 -0.79101,0.15625 0,0.68966 0.13455,0.67164 -2.36328,0.31055 -1.423803,-0.20583 -2.232154,-0.17334 -3.150394,0.125 -1.67439,0.54402 -3.11527,0.5231 -4,-0.0566 -0.5691,-0.3729 -0.789257,-0.39667 -0.966797,-0.10938 -0.17397,0.28148 -2.987359,0.39979 -11.599609,0.48828 -14.82012,0.1523 -17.97316,-0.11212 -22.46875,-1.88476 -0.825,-0.3253 -1.761418,-0.54999 -2.080078,-0.5 -0.31869,0.05 -0.826869,-0.0424 -1.13086,-0.20508 -0.39678,-0.21236 -0.672539,-0.17706 -0.974609,0.125 -0.66144,0.66144 -6.177265,1.14612 -14.265625,1.25391 -6.35628,0.0847 -7.653809,0.0221 -9.599609,-0.45703 -1.2375,-0.30472 -2.992891,-0.63466 -3.900391,-0.73438 -0.9075,-0.0997 -2.121719,-0.30069 -2.699219,-0.44531 -0.5775,-0.14462 -2.029662,-0.35442 -3.226562,-0.4668 -1.19691,-0.11237 -2.250217,-0.32642 -2.341797,-0.47461 -0.22911,-0.37071 3.224409,-0.33572 5.417969,0.0547 2.57658,0.45863 17.012821,0.63776 19.050781,0.23633 0.9075,-0.17876 1.784219,-0.43075 1.949219,-0.56055 0.61759,-0.48583 5.991866,-2.12137 8.941406,-2.7207 4.75779,-0.96675 5.224618,-1.12046 5.398437,-1.78516 0.098,-0.37498 0.816804,-0.90129 1.908204,-1.39453 0.96357,-0.43548 2.462991,-1.25804 3.332031,-1.82812 1.36248,-0.89378 1.647369,-0.98024 2.068359,-0.63086 0.43044,0.35724 0.464586,0.32907 0.285156,-0.23633 -0.21348,-0.67256 -0.308661,-0.60031 4.017579,-3.03125 0.7425,-0.41722 1.726006,-1.02196 2.185547,-1.34375 0.665609,-0.46605 0.924504,-0.51063 1.271484,-0.22266 0.23958,0.19884 0.672041,0.26915 0.96289,0.15625 0.469321,-0.18216 0.448368,-0.24889 -0.195312,-0.5957 l -0.726562,-0.39063 1.326171,-0.83593 c 0.72891,-0.45947 2.40461,-1.54467 3.72461,-2.41211 3.17352,-2.08548 4.817173,-2.91013 5.876953,-2.94727 0.47973,-0.0168 0.872687,-0.18757 0.873047,-0.3789 0.003,-0.94667 6.799712,-4.57066 9.451172,-5.03907 0.66,-0.1166 2.143828,-0.62694 3.298828,-1.13281 3.936091,-1.72397 8.997121,-3.60381 10.800781,-4.01172 0.99,-0.22389 2.87922,-0.83085 4.19922,-1.34961 1.32,-0.51876 3.88617,-1.4722 5.70117,-2.11914 1.815,-0.64694 4.515,-1.6565 6,-2.24414 4.46286,-1.76602 9.27678,-3.32583 10.98828,-3.55859 0.88656,-0.12058 2.21844,-0.52328 2.96094,-0.89649 1.76004,-0.88465 6.24945,-2.4483 8.62695,-3.0039 1.03272,-0.24134 2.5185,-0.76084 3.30078,-1.1543 0.78228,-0.39345 2.77188,-1.18868 4.42188,-1.76758 8.29524,-2.91036 10.84228,-4.55327 12.58594,-8.11719 1.38258,-2.8259 1.92409,-9.68633 0.94922,-12.01953 -0.26425,-0.63241 -0.3997,-1.47308 -0.30079,-1.86719 0.13935,-0.5552 -0.0603,-0.95686 -0.88671,-1.7832 -0.58656,-0.58658 -1.34791,-1.52037 -1.69141,-2.07617 -0.3435,-0.55579 -1.62564,-1.94856 -2.84961,-3.0957 -3.10734,-2.91229 -3.2346,-4.10048 -0.52148,-4.84961 0.30743,-0.0849 0.79109,-0.11408 1.38281,-0.0957 z m 58.26562,32.58204 c -0.10758,-0.0181 -0.18359,0.0486 -0.18359,0.17968 0,0.17474 0.13578,0.31836 0.30078,0.31836 0.165,0 0.29883,-0.06 0.29883,-0.13281 0,-0.0728 -0.13383,-0.21639 -0.29883,-0.31836 -0.0412,-0.0255 -0.0813,-0.0408 -0.11719,-0.0469 z m 14.63086,2.29687 c -0.42363,0 -0.66918,0.13133 -0.56445,0.30078 0.10197,0.165 0.52305,0.30078 0.93555,0.30078 0.42363,0 0.66918,-0.13134 0.56445,-0.30078 -0.10197,-0.165 -0.52305,-0.30078 -0.93555,-0.30078 z m 12.16016,0.48047 c 0.17413,-0.0394 0.43524,0.0401 0.6289,0.27344 0.30144,0.3632 0.28178,0.44726 -0.0996,0.44726 -0.25797,0 -0.5457,-0.1257 -0.64062,-0.27929 -0.15028,-0.24318 -0.0628,-0.40201 0.11133,-0.44141 z m 0.0254,2.55859 c -0.13594,0 -0.27188,0.0209 -0.375,0.0625 -0.20625,0.0832 -0.0375,0.15235 0.375,0.15235 0.4125,0 0.58125,-0.0691 0.375,-0.15235 -0.10313,-0.0416 -0.23906,-0.0625 -0.375,-0.0625 z m 12.11719,2.77735 c -0.0359,-0.002 -0.0759,0.01 -0.11719,0.0351 -0.165,0.10197 -0.29883,0.31154 -0.29883,0.4668 0,0.15526 0.13383,0.2832 0.29883,0.2832 0.165,0 0.30078,-0.21151 0.30078,-0.46875 0,-0.19293 -0.076,-0.31164 -0.18359,-0.3164 z m 12.17968,1.79101 c -0.13566,-0.002 -0.26146,0.022 -0.35547,0.0801 -0.1913,0.11823 -0.15376,0.28549 0.10157,0.44727 0.53325,0.33788 1.1582,0.33639 1.1582,-0.002 0,-0.2741 -0.4973,-0.51841 -0.9043,-0.52539 z m -159.92773,11.87696 c -0.1877,0.0195 -0.2814,0.35261 -0.0937,0.65625 0.18903,0.30582 0.25969,0.30701 0.36133,0.002 0.0695,-0.20844 0.045,-0.46086 -0.0547,-0.56055 -0.0762,-0.0762 -0.15033,-0.10414 -0.21289,-0.0976 z m -7.75391,9.35742 c -0.0851,-0.0108 -0.16112,0.005 -0.21484,0.0586 -0.21489,0.2149 0.16364,0.80078 0.51758,0.80078 0.15528,0 0.2832,-0.12794 0.2832,-0.2832 0,-0.26547 -0.33072,-0.54374 -0.58594,-0.57617 z m 62.94922,0.0859 c -0.60956,-0.0357 -1.16406,0.0315 -1.16406,0.23242 0,0.132 0.13578,0.24023 0.30078,0.24023 0.165,0 0.29883,0.20367 0.29883,0.45117 0,0.2475 0.13578,0.44922 0.30078,0.44922 0.165,0 0.57039,0.26961 0.90039,0.59961 0.69057,0.69055 0.95125,0.75806 0.86523,0.22461 -0.0332,-0.20625 0.0414,-0.60612 0.16602,-0.89062 0.13644,-0.31167 0.0658,-0.67706 -0.17773,-0.91797 -0.21588,-0.2136 -0.88068,-0.35295 -1.49024,-0.38867 z m -5.86328,0.2871 c -0.027,-6.8e-4 -0.061,0.0128 -0.10351,0.0391 -0.16311,0.10081 -0.29688,0.30958 -0.29688,0.46484 0,0.43153 0.21462,0.33614 0.41406,-0.18359 0.0768,-0.20023 0.0674,-0.31827 -0.0137,-0.32032 z m -5.63086,0.64063 c -0.0985,-0.0148 -0.21092,-0.006 -0.32812,0.0391 -0.24126,0.0926 -0.36473,0.28979 -0.27344,0.4375 0.19446,0.31465 0.55302,0.34739 0.82422,0.0762 0.2396,-0.23958 0.0728,-0.50844 -0.22266,-0.55273 z m 77.11328,0.24805 c -0.10758,-0.0181 -0.18359,0.0486 -0.18359,0.17968 0,0.17474 0.13578,0.31836 0.30078,0.31836 0.165,0 0.29883,-0.06 0.29883,-0.13281 0,-0.0728 -0.13383,-0.21639 -0.29883,-0.31836 -0.0412,-0.0255 -0.0813,-0.0408 -0.11719,-0.0469 z m -66.70898,0.50195 c -0.8517,0.007 -1.30861,0.44871 -1.11133,1.07031 0.16734,0.52727 0.15275,0.53137 -0.15625,0.0508 -0.42312,-0.65809 -1.20703,-0.68604 -1.20703,-0.043 0,0.32981 0.16017,0.42052 0.50781,0.28711 0.44952,-0.17249 0.44594,-0.12574 -0.0391,0.41016 -0.30156,0.33321 -0.68702,0.52012 -0.85547,0.41602 -0.17544,-0.10843 -0.2144,-0.0402 -0.0918,0.1582 0.12813,0.2073 0.0191,0.3457 -0.27148,0.3457 -0.26697,0 -0.4145,0.11414 -0.32813,0.25391 0.0864,0.13977 0.98152,-0.15434 1.99024,-0.6543 1.53438,-0.76052 1.88097,-0.83817 2.11719,-0.47851 0.23613,0.35956 0.35677,0.33068 0.73828,-0.16993 0.36318,-0.47656 0.50747,-0.51627 0.70703,-0.19336 0.16101,0.26053 0.32012,0.29516 0.44336,0.0957 0.10554,-0.17073 -0.0817,-0.39646 -0.41407,-0.50196 -0.3324,-0.1055 -0.60351,-0.33373 -0.60351,-0.50781 0,-0.19672 -0.16956,-0.17552 -0.44922,0.0566 -0.36855,0.30587 -0.45117,0.28536 -0.45117,-0.11328 0,-0.2677 -0.23664,-0.48495 -0.52539,-0.48242 z m -17.17383,0.5957 c -0.165,0 -0.30078,0.20956 -0.30078,0.4668 0,0.25724 0.13578,0.38517 0.30078,0.2832 0.165,-0.10198 0.29883,-0.31349 0.29883,-0.46875 0,-0.15526 -0.13383,-0.28125 -0.29883,-0.28125 z m 4.65039,1.5 c 0.2475,0 0.44922,0.11888 0.44922,0.26367 0,0.1448 -0.20172,0.43131 -0.44922,0.63672 -0.37596,0.31202 -0.45117,0.2683 -0.45117,-0.26367 0,-0.36599 0.19251,-0.63672 0.45117,-0.63672 z m 58.54492,0.39258 c -0.0701,0.004 -0.17695,0.0673 -0.32422,0.18945 -0.23526,0.19525 -0.6106,0.31302 -0.83398,0.26172 -0.22335,-0.0513 -0.43431,0.007 -0.4707,0.13086 -0.20403,0.69419 0.0211,0.79538 0.83398,0.375 0.495,-0.25597 0.89844,-0.61395 0.89844,-0.79492 0,-0.11329 -0.0334,-0.16636 -0.10352,-0.16211 z m -47.41211,0.31055 c -0.10758,-0.0181 -0.18359,0.0486 -0.18359,0.17968 0,0.17475 0.13578,0.31641 0.30078,0.31641 0.165,0 0.29883,-0.0581 0.29883,-0.13086 0,-0.0728 -0.13383,-0.21639 -0.29883,-0.31836 -0.0412,-0.0255 -0.0813,-0.0408 -0.11719,-0.0469 z m 2,0.01 c -0.0315,0.0315 -0.0533,0.13776 -0.0605,0.3125 -0.0129,0.31624 0.0585,0.49226 0.1582,0.39258 0.0997,-0.0997 0.11008,-0.35766 0.0234,-0.57422 -0.0479,-0.11966 -0.0896,-0.1624 -0.1211,-0.13086 z m 40.68164,0.48633 c -0.165,0 -0.2172,0.13578 -0.11523,0.30078 0.10197,0.165 0.31937,0.29883 0.48437,0.29883 0.165,0 0.21721,-0.13383 0.11524,-0.29883 -0.10197,-0.165 -0.31938,-0.30078 -0.48438,-0.30078 z m -22.80078,0.30078 c -0.165,0 -0.2172,0.13383 -0.11523,0.29883 0.10197,0.165 0.32133,0.30078 0.48633,0.30078 0.165,0 0.2172,-0.13578 0.11523,-0.30078 -0.10197,-0.165 -0.32133,-0.29883 -0.48633,-0.29883 z m 10.83594,0 c -0.165,0 -0.30078,0.13383 -0.30078,0.29883 0,0.165 0.13578,0.30078 0.30078,0.30078 0.165,0 0.29883,-0.13578 0.29883,-0.30078 0,-0.165 -0.13383,-0.29883 -0.29883,-0.29883 z m -37.21875,0.29883 c 0.15525,0 0.36678,0.13578 0.46875,0.30078 0.10197,0.165 -0.0258,0.30078 -0.2832,0.30078 -0.25722,0 -0.4668,-0.13578 -0.4668,-0.30078 0,-0.165 0.12597,-0.30078 0.28125,-0.30078 z m 44.60156,0.10352 c -0.10758,-0.0181 -0.18359,0.0486 -0.18359,0.17968 0,0.17474 0.13578,0.31836 0.30078,0.31836 0.165,0 0.29883,-0.06 0.29883,-0.13281 0,-0.0728 -0.13383,-0.21639 -0.29883,-0.31836 -0.0412,-0.0255 -0.0813,-0.0408 -0.11719,-0.0469 z m -40.36523,0.19726 c -0.17472,0 -0.31836,0.13578 -0.31836,0.30078 0,0.165 0.06,0.29883 0.13281,0.29883 0.0727,0 0.21639,-0.13383 0.31836,-0.29883 0.10197,-0.165 0.0419,-0.30078 -0.13281,-0.30078 z m -1.38672,0.30078 c -0.25725,0 -0.38322,0.13383 -0.28125,0.29883 0.10197,0.165 0.31155,0.30078 0.4668,0.30078 0.15528,0 0.2832,-0.13578 0.2832,-0.30078 0,-0.165 -0.21153,-0.29883 -0.46875,-0.29883 z m 25.35156,0 c -0.15528,0 -0.2832,0.13383 -0.2832,0.29883 0,0.165 0.21153,0.30078 0.46875,0.30078 0.25725,0 0.38322,-0.13578 0.28125,-0.30078 -0.10197,-0.165 -0.31155,-0.29883 -0.4668,-0.29883 z m -34.20117,0.26953 c 0.0192,-0.005 0.0323,0.003 0.0371,0.0293 0.015,0.0825 0.0717,0.38703 0.12695,0.67578 0.0573,0.2995 -0.0807,0.52539 -0.32226,0.52539 -0.23289,0 -0.42245,-0.10281 -0.41993,-0.22656 0.005,-0.24282 0.44346,-0.96608 0.57813,-1.00391 z m -5.91797,0.35157 c 0.0389,10e-4 0.0707,0.014 0.0937,0.0371 0.0923,0.0924 -0.0733,0.25843 -0.36914,0.37109 -0.42756,0.1628 -0.46203,0.12831 -0.16797,-0.16797 0.15264,-0.15377 0.32677,-0.24366 0.44336,-0.24023 z m 36.83594,0.27734 c 0.165,0 0.30078,0.13578 0.30078,0.30078 0,0.165 -0.13578,0.30078 -0.30078,0.30078 -0.165,0 -0.29883,-0.13578 -0.29883,-0.30078 0,-0.165 0.13383,-0.30078 0.29883,-0.30078 z m -17.31641,0.11524 c -0.0315,0.0315 -0.0533,0.1358 -0.0605,0.31054 -0.0129,0.31624 0.0585,0.49421 0.1582,0.39453 0.0997,-0.0997 0.11008,-0.35961 0.0234,-0.57617 -0.0479,-0.11966 -0.0896,-0.16045 -0.1211,-0.1289 z m -92.474607,0.1875 c -0.368255,-0.0504 -1.50849,0.45104 -1.429687,0.6875 0.126,0.37801 2.064265,1.09241 2.416015,0.89062 0.13452,-0.0772 -8.5e-5,-0.43029 -0.296875,-0.78516 -0.29775,-0.35487 -0.560464,-0.68508 -0.583984,-0.73437 -0.01534,-0.0321 -0.05286,-0.0514 -0.105469,-0.0586 z m 93.978517,0.6914 c -0.0664,0.0167 -0.0879,0.12099 -0.0879,0.32031 0,0.26771 0.20367,0.48633 0.45117,0.48633 0.2475,0 0.44922,-0.051 0.44922,-0.11328 0,-0.0623 -0.20172,-0.28093 -0.44922,-0.48633 -0.18428,-0.15294 -0.29685,-0.22375 -0.36328,-0.20703 z m -19.73438,0.30664 c 0.0719,0.0134 0.14203,0.0434 0.20704,0.0918 0.21452,0.15984 1.03678,0.27924 1.82812,0.26562 1.03848,-0.0179 1.57906,0.12914 1.93945,0.52735 0.43185,0.4772 0.43948,0.58845 0.0606,0.82812 -0.43338,0.27413 -2.39082,0.31127 -3.9375,0.0742 -0.43977,-0.0674 -0.88382,-0.34024 -0.98633,-0.60742 -0.21971,-0.57256 0.38549,-1.27332 0.88867,-1.17969 z m -80.384762,0.31836 c -0.165714,-0.0101 -0.214928,0.22619 -0.05664,0.63867 0.10173,0.26507 0.325819,0.39281 0.5,0.28516 0.21747,-0.13441 0.206287,-0.33128 -0.03906,-0.62695 -0.163474,-0.19697 -0.304868,-0.29083 -0.404297,-0.29688 z m 90.015622,0.58399 c -0.10758,-0.0181 -0.18359,0.0486 -0.18359,0.17968 0,0.17474 0.13578,0.31836 0.30078,0.31836 0.165,0 0.29883,-0.06 0.29883,-0.13281 0,-0.0728 -0.13383,-0.21639 -0.29883,-0.31836 -0.0412,-0.0255 -0.0813,-0.0408 -0.11719,-0.0469 z m 46.9336,0.49804 c -0.17472,0 -0.31641,0.13383 -0.31641,0.29883 0,0.165 0.0581,0.30078 0.13086,0.30078 0.0727,0 0.21639,-0.13578 0.31836,-0.30078 0.10197,-0.165 0.0419,-0.29883 -0.13281,-0.29883 z m -73.91992,0.0547 c -0.11565,0.0376 -0.19727,0.18827 -0.19727,0.39453 0,0.275 0.1449,0.45171 0.32227,0.39258 0.17739,-0.0591 0.32226,-0.23583 0.32226,-0.39258 0,-0.15675 -0.14487,-0.33346 -0.32226,-0.39258 -0.0443,-0.0148 -0.0865,-0.0145 -0.125,-0.002 z m 46.62304,0.35547 c 0.2014,-0.0258 0.42327,0.004 0.64258,0.10547 l 0.6875,0.31836 -0.79492,0.31445 c -0.43644,0.17227 -0.85887,0.49011 -0.93946,0.70703 -0.10434,0.28084 -0.21215,0.23611 -0.37304,-0.1543 -0.26213,-0.63602 0.17316,-1.21345 0.77734,-1.29101 z m -18.45312,0.49023 c 0.0728,0 0.13281,0.13383 0.13281,0.29883 0,0.165 -0.14364,0.30078 -0.31836,0.30078 -0.17475,0 -0.23283,-0.13578 -0.13086,-0.30078 0.10197,-0.165 0.24366,-0.29883 0.31641,-0.29883 z m -68.267581,0.29883 c -0.165,0 -0.298828,0.13578 -0.298828,0.30078 0,0.165 0.133828,0.29883 0.298828,0.29883 0.165,0 0.300781,-0.13383 0.300781,-0.29883 0,-0.165 -0.135781,-0.30078 -0.300781,-0.30078 z m 108.468751,0 c 0.25725,0 0.38322,0.13578 0.28125,0.30078 -0.10197,0.165 -0.31155,0.29883 -0.4668,0.29883 -0.15528,0 -0.2832,-0.13383 -0.2832,-0.29883 0,-0.165 0.21153,-0.30078 0.46875,-0.30078 z m -24.4043,0.13086 c 0.1584,-0.0182 0.22276,0.0621 0.16797,0.22656 -0.14949,0.44845 -0.83203,0.6951 -0.83203,0.30078 0,-0.1611 0.21331,-0.3763 0.47461,-0.47656 0.073,-0.028 0.13665,-0.0447 0.18945,-0.0508 z m -11.44726,0.46875 c 0.15528,0 0.2832,0.13578 0.2832,0.30078 0,0.165 -0.21153,0.30078 -0.46875,0.30078 -0.25725,0 -0.38322,-0.13578 -0.28125,-0.30078 0.10197,-0.165 0.31155,-0.30078 0.4668,-0.30078 z m -99.62891,0.0117 c -0.124631,0.0385 -0.190911,0.19448 -0.09766,0.4375 0.0946,0.24656 0.294922,0.37226 0.445312,0.2793 0.15039,-0.093 0.196483,-0.29562 0.101563,-0.44922 -0.14106,-0.22824 -0.324588,-0.30613 -0.449219,-0.26758 z m 64.83008,0.28906 c -0.17472,0 -0.31836,0.13578 -0.31836,0.30078 0,0.165 0.06,0.29883 0.13281,0.29883 0.0727,0 0.21639,-0.13383 0.31836,-0.29883 0.10197,-0.165 0.0419,-0.30078 -0.13281,-0.30078 z m 19.93164,0 c 0.2475,0 0.45117,0.20172 0.45117,0.44922 0,0.27999 0.28332,0.45117 0.75,0.45117 0.83751,0 1.03412,0.72643 0.27539,1.01758 -0.7143,0.2741 -2.46923,0.2186 -2.65625,-0.084 -0.0904,-0.14631 0.0375,-0.43282 0.2832,-0.63672 0.2457,-0.20389 0.44727,-0.55591 0.44727,-0.78321 0,-0.22729 0.20172,-0.41406 0.44922,-0.41406 z m 5.71094,0 c 0.66759,0 0.7213,0.0729 0.43945,0.59961 -0.33135,0.61915 -0.65242,0.74798 -1,0.40039 -0.45864,-0.45864 -0.15519,-1 0.56055,-1 z m 34.80664,0 c 0.0728,0 0.13281,0.13578 0.13281,0.30078 0,0.165 -0.14364,0.29883 -0.31836,0.29883 -0.17475,0 -0.23283,-0.13383 -0.13086,-0.29883 0.10197,-0.165 0.24366,-0.30078 0.31641,-0.30078 z m -84.75391,0.0156 c -0.26848,-0.0448 -0.34082,0.33985 0.008,0.75976 0.28116,0.33877 0.44461,0.37909 0.52735,0.13086 0.0659,-0.19753 -0.0282,-0.50669 -0.20899,-0.6875 -0.12486,-0.12486 -0.23668,-0.18818 -0.32617,-0.20312 z m 87.4375,0.28515 c 0.26697,0 0.4008,0.13383 0.29883,0.29883 -0.10197,0.165 -0.2358,0.30078 -0.29883,0.30078 -0.063,0 -0.19881,-0.13578 -0.30078,-0.30078 -0.10197,-0.165 0.0338,-0.29883 0.30078,-0.29883 z m 17.00781,0.006 c 0.0318,0.004 0.059,0.0168 0.0801,0.0391 0.0549,0.0578 -0.0875,0.27749 -0.31836,0.49024 -0.23085,0.21276 -0.41992,0.25553 -0.41992,0.0937 0,-0.27259 0.43572,-0.65167 0.6582,-0.62305 z m -77.31836,0.11719 c -0.0148,2e-5 -0.0322,0.0231 -0.0488,0.0703 -0.0665,0.18873 -0.40408,0.26872 -0.75196,0.17774 -0.49029,-0.12821 -0.57244,-0.0714 -0.36523,0.25586 0.14703,0.23224 0.28543,0.52273 0.30859,0.64648 0.0231,0.12375 0.0595,0.28987 0.0801,0.36719 0.0207,0.0773 0.22236,0.0695 0.44922,-0.0176 0.22689,-0.0871 0.40949,-0.52279 0.40625,-0.9668 -0.002,-0.333 -0.0338,-0.53327 -0.0781,-0.5332 z m -3.77539,0.17578 c -0.165,0 -0.2172,0.13578 -0.11523,0.30078 0.10197,0.165 0.32133,0.29883 0.48633,0.29883 0.165,0 0.21525,-0.13383 0.11328,-0.29883 -0.10197,-0.165 -0.31938,-0.30078 -0.48438,-0.30078 z m 17.47657,0.60547 c 0.29451,0.0261 0.55859,0.21014 0.55859,0.53125 0,0.47363 -0.98306,0.78062 -1.34375,0.41992 -0.0633,-0.0633 -0.0419,-0.30378 0.0469,-0.53515 0.11916,-0.31053 0.44377,-0.44214 0.73829,-0.41602 z m 68.54101,0.29492 c -0.0649,0 -0.19603,0.20172 -0.29101,0.44922 -0.095,0.2475 -0.0426,0.45117 0.11718,0.45117 0.15981,0 0.29102,-0.20367 0.29102,-0.45117 0,-0.2475 -0.0524,-0.44922 -0.11719,-0.44922 z m 30.16992,0.4336 c -0.026,0.0213 -0.0414,0.0632 -0.043,0.1289 -0.007,0.30859 -0.29488,0.36984 -1.13476,0.23633 -0.61875,-0.0984 -1.32247,-0.0565 -1.56445,0.0937 -0.27087,0.16828 -0.57825,0.1573 -0.80079,-0.0273 -0.26637,-0.22109 -0.32139,-0.14667 -0.20898,0.2832 0.0839,0.32081 0.006,0.6743 -0.17383,0.78516 -0.17937,0.11086 -0.32617,0.33695 -0.32617,0.50195 0,0.165 0.13383,0.21721 0.29883,0.11523 0.165,-0.10198 0.30078,-0.0519 0.30078,0.11133 0,0.16326 -0.30453,0.34363 -0.67578,0.40039 -0.37125,0.0568 1.14093,0.13583 3.35937,0.17774 2.21844,0.0419 4.09799,0.14094 4.17578,0.21875 0.30264,0.30262 2.11809,0.12057 2.33985,-0.23438 0.38052,-0.60911 0.38113,-1.16963 0.004,-1.57617 -0.28434,-0.30628 -0.57404,-0.26891 -1.47851,0.19141 -0.61874,0.3149 -1.125,0.43125 -1.125,0.25976 0,-0.18748 -0.31705,-0.23126 -0.79492,-0.11133 -0.55929,0.14038 -0.73155,0.0974 -0.58203,-0.14453 0.11685,-0.18907 0.0587,-0.34375 -0.13086,-0.34375 -0.18954,0 -0.59852,-0.30453 -0.90821,-0.67578 -0.26871,-0.3221 -0.45315,-0.45467 -0.53125,-0.39062 z m -72.62695,0.16601 c 0.79263,0 1.18408,0.12355 1.10938,0.34766 -0.19183,0.57547 -1.26679,0.8183 -1.82227,0.41211 -0.79077,-0.57822 -0.62031,-0.75977 0.71289,-0.75977 z m 66.22852,0.0781 c -0.18464,0.0264 -0.39168,0.18866 -0.48438,0.46679 -0.0653,0.19593 0.0942,0.35547 0.35547,0.35547 0.26124,0 0.47461,-0.21336 0.47461,-0.47461 0,-0.26489 -0.16107,-0.37403 -0.3457,-0.34765 z m -95.82032,0.17382 c 0.20839,0.009 0.43312,0.0643 0.64844,0.17774 0.51717,0.27256 0.56105,0.40161 0.23828,0.70312 -0.52488,0.49031 -1.1665,0.466 -1.60351,-0.0605 -0.38453,-0.46332 0.0916,-0.84854 0.71679,-0.82032 z m 34.66602,0.0488 c 0.33,0 0.59961,0.12023 0.59961,0.26758 0,0.33721 -0.7792,0.65245 -1.01953,0.41211 -0.36114,-0.36112 -0.16484,-0.67969 0.41992,-0.67969 z m 22.34961,0 c 0.2475,0 0.45117,0.12023 0.45117,0.26758 0,0.14735 -0.20367,0.34644 -0.45117,0.44141 -0.27411,0.10519 -0.44922,-0.001 -0.44922,-0.26953 0,-0.24232 0.20172,-0.43946 0.44922,-0.43946 z m -40.92774,0.043 c 0.26024,0.008 0.3552,0.2991 0.0664,0.58789 -0.21546,0.21545 -0.38314,0.22055 -0.50977,0.0156 -0.10383,-0.16797 -0.042,-0.39543 0.13672,-0.50586 0.11532,-0.0713 0.2199,-0.1002 0.30664,-0.0977 z m -30.60351,0.25586 c 0.17475,0 0.23478,0.13578 0.13281,0.30078 -0.10197,0.165 -0.24561,0.30078 -0.31836,0.30078 -0.0728,0 -0.13281,-0.13578 -0.13281,-0.30078 0,-0.165 0.14364,-0.30078 0.31836,-0.30078 z m 86.26562,0.11328 c -0.10758,0.001 -0.18359,0.1121 -0.18359,0.29492 0,0.24374 -0.0814,0.65697 -0.18164,0.91797 -0.11949,0.3114 -0.0174,0.47461 0.29883,0.47461 0.31113,0 0.48242,-0.25982 0.48242,-0.73242 0,-0.40276 -0.13383,-0.816 -0.29883,-0.91797 -0.0412,-0.0255 -0.0813,-0.0375 -0.11719,-0.0371 z m 22.83789,0.19531 c -0.36269,-0.0358 -0.88345,0.1573 -1.08398,0.51563 -0.16083,0.28737 -0.3929,0.42157 -0.51563,0.29883 -0.37221,-0.37219 -1.32226,0.72098 -1.32226,1.52148 0,0.70758 0.0312,0.72038 0.54883,0.25195 0.30174,-0.27306 0.72074,-0.49609 0.93164,-0.49609 0.21762,0 0.30891,0.1958 0.21093,0.45117 -0.095,0.2475 -0.0406,0.44922 0.11915,0.44922 0.15981,0 0.28906,-0.13578 0.28906,-0.30078 0,-0.165 0.21725,-0.29883 0.48242,-0.29883 0.30528,0 0.4199,-0.16622 0.31055,-0.45117 -0.095,-0.2475 -0.0546,-0.44922 0.0918,-0.44922 0.14634,0 0.50335,-0.09 0.79297,-0.20117 0.41784,-0.16034 0.48414,-0.0902 0.31836,0.3418 -0.16716,0.43563 -0.1264,0.47695 0.20117,0.20507 0.22521,-0.1869 0.51987,-0.2395 0.65625,-0.11718 0.13635,0.12232 -0.0104,-0.13333 -0.32617,-0.56641 -0.31566,-0.43309 -0.74207,-0.72206 -0.94922,-0.64258 -0.20715,0.0795 -0.37695,-0.005 -0.37695,-0.1875 0,-0.19933 -0.16129,-0.30271 -0.37891,-0.32422 z m -26.25976,0.0195 c 0.16759,0.0231 0.23828,0.19968 0.23828,0.53515 0,0.88955 -0.73699,1.34732 -1.22461,0.75977 -0.34419,-0.41472 -0.31914,-0.54812 0.16797,-0.9043 0.38596,-0.28222 0.65077,-0.41374 0.81836,-0.39062 z m -28.70313,0.0937 c 0.23033,-0.005 0.40815,0.0253 0.47852,0.0957 0.14076,0.14074 -0.31543,0.26869 -1.01563,0.28516 l -1.27148,0.0312 1.01562,-0.28515 c 0.27974,-0.0786 0.56265,-0.12154 0.79297,-0.12695 z m -55.32422,0.0312 c 0.16009,0.002 0.23357,0.13159 0.2129,0.38476 -0.12801,1.56692 -0.14755,1.55619 2.97851,1.4043 1.60875,-0.0782 2.77859,-0.0397 2.60156,0.084 -0.17706,0.12373 -0.40906,0.46125 -0.51562,0.75 -0.10653,0.28875 -0.46758,0.52539 -0.80274,0.52539 -0.33519,0 -0.60937,0.14167 -0.60937,0.31641 0,0.17474 -0.13139,0.23659 -0.29297,0.13672 -0.16161,-0.0999 -0.56842,-0.0352 -0.9043,0.14453 -0.48285,0.25843 -0.6486,0.2313 -0.78906,-0.13477 -0.0977,-0.25461 -0.3255,-0.46289 -0.50586,-0.46289 -0.21936,0 -0.20764,0.11853 0.0332,0.35938 0.43239,0.43239 0.47578,1.63296 0.0684,1.88476 -0.16017,0.099 -0.37438,-0.15343 -0.47656,-0.56054 -0.21963,-0.87499 -0.9001,-1.52664 -1.91797,-1.83789 -0.94551,-0.28913 -1.7656,-1.04688 -1.13281,-1.04688 0.5934,0 1.81123,-1.10754 1.59766,-1.45312 -0.0967,-0.15646 0.0241,-0.3597 0.26757,-0.45313 0.0727,-0.0279 0.13414,-0.0416 0.1875,-0.041 z m 27.21094,0.0508 c 0.20438,0.0186 0.35547,0.10657 0.35547,0.27539 0,0.25264 -0.30984,0.42187 -0.76953,0.42187 -0.42225,0 -0.69319,-0.11859 -0.60352,-0.26367 0.18722,-0.30294 0.67695,-0.46469 1.01758,-0.43359 z m 8.94141,0.39648 c 0.86886,0 1.01367,0.10323 1.01367,0.71875 0,0.88002 -0.48046,1.08203 -2.57422,1.08203 -1.23834,0 -1.62695,-0.10555 -1.62695,-0.44531 0,-0.56475 1.85838,-1.35547 3.1875,-1.35547 z m 42.86328,0 c 0.92439,0 1.62056,0.43021 1.26758,0.7832 -0.34248,0.34249 -2.25587,0.46009 -2.44727,0.15039 -0.34872,-0.56425 0.11763,-0.93359 1.17969,-0.93359 z m 28.44922,0.006 c -0.81552,-0.0107 -1.22779,0.35258 -1.07227,0.94727 0.15393,0.5887 0.17436,0.59211 0.4668,0.0566 0.16797,-0.30756 0.45176,-0.65808 0.63086,-0.7793 0.22755,-0.15402 0.21959,-0.2214 -0.0254,-0.22461 z m 66.2539,0.084 c -0.025,0.038 0.009,0.22826 0.0859,0.59179 0.0969,0.45713 0.0298,1.1027 -0.14844,1.43555 -0.17814,0.33284 -0.24997,0.83663 -0.16015,1.11914 0.19218,0.60458 1.56413,0.77047 1.77734,0.21484 0.10044,-0.26173 -0.06,-0.33577 -0.50586,-0.23632 -0.46497,0.10371 -0.36352,-0.0403 0.35156,-0.49805 0.78357,-0.50164 1.09678,-0.56602 1.42579,-0.29297 0.33216,0.27567 0.41992,0.24769 0.41992,-0.13281 0,-0.26809 -0.46566,-0.67821 -1.04883,-0.92188 -0.5775,-0.2413 -1.05217,-0.61345 -1.05469,-0.82812 -0.004,-0.30499 -0.0622,-0.29969 -0.26562,0.0215 -0.21063,0.33249 -0.3269,0.30345 -0.61328,-0.15039 -0.15483,-0.24537 -0.23867,-0.36027 -0.26368,-0.32226 z m -106.17187,0.23437 c 0.29111,0.0138 0.51953,0.12915 0.51953,0.37109 0,0.23921 -0.30453,0.51575 -0.67578,0.61524 -1.03359,0.27699 -1.17798,0.23189 -1.07031,-0.33594 0.0789,-0.41589 0.74138,-0.67334 1.22656,-0.65039 z m -51.60742,0.20703 c 0.0744,10e-4 0.13757,0.0153 0.18554,0.0449 0.63819,0.39442 0.0328,1.22461 -0.89257,1.22461 -0.47733,0 -0.86719,-0.1196 -0.86719,-0.26562 0,-0.39058 1.05376,-1.0131 1.57422,-1.00391 z m 170.29883,0.10742 c -0.27183,0.0258 -0.55433,0.35083 -0.39454,0.60938 0.12663,0.2049 0.29431,0.1998 0.50977,-0.0156 0.17664,-0.17662 0.23848,-0.40603 0.13672,-0.50781 -0.0715,-0.0715 -0.16135,-0.0945 -0.25195,-0.0859 z m -13.37696,0.0234 c -0.0618,-0.008 -0.0957,0.0349 -0.0957,0.12891 0,0.40044 0.35447,0.7549 0.55469,0.55468 0.0853,-0.0852 -0.004,-0.3145 -0.19922,-0.50976 -0.10763,-0.10763 -0.19793,-0.16599 -0.25977,-0.17383 z m -237.72656,0.2207 c -0.187696,0.0195 -0.2814,0.35457 -0.09375,0.65821 0.18903,0.30582 0.259688,0.30506 0.361328,0 0.0694,-0.20844 0.04501,-0.45891 -0.05469,-0.5586 -0.07624,-0.0762 -0.150326,-0.10609 -0.212891,-0.0996 z m 89.59766,0.0176 c 1.42314,0 1.39421,0.79212 -0.0352,0.95899 -0.58752,0.0686 -1.13457,0.0159 -1.2168,-0.11719 -0.29679,-0.48019 0.24015,-0.8418 1.25196,-0.8418 z m 14.2207,0.0234 c 0.36448,-0.0383 0.87044,0.014 1.4375,0.16602 0.89289,0.23929 0.85179,0.46641 -0.22656,1.26367 -0.705,0.52124 -1.02828,0.59852 -1.48243,0.35547 -0.38618,-0.20669 -0.64196,-0.20977 -0.76562,-0.01 -0.24321,0.39352 -1.05078,0.38934 -1.05078,-0.006 0,-0.16853 0.3375,-0.46049 0.75,-0.64844 0.4125,-0.18795 0.75,-0.52116 0.75,-0.74218 0,-0.21155 0.2234,-0.34061 0.58789,-0.37891 z m -46.0625,0.0215 c 0.34567,-0.006 0.47461,0.21831 0.47461,0.70508 0,0.4125 -0.13121,0.75 -0.29102,0.75 -0.15984,0 -0.21216,-0.20172 -0.11718,-0.44922 0.12774,-0.33289 -0.0496,-0.45705 -0.6836,-0.47265 -0.74952,-0.0185 -0.78251,-0.0518 -0.25781,-0.27735 0.38276,-0.16448 0.6676,-0.25198 0.875,-0.25586 z m 194.91797,0.24219 c -0.23353,-0.002 -0.30622,0.1468 -0.0586,0.44531 0.19725,0.23769 0.55167,0.35792 0.78711,0.26758 0.26133,-0.10028 0.42774,0.024 0.42774,0.31836 0,0.30949 0.26027,0.48242 0.72461,0.48242 0.39783,0 1.48957,0.29212 2.42578,0.65039 1.44003,0.55107 1.74237,0.5873 1.9707,0.22657 0.22752,-0.35951 0.27152,-0.35522 0.27539,0.0352 0.007,0.65949 2.92252,1.76889 3.39844,1.29297 0.29805,-0.29805 -2.47222,-1.59784 -3.83398,-1.79883 -0.666,-0.0983 -1.50957,-0.36377 -1.875,-0.59179 -0.36546,-0.22801 -1.10836,-0.41859 -1.65039,-0.42383 -0.54208,-0.005 -1.24613,-0.20892 -1.56641,-0.45117 -0.39597,-0.2995 -0.79186,-0.45138 -1.02539,-0.45313 z m -256.843752,0.0137 c -0.165,0 -0.298828,0.20172 -0.298828,0.44922 0,0.2475 0.133828,0.44922 0.298828,0.44922 0.165,0 0.300781,-0.20172 0.300781,-0.44922 0,-0.2475 -0.135781,-0.44922 -0.300781,-0.44922 z m 145.382812,0 c 0.0648,0 0.11719,0.20172 0.11719,0.44922 0,0.2475 -0.12925,0.44922 -0.28906,0.44922 -0.15984,0 -0.21413,-0.20172 -0.11915,-0.44922 0.095,-0.2475 0.22616,-0.44922 0.29102,-0.44922 z m 103.09766,0.006 c -0.0497,0.0255 -0.0801,0.0856 -0.0801,0.18555 0,0.1659 0.90939,0.97128 1.12695,0.99805 0.0426,0.005 -0.0908,-0.25985 -0.29687,-0.58985 -0.27007,-0.43245 -0.60086,-0.67032 -0.75,-0.59375 z m -182.58985,0.0352 c 0.0727,0.007 0.0926,0.0525 0.0449,0.13281 -0.25039,0.42134 0.31809,1.68918 0.6621,1.47656 0.16641,-0.10284 0.30274,0.0399 0.30274,0.31641 0,0.34578 0.17716,0.45582 0.56836,0.35352 0.74715,-0.19538 1.58427,1.1756 0.95508,1.56445 -0.2226,0.13758 -0.30022,0.41073 -0.17383,0.61523 0.12726,0.20592 0.0464,0.48201 -0.18555,0.62891 -0.50307,0.31864 -0.62282,0.32288 -1.04297,0.041 -0.18069,-0.12121 -0.34576,-0.74656 -0.36719,-1.38867 -0.0491,-1.47092 -0.25371,-1.6863 -0.63867,-0.67383 -0.30858,0.81167 -0.76152,0.97518 -1.46484,0.5293 -0.30438,-0.19296 -0.20318,-0.39429 0.42187,-0.84961 0.53991,-0.39331 0.70021,-0.6699 0.47266,-0.81054 -0.18993,-0.11737 -0.34375,-0.0692 -0.34375,0.10546 0,0.17474 -0.20367,0.31641 -0.45117,0.31641 -0.2475,0 -0.44922,-0.14167 -0.44922,-0.31641 0,-0.17474 0.16875,-0.2219 0.375,-0.10546 0.3,0.16937 0.3,0.12985 0,-0.19336 -0.20625,-0.22221 -0.375,-0.62503 -0.375,-0.89453 0,-0.26951 0.16875,-0.49607 0.375,-0.50391 0.20625,-0.008 0.63341,-0.11981 0.94922,-0.25 0.1671,-0.0689 0.29252,-0.10072 0.36523,-0.0937 z m 106.19727,0.0312 c -0.0358,-0.004 -0.0839,0.0133 -0.14453,0.0508 -0.18906,0.11685 -0.34375,0.79711 -0.34375,1.51367 0,1.14178 0.1221,1.38052 0.97656,1.92774 1.18845,0.7611 1.31655,0.78204 0.78516,0.12695 h 0.002 c -0.23454,-0.28917 -0.26035,-0.41597 -0.0586,-0.29492 0.19485,0.11687 0.44037,0.0735 0.54492,-0.0957 0.24195,-0.39148 -0.11557,-1.55723 -0.41992,-1.36914 -0.12564,0.0776 -0.22852,-0.0547 -0.22852,-0.29492 0,-0.54775 0.0492,-0.54645 0.62891,0.0332 0.42855,0.42859 0.4707,0.42859 0.4707,0 0,-0.25927 -0.13578,-0.4707 -0.30078,-0.4707 -0.165,0 -0.29883,-0.14362 -0.29883,-0.31836 0,-0.17474 0.13383,-0.23284 0.29883,-0.13086 0.165,0.10197 0.30078,0.0419 0.30078,-0.13281 0,-0.40211 -0.8031,-0.41713 -1.04883,-0.0195 -0.10143,0.16411 -0.45121,0.44069 -0.77734,0.61523 -0.53898,0.28846 -0.57552,0.24453 -0.39063,-0.49218 0.10771,-0.42914 0.11117,-0.63544 0.004,-0.64844 z m -47.28711,0.22656 c 0.71196,0 0.8048,0.75671 0.125,1.01758 -0.68832,0.26413 -0.72461,0.24266 -0.72461,-0.41797 0,-0.4 0.19962,-0.59961 0.59961,-0.59961 z m 114.91797,0 c -0.69237,0 -1.04085,0.45877 -0.73047,0.96094 0.17322,0.2803 0.24838,0.2803 0.3418,0 0.0661,-0.19812 0.31119,-0.36133 0.54492,-0.36133 0.23376,0 0.42578,-0.13383 0.42578,-0.29883 0,-0.165 -0.26175,-0.30078 -0.58203,-0.30078 z m -86.84961,0.30078 c 0.25725,0 0.38322,0.13383 0.28125,0.29883 -0.10197,0.165 -0.31155,0.30078 -0.4668,0.30078 -0.15528,0 -0.2832,-0.13578 -0.2832,-0.30078 0,-0.165 0.21153,-0.29883 0.46875,-0.29883 z m -54.80274,0.0508 c 0.17318,-0.0159 0.3638,-0.0107 0.58594,0.008 1.69284,0.14108 1.44209,0.92367 -0.40234,1.25586 -0.825,0.14858 -1.59568,0.4194 -1.71289,0.60156 -0.2646,0.41123 -1.73633,0.55191 -1.73633,0.16601 0,-0.15511 0.19765,-0.2832 0.43945,-0.2832 0.24183,0 0.86132,-0.41194 1.37696,-0.91602 0.56916,-0.55635 0.92968,-0.78427 1.44921,-0.83203 z m -19.74023,0.0391 c 0.19865,8.9e-4 0.31765,0.12246 0.30664,0.36718 -0.007,0.16088 -0.38878,0.33001 -0.84766,0.375 -0.80217,0.0786 -0.81132,0.0641 -0.24609,-0.3789 0.31037,-0.2433 0.58846,-0.36418 0.78711,-0.36328 z m 11.34961,0.01 c 0.11031,0.009 0.2125,0.0289 0.30273,0.0625 0.65781,0.24512 -0.20168,0.97744 -1.4375,1.22461 -0.86259,0.17251 -0.98726,0.12353 -0.89648,-0.34765 0.0982,-0.50988 1.25911,-1.00375 2.03125,-0.93946 z m 151.90625,0.23438 c -0.0253,0.0253 0.006,0.13973 0.0879,0.35351 0.11265,0.29587 0.28068,0.46347 0.37305,0.3711 0.0924,-0.0924 -6e-5,-0.33556 -0.20508,-0.53907 -0.14814,-0.14703 -0.23056,-0.21084 -0.25586,-0.18554 z m 5.67578,0.0234 c -0.26667,0.0329 -0.53419,0.29087 -0.59961,0.74805 -0.0594,0.41494 -0.43866,0.77185 -1.05078,0.99219 l -0.95703,0.3457 1.30273,0.62305 c 0.71613,0.34356 1.37177,0.80713 1.45703,1.0293 0.15888,0.41404 0.74832,0.58568 0.61719,0.17968 -0.04,-0.12375 0.16368,-0.55883 0.45117,-0.96679 0.40752,-0.57834 0.52149,-0.62948 0.52149,-0.22657 0,0.28421 -0.1157,0.51758 -0.25781,0.51758 -0.14214,0 -0.19408,0.3375 -0.11524,0.75 0.13209,0.69095 0.97461,1.1011 0.97461,0.47461 0,-0.15124 -0.16875,-0.35393 -0.375,-0.45117 -0.20625,-0.0972 -0.005,-0.10614 0.44922,-0.0195 0.618,0.11799 0.82422,0.0382 0.82422,-0.31641 0,-0.26038 -0.1257,-0.39571 -0.2793,-0.30078 -0.1536,0.0949 -0.36318,0.0368 -0.4668,-0.13086 -0.10365,-0.16769 -0.0128,-0.3092 0.20313,-0.31445 0.26082,-0.006 0.21786,-0.1435 -0.13086,-0.40821 -0.28875,-0.21918 -0.52539,-0.55217 -0.52539,-0.74023 0,-0.18806 -0.13578,-0.36024 -0.30078,-0.38086 -0.165,-0.0206 -0.46758,-0.0536 -0.67383,-0.0742 -0.20625,-0.0206 -0.42061,-0.34957 -0.47461,-0.73047 -0.0626,-0.44138 -0.32708,-0.63252 -0.59375,-0.59961 z m -76.99023,0.0606 c -0.16572,-0.0101 -0.21493,0.22619 -0.0566,0.63867 0.10173,0.26507 0.32777,0.39281 0.50195,0.28516 0.21747,-0.13441 0.20433,-0.33128 -0.041,-0.62695 -0.16347,-0.19697 -0.30487,-0.29083 -0.40429,-0.29688 z m 5.10156,0.18164 c -0.0728,0 -0.21639,0.13578 -0.31836,0.30078 -0.10197,0.165 -0.042,0.29883 0.13281,0.29883 0.17472,0 0.31641,-0.13383 0.31641,-0.29883 0,-0.165 -0.0581,-0.30078 -0.13086,-0.30078 z m -37.24414,0.0566 c 0.12075,-1.4e-4 0.22308,0.0119 0.29883,0.041 0.40239,0.1544 0.43852,0.31519 0.17968,0.79883 -0.25869,0.48339 -0.62676,0.60351 -1.83789,0.60351 -1.02945,0 -1.47661,-0.11313 -1.39648,-0.35351 0.14506,-0.43518 1.9106,-1.08888 2.75586,-1.08985 z m 30.79101,0.0508 c -0.0388,0.0624 -0.006,0.27039 0.0762,0.66211 0.10143,0.48408 0.11124,0.71211 0.0215,0.50586 -0.18453,-0.42429 -1.01367,-0.51528 -1.01367,-0.11133 0,0.14488 0.30453,0.47541 0.67578,0.73438 0.8061,0.56231 0.91779,0.59546 0.67773,0.20703 -0.0999,-0.1616 -0.0535,-0.53207 0.10157,-0.82422 0.20061,-0.37802 0.14688,-0.65485 -0.1836,-0.96094 -0.2067,-0.19144 -0.31663,-0.27532 -0.35547,-0.21289 z M 30.732422,201.1582 c -0.17474,0 -0.234783,0.13383 -0.132813,0.29883 0.10198,0.165 0.2456,0.30078 0.31836,0.30078 0.0728,0 0.130859,-0.13578 0.130859,-0.30078 0,-0.165 -0.141676,-0.29883 -0.316406,-0.29883 z m 21.484375,0 c -0.0728,0 -0.214436,0.13383 -0.316406,0.29883 -0.10197,0.165 -0.04394,0.30078 0.130859,0.30078 0.17472,0 0.318359,-0.13578 0.318359,-0.30078 0,-0.165 -0.06001,-0.29883 -0.132812,-0.29883 z m 134.072263,0 c 0.26838,0 0.37474,0.1751 0.26953,0.44922 -0.095,0.2475 -0.29404,0.44922 -0.4414,0.44922 -0.14733,0 -0.26758,-0.20172 -0.26758,-0.44922 0,-0.2475 0.19714,-0.44922 0.43945,-0.44922 z m -16.86523,0.004 c 0.28875,-0.002 0.52539,0.12992 0.52539,0.29492 0,0.36588 -0.0334,0.36588 -0.59961,0 -0.38457,-0.24853 -0.37443,-0.29099 0.0742,-0.29492 z m -68.9668,0.37305 c -0.039,0.0165 -0.0106,0.1242 0.0684,0.33007 0.16137,0.42052 0.72461,0.71501 0.72461,0.37891 0,-0.0623 -0.20575,-0.28365 -0.45703,-0.49219 -0.191,-0.15852 -0.29696,-0.23327 -0.33594,-0.21679 z m 58.74609,0.0508 c 0.15085,0.003 0.32673,0.0277 0.51954,0.0781 0.50823,0.1329 0.57773,0.23929 0.27734,0.42969 -0.52974,0.33581 -1.07375,0.3296 -1.28711,-0.0156 -0.19159,-0.31 0.0377,-0.5008 0.49023,-0.49218 z m 18.5293,0.17187 c 0.17472,0 0.31641,0.13383 0.31641,0.29883 0,0.165 -0.0581,0.30078 -0.13086,0.30078 -0.0728,0 -0.21639,-0.13578 -0.31836,-0.30078 -0.10197,-0.165 -0.042,-0.29883 0.13281,-0.29883 z M 148.59375,202 c 0.10504,-0.0125 0.22614,-0.0108 0.36328,0.008 0.40842,0.0555 0.87059,0.22427 1.02735,0.375 0.15674,0.15074 0.52721,0.27539 0.82421,0.27539 0.76488,0 0.67113,0.49497 -0.13476,0.71094 -0.80631,0.21609 -0.7596,0.21931 -1.81641,-0.16602 -0.94245,-0.34363 -0.99896,-1.11555 -0.26367,-1.20312 z m -18.39453,0.0566 c 0.27999,0 0.45117,0.28333 0.45117,0.75 0,0.72836 -0.29329,0.95867 -0.70117,0.55078 -0.3774,-0.37739 -0.19997,-1.30078 0.25,-1.30078 z m 102.88281,0 c -0.25725,0 -0.38517,0.13578 -0.2832,0.30078 0.10197,0.165 0.3135,0.30078 0.46875,0.30078 0.15528,0 0.28125,-0.13578 0.28125,-0.30078 0,-0.165 -0.20958,-0.30078 -0.4668,-0.30078 z m -34.10742,0.006 c 1.05087,-0.003 1.27539,0.0941 1.27539,0.56055 0,0.37719 -0.27633,0.62187 -0.82617,0.73242 -0.45375,0.0912 -1.16172,0.23521 -1.57422,0.32031 -0.4125,0.0851 -0.91875,0.0812 -1.125,-0.008 v 0.002 c -0.20625,-0.0889 -0.375,-0.40612 -0.375,-0.70312 0,-0.62384 0.80031,-0.89843 2.625,-0.9043 z m -67.24219,0.0156 c 0.10965,-0.0352 0.35024,0.0411 0.67383,0.2461 0.24723,0.15666 0.29039,0.33147 0.10937,0.44336 -0.16391,0.10131 -0.46408,-0.018 -0.66796,-0.26367 -0.20241,-0.24389 -0.22489,-0.3906 -0.11524,-0.42579 z m -69.251951,0.0176 c -0.183348,0.0337 -0.268025,0.25857 -0.08984,0.54688 0.1104,0.17867 0.337889,0.24053 0.505859,0.13672 0.2049,-0.12664 0.199715,-0.29432 -0.01563,-0.50977 -0.144393,-0.14439 -0.290381,-0.19405 -0.40039,-0.17383 z m 154.355471,0.10157 c -0.0392,-0.003 -0.0786,0.005 -0.11719,0.0293 -0.14772,0.0913 -0.26953,0.36185 -0.26953,0.59961 0,0.44178 0.35779,0.57387 0.67969,0.25195 0.23664,-0.23661 -0.0185,-0.85731 -0.29297,-0.88085 z m 3.17773,0.16015 c -0.165,0 -0.21525,0.13578 -0.11328,0.30078 0.10197,0.165 0.0341,0.29883 -0.15039,0.29883 -0.18447,0 -0.25329,0.13352 -0.15234,0.29688 0.11556,0.18696 0.33246,0.15995 0.58593,-0.0742 0.22146,-0.20461 0.34252,-0.47391 0.26758,-0.59766 -0.0749,-0.12375 -0.2725,-0.22461 -0.4375,-0.22461 z m -82.39258,0.0137 c 0.3013,0 0.5293,0.0966 0.5293,0.28711 0,0.165 -0.44031,0.29745 -0.97656,0.29492 -0.73986,-0.003 -0.86493,-0.0742 -0.52344,-0.29492 0.29483,-0.19053 0.66941,-0.28711 0.9707,-0.28711 z m 85.18946,0.28711 c -0.53436,0 -0.1942,1.59485 0.38867,1.82227 0.84678,0.3304 1.11489,0.3236 0.90039,-0.0234 -0.10197,-0.165 -0.37944,-0.29883 -0.61719,-0.29883 -0.26112,0 -0.43359,-0.29699 -0.43359,-0.75 0,-0.4125 -0.10685,-0.75 -0.23828,-0.75 z m -78.12305,0.31055 c 0.36783,0 0.63053,0.0968 0.51172,0.28906 -0.10197,0.165 -0.61608,0.29745 -1.14258,0.29492 -0.72843,-0.004 -0.85023,-0.0736 -0.50781,-0.29492 0.29749,-0.19225 0.77084,-0.28906 1.13867,-0.28906 z m -5.36914,0.0703 c 0.30624,-0.0217 0.39962,0.16432 0.19336,0.49805 -0.24111,0.39011 -0.66806,0.41603 -0.89258,0.0527 -0.0913,-0.14771 0.054,-0.35336 0.32422,-0.45703 0.14601,-0.056 0.27292,-0.0865 0.375,-0.0937 z m 81.75781,0.084 c -0.12223,-0.008 -0.44866,0.2667 -1.32617,1.0039 -0.0825,0.0693 0.0962,0.0365 0.39844,-0.0723 0.30225,-0.10878 0.6514,-0.19727 0.77539,-0.19727 0.12402,0 0.22656,-0.20299 0.22656,-0.45117 0,-0.17118 -8.8e-4,-0.27815 -0.0742,-0.2832 z m -42.25781,0.0137 c 1.18733,-0.0123 1.57622,0.5152 0.67773,1.14453 -0.91212,0.63887 -2.52455,0.62507 -2.77343,-0.0234 -0.2598,-0.67701 0.0519,-0.89604 1.54101,-1.08203 0.20077,-0.0251 0.38507,-0.0373 0.55469,-0.0391 z m -11.42774,0.12109 c 0.80172,0 1.00024,0.10252 0.86719,0.44922 -0.0984,0.2565 -0.54628,0.45117 -1.04101,0.45117 -0.57147,0 -0.86719,-0.15487 -0.86719,-0.45117 0,-0.31351 0.31606,-0.44922 1.04101,-0.44922 z m 5.69532,0.13672 c 0.0305,-0.0305 0.17563,0.0528 0.45703,0.22852 0.33372,0.20841 0.60742,0.48211 0.60742,0.60742 0,0.43313 -0.45839,0.22564 -0.83594,-0.37891 -0.17574,-0.28139 -0.25905,-0.42649 -0.22851,-0.45703 z m 42.78125,0.16211 c 0.17475,0 0.23478,0.13578 0.13281,0.30078 -0.10197,0.165 -0.24561,0.30078 -0.31836,0.30078 -0.0728,0 -0.13281,-0.13578 -0.13281,-0.30078 0,-0.165 0.14364,-0.30078 0.31836,-0.30078 z m -62.40039,0.30078 c 0.15528,0 0.2832,0.13578 0.2832,0.30078 0,0.165 -0.21153,0.29883 -0.46875,0.29883 -0.25725,0 -0.38322,-0.13383 -0.28125,-0.29883 0.10197,-0.165 0.31155,-0.30078 0.4668,-0.30078 z m 59.53711,0.0137 c 0.22955,0.0241 0.44959,0.16291 0.54297,0.40625 0.18137,0.47263 -0.89338,0.88918 -1.16407,0.45118 -0.0924,-0.14951 -0.0844,-0.40532 0.0176,-0.57032 0.13554,-0.2193 0.37396,-0.31121 0.60352,-0.28711 z m -8.57422,0.0508 c 0.11457,-0.008 0.23189,0.0288 0.33203,0.1289 0.21696,0.21695 0.17944,0.42278 -0.12305,0.67383 -0.32226,0.26745 -0.49084,0.27335 -0.64648,0.0215 -0.2268,-0.36695 0.0938,-0.79955 0.4375,-0.82421 z m -16.92774,0.19726 c 0.83216,0.002 1.04688,0.12549 1.04688,0.45313 0,0.81132 -2.89558,1.10337 -3.19531,0.32226 -0.23382,-0.60928 -0.1436,-0.67136 1.0957,-0.74023 0.4294,-0.0239 0.77535,-0.0357 1.05273,-0.0352 z m 12.44727,0.63867 c 0.6,0 0.90039,0.14923 0.90039,0.44922 0,0.3 -0.30039,0.45117 -0.90039,0.45117 -0.6,0 -0.90039,-0.15117 -0.90039,-0.45117 0,-0.29999 0.30039,-0.44922 0.90039,-0.44922 z m 26.18555,0 c -0.49542,0 -0.50297,0.80291 -0.01,1.00196 0.20625,0.0832 0.37889,0.16079 0.38477,0.17382 0.006,0.013 0.0117,-0.24617 0.0117,-0.57617 0,-0.32999 -0.17455,-0.59961 -0.38671,-0.59961 z m -7.29493,0.15821 c -0.16533,-0.0382 -0.35188,-0.002 -0.4375,0.13671 -0.10365,0.16769 0.0219,0.30469 0.2793,0.30469 0.25722,0 0.46875,-0.06 0.46875,-0.13281 0,-0.15832 -0.14521,-0.27039 -0.31055,-0.30859 z m 45.54102,0.14062 c -0.50346,0 -0.54142,0.0765 -0.23047,0.45117 0.20541,0.2475 0.55522,0.44922 0.77734,0.44922 0.23571,0 0.33127,-0.18655 0.23047,-0.44922 -0.095,-0.2475 -0.44479,-0.45117 -0.77734,-0.45117 z m -109.4668,0.11914 c 0.16256,-0.007 0.30408,0.0117 0.39258,0.0664 0.13905,0.0859 0.17502,0.28194 0.0801,0.43554 -0.21966,0.35542 -1.63672,0.3692 -1.63672,0.0156 0,-0.24078 0.67638,-0.49709 1.16406,-0.51758 z m 156.55664,0.082 c -0.13593,0.0209 -0.2207,0.0696 -0.2207,0.14063 0,0.14211 0.3375,0.25976 0.75,0.25976 0.4125,0 0.75,-0.052 0.75,-0.11523 0,-0.0633 -0.3375,-0.18092 -0.75,-0.25977 -0.20625,-0.0394 -0.39336,-0.0462 -0.5293,-0.0254 z m -160.21875,0.0332 c 0.74578,-0.002 1.4497,0.1001 1.65625,0.30664 0.77346,0.77345 -0.82374,1.54529 -2.1582,1.04296 -0.2475,-0.0932 -0.78867,-0.29434 -1.20117,-0.44726 -0.69093,-0.25612 -0.70547,-0.30176 -0.20117,-0.58398 0.37252,-0.20849 1.15852,-0.31587 1.90429,-0.31836 z m 16.14258,0.14062 c 0.54138,0 0.75586,0.16117 0.75586,0.56836 0,0.45629 0.14772,0.53202 0.75,0.38086 0.61521,-0.15441 0.75,-0.0788 0.75,0.41992 0,0.85189 -0.30865,1.55664 -0.67969,1.55664 -0.17268,0 -0.82865,-0.55943 -1.45898,-1.24219 -1.24854,-1.35243 -1.27156,-1.68359 -0.11719,-1.68359 z m -6.41211,0.0508 c 0.76287,0.0537 1.16797,0.4221 1.16797,1.08399 0,0.43651 -0.30576,0.5549 -1.64844,0.63867 -1.12167,0.07 -1.69333,-0.0181 -1.79101,-0.27344 -0.28017,-0.7326 0.19191,-1.20676 1.39062,-1.39844 0.33225,-0.0531 0.62657,-0.0687 0.88086,-0.0508 z m 48.97461,0.58594 c 0.11281,-0.0186 0.19336,0.0511 0.19336,0.18945 0,0.18448 0.13383,0.25237 0.29883,0.15039 0.165,-0.10197 0.30078,-0.0517 0.30078,0.11328 0,0.52215 -0.51876,0.64528 -0.88086,0.20899 -0.23859,-0.2875 -0.25046,-0.4802 -0.0352,-0.61328 0.0433,-0.0267 0.0855,-0.0426 0.12305,-0.0488 z M 176.25,206.25781 c 0.165,0 0.29883,0.13383 0.29883,0.29883 0,0.165 -0.13383,0.30078 -0.29883,0.30078 -0.165,0 -0.30078,-0.13578 -0.30078,-0.30078 0,-0.165 0.13578,-0.29883 0.30078,-0.29883 z m 6.03711,0.0332 c 0.12988,0.004 0.28924,0.0877 0.51758,0.23242 0.31779,0.20136 0.25534,0.36341 -0.29102,0.74609 -0.97641,0.68392 -1.20753,0.60952 -0.81055,-0.26172 0.23267,-0.51067 0.36752,-0.72377 0.58399,-0.71679 z m 23.2793,0.29101 c 0.37316,-0.002 0.65865,0.13007 0.95898,0.39649 0.26049,0.23107 0.99492,0.6338 1.63086,0.89648 1.05996,0.43785 1.13993,0.43764 0.9707,-0.004 -0.13488,-0.35148 -0.0562,-0.43084 0.29297,-0.29687 0.26289,0.10088 0.62752,0.18359 0.81055,0.18359 0.18306,0 0.0723,0.20324 -0.24805,0.45313 -0.32028,0.24989 -0.4482,0.43599 -0.2832,0.41406 0.64596,-0.0858 0.88115,0.0533 0.5,0.29492 -0.3222,0.20423 -0.30837,0.28875 0.0742,0.43555 0.33006,0.12666 0.47656,0.0109 0.47656,-0.38281 0,-0.94848 0.33699,-1.51563 0.90039,-1.51563 0.29469,0 0.61666,0.21362 0.7168,0.47461 0.25458,0.66338 0.26645,0.65195 -0.58399,0.55859 -0.62016,-0.0681 -0.70069,-0.005 -0.42382,0.32813 0.18815,0.22673 0.23582,0.5873 0.10742,0.80078 -0.16929,0.28154 -0.0902,0.27371 0.2832,-0.0293 0.28317,-0.22977 0.60104,-0.33063 0.70703,-0.22461 0.10602,0.10601 0.0502,0.19141 -0.12305,0.19141 -0.17325,0 -0.38442,0.26961 -0.4707,0.59961 -0.16905,0.64634 0.17987,0.62184 -5.38867,0.37695 v 0.002 c -1.83399,-0.0807 -2.32422,-0.19938 -2.32422,-0.5586 0,-0.34059 -0.2354,-0.41801 -0.92969,-0.30859 -0.51054,0.0805 -0.84647,0.0652 -0.74804,-0.0332 0.0984,-0.0984 -0.0568,-0.43881 -0.34375,-0.75586 -0.4959,-0.54794 -0.49483,-0.59555 0.0156,-0.96875 0.39693,-0.29026 0.43548,-0.42832 0.14649,-0.53125 -0.21498,-0.0766 -0.28862,-0.24944 -0.16211,-0.38477 0.12648,-0.13534 0.38323,-0.0933 0.57031,0.0937 0.25353,0.25355 0.6065,0.22866 1.38281,-0.0957 0.6516,-0.27226 1.11121,-0.40787 1.48438,-0.41016 z m -40.43946,0.27539 c 0.14217,0 0.33666,0.20172 0.43164,0.44922 0.095,0.2475 0.0563,0.45117 -0.0859,0.45117 -0.14217,0 -0.33666,-0.20367 -0.43164,-0.45117 -0.095,-0.2475 -0.0563,-0.44922 0.0859,-0.44922 z m 8.06446,0.0371 c 0.58808,0.0477 1.21001,0.34798 1.34375,0.85938 0.14976,0.57264 -0.0888,0.79981 -0.45508,0.43359 -0.0931,-0.0931 -0.58766,-0.18075 -1.09961,-0.19531 -0.57837,-0.0164 -0.93164,-0.18237 -0.93164,-0.43946 0,-0.50055 0.55449,-0.70593 1.14258,-0.6582 z m 5.33593,0.0723 c 0.0801,2.1e-4 0.16122,0.0303 0.23047,0.0996 0.28524,0.28524 0.23264,0.6914 -0.0898,0.6914 -0.15525,0 -0.36016,-0.12569 -0.45508,-0.27929 -0.1537,-0.24867 0.0741,-0.51235 0.31445,-0.51172 z m 1.37891,0.23047 c 0.0515,0.0151 0.14667,0.12936 0.2793,0.35742 0.17511,0.30113 0.25498,0.61026 0.17773,0.6875 -0.0772,0.0772 -0.22327,-0.0776 -0.32617,-0.34571 -0.18092,-0.4715 -0.21678,-0.72436 -0.13086,-0.69921 z m -17.13867,0.25976 c 0.17475,0 0.23478,0.13578 0.13281,0.30078 -0.10197,0.165 -0.24561,0.29883 -0.31836,0.29883 -0.0728,0 -0.13281,-0.13383 -0.13281,-0.29883 0,-0.165 0.14364,-0.30078 0.31836,-0.30078 z m 4.5039,0 c 0.15291,0 0.24438,0.16023 0.20313,0.35547 -0.0988,0.4675 1.38721,1.1988 1.97656,0.97266 0.2535,-0.0973 0.38661,-0.36773 0.29688,-0.60157 -0.0897,-0.23385 -0.005,-0.42578 0.1875,-0.42578 0.19239,0 0.26603,0.13383 0.16406,0.29883 -0.10197,0.165 -0.038,0.30078 0.14258,0.30078 0.23157,0 0.23667,0.17071 0.0176,0.58008 -0.78483,1.46647 0.21805,1.68218 1.49023,0.32031 0.94299,-1.00946 1.19922,-1.10701 1.19922,-0.45117 0,0.2475 -0.19714,0.45117 -0.43945,0.45117 -0.27942,0 -0.37386,0.17414 -0.25782,0.47657 0.11862,0.30908 0.4281,0.43029 0.88086,0.34374 0.38418,-0.0734 0.63046,-0.0239 0.54688,0.11133 -0.21045,0.34051 -4.63086,0.28831 -4.63086,-0.0547 0,-0.15265 -0.20789,-0.27735 -0.46289,-0.27735 -0.67557,0 -1.81895,-1.2629 -1.69727,-1.875 0.0574,-0.28875 0.22993,-0.52539 0.38281,-0.52539 z m 28.31446,0.60352 c 0.26702,0.0145 0.46289,0.0995 0.46289,0.26562 0,0.33063 -0.74389,0.63086 -1.56055,0.63086 -0.51018,0 -0.5495,-0.0742 -0.23828,-0.44922 0.25086,-0.30227 0.89091,-0.47147 1.33594,-0.44726 z m 8.71875,0.0234 c -0.13415,-0.0145 -0.39088,0.0779 -0.88477,0.26563 -0.54759,0.20819 -0.76953,0.19494 -0.76953,-0.0488 0,-0.18842 -0.0826,-0.26308 -0.18164,-0.16406 -0.36921,0.36922 0.22077,0.78046 1.08594,0.75586 0.53787,-0.0153 0.89453,-0.18858 0.89453,-0.43164 0,-0.24135 -0.0104,-0.3624 -0.14453,-0.37696 z m -33.17383,0.27344 c 0.17472,0 0.31836,0.13578 0.31836,0.30078 0,0.165 -0.06,0.29883 -0.13281,0.29883 -0.0727,0 -0.21444,-0.13383 -0.31641,-0.29883 -0.10197,-0.165 -0.0438,-0.30078 0.13086,-0.30078 z m 12.77148,0.69727 c 0.0784,0.0192 0.17672,0.14885 0.25,0.33984 0.20286,0.52863 0.0302,0.62121 -0.26562,0.14258 -0.10878,-0.17598 -0.1333,-0.38425 -0.0547,-0.46289 0.0197,-0.0196 0.0442,-0.0259 0.0703,-0.0195 z m -4.97851,0.24023 c 0.10422,0.004 0.19429,0.0322 0.24414,0.082 0.0997,0.0997 -0.0763,0.16928 -0.39258,0.15625 -0.3495,-0.0144 -0.42095,-0.0839 -0.18164,-0.17968 0.10828,-0.0434 0.22586,-0.0629 0.33008,-0.0586 z m 6.30078,0 c 0.10422,0.004 0.19429,0.0322 0.24414,0.082 0.0997,0.0997 -0.0783,0.16928 -0.39453,0.15625 -0.3495,-0.0144 -0.42095,-0.0839 -0.18164,-0.17968 0.10828,-0.0434 0.22781,-0.0629 0.33203,-0.0586 z m 15.22266,0.082 c 0.0429,0.005 0.0846,0.0192 0.12304,0.043 0.4161,0.25717 0.3375,0.4375 -0.18945,0.4375 -0.25725,0 -0.38295,-0.137 -0.2793,-0.30469 0.0777,-0.12577 0.21685,-0.19122 0.34571,-0.17578 z m -33.52344,0.51758 c 0.10422,0.004 0.19429,0.0322 0.24414,0.082 0.0997,0.0997 -0.0763,0.17123 -0.39258,0.15821 -0.3495,-0.0144 -0.42095,-0.0859 -0.18164,-0.18165 0.10828,-0.0434 0.22586,-0.0629 0.33008,-0.0586 z m 59.85351,1.20703 c -0.43259,0.0136 -0.94846,0.0405 -1.56054,0.0801 -6.4446,0.41683 -7.86719,0.61641 -7.86719,1.10938 0,0.18121 0.19898,0.18119 0.54101,-0.002 0.32745,-0.17525 0.71211,-0.18201 0.97461,-0.0176 0.23859,0.14944 2.11261,0.2478 4.16407,0.21875 2.47845,-0.0351 3.76712,0.0573 3.83984,0.27539 0.0602,0.18058 0.37793,0.25794 0.70703,0.17188 0.32913,-0.0861 0.57733,-0.0374 0.55078,0.10742 -0.10323,0.56271 0.0341,0.85847 0.25196,0.54297 0.12483,-0.18076 1.19648,-0.30969 2.4707,-0.29883 1.2375,0.0106 2.40867,0.12161 2.60351,0.24805 0.19485,0.12644 0.43433,0.10219 0.53126,-0.0547 0.0969,-0.15683 0.6428,-0.20971 1.21289,-0.11719 0.67344,0.10928 1.4248,-0.0169 2.14648,-0.35937 0.84129,-0.39921 1.2378,-0.44785 1.63281,-0.20117 0.39141,0.24445 0.60606,0.22357 0.86133,-0.084 0.46809,-0.56402 0.26033,-0.63508 -2.98828,-1.02343 -4.09605,-0.48965 -6.83886,-0.58105 -7.17969,-0.24024 -0.19449,0.1945 -0.45509,0.16235 -0.76367,-0.0937 -0.26782,-0.22226 -0.83113,-0.30242 -2.12891,-0.26172 z" />
  </g>
</svg>
