<?xml version="1.0" encoding="UTF-8" standalone="no"?>
<svg
   xmlns:dc="http://purl.org/dc/elements/1.1/"
   xmlns:cc="http://creativecommons.org/ns#"
   xmlns:rdf="http://www.w3.org/1999/02/22-rdf-syntax-ns#"
   xmlns:svg="http://www.w3.org/2000/svg"
   xmlns="http://www.w3.org/2000/svg"
   xmlns:sodipodi="http://sodipodi.sourceforge.net/DTD/sodipodi-0.dtd"
   xmlns:inkscape="http://www.inkscape.org/namespaces/inkscape"
   version="1.1"
   id="svg14842"
   width="110"
   height="110"
   viewBox="0 0 110 110"
   sodipodi:docname="favicon.svg"
   inkscape:version="1.0 (4035a4fb49, 2020-05-01)">
  <metadata
     id="metadata14848">
    <rdf:RDF>
      <cc:Work
         rdf:about="">
        <dc:format>image/svg+xml</dc:format>
        <dc:type
           rdf:resource="http://purl.org/dc/dcmitype/StillImage" />
        <dc:title></dc:title>
      </cc:Work>
    </rdf:RDF>
  </metadata>
  <defs
     id="defs14846">
    <clipPath
       id="clipPath43452"
       clipPathUnits="userSpaceOnUse">
      <circle
         r="200"
         cy="200"
         cx="-200"
         id="circle43454"
         style="fill:#ffffff;stroke-width:1.19962"
         transform="scale(-1,1)" />
    </clipPath>
    <clipPath
       clipPathUnits="userSpaceOnUse"
       id="clipPath14895">
      <path
         style="fill:#221c24;stroke-width:0.32"
         d="m -32.547896,205.70641 6.72,-2.24774 c 4.330958,-1.44865 9.279687,-2.81298 13.919999,-3.83767 3.96,-0.87446 10.152,-2.30998 13.76,-3.19005 6.513334,-1.58876 13.17408,-3.02788 28.090268,-6.06921 4.273648,-0.87137 9.457648,-2.14971 11.52,-2.84075 2.062352,-0.69105 5.333731,-1.70733 7.269731,-2.2584 8.414019,-2.39503 16.715555,-5.58411 22.239998,-8.54362 4.84364,-2.5948 11.8229,-6.88344 13.25861,-8.1472 1.0696,-0.9415 1.67095,-1.23197 2.55049,-1.23197 0.63299,0 1.1509,0.13893 1.1509,0.30874 0,0.57 1.40928,1.0701 2.87089,1.01877 1.20987,-0.0425 1.951,-0.39009 4.48911,-2.10544 2.90352,-1.96232 7.1065,-5.85843 8.76369,-8.12385 1.86243,-2.546 1.87448,-4.27081 0.0352,-5.03931 -0.60409,-0.2524 -1.3967,-0.45891 -1.76136,-0.45891 -0.36467,0 -1.23329,-0.29093 -1.93028,-0.64651 -1.26297,-0.64432 -1.26725,-0.65296 -1.26725,-2.56 0,-1.82773 -0.0359,-1.91349 -0.8,-1.91349 -0.96773,0 -0.96568,0.0401 -0.11682,-2.288 0.46308,-1.27003 1.28226,-2.52749 2.54258,-3.9029 l 1.85939,-2.0292 0.36743,-5.56995 c 0.20208,-3.06348 0.49287,-6.50595 0.6462,-7.64995 l 0.27877,-2.08 -1.65961,-3.26754 c -1.76644,-3.47788 -2.15794,-4.42633 -2.15794,-6.39497 0,-1.8303 -0.17973,-2.50208 -1.27464,-4.76414 -1.46975,-3.0365 -2.5468,-4.23615 -4.70531,-5.24087 -2.29481,-1.06817 -3.44632,-2.04933 -5.58721,-4.760663 -2.60798,-3.30287 -4.10015,-6.49625 -4.33293,-9.27286 -0.5146,-6.13814 2.15709,-11.285071 7.23398,-13.936069 3.07395,-1.605124 5.9379,-2.379831 11.02101,-2.98122 3.84871,-0.455344 5.08054,-0.477737 8.36394,-0.152038 15.14521,1.502346 24.13272,4.11432 40.00116,11.625247 12.35186,5.84644 14.52939,7.07892 21.28,12.04442 7.96355,5.857703 28.42323,25.423603 35.36564,33.820703 3.05847,3.69932 13.58358,17.58798 16.34205,21.56453 4.00424,5.77242 9.93515,13.48911 17.12053,22.27547 4.49597,5.49772 10.02921,11.40273 14.24383,15.20085 1.07363,0.96753 2.23546,2.31221 2.58184,2.98818 0.58962,1.15064 0.94119,1.35906 5.51176,3.26755 6.02171,2.51443 19.36747,6.49796 25.63434,7.6515 4.92234,0.90606 19.08749,4.21502 30.24,7.06403 14.98947,3.82919 29.19523,6.59642 38.48966,7.49763 1.98532,0.1925 5.51332,0.71038 7.84,1.15083 3.812,0.72163 12.28784,2.05942 13.04788,2.05942 38.60956,269.75591 -411.307579,283.12142 -411.057526,-16.03338 z"
         id="path14897"
         sodipodi:nodetypes="csssssssssssssssssssscsscssssssssssssssssssssscc" />
    </clipPath>
    <clipPath
       id="clipPath897"
       clipPathUnits="userSpaceOnUse">
      <path
         style="fill:#221c24;stroke-width:0.32"
         d="m 363.2197,121.10831 6.72,-2.24774 c 4.33096,-1.44865 9.27969,-2.81298 13.92,-3.83767 3.96,-0.87446 10.152,-2.30998 13.76,-3.19005 6.51334,-1.58876 13.17408,-3.02788 28.09027,-6.06921 4.27365,-0.87137 9.45765,-2.14971 11.52,-2.84075 2.06235,-0.69105 5.33373,-1.70733 7.26973,-2.2584 8.41402,-2.395027 16.71556,-5.584107 22.24,-8.543617 4.84364,-2.5948 11.8229,-6.88344 13.25861,-8.1472 1.0696,-0.9415 1.67095,-1.23197 2.55049,-1.23197 0.63299,0 1.1509,0.13893 1.1509,0.30874 0,0.57 1.40928,1.0701 2.87089,1.01877 1.20987,-0.0425 1.951,-0.39009 4.48911,-2.10544 2.90352,-1.96232 7.1065,-5.85843 8.76369,-8.12385 1.86243,-2.546 1.87448,-4.27081 0.0352,-5.03931 -0.60409,-0.2524 -1.3967,-0.45891 -1.76136,-0.45891 -0.36467,0 -1.23329,-0.29093 -1.93028,-0.64651 -1.26297,-0.64432 -1.26725,-0.65296 -1.26725,-2.56 0,-1.82773 -0.0359,-1.91349 -0.8,-1.91349 -0.96773,0 -0.96568,0.0401 -0.11682,-2.288 0.46308,-1.27003 1.28226,-2.52749 2.54258,-3.9029 l 1.85939,-2.0292 0.36743,-5.56995 c 0.20208,-3.06348 0.49287,-6.50595 0.6462,-7.64995 l 0.27877,-2.08 -1.65961,-3.26754 c -1.76644,-3.47788 -2.15794,-4.42633 -2.15794,-6.39497 0,-1.8303 -0.17973,-2.50208 -1.27464,-4.76414 -1.46975,-3.0365 -2.5468,-4.23615 -4.70531,-5.24087 -2.29481,-1.06817 -3.44632,-2.04933 -5.58721,-4.760663 -2.60798,-3.30287 -4.10015,-6.49625 -4.33293,-9.27286 -0.5146,-6.13814 2.15709,-11.285071 7.23398,-13.936069 3.07395,-1.605124 5.9379,-2.379831 11.02101,-2.98122 3.84871,-0.455344 5.08054,-0.477737 8.36394,-0.152038 15.14521,1.502346 24.13272,4.11432 40.00116,11.625247 12.35186,5.84644 14.52939,7.07892 21.28,12.04442 7.96355,5.857703 28.42323,25.423603 35.36564,33.820703 3.05847,3.69932 13.58358,17.58798 16.34205,21.56453 4.00424,5.77242 9.93515,13.48911 17.12053,22.27547 4.49597,5.49772 10.02921,11.402727 14.24383,15.200847 1.07363,0.96753 2.23546,2.31221 2.58184,2.98818 0.58962,1.15064 0.94119,1.35906 5.51176,3.26755 6.02171,2.51443 19.36747,6.49796 25.63434,7.6515 4.92234,0.90606 19.08749,4.21502 30.24,7.06403 14.98947,3.82919 29.19523,6.59642 38.48966,7.49763 1.98532,0.1925 5.51332,0.71038 7.84,1.15083 3.812,0.72163 12.28784,2.05942 13.04788,2.05942 C 812.88679,406.8976 362.96965,420.26311 363.2197,121.10831 Z"
         id="path899"
         sodipodi:nodetypes="csssssssssssssssssssscsscssssssssssssssssssssscc" />
    </clipPath>
    <clipPath
       id="clipPath14895-4"
       clipPathUnits="userSpaceOnUse">
      <path
         sodipodi:nodetypes="csssssssssssssssssssscsscssssssssssssssssssssscc"
         id="path14897-1"
         d="m -32.547896,205.70641 6.72,-2.24774 c 4.330958,-1.44865 9.279687,-2.81298 13.919999,-3.83767 3.96,-0.87446 10.152,-2.30998 13.76,-3.19005 6.513334,-1.58876 13.17408,-3.02788 28.090268,-6.06921 4.273648,-0.87137 9.457648,-2.14971 11.52,-2.84075 2.062352,-0.69105 5.333731,-1.70733 7.269731,-2.2584 8.414019,-2.39503 16.715555,-5.58411 22.239998,-8.54362 4.84364,-2.5948 11.8229,-6.88344 13.25861,-8.1472 1.0696,-0.9415 1.67095,-1.23197 2.55049,-1.23197 0.63299,0 1.1509,0.13893 1.1509,0.30874 0,0.57 1.40928,1.0701 2.87089,1.01877 1.20987,-0.0425 1.951,-0.39009 4.48911,-2.10544 2.90352,-1.96232 7.1065,-5.85843 8.76369,-8.12385 1.86243,-2.546 1.87448,-4.27081 0.0352,-5.03931 -0.60409,-0.2524 -1.3967,-0.45891 -1.76136,-0.45891 -0.36467,0 -1.23329,-0.29093 -1.93028,-0.64651 -1.26297,-0.64432 -1.26725,-0.65296 -1.26725,-2.56 0,-1.82773 -0.0359,-1.91349 -0.8,-1.91349 -0.96773,0 -0.96568,0.0401 -0.11682,-2.288 0.46308,-1.27003 1.28226,-2.52749 2.54258,-3.9029 l 1.85939,-2.0292 0.36743,-5.56995 c 0.20208,-3.06348 0.49287,-6.50595 0.6462,-7.64995 l 0.27877,-2.08 -1.65961,-3.26754 c -1.76644,-3.47788 -2.15794,-4.42633 -2.15794,-6.39497 0,-1.8303 -0.17973,-2.50208 -1.27464,-4.76414 -1.46975,-3.0365 -2.5468,-4.23615 -4.70531,-5.24087 -2.29481,-1.06817 -3.44632,-2.04933 -5.58721,-4.760663 -2.60798,-3.30287 -4.10015,-6.49625 -4.33293,-9.27286 -0.5146,-6.13814 2.15709,-11.285071 7.23398,-13.936069 3.07395,-1.605124 5.9379,-2.379831 11.02101,-2.98122 3.84871,-0.455344 5.08054,-0.477737 8.36394,-0.152038 15.14521,1.502346 24.13272,4.11432 40.00116,11.625247 12.35186,5.84644 14.52939,7.07892 21.28,12.04442 7.96355,5.857703 28.42323,25.423603 35.36564,33.820703 3.05847,3.69932 13.58358,17.58798 16.34205,21.56453 4.00424,5.77242 9.93515,13.48911 17.12053,22.27547 4.49597,5.49772 10.02921,11.40273 14.24383,15.20085 1.07363,0.96753 2.23546,2.31221 2.58184,2.98818 0.58962,1.15064 0.94119,1.35906 5.51176,3.26755 6.02171,2.51443 19.36747,6.49796 25.63434,7.6515 4.92234,0.90606 19.08749,4.21502 30.24,7.06403 14.98947,3.82919 29.19523,6.59642 38.48966,7.49763 1.98532,0.1925 5.51332,0.71038 7.84,1.15083 3.812,0.72163 12.28784,2.05942 13.04788,2.05942 38.60956,269.75591 -411.307579,283.12142 -411.057526,-16.03338 z"
         style="fill:#221c24;stroke-width:0.32" />
    </clipPath>
    <clipPath
       id="clipPath14895-0"
       clipPathUnits="userSpaceOnUse">
      <path
         sodipodi:nodetypes="csssssssssssssssssssscsscssssssssssssssssssssscc"
         id="path14897-3"
         d="m -32.547896,205.70641 6.72,-2.24774 c 4.330958,-1.44865 9.279687,-2.81298 13.919999,-3.83767 3.96,-0.87446 10.152,-2.30998 13.76,-3.19005 6.513334,-1.58876 13.17408,-3.02788 28.090268,-6.06921 4.273648,-0.87137 9.457648,-2.14971 11.52,-2.84075 2.062352,-0.69105 5.333731,-1.70733 7.269731,-2.2584 8.414019,-2.39503 16.715555,-5.58411 22.239998,-8.54362 4.84364,-2.5948 11.8229,-6.88344 13.25861,-8.1472 1.0696,-0.9415 1.67095,-1.23197 2.55049,-1.23197 0.63299,0 1.1509,0.13893 1.1509,0.30874 0,0.57 1.40928,1.0701 2.87089,1.01877 1.20987,-0.0425 1.951,-0.39009 4.48911,-2.10544 2.90352,-1.96232 7.1065,-5.85843 8.76369,-8.12385 1.86243,-2.546 1.87448,-4.27081 0.0352,-5.03931 -0.60409,-0.2524 -1.3967,-0.45891 -1.76136,-0.45891 -0.36467,0 -1.23329,-0.29093 -1.93028,-0.64651 -1.26297,-0.64432 -1.26725,-0.65296 -1.26725,-2.56 0,-1.82773 -0.0359,-1.91349 -0.8,-1.91349 -0.96773,0 -0.96568,0.0401 -0.11682,-2.288 0.46308,-1.27003 1.28226,-2.52749 2.54258,-3.9029 l 1.85939,-2.0292 0.36743,-5.56995 c 0.20208,-3.06348 0.49287,-6.50595 0.6462,-7.64995 l 0.27877,-2.08 -1.65961,-3.26754 c -1.76644,-3.47788 -2.15794,-4.42633 -2.15794,-6.39497 0,-1.8303 -0.17973,-2.50208 -1.27464,-4.76414 -1.46975,-3.0365 -2.5468,-4.23615 -4.70531,-5.24087 -2.29481,-1.06817 -3.44632,-2.04933 -5.58721,-4.760663 -2.60798,-3.30287 -4.10015,-6.49625 -4.33293,-9.27286 -0.5146,-6.13814 2.15709,-11.285071 7.23398,-13.936069 3.07395,-1.605124 5.9379,-2.379831 11.02101,-2.98122 3.84871,-0.455344 5.08054,-0.477737 8.36394,-0.152038 15.14521,1.502346 24.13272,4.11432 40.00116,11.625247 12.35186,5.84644 14.52939,7.07892 21.28,12.04442 7.96355,5.857703 28.42323,25.423603 35.36564,33.820703 3.05847,3.69932 13.58358,17.58798 16.34205,21.56453 4.00424,5.77242 9.93515,13.48911 17.12053,22.27547 4.49597,5.49772 10.02921,11.40273 14.24383,15.20085 1.07363,0.96753 2.23546,2.31221 2.58184,2.98818 0.58962,1.15064 0.94119,1.35906 5.51176,3.26755 6.02171,2.51443 19.36747,6.49796 25.63434,7.6515 4.92234,0.90606 19.08749,4.21502 30.24,7.06403 14.98947,3.82919 29.19523,6.59642 38.48966,7.49763 1.98532,0.1925 5.51332,0.71038 7.84,1.15083 3.812,0.72163 12.28784,2.05942 13.04788,2.05942 38.60956,269.75591 -411.307579,283.12142 -411.057526,-16.03338 z"
         style="fill:#221c24;stroke-width:0.32" />
    </clipPath>
  </defs>
  <sodipodi:namedview
     inkscape:document-rotation="0"
     pagecolor="#ffffff"
     bordercolor="#666666"
     borderopacity="1"
     objecttolerance="10"
     gridtolerance="10"
     guidetolerance="10"
     inkscape:pageopacity="0"
     inkscape:pageshadow="2"
     inkscape:window-width="1920"
     inkscape:window-height="1137"
     id="namedview14844"
     showgrid="false"
     inkscape:zoom="1.7736487"
     inkscape:cx="214.63389"
     inkscape:cy="180.32135"
     inkscape:window-x="-8"
     inkscape:window-y="-8"
     inkscape:window-maximized="1"
     inkscape:current-layer="layer2"
     showguides="false" />
  <g
     inkscape:groupmode="layer"
     id="layer1"
     inkscape:label="bg2"
     style="display:inline">
    <path
       style="display:inline;fill:#c4b7c8;stroke-width:0.349315"
       d="M 55,0 A 55,54.99998 0 0 0 0,54.99998 55,54.99998 0 0 0 2.6010417,71.7141 L 56.437304,78.247496 106.22949,75.012669 A 55,54.99998 0 0 0 110,54.99998 55,54.99998 0 0 0 55,0 Z"
       id="path845" />
  </g>
  <g
     style="display:inline"
     inkscape:groupmode="layer"
     id="layer2"
     inkscape:label="bg">
    <circle
       transform="matrix(0.36666667,0,0,0.36666653,0,4.0017619e-5)"
       clip-path="url(#clipPath14895-0)"
       style="display:inline;fill:#453748;stroke-width:9.75324"
       id="path14857-3"
       cx="150"
       cy="150"
       r="150" />
  </g>
</svg>
