<?xml version="1.0" encoding="UTF-8" standalone="no"?>
<svg
   xmlns:dc="http://purl.org/dc/elements/1.1/"
   xmlns:cc="http://creativecommons.org/ns#"
   xmlns:rdf="http://www.w3.org/1999/02/22-rdf-syntax-ns#"
   xmlns:svg="http://www.w3.org/2000/svg"
   xmlns="http://www.w3.org/2000/svg"
   xmlns:sodipodi="http://sodipodi.sourceforge.net/DTD/sodipodi-0.dtd"
   xmlns:inkscape="http://www.inkscape.org/namespaces/inkscape"
   inkscape:version="1.0 (4035a4fb49, 2020-05-01)"
   sodipodi:docname="greenie.svg"
   viewBox="0 0 184.32001 186.24001"
   height="186.24001"
   width="184.32001"
   id="svg833"
   version="1.1">
  <metadata
     id="metadata839">
    <rdf:RDF>
      <cc:Work
         rdf:about="">
        <dc:format>image/svg+xml</dc:format>
        <dc:type
           rdf:resource="http://purl.org/dc/dcmitype/StillImage" />
        <dc:title></dc:title>
      </cc:Work>
    </rdf:RDF>
  </metadata>
  <defs
     id="defs837" />
  <sodipodi:namedview
     inkscape:current-layer="g841"
     inkscape:window-maximized="0"
     inkscape:window-y="0"
     inkscape:window-x="0"
     inkscape:cy="93.120003"
     inkscape:cx="92.160004"
     inkscape:zoom="3.9465205"
     showgrid="false"
     id="namedview835"
     inkscape:window-height="1094"
     inkscape:window-width="1738"
     inkscape:pageshadow="2"
     inkscape:pageopacity="0"
     guidetolerance="10"
     gridtolerance="10"
     objecttolerance="10"
     borderopacity="1"
     bordercolor="#666666"
     pagecolor="#ffffff" />
  <g
     id="g841"
     inkscape:label="Image"
     inkscape:groupmode="layer">
    <path
       id="path845"
       d="m 68.844257,185.52001 c 0.212723,-0.396 0.99495,-2.592 1.738281,-4.88 0.743331,-2.288 1.543492,-4.63216 1.778138,-5.20925 0.407949,-1.00332 0.384874,-1.08355 -0.527024,-1.83244 -0.79617,-0.65385 -0.874823,-0.83508 -0.476307,-1.09743 0.262537,-0.17284 0.802537,-0.23263 1.2,-0.13287 0.574134,0.14409 0.722659,0.0466 0.722659,-0.47443 0,-0.3607 0.1424,-0.74382 0.316442,-0.85138 0.197187,-0.12187 0.145283,-0.46063 -0.137725,-0.89889 -0.249792,-0.38682 -0.762215,-1.92731 -1.138717,-3.42331 -0.376502,-1.496 -0.890528,-3.03894 -1.142275,-3.42874 -0.251748,-0.38981 -0.459133,-0.96581 -0.460852,-1.28 -0.0016,-0.3142 -0.366547,-1.35198 -0.810732,-2.3062 -0.444183,-0.95422 -0.942426,-2.25022 -1.107207,-2.88 -0.164784,-0.62978 -0.596269,-2.29706 -0.958858,-3.70506 -0.362588,-1.408 -0.810112,-2.85941 -0.994492,-3.22535 -0.248916,-0.49403 -0.192935,-1.15321 0.217408,-2.56 0.303955,-1.04206 0.594652,-2.32665 0.645993,-2.85465 0.05134,-0.528 0.190979,-1.85794 0.310311,-2.95541 0.192643,-1.77174 0.149916,-2.01907 -0.381168,-2.2064 -1.636487,-0.57725 -2.185578,-2.63762 -1.078128,-4.04551 0.352,-0.4475 0.64,-0.89892 0.64,-1.00316 0,-0.39167 -1.525296,-0.16818 -2.739895,0.40146 -0.693059,0.32504 -2.196106,0.8437 -3.340106,1.15258 -3.899161,1.05276 -5.017642,1.68926 -5.853267,3.33092 -4.003133,7.86451 -6.207233,10.5536 -9.514922,11.6086 -1.943834,0.61999 -3.001588,0.35153 -3.134992,-0.79568 -0.08467,-0.72813 -0.185124,-0.81928 -0.560001,-0.50816 -0.251251,0.20851 -0.456819,0.26255 -0.456819,0.12007 0,-0.14248 -0.413174,0.1368 -0.918169,0.62061 -0.759245,0.72741 -0.951364,0.79316 -1.109956,0.37987 -0.105484,-0.27489 -0.556307,-0.49979 -1.001833,-0.49979 -1.043104,0 -1.047472,-0.59678 -0.02499,-3.41371 0.431785,-1.18956 0.747043,-2.20086 0.700569,-2.24733 -0.04647,-0.0465 -0.36375,-0.12791 -0.705062,-0.18098 -0.341312,-0.0531 -0.813117,-0.21658 -1.048451,-0.36336 -0.248324,-0.15487 -0.577328,-0.11741 -0.784,0.0893 -0.261479,0.26149 -0.254071,0.35612 0.02789,0.35612 0.2112,0 0.384,0.15544 0.384,0.34542 0,0.21551 -0.352698,0.26796 -0.93775,0.13946 -0.745789,-0.1638 -1.010112,-0.0707 -1.291258,0.45458 -0.497495,0.92957 -0.973056,0.82082 -0.959651,-0.21946 0.01232,-0.95643 0.903705,-2.81812 0.957603,-2 0.01766,0.2682 0.185933,0.127 0.381328,-0.32 0.192339,-0.44 0.326435,-0.91033 0.297997,-1.04516 -0.117664,-0.55787 1.003449,-5.24161 1.543942,-6.4502 0.320893,-0.71755 0.748871,-2.008 0.951053,-2.86765 0.489971,-2.08327 1.338067,-3.67101 2.583703,-4.83699 1.244492,-1.16492 2.639046,-3.28195 2.408086,-3.65565 -0.268512,-0.43446 0.597063,-0.97824 1.081031,-0.67913 0.351414,0.21718 0.303417,0.45286 -0.250733,1.23109 -0.376944,0.52937 -0.685351,1.03169 -0.685351,1.11627 0,0.0846 -0.646928,1.28634 -1.437619,2.6706 -1.670291,2.92415 -1.840272,3.5855 -0.482381,1.87682 0.528,-0.66441 0.96,-1.32609 0.96,-1.47041 0,-0.14432 0.828,-1.09666 1.84,-2.11632 1.012,-1.01965 3.593348,-3.94177 5.73633,-6.49359 2.14298,-2.55183 4.405377,-5.1305 5.027549,-5.73039 0.62217,-0.59989 1.062474,-1.20194 0.978452,-1.33789 -0.08402,-0.13595 -0.0064,-0.33763 0.172451,-0.44818 0.17887,-0.11055 0.325219,-0.3365 0.325219,-0.50211 0,-0.57834 -0.614912,-0.29325 -1.568698,0.7273 -0.528627,0.56563 -1.034224,0.95533 -1.123552,0.866 -0.08933,-0.0893 0.387424,-0.76393 1.05945,-1.49911 0.672029,-0.73519 1.798198,-2.09689 2.502605,-3.02601 1.092074,-1.44044 6.712122,-8.0604 8.475508,-9.983448 0.449193,-0.489866 0.484822,-0.708551 0.176051,-1.080599 -0.320983,-0.386758 0.240352,-1.061619 3.28576,-3.950282 2.020083,-1.916108 4.104877,-3.79439 4.632877,-4.173958 l 0.96,-0.690125 -0.828534,0.934557 c -3.64858,4.115472 -8.481092,11.883855 -12.027531,19.334565 -0.795849,1.672 -2.044809,3.6839 -2.775469,4.47089 -0.730656,0.78698 -1.004467,1.16067 -0.608467,0.8304 1.000275,-0.83424 0.907024,-0.14785 -0.109088,0.80293 -0.846083,0.79168 -3.010912,3.60392 -3.010912,3.91134 0,0.0934 0.490851,-0.26474 1.090778,-0.79588 0.599926,-0.53113 1.153795,-0.91485 1.230816,-0.85269 0.07702,0.0622 0.413933,-0.10299 0.748688,-0.36699 0.376243,-0.29672 0.266614,-0.0218 -0.287104,0.72 -1.162855,1.55783 -0.875424,1.51943 0.903971,-0.12076 1.493011,-1.37621 1.785031,-1.2485 0.929254,0.40639 -0.920576,1.78019 -0.27336,1.25214 0.843898,-0.68853 0.604835,-1.05059 1.207699,-1.91173 1.339699,-1.91364 0.132,-0.002 0.24,-0.20746 0.24,-0.4568 0,-0.24933 0.117031,-0.50133 0.260071,-0.56 0.143037,-0.0587 0.857789,-0.92141 1.588333,-1.91721 0.730547,-0.9958 2.549136,-2.85011 4.041312,-4.1207 2.793203,-2.37841 3.020054,-2.67523 3.292976,-4.30875 0.08822,-0.528 0.264704,-1.032 0.392192,-1.12 0.127491,-0.088 0.320602,-0.40112 0.429136,-0.69582 0.108535,-0.2947 0.710029,-0.77911 1.336659,-1.07646 0.626628,-0.29736 1.139322,-0.74874 1.139322,-1.00307 0,-0.25433 0.132989,-0.38024 0.29553,-0.27978 0.162544,0.10046 0.623606,-0.28704 1.024582,-0.861111 0.400979,-0.574071 0.824647,-1.115764 0.941485,-1.203764 0.116835,-0.088 0.522701,-0.772 0.90192,-1.52 0.379219,-0.748 0.886954,-1.36 1.128298,-1.36 0.241341,0 0.523577,-0.324 0.62719,-0.72 0.189485,-0.724205 2.327325,-1.947773 4.09784,-2.34535 0.471268,-0.105824 0.9409,-0.411447 1.043629,-0.679159 0.141159,-0.36785 0.04911,-0.427053 -0.376845,-0.242358 -0.309996,0.134416 -1.033225,0.31039 -1.60718,0.391053 -0.898231,0.12624 -1.013037,0.06715 -0.824445,-0.424317 0.174585,-0.45496 0.101564,-0.525872 -0.35937,-0.348996 -0.376048,0.144301 -0.199526,-0.209875 0.504445,-1.012124 1.200832,-1.368477 1.705661,-1.435847 1.221741,-0.16304 -0.506391,1.331904 -0.167936,1.177222 0.998281,-0.45624 0.596656,-0.835709 1.556896,-1.968471 2.133866,-2.517255 1.035523,-0.984934 1.391139,-2.042214 0.686899,-2.042214 -0.236803,0 -0.303651,-0.43601 -0.193155,-1.259825 0.09294,-0.692902 0.09334,-1.335459 9.6e-4,-1.427907 -0.312003,-0.312003 -2.575328,2.107437 -3.137328,3.353732 -0.306685,0.680108 -0.671558,1.166134 -0.810832,1.08006 -0.13927,-0.08608 -0.343671,-0.01014 -0.454218,0.16872 -0.274816,0.44466 -1.443225,0.412624 -1.443225,-0.03957 0,-0.200637 0.529635,-0.812637 1.176969,-1.36 1.784669,-1.509062 3.935783,-3.828854 3.939616,-4.248544 0.0019,-0.205331 -0.159872,-0.42776 -0.359443,-0.494285 -0.395417,-0.131805 0.360707,-1.044371 1.077143,-1.3 0.223142,-0.07962 0.314598,-0.243594 0.203232,-0.364387 -0.282707,-0.306643 -2.250682,1.082061 -3.760855,2.65385 -1.607677,1.673267 -1.996349,1.704396 -0.690224,0.05528 1.229575,-1.552465 3.874653,-3.843239 5.056176,-4.378913 0.94913,-0.43031 2.619825,-1.699475 2.252442,-1.711094 -0.472102,-0.01494 -2.073027,0.823081 -3.498899,1.831523 -0.816116,0.577194 -1.968116,1.215463 -2.56,1.418371 -1.536967,0.526906 -2.544353,1.238484 -2.303969,1.627434 0.12416,0.200896 0.05112,0.238291 -0.182908,0.09365 -0.219117,-0.13542 -0.661706,0.0054 -1.011405,0.321927 -1.373184,1.242713 -0.829978,0.110112 0.982489,-2.048522 3.115041,-3.709991 1.585405,-2.772544 -3.424505,2.098727 -0.944768,0.918627 -1.916496,1.782627 -2.159392,1.92 -0.242893,0.137376 -1.073524,0.84304 -1.845841,1.568147 -0.772313,0.725107 -1.695299,1.410762 -2.051078,1.523683 -0.355776,0.112919 -1.068218,0.65792 -1.583207,1.211117 -0.514988,0.553194 -0.75799,0.904058 -0.540006,0.779696 0.268989,-0.153459 0.333434,-0.0622 0.200573,0.284035 -0.107671,0.28058 -0.358019,0.455821 -0.556336,0.389428 -0.198314,-0.06639 -0.756573,0.302752 -1.240573,0.82032 -0.484,0.517564 -0.88,0.781801 -0.88,0.58719 0,-0.798966 -1.007805,0.01421 -5.12,4.131181 -4.714468,4.719946 -6.047009,5.932151 -5.570612,5.067559 0.646307,-1.172964 3.651319,-4.435178 6.588647,-7.152583 1.712195,-1.584 3.194877,-3.080368 3.294848,-3.325261 0.15096,-0.369798 0.08561,-0.375453 -0.385558,-0.03337 -0.312029,0.226541 0.0087,-0.09875 0.712675,-0.722864 0.862381,-0.764521 1.356704,-1.014646 1.515101,-0.76663 0.229549,0.359437 0.283104,0.286992 0.364899,-0.49361 0.05742,-0.548022 3.450119,-3.109866 4.138887,-3.125296 0.318387,-0.0071 0.502825,-0.136038 0.409862,-0.286454 -0.191322,-0.309565 0.897885,-1.384503 1.954342,-1.928736 0.386698,-0.199207 1.394698,-0.931799 2.240001,-1.627978 2.887341,-2.377981 3.458694,-2.789546 5.607357,-4.039152 1.182745,-0.68786 2.245341,-1.46665 2.361325,-1.73065 0.11598,-0.264 0.282886,-2.030621 0.370896,-3.925821 0.137225,-2.954967 0.0925,-3.419914 -0.314,-3.263923 -0.260714,0.100041 -0.642874,0.930662 -0.849252,1.84582 -0.581913,2.580429 -0.988896,2.93426 -0.993708,0.863924 -0.006,-2.563053 1.252758,-6.839466 3.673369,-12.480001 4.340903,-10.115229 5.491149,-12.001345 10.240923,-16.792535 4.231369,-4.26826 7.290319,-5.426717 13.644139,-5.167175 3.34237,0.136528 3.3823,0.14657 9.69882,2.438963 1.04663,0.37984 2.05463,0.894932 2.24,1.144647 0.19477,0.262365 1.45148,0.610589 2.97704,0.824912 1.90058,0.267011 2.64,0.498838 2.64,0.827706 0,0.251248 0.18,0.390816 0.4,0.310147 0.22,-0.08067 0.36704,-0.299559 0.32675,-0.486426 -0.096,-0.445283 2.5887,-0.196064 13.35325,1.239571 4.71753,0.629165 10.02691,2.241284 9.41075,2.857444 -0.46319,0.46319 -7.73829,1.224163 -16.57815,1.73407 -6.89129,0.397507 -8.02892,0.398067 -8.42286,0.0041 -0.54287,-0.542877 -0.43122,-0.534742 -8.72974,-0.636073 -5.22571,-0.06381 -6.9357,0.02426 -8.40715,0.432963 -1.7291,0.480272 -3.1287,1.438474 -2.71109,1.85608 0.10148,0.101475 1.74459,0.01738 3.65137,-0.186909 6.18777,-0.662902 13.37921,-0.535961 10.10687,0.1784 -0.484,0.105661 -1.24,0.315399 -1.68,0.46609 -1.27974,0.438281 -2.99351,0.758617 -3.6,0.672909 -0.32821,-0.04638 -0.56,0.127859 -0.56,0.420972 0,0.275063 -0.235,0.500116 -0.52223,0.500116 -0.28722,0 -0.97599,0.280444 -1.5306,0.623209 -0.55461,0.342765 -1.50761,0.709565 -2.11777,0.815108 -1.85809,0.321404 -3.87503,1.008662 -6.31284,2.151052 -1.90867,0.894436 -2.43707,1.311684 -2.96,2.337377 -0.77269,1.5156 -0.77219,1.506656 -0.0766,1.37087 0.64354,-0.125616 2,0.932487 2,1.560093 0,0.232259 0.0587,0.422291 0.13037,0.422291 0.0717,0 1.07672,-0.946345 2.23336,-2.102989 1.15665,-1.156643 2.25137,-2.011286 2.43272,-1.899206 0.18135,0.112083 0.7153,-0.0995 1.18655,-0.470186 1.25966,-0.990848 1.55312,-0.196739 0.69254,1.874039 l -0.67766,1.630637 0.69723,1.683852 c 0.38348,0.926119 0.98845,2.259853 1.34439,2.963853 0.35593,0.704 0.45665,1.052989 0.22382,0.77553 -0.53127,-0.633037 -1.86338,-1.005629 -1.86338,-0.521171 0,0.194944 0.79684,1.968515 1.77076,3.94127 1.98074,4.012157 2.65247,6.922055 2.83578,12.284372 0.0572,1.672 0.0389,2.68 -0.0405,2.24 -0.16883,-0.93534 -0.96775,-1.92 -1.5578,-1.92 -0.70872,0 -1.94416,1.365524 -2.96169,3.273508 -0.53779,1.008428 -1.25226,2.232429 -1.58771,2.72 -1.63273,2.373178 -5.2498,8.573104 -6.5846,11.286493 -1.18999,2.419031 -1.39525,3.061133 -1.00486,3.143463 0.44779,0.09444 0.62777,0.46785 0.5285,1.09654 -0.0208,0.132 0.16538,0.24 0.41382,0.24 0.33902,0 0.43153,-0.39521 0.37079,-1.584083 -0.0741,-1.450621 -0.0313,-1.55751 0.50828,-1.268739 0.36541,0.195562 0.58922,0.199645 0.58922,0.01075 0,-0.167526 -0.18,-0.377226 -0.4,-0.465997 -0.32,-0.129123 -0.32,-0.166454 0,-0.186665 0.23167,-0.01462 0.40206,-0.462919 0.40489,-1.065264 0.003,-0.572 0.14449,-1.256 0.31511,-1.52 0.24204,-0.374538 0.31127,-0.383914 0.3151,-0.04268 0.003,0.279034 0.23654,0.376746 0.6449,0.269959 0.75453,-0.197316 0.83703,0.170835 0.16352,0.729795 -0.61901,0.513731 -0.33247,0.958713 0.51256,0.795974 0.4891,-0.09419 0.61356,2.43e-4 0.47529,0.360595 -0.13943,0.363332 -0.0339,0.439488 0.41274,0.297744 0.38418,-0.121932 0.67048,-0.007 0.79573,0.319357 0.25185,0.656314 0.84016,0.299453 0.84016,-0.509632 0,-0.341613 0.1594,-0.621113 0.35423,-0.621113 0.19483,0 0.27846,-0.197469 0.18585,-0.43882 -0.19658,-0.512272 1.75714,-5.601002 2.27273,-5.919654 0.19234,-0.118877 0.58523,-0.644848 0.87308,-1.168832 l 0.52337,-0.952695 -0.12163,0.988336 c -0.11825,0.960919 -0.0995,0.976839 0.67733,0.573834 0.46966,-0.243664 0.84471,-0.756115 0.90995,-1.243341 0.0999,-0.746275 1.28768,-3.358835 1.52702,-3.358835 0.17565,0 -0.77485,3.322877 -1.46456,5.12 -0.3715,0.968 -0.87787,2.393168 -1.12527,3.167043 -0.24739,0.773875 -1.76504,3.765607 -3.37255,6.648303 -2.42659,4.35152 -4.28141,8.4517 -5.3031,11.72276 -0.10974,0.35136 -0.36824,0.50608 -0.65907,0.39447 -0.55484,-0.21291 -1.4341,0.40441 -1.17444,0.82455 0.0998,0.16146 0.44443,0.14089 0.79648,-0.0475 0.64341,-0.34434 0.91548,0.11036 0.29536,0.49362 -0.17887,0.11055 -0.24083,0.33756 -0.13767,0.50447 0.10315,0.1669 -0.3265,1.38645 -0.95478,2.7101 -0.62829,1.32364 -1.14233,2.5502 -1.14233,2.72568 0,0.17547 -0.20127,0.63798 -0.44726,1.02778 -0.66168,1.04854 -3.712747,8.41087 -3.712747,8.95901 0,0.25942 0.311424,0.67845 0.692055,0.93118 0.622976,0.41364 0.654918,0.56604 0.32,1.52678 -0.204631,0.58701 -0.372055,1.4072 -0.372055,1.82266 0,0.41546 -0.291219,1.00473 -0.647152,1.30949 -0.563437,0.48243 -0.620214,0.79219 -0.438925,2.39459 0.146554,1.29535 0.08634,1.98734 -0.203286,2.33632 -0.289123,0.34838 -0.310922,0.59643 -0.07329,0.83407 0.364604,0.3646 1.682649,0.085 1.682649,-0.35696 0,-0.70023 1.265114,0.15535 1.445741,0.97774 0.239063,1.08845 -0.317651,4.0186 -1.037776,5.46212 -0.360237,0.72211 -0.531382,2.10529 -0.584806,4.72631 -0.04967,2.43697 -0.251421,4.18477 -0.589344,5.10567 -0.282599,0.77013 -0.513815,1.80114 -0.513815,2.29114 0,0.49 -0.432,2.21289 -0.96,3.82863 -0.528,1.61574 -0.96,3.14268 -0.96,3.3932 0,0.25051 -0.1396,0.70553 -0.310224,1.01114 -0.448442,0.80323 -1.342358,4.25773 -1.344477,5.19566 -9.6e-4,0.44 -0.12648,0.95079 -0.278861,1.13509 -0.15238,0.18429 -0.33664,0.83229 -0.409459,1.44 -0.159376,1.33 -0.848589,2.92762 -1.416973,3.28458 -0.227404,0.14281 -0.326041,0.40112 -0.219187,0.57402 0.106851,0.17289 0.02179,0.52217 -0.189005,0.77617 -0.210803,0.25401 -0.296582,0.80727 -0.190617,1.22946 0.141619,0.56426 0.04511,0.80628 -0.364266,0.91347 -0.379395,0.0993 -0.756742,0.87604 -1.183741,2.43652 l -0.626809,2.29069 h -8.607428 c -8.071431,0 -8.593172,-0.0349 -8.378487,-0.56 0.447856,-1.09548 0.843939,-2.70226 0.70129,-2.84491 -0.07969,-0.0797 -0.236932,0.22181 -0.349424,0.67001 -0.11249,0.44819 -0.43457,0.8149 -0.715735,0.8149 -0.368432,0 -0.469805,0.2166 -0.36296,0.77551 0.112195,0.5869 -0.01491,0.81931 -0.522694,0.95563 -1.318624,0.354 -1.528154,0.25344 -1.106691,-0.53114 z m 10.515747,-0.0989 c 0,-0.27438 -0.146349,-0.40843 -0.325219,-0.29788 -0.17887,0.11054 -0.242374,0.33504 -0.141114,0.49888 0.274314,0.44385 0.466333,0.36109 0.466333,-0.201 z m -6.009312,-1.30103 c -0.133987,-0.70091 -0.208957,-0.75345 -0.452944,-0.31747 -0.29832,0.53307 -0.105875,1.15739 0.356768,1.15739 0.141206,0 0.184486,-0.37796 0.09618,-0.83992 z M 72.538599,181.06 c -0.10215,-0.25527 -0.177977,-0.17945 -0.193331,0.19333 -0.01389,0.33734 0.06173,0.52634 0.16807,0.42 0.106333,-0.10633 0.1177,-0.38233 0.02525,-0.61333 z m 7.639741,-3.59384 c 0.34136,-0.24961 0.523181,-0.55131 0.404042,-0.67045 -0.368221,-0.36822 -2.182378,0.1885 -2.182378,0.66972 0,0.58452 0.979399,0.58493 1.778336,6.4e-4 z M 80.8586,169.22 c -0.102151,-0.25527 -0.177978,-0.17945 -0.193332,0.19333 -0.01389,0.33733 0.06173,0.52634 0.168071,0.42 0.106333,-0.10633 0.117699,-0.38233 0.02525,-0.61333 z m 2.341405,0.06 c 0,-0.176 -0.216,-0.32 -0.480001,-0.32 -0.264,0 -0.48,0.144 -0.48,0.32 0,0.176 0.216,0.32 0.48,0.32 0.264001,0 0.480001,-0.144 0.480001,-0.32 z m -0.936001,-1.368 c -0.03958,-0.38263 -0.478492,-0.30853 -0.616,0.104 -0.0704,0.2112 0.0448,0.3264 0.256,0.256 0.2112,-0.0704 0.3732,-0.2324 0.36,-0.36 z m -6.394013,-3.13636 c 0.547034,-1.4826 1.116836,-3.19964 1.266231,-3.81564 0.149392,-0.616 0.657862,-2.128 1.129929,-3.36 0.472071,-1.232 1.474468,-3.896 2.227553,-5.92 0.753081,-2.024 2.040595,-5.408 2.861136,-7.52 l 1.491891,-3.84 -1.143363,-0.99392 c -1.197351,-1.04084 -1.394532,-1.53308 -0.768983,-1.91969 0.251034,-0.15515 0.307674,-0.0575 0.171917,0.29623 -0.246893,0.64339 0.396429,1.01371 2.253703,1.29729 1.555526,0.23751 1.784272,-0.18383 0.72,-1.32619 -0.352,-0.37783 -0.64,-0.85378 -0.64,-1.05767 0,-0.36077 -0.497178,-0.30399 -1.71713,0.19613 -0.458512,0.18796 -0.365654,-0.0748 0.4,-1.13171 1.02801,-1.41913 1.263059,-2.24047 0.641178,-2.24047 -0.6709,0 -6.843358,3.02199 -9.949479,4.8712 -1.707988,1.01684 -3.322922,1.8488 -3.588743,1.8488 -0.265821,0 -0.625053,0.26485 -0.798298,0.58855 -0.71344,1.33309 -0.407628,5.63093 0.49258,6.92265 0.278348,0.3994 0.439891,1.51599 0.439891,3.04052 0,2.29198 0.786995,6.84082 2.215962,12.80828 0.851484,3.55585 1.041395,4.20931 1.182371,4.06833 0.06438,-0.0644 0.564624,-1.33009 1.111654,-2.81269 z m 8.780238,-7.94343 C 84.532885,156.46249 84.287173,156.16 84.104203,156.16 c -0.18297,0 -0.245264,0.22777 -0.138435,0.50617 0.106832,0.27839 0.194237,0.73919 0.194237,1.024 0,0.37641 0.09607,0.42176 0.351788,0.16604 0.193482,-0.19348 0.25578,-0.65428 0.138436,-1.024 z m 2.652032,-4.13728 c 0.117763,-0.80032 -0.41848,-0.94329 -0.70802,-0.18876 -0.304096,0.79246 -0.229846,1.15889 0.205764,1.01543 0.22,-0.0725 0.446016,-0.44445 0.502256,-0.82667 z m 2.297744,-2.4816 c 0,-0.5651 -0.688883,-0.46668 -0.886666,0.12667 -0.06967,0.209 0.101331,0.38 0.38,0.38 0.278666,0 0.506666,-0.228 0.506666,-0.50667 z M 93.3386,144.26 c -0.10215,-0.25528 -0.177977,-0.17945 -0.193331,0.19333 -0.01389,0.33733 0.06174,0.52633 0.16807,0.42 0.106333,-0.10633 0.1177,-0.38233 0.02525,-0.61333 z m -4.880282,-3.10491 c 0.190477,-0.3082 -2.011136,-0.82894 -2.296813,-0.54326 -0.09521,0.0952 0.02752,0.23708 0.272698,0.31528 0.245191,0.0782 0.661802,0.21422 0.925802,0.30227 0.736739,0.24572 0.907683,0.23416 1.098313,-0.0743 z M 76.366779,133.0888 c 5.747753,-2.69943 9.797462,-4.36107 11.192755,-4.59251 1.27746,-0.21189 1.355639,-0.29726 2.452151,-2.67758 1.817379,-3.94519 1.752733,-4.06966 -0.79689,-1.53432 -1.501869,1.49346 -3.441485,2.9699 -5.437005,4.13866 -1.706214,0.99932 -3.191443,1.81695 -3.300502,1.81695 -0.109063,0 -0.945066,0.33891 -1.857789,0.75315 -0.91272,0.41423 -2.415418,1.00178 -3.339322,1.30566 -1.484311,0.4882 -2.640173,1.43927 -2.640173,2.17239 0,0.36978 -0.01926,0.37693 3.726775,-1.3824 z m -27.952127,-7.94548 c -0.160899,-0.21702 -2.014918,1.65945 -2.012169,2.03655 0.0013,0.18707 0.477459,-0.16387 1.057987,-0.77987 0.580528,-0.616 1.00991,-1.1815 0.954182,-1.25668 z M 92.086671,126.02 c -0.197504,-0.59252 -0.78761,-0.6597 -0.997197,-0.11353 -0.13273,0.34589 0.007,0.49353 0.467241,0.49353 0.364644,0 0.600298,-0.16898 0.529956,-0.38 z m 1.461334,-2.68 c 0.345398,-1.04501 0.7504,-1.948 0.9,-2.00667 0.1496,-0.0587 0.272,-0.39322 0.272,-0.74346 0,-0.43734 -0.175411,-0.60047 -0.56,-0.5208 -0.382902,0.0793 -0.541786,0.38423 -0.5024,0.96415 0.04398,0.64757 -0.105846,0.87162 -0.633562,0.94745 -0.837417,0.12034 -1.361856,1.42728 -1.058204,2.63712 0.325305,1.29612 0.879305,0.8487 1.582166,-1.27779 z m -40.348002,-1.35662 c 1.012,-1.05052 1.84,-2.00586 1.84,-2.12299 0,-0.42749 -2.175027,1.46136 -3.521389,3.05807 -1.804714,2.14029 -0.677107,1.51318 1.681389,-0.93508 z M 70.455073,120.16 c 0.174272,-0.352 -0.08953,-0.136 -0.586221,0.48 -0.496695,0.616 -1.408378,1.71051 -2.025965,2.43226 -0.617584,0.72175 -0.353786,0.50575 0.586221,-0.48 0.940006,-0.98575 1.851689,-2.08026 2.025965,-2.43226 z m 0.94575,3.44 c 0.398038,-0.50754 0.38672,-0.51886 -0.120819,-0.12082 -0.308,0.24155 -0.56,0.49355 -0.56,0.56 0,0.26337 0.262781,0.0939 0.680819,-0.43918 z m -27.560821,-0.08 c 0,-0.176 -0.0635,-0.32 -0.141113,-0.32 -0.07761,0 -0.230112,0.144 -0.338887,0.32 -0.108774,0.176 -0.04527,0.32 0.141114,0.32 0.186387,0 0.338886,-0.144 0.338886,-0.32 z m 29.276392,-2.1194 c 0.302496,-0.46167 0.391834,-0.74165 0.198522,-0.62218 -0.369405,0.22831 -1.114454,1.46158 -0.882973,1.46158 0.07395,0 0.381952,-0.37773 0.684451,-0.8394 z m 24.737727,-0.9666 c -0.09326,-0.43995 -0.173722,-0.35948 -0.310276,0.31027 -0.119056,0.58394 -0.07446,0.79435 0.125907,0.59399 0.17065,-0.17065 0.253617,-0.57757 0.184369,-0.90426 z m -21.572018,0.34939 c 0.109277,-0.28478 0.05563,-0.41323 -0.125763,-0.30112 -0.173984,0.10753 -0.316336,0.33101 -0.316336,0.49662 0,0.4603 0.229367,0.35887 0.442099,-0.1955 z m -1.082099,-2.49788 c 0,-0.40657 -0.147808,-0.22503 -0.614307,0.7545 -0.359248,0.75432 -0.352586,0.76453 0.116653,0.17883 0.273712,-0.34163 0.497654,-0.76163 0.497654,-0.93333 z m -3.52,-0.32 c 0,-0.40657 -0.147808,-0.22503 -0.614307,0.7545 -0.359248,0.75432 -0.352586,0.76453 0.116652,0.17883 0.273712,-0.34163 0.497655,-0.76163 0.497655,-0.93333 z m 11.9621,-0.0621 c 0.109277,-0.28478 0.05563,-0.41323 -0.125763,-0.30112 -0.173984,0.10753 -0.316336,0.33101 -0.316336,0.49662 0,0.4603 0.229366,0.35887 0.442099,-0.1955 z m -4.386836,-3.55479 c -0.150608,-0.1506 -1.815264,2.57394 -1.815264,2.97104 0,0.13512 0.439373,-0.44715 0.976384,-1.29393 0.537011,-0.84678 0.914509,-1.60148 0.83888,-1.67711 z m 6.350813,0.76775 c 0.508023,-0.60422 0.625754,-1.2019 0.233924,-1.18756 -0.132,0.005 -0.569434,0.68884 -0.972077,1.52 -0.402643,0.83117 -0.507911,1.22322 -0.233923,0.87122 0.273984,-0.352 0.711417,-0.89365 0.972076,-1.20366 z m -11.154147,-0.95634 c -0.08877,-0.22 -0.161405,-0.04 -0.161405,0.4 0,0.44 0.07263,0.62 0.161405,0.4 0.08877,-0.22 0.08877,-0.58 0,-0.8 z m 26.145686,0.78857 c 0.0855,-0.13829 -0.11146,-0.25143 -0.43761,-0.25143 -0.326161,0 -0.523089,0.11314 -0.437624,0.25143 0.08546,0.13828 0.282394,0.25143 0.437624,0.25143 0.15522,0 0.35215,-0.11315 0.43761,-0.25143 z m -1.717615,-1.02857 c 0,-0.176 -0.216,-0.32 -0.48,-0.32 -0.264,0 -0.48,0.144 -0.48,0.32 0,0.176 0.216,0.32 0.48,0.32 0.264,0 0.48,-0.144 0.48,-0.32 z m -24.741406,-1.02 c -0.10215,-0.25528 -0.177977,-0.17945 -0.193331,0.19333 -0.01389,0.33733 0.06173,0.52633 0.16807,0.42 0.106333,-0.10633 0.1177,-0.38234 0.02525,-0.61333 z m 22.119605,-0.10847 c -0.09853,-0.0985 -0.277456,0.0791 -0.397626,0.39466 -0.173658,0.45607 -0.136902,0.49282 0.179136,0.17914 0.218694,-0.21707 0.317014,-0.47528 0.21849,-0.5738 z m 5.023956,-0.18209 c -0.17565,0.30243 -0.1402,0.37475 0.1084,0.22111 0.2032,-0.12558 0.36945,-0.42042 0.36945,-0.6552 0,-0.52943 -1.0658,-0.97796 -1.22057,-0.51367 -0.24735,0.74206 -0.697572,0.28232 -0.49886,-0.50941 0.14974,-0.59661 0.10415,-0.7806 -0.153906,-0.62112 -0.201667,0.12464 -0.366669,0.43412 -0.366669,0.68773 0,0.25362 -0.166316,0.46112 -0.369596,0.46112 -0.221133,0 -0.156864,0.23506 0.16,0.58519 0.29128,0.32186 0.529596,0.77896 0.529596,1.01578 0,0.27431 0.309085,0.14902 0.851605,-0.34519 0.46838,-0.42668 0.73413,-0.57353 0.59055,-0.32634 z m -10.46188,-2.60944 -0.100275,-1.04 -0.445888,0.7847 c -0.319683,0.5626 -0.342327,0.81923 -0.08,0.90667 0.201238,0.0671 0.388934,0.64996 0.417101,1.29529 l 0.05121,1.17334 0.129066,-1.04 c 0.07098,-0.572 0.08394,-1.508 0.0288,-2.08 z m -8.002077,0.55153 c -0.09852,-0.0985 -0.277456,0.0791 -0.397626,0.39466 -0.173657,0.45607 -0.136902,0.49282 0.179136,0.17914 0.218695,-0.21707 0.317015,-0.47528 0.21849,-0.5738 z m 11.878077,-3.2062 c 0.141316,0.0873 0.255149,-0.23363 0.25296,-0.71327 -0.0022,-0.47964 0.161338,-1.27744 0.363392,-1.7729 0.464948,-1.14009 0.458468,-1.5297 -0.01197,-0.71895 -0.372624,0.6422 -1.548096,3.72517 -1.530937,4.01527 0.0053,0.0905 0.158201,-0.0905 0.339667,-0.40221 0.181466,-0.31171 0.445558,-0.49528 0.586877,-0.40794 z m 9.93355,-2.50266 c -0.009,-0.63562 -0.0395,-0.64408 -0.43528,-0.12267 -0.23381,0.308 -0.59772,0.56 -0.80871,0.56 -0.21098,0 -0.30296,0.13048 -0.2044,0.28995 0.33615,0.54391 1.45893,-0.0199 1.44839,-0.72728 z m -4.46982,-1.48267 c 0,-0.352 -0.144,-0.64 -0.320005,-0.64 -0.176,0 -0.32,0.288 -0.32,0.64 0,0.352 0.144,0.64 0.32,0.64 0.176005,0 0.320005,-0.288 0.320005,-0.64 z m 2.72,-0.96 c 0.10877,-0.176 0.0453,-0.32 -0.14112,-0.32 -0.18639,0 -0.33888,0.144 -0.33888,0.32 0,0.176 0.0635,0.32 0.14111,0.32 0.0776,0 0.23011,-0.144 0.33889,-0.32 z m 1.33859,-0.38 c -0.10215,-0.25528 -0.17798,-0.17945 -0.19333,0.19333 -0.0139,0.33733 0.0617,0.52633 0.16807,0.42 0.10633,-0.10633 0.1177,-0.38234 0.0252,-0.61333 z m -7.258595,-1.39889 c 0,-0.25361 -0.144,-0.46111 -0.32,-0.46111 -0.176,0 -0.32,0.29649 -0.32,0.65888 0,0.36239 0.144,0.56989 0.32,0.46112 0.176,-0.10878 0.32,-0.40528 0.32,-0.65889 z m 9.154235,-0.32729 c -0.10683,-0.27839 -0.19423,-0.648676 -0.19423,-0.822855 0,-0.174176 -0.23936,-0.07733 -0.5319,0.215213 -0.44961,0.449612 -0.46199,0.576152 -0.08,0.817962 0.69055,0.43713 1.02145,0.3508 0.80613,-0.21032 z m 0.30934,-1.661444 c -0.55288,-0.52807 -0.56147,-0.519488 -0.19503,0.195027 0.21082,0.411072 0.47107,0.659645 0.57834,0.552381 0.10726,-0.107264 -0.0652,-0.443597 -0.38331,-0.747408 z m -9.993149,-0.246182 c -0.104221,-0.271591 -0.258122,-0.425172 -0.342,-0.34129 -0.08388,0.08388 -0.05759,0.306093 0.05842,0.493802 0.315536,0.510547 0.499961,0.411363 0.283584,-0.152512 z M 81.120004,97.600005 c 0.108775,-0.176 0.04527,-0.32 -0.141113,-0.32 -0.186387,0 -0.338887,0.144 -0.338887,0.32 0,0.176 0.0635,0.32 0.141114,0.32 0.07761,0 0.230112,-0.144 0.338886,-0.32 z m 2.761716,-3.572339 c 1.580528,-0.798131 2.956685,-1.867661 2.40311,-1.867661 -0.106448,0 -1.60008,0.716515 -3.319184,1.592256 -2.194586,1.117962 -2.792019,1.531635 -2.005642,1.388746 0.616,-0.111933 1.930772,-0.612935 2.921716,-1.113341 z m 27.41429,-0.331661 c 0.2112,-0.2112 0.384,-0.593517 0.384,-0.849597 0,-0.369597 -0.13196,-0.346173 -0.64,0.113597 -0.65741,0.594944 -0.83743,1.12 -0.384,1.12 0.1408,0 0.4288,-0.1728 0.64,-0.384 z m -20.736005,-3.456 c 0,-0.176 -0.144,-0.32 -0.32,-0.32 -0.176,0 -0.32,0.144 -0.32,0.32 0,0.176 0.144,0.32 0.32,0.32 0.176,0 0.32,-0.144 0.32,-0.32 z m 1.92,-0.8 c 0,-0.497779 0.181334,-0.8 0.48,-0.8 0.264,0 0.482205,-0.18 0.484899,-0.4 0.0035,-0.282512 0.08892,-0.267274 0.290947,0.05188 0.219815,0.347248 0.311297,0.273158 0.395101,-0.32 0.07459,-0.527952 0.28602,-0.74216 0.669053,-0.677847 0.351722,0.05906 0.56,-0.109552 0.56,-0.453334 0,-0.30105 0.0864,-0.46096 0.192,-0.35536 0.1056,0.1056 0.6816,-0.2976 1.28,-0.896 0.5984,-0.5984 1.088951,-0.9128 1.090109,-0.698669 0.0013,0.214135 0.272471,-0.02074 0.602909,-0.521936 0.427728,-0.648762 0.657578,-0.787034 0.797891,-0.48 0.153274,0.335386 0.238592,0.342339 0.383757,0.03126 0.102669,-0.22 0.390669,-0.4 0.639999,-0.4 0.24934,0 0.45334,-0.144 0.45334,-0.32 0,-0.656733 -2.137723,-0.280896 -3.789294,0.666205 -1.956,1.12168 -5.170711,4.337562 -5.170711,5.172599 0,0.308662 -0.216,0.561203 -0.48,0.561203 -0.264,0 -0.48,0.144 -0.48,0.32 0,0.176 0.36,0.32 0.8,0.32 0.64,0 0.8,-0.16 0.8,-0.8 z m 4.049578,-0.697088 c -0.09185,-0.09185 -0.327571,-0.06776 -0.523827,0.05353 -0.256128,0.158297 -0.239559,0.362016 0.05871,0.721875 0.374381,0.451686 0.426266,0.446384 0.523827,-0.05353 0.05956,-0.305184 0.03314,-0.630029 -0.05871,-0.721875 z m -6.798327,-4.551143 c 0.31215,-0.344925 0.418038,-0.690061 0.244598,-0.797254 -0.168214,-0.103962 -0.540915,0.169744 -0.828224,0.608233 -0.613907,0.936941 -0.211254,1.067351 0.583626,0.189021 z m 1.148749,-3.443136 c 0,-0.235747 -0.036,-0.489034 -0.08,-0.562854 -0.044,-0.07382 0.28,-0.524749 0.72,-1.002061 0.715466,-0.776138 0.726323,-0.822954 0.102771,-0.443028 -0.383475,0.233648 -0.849277,0.720576 -1.035117,1.082061 -0.18584,0.361488 -0.578329,0.988295 -0.872201,1.392909 -0.531456,0.731731 -0.529773,0.733594 0.315116,0.348637 0.467188,-0.212864 0.849431,-0.579914 0.849431,-0.815664 z m -1.13721,-0.659178 c 0.319191,-0.831795 -0.02173,-0.801891 -0.580509,0.05092 -0.415494,0.634125 -0.429635,0.763984 -0.06809,0.625245 0.250976,-0.09631 0.542845,-0.400583 0.648595,-0.676167 z M 78.888471,79.421806 c -0.09852,-0.09853 -0.356732,-2.05e-4 -0.573801,0.218489 -0.313683,0.316039 -0.276928,0.352794 0.179136,0.179136 0.31559,-0.120169 0.49319,-0.2991 0.394665,-0.397625 z m 14.389268,-1.658138 c 0.112109,-0.181395 -0.01635,-0.23504 -0.301113,-0.125763 -0.554375,0.212733 -0.655805,0.442099 -0.195507,0.442099 0.165612,0 0.389094,-0.142352 0.49662,-0.316336 z M 109.97639,60.2068 c 0.841,0.697965 0.45062,-1.012326 -0.41395,-1.813587 -0.65548,-0.607479 -0.80545,-0.995076 -0.68982,-1.782909 l 0.14775,-1.006682 -0.58306,0.758192 c -0.71934,0.935383 -0.73625,1.467472 -0.0954,3.00122 0.36716,0.87872 0.59706,1.106022 0.85639,0.846694 0.25772,-0.257718 0.47015,-0.258515 0.77811,-0.0029 z m 4.34362,-12.418727 c -0.22,-0.08877 -0.58,-0.08877 -0.8,0 -0.22,0.08877 -0.04,0.161405 0.4,0.161405 0.44,0 0.62,-0.07263 0.4,-0.161405 z m 32.88,-4.281479 c -0.968,-0.133814 -2.768,-0.232112 -4,-0.218438 l -2.24,0.02486 2.24,0.206986 c 1.232,0.11384 3.032,0.212137 4,0.218438 l 1.76,0.01146 -1.76,-0.243296 z m -34.6,-1.235097 c 0.64182,-0.406548 0.54095,-1.986743 -0.16,-2.50641 -0.35118,-0.260352 -0.97154,-0.37223 -1.49591,-0.269773 -0.54694,0.106864 -0.82003,0.05228 -0.70111,-0.140131 0.35146,-0.568679 -0.0513,-0.329882 -0.67339,0.399306 -0.49626,0.581648 -0.50548,0.633859 -0.0496,0.280816 0.50872,-0.393959 0.56,-0.333389 0.56,0.661516 0,0.602349 0.1728,1.267981 0.384,1.479181 0.44763,0.447635 1.5054,0.494925 2.136,0.09549 z m -1.83905,-0.782151 c -0.30242,-0.364397 -0.27501,-0.569568 0.13022,-0.974806 0.63498,-0.634979 1.84389,-0.127661 1.68486,0.707053 -0.13191,0.692406 -1.3175,0.867299 -1.81508,0.267753 z m 4.11905,-1.02823 c 0,-0.576509 0.31946,-0.583888 1.12879,-0.02608 0.3749,0.25839 1.5819,0.450672 2.97248,0.473536 2.14328,0.03524 2.40739,-0.03285 3.12317,-0.8052 0.9414,-1.01578 0.79341,-1.280967 -0.43166,-0.773527 -1.02281,0.423661 -3.13955,0.276596 -5.99143,-0.416262 -1.81388,-0.440672 -3.68135,-0.383687 -3.68135,0.112345 0,0.12426 0.37114,0.424561 0.82477,0.667335 0.45363,0.242774 0.96485,0.703139 1.13606,1.023037 0.34115,0.637453 0.91917,0.476982 0.91917,-0.255184 z m 12.16,0.338886 c 0.22961,-0.276669 0.26071,-0.48 0.0734,-0.48 -0.17872,0 -0.40783,0.216 -0.50913,0.48 -0.10131,0.264 -0.13435,0.48 -0.0734,0.48 0.0609,0 0.29004,-0.216 0.50914,-0.48 z m -12.88667,-3.553334 c -0.10633,-0.106333 -0.38234,-0.1177 -0.61333,-0.02525 -0.25528,0.10215 -0.17945,0.177977 0.19333,0.193331 0.33733,0.01389 0.52633,-0.06174 0.42,-0.168071 z M 59.431456,116.40001 c 2.347779,-3.03117 2.968547,-3.78232 2.968547,-3.59201 0,0.38322 -2.703142,3.97279 -2.999181,3.98268 -0.153552,0.005 -0.139766,-0.17067 0.03062,-0.39067 z m 8.088548,-8.08916 c 0,-0.37241 0.781376,-1.75084 0.99248,-1.75084 0.597075,0 0.496067,0.54568 -0.218883,1.1825 -0.425479,0.37899 -0.773597,0.63474 -0.773597,0.56834 z m -14.080001,-2.51166 c 0,-0.0664 0.252,-0.31845 0.56,-0.56 0.507539,-0.39804 0.518858,-0.38672 0.120819,0.12082 -0.418038,0.53304 -0.680819,0.70255 -0.680819,0.43918 z m 16.000001,-1.12141 c 0,-0.176 0.144,-0.409 0.32,-0.51777 0.176,-0.10878 0.32,-0.0538 0.32,0.12223 0,0.176 -0.144,0.40899 -0.32,0.51777 -0.176,0.10877 -0.32,0.0538 -0.32,-0.12223 z m -14.720001,-1.94652 c 0,-0.1698 0.324,-0.47876 0.72,-0.68656 0.716141,-0.3758 0.716733,-0.37414 0.110403,0.30874 -0.677225,0.76274 -0.830403,0.83243 -0.830403,0.37782 z m 20.497294,-4.331255 c 0.0041,-0.423379 0.896554,-1.592819 1.077514,-1.411859 0.07778,0.07778 -0.133527,0.49927 -0.469578,0.93664 -0.336048,0.43737 -0.609619,0.651219 -0.607936,0.475219 z m -11.217294,-4.48 c 0.41336,-0.44 0.823562,-0.8 0.911562,-0.8 0.088,0 -0.178201,0.36 -0.591562,0.8 -0.41336,0.44 -0.823561,0.8 -0.911561,0.8 -0.088,0 0.178201,-0.36 0.591561,-0.8 z m 9.920001,-8.765764 c 0,-0.157171 0.236368,-0.376467 0.525261,-0.487324 0.439193,-0.168535 0.458989,-0.121709 0.120819,0.285763 -0.460842,0.555277 -0.64608,0.613069 -0.64608,0.201561 z m 6.4,-0.674236 c 0.188384,-0.352 0.395972,-0.64 0.4613,-0.64 0.06533,0 0.04347,0.288 -0.04858,0.64 -0.09205,0.352 -0.299635,0.64 -0.461302,0.64 -0.162387,0 -0.140646,-0.286426 0.04858,-0.64 z m -2.08,-0.32 c 0.108775,-0.176 0.261274,-0.32 0.338887,-0.32 0.07761,0 0.141113,0.144 0.141113,0.32 0,0.176 -0.152499,0.32 -0.338886,0.32 -0.186387,0 -0.249888,-0.144 -0.141114,-0.32 z M 77.22667,83.377784 c 0,-0.254224 0.147449,-0.434224 0.327664,-0.4 0.180214,0.03422 0.387709,-0.22578 0.461101,-0.57778 0.197459,-0.947052 0.748937,-1.523632 1.110998,-1.161571 0.194071,0.194071 -0.02864,0.724407 -0.610438,1.453552 -0.993213,1.244784 -1.289325,1.402285 -1.289325,0.685799 z m 38.02386,-11.05778 c 0,-0.44 0.0726,-0.62 0.16141,-0.4 0.0888,0.22 0.0888,0.58 0,0.8 -0.0888,0.22 -0.16141,0.04 -0.16141,-0.4 z"
       style="fill:#000000;stroke-width:0.32" />
  </g>
</svg>
