<?xml version="1.0" encoding="UTF-8" standalone="no"?>
<svg
   xmlns:dc="http://purl.org/dc/elements/1.1/"
   xmlns:cc="http://creativecommons.org/ns#"
   xmlns:rdf="http://www.w3.org/1999/02/22-rdf-syntax-ns#"
   xmlns:svg="http://www.w3.org/2000/svg"
   xmlns="http://www.w3.org/2000/svg"
   xmlns:sodipodi="http://sodipodi.sourceforge.net/DTD/sodipodi-0.dtd"
   xmlns:inkscape="http://www.inkscape.org/namespaces/inkscape"
   inkscape:version="1.0 (4035a4fb49, 2020-05-01)"
   sodipodi:docname="jaeger.svg"
   viewBox="0 0 400 178.3"
   height="178.3"
   width="400"
   id="svg833"
   version="1.1">
  <metadata
     id="metadata839">
    <rdf:RDF>
      <cc:Work
         rdf:about="">
        <dc:format>image/svg+xml</dc:format>
        <dc:type
           rdf:resource="http://purl.org/dc/dcmitype/StillImage" />
        <dc:title></dc:title>
      </cc:Work>
    </rdf:RDF>
  </metadata>
  <defs
     id="defs837" />
  <sodipodi:namedview
     inkscape:current-layer="g841"
     inkscape:window-maximized="0"
     inkscape:window-y="0"
     inkscape:window-x="0"
     inkscape:cy="376.5"
     inkscape:cx="564"
     inkscape:zoom="0.65070922"
     showgrid="false"
     id="namedview835"
     inkscape:window-height="1126"
     inkscape:window-width="1648"
     inkscape:pageshadow="2"
     inkscape:pageopacity="0"
     guidetolerance="10"
     gridtolerance="10"
     objecttolerance="10"
     borderopacity="1"
     bordercolor="#666666"
     pagecolor="#ffffff" />
  <g
     id="g841"
     inkscape:label="Image"
     inkscape:groupmode="layer">
    <path
       id="path845"
       d="m 131.38049,177.26022 c -13.58945,-1.74815 -29.51382,-5.89171 -44.23382,-11.50975 -7.988445,-3.04886 -15.831645,-5.93111 -17.429334,-6.40498 -1.597689,-0.47386 -8.656569,-3.49053 -15.686401,-6.7037 -23.570966,-10.77371 -28.373096,-11.82221 -38.925512,-8.49918 -2.87584,0.90562 -7.4510405,2.14275 -10.1671117,2.7492 C 0.08535726,147.97538 0,147.94075 0,144.88908 c 0,-4.24828 3.6890812,-7.85475 9.5908629,-9.37605 8.8540671,-2.28234 16.5455041,-6.52714 19.4149881,-10.71488 4.241045,-6.18939 17.096655,-13.56596 34.680471,-19.89973 10.093757,-3.63581 10.97969,-3.7164 7.316172,-0.66555 -3.584122,2.9847 -11.732464,15.43742 -10.598697,16.19748 1.020824,0.68435 2.904587,6.00327 2.572024,7.26222 -0.126619,0.47931 0.684821,0.87948 1.803204,0.88926 1.737762,0.0152 1.779999,0.18157 0.290488,1.14417 -2.707507,1.74972 -4.321463,1.37349 -4.984498,-1.16196 -0.855514,-3.27148 -3.14919,-2.89827 -3.14919,0.5124 0,1.55997 -0.452756,3.11614 -1.006127,3.45815 -0.553369,0.342 -0.766693,1.87435 -0.474042,3.40525 0.456113,2.38601 1.387828,2.88505 6.525415,3.49512 3.554573,0.42211 6.150939,0.24641 6.380646,-0.43178 0.213033,-0.62892 1.111655,-1.1435 1.996961,-1.1435 0.885293,0 1.367121,0.65361 1.070707,1.45245 -0.296403,0.79885 -0.115267,3.0075 0.40249,4.90813 l 0.941404,3.45569 1.957895,-3.92469 c 1.076843,-2.1586 1.957896,-5.08755 1.957896,-6.50879 0,-1.42126 0.778568,-3.23025 1.73014,-4.01998 0.951572,-0.78975 1.443602,-1.89954 1.093377,-2.4662 -0.350213,-0.56666 -0.08302,-1.03029 0.593771,-1.03029 0.676792,0 1.230534,-0.52288 1.230534,-1.16196 0,-0.63907 -0.78432,-1.16195 -1.742933,-1.16195 -1.982971,0 -2.333963,-1.82148 -0.562027,-2.9166 0.649498,-0.40141 0.865925,-1.2395 0.480945,-1.86241 -0.384979,-0.62291 -0.06809,-1.89399 0.704297,-2.8246 0.954232,-1.14977 0.995598,-1.69204 0.129082,-1.69204 -1.647573,0 -0.402723,-7.12441 1.52273,-8.71467 0.773781,-0.63907 1.778734,-2.65505 2.233232,-4.47995 0.462703,-1.85783 1.820018,-3.57785 3.084296,-3.90846 1.241863,-0.32475 2.005372,-0.9991 1.696698,-1.49856 -0.308685,-0.499443 0.220075,-1.207911 1.175017,-1.574357 0.954941,-0.366446 1.744269,-0.02905 1.754053,0.749706 0.01197,0.948562 0.299598,1.008833 0.871467,0.182601 0.469523,-0.678362 2.683757,-1.732941 4.920521,-2.343514 4.65352,-1.270261 6.94811,-5.037751 9.82401,-16.129989 2.67871,-10.331713 2.30926,-18.647249 -1.15955,-26.099126 C 102.47794,46.146567 88.785318,32.611632 74.946136,23.328234 66.879608,17.917169 64.407908,15.63216 64.135882,13.334498 63.641505,9.1586621 69.103672,4.8812363 78.775686,1.8700632 c 8.810145,-2.74285424 13.149457,-2.60018933 39.743784,1.3067004 35.61101,5.2314959 42.88195,6.4754391 61.58365,10.5359634 23.54641,5.112407 26.41345,6.211744 27.3527,10.488113 1.14354,5.206514 -1.92197,6.814485 -8.33967,4.374483 -3.18795,-1.212059 -3.19699,-1.202136 -1.05751,1.161956 1.18685,1.311441 2.79066,2.384449 3.56405,2.384449 3.14049,0 9.59424,6.852541 14.66364,15.569729 1.15168,1.980378 4.12825,8.856658 6.40139,14.788034 l 2.06019,5.375707 16.31263,4.376843 c 18.8423,5.055587 22.02336,6.597444 21.12266,10.238153 -0.5495,2.221206 0.36969,2.901821 7.7408,5.73159 4.60041,1.766091 9.11432,3.204011 10.03094,3.195377 0.9166,-0.0081 3.79245,1.003477 6.39075,2.24914 2.5983,1.245663 9.16866,4.150227 14.60081,6.454599 5.43214,2.30435 11.70671,5.39365 13.94347,6.8651 2.23676,1.47143 5.89692,3.76177 8.13369,5.08961 5.35241,3.17746 35.94516,18.49469 38.92551,19.48931 1.29841,0.43331 1.72231,1.00184 0.96061,1.28836 -0.74981,0.28205 -10.68453,-3.16477 -22.07715,-7.6596 -28.02177,-11.05567 -81.81123,-30.384968 -82.82006,-29.761486 -0.44836,0.277104 -2.45581,3.797318 -4.46099,7.822686 -2.6621,5.34408 -3.72049,9.19995 -3.92261,14.29059 l -0.27683,6.97173 9.23931,3.29717 c 5.08163,1.81345 15.25243,4.54491 22.6018,6.06993 7.34937,1.52501 16.49978,3.61111 20.33423,4.6358 3.83446,1.02467 13.50773,2.60653 21.49618,3.51525 10.42273,1.18564 15.35915,2.26856 17.48018,3.8347 2.94832,2.17699 28.92759,7.12667 49.11548,9.3577 4.99337,0.55181 9.25601,1.18802 9.47252,1.41377 0.2165,0.22573 0.5755,1.71764 0.79776,3.31532 0.37589,2.70211 0.0252,2.92936 -5.02294,3.25528 -2.98488,0.19271 -12.39671,-1.02546 -20.9152,-2.70704 -8.90413,-1.75771 -20.92159,-3.23979 -28.26966,-3.48642 -7.02984,-0.23593 -20.23256,-0.77148 -29.33938,-1.19011 -10.73937,-0.49365 -16.55788,-0.35404 -16.55788,0.39731 0,1.46745 2.8287,2.56903 6.59691,2.56903 1.60654,0 4.36791,1.0303 6.1364,2.28957 1.76847,1.25929 3.6237,1.91288 4.12271,1.45245 0.49901,-0.46042 0.031,0.53464 -1.03996,2.21126 -1.91489,2.99774 -2.23703,3.06238 -19.38334,3.8892 -14.14206,0.68197 -19.58927,0.4626 -28.83331,-1.16117 -12.61737,-2.21629 -9.88795,-2.49251 -44.55805,4.50929 -11.33209,2.28857 -24.75626,4.68172 -29.83152,5.31811 -10.89898,1.36661 -50.92663,1.35142 -61.61389,-0.0233 z m 41.10915,-16.21224 c 4.44011,-0.64172 8.92575,-1.93855 9.96811,-2.88187 1.04236,-0.94333 2.98109,-1.71514 4.3083,-1.71514 1.32721,0 4.54074,-1.13566 7.14118,-2.5237 5.29984,-2.8289 6.14444,-6.81214 1.92461,-9.07661 -3.81495,-2.04719 -5.34173,-6.40005 -3.0836,-8.79132 1.74702,-1.85001 1.6942,-1.94587 -0.75028,-1.36165 -2.71538,0.64898 -5.47111,-2.41704 -5.51293,-6.13365 -0.0131,-1.16664 -0.93321,-1.61361 -2.78272,-1.35181 -2.13706,0.30252 -2.59455,-0.0266 -2.0192,-1.45244 0.40916,-1.01396 1.03541,-2.56042 1.39167,-3.43656 0.35627,-0.87614 -0.20081,-1.91861 -1.23793,-2.31661 -1.45017,-0.55648 -1.72304,-0.21115 -1.18146,1.49522 0.38731,1.22034 0.12487,2.57686 -0.58321,3.01448 -0.73961,0.45711 -1.55631,-0.23249 -1.91932,-1.6206 -0.57847,-2.21213 -0.83914,-2.2711 -3.08521,-0.69789 -1.34933,0.94511 -3.6442,1.71839 -5.0997,1.71839 -1.59242,0 -2.64635,0.70295 -2.64635,1.76507 0,1.28105 0.76183,1.57387 2.77814,1.0678 1.52796,-0.3835 3.0971,-0.18115 3.48696,0.44966 0.4105,0.66421 -1.7811,1.48938 -5.2073,1.9606 -6.51234,0.89566 -13.981,4.00921 -9.77246,4.07395 1.48306,0.0228 3.0674,1.5292 4.37873,4.16331 1.96513,3.94741 1.96513,4.11049 0,3.73591 -1.13014,-0.21542 -2.22191,-1.56282 -2.42612,-2.99422 -0.38769,-2.71735 -2.5204,-3.67871 -2.55138,-1.15007 -0.0134,1.0957 -0.25737,1.07455 -0.99325,-0.0861 -0.80004,-1.26186 -1.76262,-1.20962 -5.3529,0.29049 -5.32797,2.22617 -5.25561,2.22404 -5.25561,0.15466 0,-2.65109 -2.53861,-3.51702 -4.09016,-1.39516 -1.23434,1.68806 -1.5932,1.71704 -2.82864,0.22841 -0.77823,-0.9377 -1.13707,-2.15456 -0.79742,-2.70411 0.84471,-1.36676 -2.13677,-9.7775 -3.11811,-8.79616 -0.43188,0.43188 -0.78523,2.19794 -0.78523,3.9246 0,3.02264 -0.24394,3.145 -6.56026,3.29061 -3.60814,0.0832 -7.35333,0.80557 -8.32265,1.6053 -1.40946,1.16285 -1.86028,1.16318 -2.25123,0.001 -0.26888,-0.79885 -1.56412,-1.45245 -2.87832,-1.45245 -1.31421,0 -3.07472,-0.91504 -3.91223,-2.03343 -1.41741,-1.89275 -1.49155,-1.87266 -1.07172,0.29049 0.24807,1.27816 0.73494,4.80759 1.08194,7.8432 0.5826,5.09676 0.43245,5.52961 -1.96127,5.65408 -1.96692,0.10226 -2.1017,0.26297 -0.55875,0.66619 2.85418,0.74586 2.53144,2.42734 -0.58097,3.02682 -2.2416,0.43175 -2.15874,0.52613 0.58097,0.6618 3.08178,0.1526 4.57537,2.99044 2.02191,3.84159 -1.59929,0.53309 -2.43412,5.3999 -1.07082,6.24247 0.60432,0.37349 1.40489,-0.11874 1.77907,-1.09383 0.59626,-1.55382 0.99483,-1.56681 3.22554,-0.10528 1.39986,0.91724 6.41817,2.21699 11.1518,2.88832 4.73361,0.67136 8.85583,1.46988 9.16044,1.77451 1.02061,1.02061 29.70134,0.52157 37.86934,-0.65892 z m -17.68326,-19.9203 c 0.71817,-2.15451 3.21958,-2.51186 3.21958,-0.45992 0,1.01185 -0.82789,1.83975 -1.83976,1.83975 -1.01187,0 -1.63279,-0.62093 -1.37982,-1.37983 z m -26.99126,-3.18623 c 0,-0.63907 1.04576,-1.72163 2.3239,-2.40567 1.49477,-0.79998 2.32392,-0.82915 2.32392,-0.0818 0,0.63908 -1.04576,1.72164 -2.32392,2.40568 -1.49475,0.79997 -2.3239,0.82915 -2.3239,0.0818 z m 47.00335,-3.67561 c -2.12996,-4.11892 -1.157,-6.24115 1.31281,-2.86349 1.55628,2.12836 2.29157,6.45733 1.09679,6.45733 -0.30313,0 -1.38745,-1.61722 -2.4096,-3.59384 z M 66.231469,144.83142 c 0,-0.63907 -0.915039,-1.15395 -2.033422,-1.14416 -1.737763,0.0152 -1.779999,0.18157 -0.290489,1.14416 2.192854,1.41713 2.323911,1.41713 2.323911,0 z m -11.619556,-7.04031 c 0,-0.60135 -1.066373,-1.09337 -2.369727,-1.09337 -1.968527,0 -2.116072,0.27443 -0.871466,1.62096 1.545667,1.67227 3.241193,1.39627 3.241193,-0.52759 z m 98.766227,-3.63844 c 0,-1.52725 -2.64087,-0.5709 -3.21985,1.16603 -0.28303,0.8491 0.24818,1.10879 1.37983,0.67453 1.01201,-0.38835 1.84002,-1.2166 1.84002,-1.84056 z m 41.8304,-3.12245 c 0,-1.5145 -3.00114,-3.72554 -3.87318,-2.85349 -0.87205,0.87204 1.33899,3.87318 2.8535,3.87318 0.56083,0 1.01968,-0.45886 1.01968,-1.01969 z m -74.36516,-1.8852 c 1.219,-1.46881 0.99771,-1.74293 -1.407,-1.74293 -1.76181,0 -2.85351,0.66681 -2.85351,1.74293 0,0.95861 0.63315,1.74293 1.40701,1.74293 0.77385,0 2.05792,-0.78432 2.8535,-1.74293 z m 8.78125,-1.06695 c 1.23951,-0.90637 1.98525,-1.91635 1.65717,-2.24444 -0.32809,-0.32808 -1.8959,0.40186 -3.48404,1.62209 -3.30757,2.54132 -1.59524,3.12465 1.82687,0.62235 z m 27.55198,0.88576 c -0.78668,-0.31829 -2.35532,-0.33766 -3.48587,-0.0431 -1.13055,0.2946 -0.4869,0.55502 1.43034,0.5787 1.91722,0.0237 2.84221,-0.21736 2.05553,-0.53565 z"
       style="fill:#000000;stroke-width:1.16196" />
  </g>
</svg>
