<?xml version="1.0" encoding="UTF-8" standalone="no"?>
<!-- Created with Inkscape (http://www.inkscape.org/) -->

<svg
   xmlns:dc="http://purl.org/dc/elements/1.1/"
   xmlns:cc="http://creativecommons.org/ns#"
   xmlns:rdf="http://www.w3.org/1999/02/22-rdf-syntax-ns#"
   xmlns:svg="http://www.w3.org/2000/svg"
   xmlns="http://www.w3.org/2000/svg"
   xmlns:sodipodi="http://sodipodi.sourceforge.net/DTD/sodipodi-0.dtd"
   xmlns:inkscape="http://www.inkscape.org/namespaces/inkscape"
   id="svg3462"
   version="1.1"
   inkscape:version="0.92.2 5c3e80d, 2017-08-06"
   width="337.7301"
   height="125.88511"
   viewBox="0 0 337.7301 125.88511"
   sodipodi:docname="stuper2_bw.svg">
  <metadata
     id="metadata3468">
    <rdf:RDF>
      <cc:Work
         rdf:about="">
        <dc:format>image/svg+xml</dc:format>
        <dc:type
           rdf:resource="http://purl.org/dc/dcmitype/StillImage" />
        <dc:title></dc:title>
      </cc:Work>
    </rdf:RDF>
  </metadata>
  <defs
     id="defs3466">
    <clipPath
       clipPathUnits="userSpaceOnUse"
       id="clipPath3497">
      <rect
         style="fill:#9d83ff;fill-opacity:1"
         id="rect3499"
         width="325.53116"
         height="130.67096"
         x="65.908585"
         y="111.75806" />
    </clipPath>
  </defs>
  <sodipodi:namedview
     pagecolor="#ffffff"
     bordercolor="#666666"
     borderopacity="1"
     objecttolerance="10"
     gridtolerance="10"
     guidetolerance="10"
     inkscape:pageopacity="0"
     inkscape:pageshadow="2"
     inkscape:window-width="1272"
     inkscape:window-height="702"
     id="namedview3464"
     showgrid="false"
     inkscape:zoom="2.4675772"
     inkscape:cx="39.175104"
     inkscape:cy="28.565113"
     inkscape:window-x="4"
     inkscape:window-y="0"
     inkscape:window-maximized="0"
     inkscape:current-layer="svg3462"
     fit-margin-top="0"
     fit-margin-left="0"
     fit-margin-right="0"
     fit-margin-bottom="0" />
  <path
     style="fill:#000000;fill-opacity:1"
     d="m -94.406977,237.0344 c -0.10198,-0.165 0.033,-0.3 0.3,-0.3 0.26697,0 0.40197,0.135 0.3,0.3 -0.10198,0.165 -0.23698,0.3 -0.3,0.3 -0.063,0 -0.19803,-0.135 -0.3,-0.3 z M 272.79301,220.18885 c -0.495,-0.14853 -1.68633,-0.18461 -2.64741,-0.0802 -1.5378,0.16708 -3.66228,-0.0333 -7.85259,-0.74066 -0.92496,-0.15614 -1.2,-0.33792 -1.2,-0.79308 0,-0.48648 0.27213,-0.62373 1.54464,-0.77905 1.66563,-0.2033 2.20536,-0.42371 2.20536,-0.9006 0,-0.43967 0.7881,-1.16087 1.26858,-1.16087 0.22629,0 0.55491,-0.1435 0.73032,-0.31889 0.17538,-0.17539 0.74868,-0.33112 1.27395,-0.34605 0.65904,-0.0188 0.85869,-0.12352 0.64413,-0.33807 -0.32652,-0.32653 -0.37017,-0.33976 -2.23863,-0.67832 -0.85317,-0.1546 -1.11336,-0.11804 -0.9573,0.13451 0.1179,0.19076 0.4089,0.34682 0.64665,0.34682 0.67515,0 0.50709,0.51046 -0.23163,0.70365 -0.40824,0.10675 -0.89025,-0.0242 -1.25157,-0.34001 -0.32319,-0.2825 -0.49473,-0.35421 -0.38118,-0.15937 0.27909,0.47887 -0.17859,0.72154 -0.71763,0.38053 -0.3774,-0.23873 -0.37548,-0.2775 0.0144,-0.28974 0.35355,-0.0111 0.33102,-0.10428 -0.10503,-0.43464 -0.30528,-0.23127 -0.46062,-0.57327 -0.34524,-0.76 0.14778,-0.23911 0.36963,-0.19488 0.75027,0.14958 0.38061,0.34446 0.60249,0.3887 0.75027,0.14959 0.11538,-0.18673 0.12654,-0.42277 0.0249,-0.52454 -0.38172,-0.38171 1.65537,-0.97987 2.25114,-0.66102 0.33141,0.17736 0.57381,0.18964 0.57381,0.0291 0,-0.15292 -0.34116,-0.36366 -0.75816,-0.46832 -0.74319,-0.18654 -0.74766,-0.20417 -0.22662,-0.89495 0.29235,-0.38756 0.68361,-0.64631 0.86946,-0.57499 0.51567,0.19788 0.77583,-0.81891 0.34551,-1.35043 -0.23973,-0.29609 -0.252,-0.39272 -0.0332,-0.26156 0.23265,0.13943 0.29529,0.0101 0.19002,-0.39242 -0.17526,-0.67024 -0.41706,-0.75037 -0.87687,-0.29058 -0.40665,0.40666 -1.38693,0.023 -1.19817,-0.46898 0.0806,-0.20995 -0.11436,-0.44994 -0.43317,-0.53331 -0.31881,-0.0834 -0.52086,-0.0565 -0.44904,0.0598 0.0718,0.11624 0.007,0.4074 -0.14499,0.64703 -0.23028,0.36404 -0.27636,0.35167 -0.2802,-0.0752 -0.006,-0.64936 0.58065,-2.0326 1.15158,-2.71596 0.58191,-0.69652 0.21396,-1.03616 -0.42753,-0.39465 -0.45228,0.45226 -0.54894,0.45561 -1.01364,0.0351 -0.28254,-0.25568 -0.60399,-0.37458 -0.71436,-0.26423 -0.11034,0.11037 -0.20064,0.0274 -0.20064,-0.18433 0,-0.23617 -0.22992,-0.32486 -0.59481,-0.22945 -0.47241,0.12354 -0.54507,0.0536 -0.35316,-0.34001 0.1329,-0.27255 0.16431,-0.86308 0.0698,-1.31228 -0.13419,-0.63778 -0.27042,-0.75381 -0.62184,-0.52959 -0.32643,0.20829 -0.34218,0.28839 -0.0573,0.29173 0.216,0.002 0.31233,0.13467 0.21405,0.29365 -0.0992,0.16044 -0.45159,0.0161 -0.79209,-0.32441 -0.58911,-0.5891 -0.63684,-0.59231 -1.20198,-0.0809 -0.56577,0.51203 -0.58005,0.51058 -0.36981,-0.0373 0.35322,-0.9205 1.09905,-1.64646 1.69152,-1.64646 0.3279,0 0.46755,-0.13506 0.34488,-0.33354 -0.11337,-0.18345 -0.0201,-0.46229 0.2073,-0.61965 0.28413,-0.19664 0.17889,-0.22042 -0.33657,-0.076 -0.4125,0.11555 -0.85536,0.36064 -0.98412,0.54465 -0.12876,0.18402 -0.14787,-0.0367 -0.0425,-0.49043 0.16254,-0.69973 0.0956,-0.825 -0.44088,-0.825 -0.34788,0 -0.63252,0.135 -0.63252,0.3 0,0.47024 -1.08414,0.35107 -1.51359,-0.16638 -0.48879,-0.58895 -1.65222,-1.24459 -1.35492,-0.76355 0.2967,0.48007 -1.58802,0.53954 -1.93149,0.0609 -0.0825,-0.11495 -1.0275,-0.20236 -2.1,-0.19424 -1.22733,0.009 -2.14092,-0.13842 -2.46513,-0.39857 -0.28332,-0.22734 -0.78633,-0.34243 -1.1178,-0.25575 -0.33147,0.0867 -1.11216,0.0277 -1.73487,-0.13102 -0.62271,-0.15874 -1.44432,-0.31958 -1.8258,-0.35741 -0.38148,-0.0378 -0.80337,-0.24642 -0.93753,-0.46352 -0.15243,-0.24659 -0.486,-0.31789 -0.88896,-0.19 -0.43458,0.13793 -0.61806,0.085 -0.56244,-0.16218 0.11796,-0.52444 -3.62958,-0.52505 -3.95367,-6e-4 -0.1683,0.27231 -0.29937,0.28835 -0.444,0.0543 -0.11286,-0.18262 -0.0397,-0.33203 0.16248,-0.33203 0.20226,0 0.27048,-0.0972 0.15162,-0.21609 -0.11883,-0.11885 -0.6816,-0.17599 -1.25058,-0.12697 -0.72309,0.0623 -1.08891,-0.0527 -1.21533,-0.38218 -0.0995,-0.25923 -0.30171,-0.39662 -0.44943,-0.30533 -0.14772,0.0913 -0.26856,0.023 -0.26856,-0.15172 0,-0.51859 -0.85554,-0.36216 -1.49016,0.27245 -0.54408,0.54409 -0.68277,0.55749 -1.77624,0.1717 -0.99573,-0.35132 -1.21113,-0.35314 -1.34229,-0.0113 -0.10434,0.27194 -0.56049,0.37832 -1.37376,0.3204 -0.66966,-0.0477 -1.21755,0.0125 -1.21755,0.13368 0,0.38354 -1.59669,0.54496 -3.08568,0.31195 -0.831,-0.13004 -1.50864,-0.10665 -1.60887,0.0555 -0.0953,0.15411 -0.43095,0.21279 -0.74601,0.1304 -0.61962,-0.16204 -2.35944,0.57667 -2.35944,1.00179 0,0.14318 0.135,0.34376 0.3,0.44574 0.65292,0.40353 0.23979,0.75 -0.89427,0.75 -1.02372,0 -1.22118,-0.10712 -1.38255,-0.75 -0.21594,-0.86048 -0.31119,-0.88579 -1.41102,-0.375 -0.74565,0.34628 -1.1361,1.125 -0.56412,1.125 0.39117,0 0.0159,1.92383 -0.426,2.18293 -0.2184,0.12812 -0.32787,0.41342 -0.24321,0.63402 0.25278,0.65876 2.34588,-0.19072 2.469,-1.00203 0.0877,-0.57798 0.25842,-0.63539 1.65,-0.55481 1.33551,0.0773 1.56522,0.18166 1.64574,0.74732 0.0762,0.53542 -0.20757,0.79988 -1.52895,1.425 -0.89238,0.42216 -1.78299,0.76757 -1.97913,0.76757 -0.19614,0 -0.65559,0.18584 -1.02105,0.41297 -0.45933,0.28549 -1.12746,0.35495 -2.16444,0.225 -1.21887,-0.15274 -1.5,-0.29685 -1.5,-0.7689 0,-0.40722 0.30072,-0.65885 1.00566,-0.84152 0.84441,-0.21882 0.97737,-0.36618 0.82911,-0.91908 -0.0971,-0.36216 -0.17841,-0.8886 -0.18066,-1.16988 -0.003,-0.34596 -0.34485,-0.57533 -1.05741,-0.70901 -0.57933,-0.10868 -1.12731,-0.31729 -1.21773,-0.46359 -0.28293,-0.45754 -1.62918,-0.30547 -1.62918,0.18395 0,0.53465 -0.34851,0.58148 -0.81984,0.11016 -0.19812,-0.19813 -0.56715,-0.24273 -0.885,-0.10695 -0.29985,0.12809 -0.92322,0.20263 -1.38528,0.16564 -0.46206,-0.037 -1.01811,0.0805 -1.2357,0.26107 -0.40725,0.338 -1.49847,0.2958 -1.86645,-0.0722 -0.3807,-0.38071 -0.70773,-0.21429 -0.70773,0.36017 0,0.68565 -0.78609,1.06162 -1.00842,0.4823 -0.0869,-0.22655 0.1044,-0.74557 0.42519,-1.15338 0.61296,-0.77926 0.79254,-1.56159 0.28668,-1.24895 -0.17109,0.10574 -0.21975,-0.017 -0.11499,-0.28995 0.14475,-0.3772 0.27003,-0.39986 0.61731,-0.11165 0.35409,0.29388 0.56253,0.20251 1.11303,-0.48789 0.54468,-0.68309 0.83085,-0.81097 1.46091,-0.65284 0.44853,0.11258 0.86847,0.0592 0.98226,-0.12489 0.10929,-0.17686 0.3711,-0.2554 0.58182,-0.17455 0.21069,0.0809 0.51678,0.0133 0.68016,-0.15007 0.19611,-0.1961 0.67986,-0.13715 1.4232,0.17345 1.4361,0.60003 1.44258,0.59873 1.01271,-0.20448 -0.19869,-0.37125 -0.33843,-0.70875 -0.31056,-0.75 0.0279,-0.0412 0.0464,-0.24375 0.0412,-0.45 -0.005,-0.2086 -0.21567,-0.10876 -0.47409,0.225 -0.46191,0.59663 -0.46398,0.59647 -0.36546,-0.0289 0.0545,-0.3459 -0.0956,-0.86347 -0.33354,-1.15015 -0.69666,-0.83944 -0.0507,-1.53461 1.31658,-1.41682 1.43709,0.12382 2.55084,-0.79844 2.334,-1.93272 -0.10641,-0.55663 -0.273,-0.70304 -0.63126,-0.55477 -0.26766,0.11079 -0.72294,0.26937 -1.01169,0.35239 -0.28875,0.083 -0.525,0.30396 -0.525,0.49097 0,0.33179 -0.63093,0.46361 -2.63715,0.55099 -0.68583,0.0299 -0.94053,0.16448 -0.83442,0.44101 0.084,0.2189 0.0219,0.39801 -0.13785,0.39801 -0.15981,0 -0.29058,-0.21824 -0.29058,-0.48499 0,-0.3374 -0.1827,-0.43721 -0.60042,-0.32798 -0.33021,0.0864 -0.52476,0.0346 -0.4323,-0.11501 0.16551,-0.26778 -0.25248,-0.39088 -0.99642,-0.29346 -0.20853,0.0273 -0.66816,-0.15278 -1.02138,-0.40019 -0.46656,-0.32679 -0.79599,-0.36756 -1.20426,-0.14905 -0.30912,0.16543 -0.48219,0.42996 -0.3846,0.58785 0.21915,0.35462 -0.79842,0.72446 -2.36772,0.86054 -0.14139,0.0123 -0.18777,0.20293 -0.10305,0.42371 0.22443,0.5849 -0.7113,2.35454 -1.155,2.18428 -0.56601,-0.2172 -0.76158,0.96952 -0.2106,1.27787 0.3159,0.17678 0.39417,0.44522 0.24036,0.82429 -0.21414,0.52783 -0.24705,0.52135 -0.53925,-0.10626 -0.17112,-0.36762 -0.56184,-0.74797 -0.86826,-0.84522 -0.30639,-0.0973 -0.5571,-0.37652 -0.5571,-0.6206 0,-0.36524 -0.12729,-0.34839 -0.7191,0.0952 -0.39549,0.29645 -0.64536,0.65994 -0.55524,0.80775 0.0919,0.15079 -0.21795,0.18264 -0.7059,0.0726 l -0.86976,-0.19619 0.75,0.44181 0.75,0.44181 -0.825,0.0106 c -0.45375,0.006 -0.83847,-0.15812 -0.85491,-0.36437 -0.0165,-0.20625 -0.12516,-0.0375 -0.24159,0.375 -0.16416,0.58153 -0.37644,0.72733 -0.94509,0.64906 -0.40338,-0.0555 -0.86166,-0.22426 -1.01841,-0.375 -0.40341,-0.38793 -0.58809,-0.34787 -1.3191,0.28613 -0.82215,0.71305 -0.82563,1.03729 -0.008,0.77789 0.35067,-0.1113 0.56514,-0.0852 0.47661,0.0581 -0.32598,0.52743 0.6273,1.34963 1.48542,1.28118 1.50834,-0.12031 1.90041,0.004 1.90041,0.60179 0,0.36496 0.24093,0.61458 0.65151,0.675 0.95253,0.14016 0.96321,0.64018 0.0231,1.07706 -0.52971,0.24612 -0.85656,0.2727 -0.92247,0.075 -0.0561,-0.16841 -0.66456,-0.30827 -1.35204,-0.31079 -0.68751,-0.002 -1.45251,-0.13753 -1.70001,-0.3 -0.39999,-0.26259 -0.39999,-0.33124 0,-0.61786 0.33471,-0.23983 0.14256,-0.26897 -0.75,-0.11375 -0.66,0.11478 -1.47,0.24266 -1.8,0.28416 -0.33,0.0415 -0.65727,0.0927 -0.72729,0.11375 -0.07,0.0211 0.16833,0.35296 0.52962,0.73756 l 0.65694,0.69927 -2.43315,0.0305 c -1.33824,0.0168 -2.72409,-0.0868 -3.07965,-0.23025 -0.35556,-0.14342 -0.47772,-0.26932 -0.27147,-0.27978 0.51942,-0.0263 0.47448,-0.61902 -0.0469,-0.61902 -0.28677,0 -0.36867,-0.21618 -0.25569,-0.675 0.0914,-0.37125 0.0524,-0.56989 -0.0867,-0.44141 -0.3585,0.33114 -0.44307,1.97647 -0.11208,2.18101 0.43371,0.26806 0.32337,0.7354 -0.17364,0.7354 -0.2475,0 -0.45,0.135 -0.45,0.3 0,0.5097 -0.77847,0.33153 -1.36023,-0.31132 -0.48012,-0.53051 -0.58737,-0.55034 -0.81141,-0.15 -0.32034,0.57239 -0.8679,0.61344 -0.65124,0.0488 0.1089,-0.28377 -0.0813,-0.4125 -0.60942,-0.4125 -0.50454,0 -0.77112,0.1671 -0.77769,0.4875 -0.008,0.38633 -0.12684,0.34742 -0.57309,-0.1875 -0.69717,-0.83572 -1.01832,-0.86713 -0.76692,-0.075 0.10473,0.33 0.0801,0.61033 -0.0548,0.62295 -0.65457,0.0613 -1.36716,0.24898 -1.51806,0.39988 -0.0923,0.0923 -0.33888,-0.0661 -0.54798,-0.35202 -0.20907,-0.28593 -0.48849,-0.41149 -0.62097,-0.27902 -0.13245,0.13246 -0.0422,0.38123 0.20049,0.55282 0.35823,0.25326 0.33786,0.27843 -0.10824,0.13369 -0.30225,-0.0981 -0.61395,-0.1783 -0.6927,-0.1783 -0.0788,0 -0.0655,-0.12567 0.0294,-0.27927 0.0949,-0.1536 0.0579,-0.35016 -0.0823,-0.4368 -0.35406,-0.21883 -0.33822,0.78349 0.0195,1.23725 0.16095,0.20415 0.21429,0.5754 0.11853,0.825 -0.22917,0.59718 -1.09299,0.58621 -1.09299,-0.0139 0,-0.25724 -0.13719,-0.38291 -0.30489,-0.27927 -0.1677,0.10364 -0.22722,0.31411 -0.1323,0.46771 0.0949,0.15359 -0.0267,0.27927 -0.27009,0.27927 -0.24351,0 -0.51279,0.16875 -0.59844,0.375 -0.10656,0.25657 -0.35409,0.14789 -0.78384,-0.34414 -0.54054,-0.61889 -0.73062,-0.67242 -1.36356,-0.38403 -0.62328,0.28399 -0.783,0.24622 -1.04733,-0.24766 -0.29469,-0.55066 -0.34458,-0.55475 -0.9057,-0.0743 -0.66885,0.57269 -0.78507,1.26269 -0.21885,1.29948 0.20625,0.0134 -0.03,0.20867 -0.525,0.43392 -0.495,0.22526 -1.13625,0.3402 -1.425,0.25542 -0.28875,-0.0848 -0.525,-0.0143 -0.525,0.15667 0,0.17094 -0.19734,0.23507 -0.43854,0.14252 -0.24117,-0.0926 -0.84867,0.0363 -1.35,0.28642 -0.5013,0.25009 -0.91146,0.34449 -0.91146,0.20979 0,-0.55371 -0.95394,-0.55517 -1.50681,-0.002 -0.32625,0.32626 -0.81819,0.5932 -1.0932,0.5932 -0.27498,0 -0.40875,0.0912 -0.29724,0.20273 0.3198,0.31981 -1.88601,0.99535 -3.74772,1.14775 -1.31292,0.10748 -1.73343,0.0385 -1.86558,-0.30587 -0.24921,-0.64943 -0.78939,-0.54311 -0.78939,0.15551 0,0.68966 0.13284,0.67219 -2.36499,0.3111 -1.4238,-0.20583 -2.23176,-0.17391 -3.15,0.12443 -1.67439,0.54402 -3.11535,0.52394 -4.00008,-0.0558 -0.5691,-0.3729 -0.78825,-0.39802 -0.96579,-0.11073 -0.17397,0.28148 -2.98716,0.39994 -11.59941,0.48844 -14.82012,0.1523 -17.97414,-0.11228 -22.46973,-1.88492 -0.825,-0.3253 -1.76073,-0.55056 -2.07939,-0.50057 -0.31869,0.05 -0.82812,-0.0422 -1.13211,-0.2049 -0.39678,-0.21236 -0.67131,-0.17713 -0.97338,0.12493 -0.66144,0.66144 -6.176757,1.14632 -14.265117,1.25411 -6.35628,0.0847 -7.6542,0.023 -9.6,-0.45608 -1.2375,-0.30472 -2.9925,-0.63564 -3.9,-0.73536 -0.9075,-0.0997 -2.1225,-0.29964 -2.7,-0.44426 -0.5775,-0.14462 -2.02928,-0.35488 -3.22618,-0.46726 -1.19691,-0.11237 -2.25113,-0.32555 -2.34271,-0.47374 -0.22911,-0.37071 3.22533,-0.33601 5.41889,0.0544 2.57658,0.45863 17.01204,0.63755 19.05,0.23612 0.9075,-0.17876 1.785,-0.43121 1.95,-0.56101 0.61759,-0.48583 5.992137,-2.12081 8.941677,-2.72014 4.75779,-0.96675 5.22315,-1.12069 5.39697,-1.78539 0.098,-0.37498 0.81798,-0.90047 1.90938,-1.39371 0.96357,-0.43548 2.463,-1.25821 3.33204,-1.82829 1.36248,-0.89378 1.64727,-0.98071 2.06826,-0.63133 0.43044,0.35724 0.46413,0.32931 0.2847,-0.23609 -0.21348,-0.67256 -0.30927,-0.60028 4.01697,-3.03122 0.7425,-0.41722 1.72602,-1.02186 2.18556,-1.34365 0.66561,-0.46605 0.92421,-0.51152 1.27119,-0.22355 0.23958,0.19884 0.67359,0.26916 0.96444,0.15626 0.46932,-0.18216 0.44721,-0.24921 -0.19647,-0.59602 l -0.72528,-0.39078 1.32528,-0.83541 c 0.72891,-0.45947 2.40528,-1.54513 3.72528,-2.41257 3.17352,-2.08548 4.81665,-2.90937 5.87643,-2.94651 0.47973,-0.0168 0.87252,-0.18712 0.87288,-0.37846 0.003,-0.94666 6.79923,-4.57184 9.45069,-5.04025 0.66,-0.1166 2.145,-0.62589 3.3,-1.13176 3.93609,-1.72397 8.99634,-3.60343 10.8,-4.01134 0.99,-0.22389 2.88,-0.83152 4.2,-1.35028 1.32,-0.51876 3.885,-1.47252 5.7,-2.11946 1.815,-0.64694 4.515,-1.65705 6,-2.24469 4.46286,-1.76602 9.27654,-3.32433 10.98804,-3.55709 0.88656,-0.12058 2.21946,-0.52459 2.96196,-0.8978 1.76004,-0.88465 6.25017,-2.44765 8.62767,-3.00325 1.03272,-0.24134 2.51772,-0.76072 3.3,-1.15418 0.78228,-0.39345 2.77233,-1.18901 4.42233,-1.76791 8.29524,-2.91036 10.84113,-4.55225 12.58479,-8.11617 1.38258,-2.8259 1.92486,-9.68777 0.94998,-12.02097 -0.26424,-0.63241 -0.39948,-1.47228 -0.30057,-1.86638 0.13935,-0.5552 -0.0603,-0.95671 -0.88668,-1.78305 -0.58656,-0.58658 -1.34754,-1.52124 -1.69104,-2.07704 -0.3435,-0.55579 -1.62597,-1.94911 -2.84994,-3.09625 -3.10734,-2.91229 -3.23523,-4.10015 -0.52212,-4.84928 1.22973,-0.33954 5.27124,0.22158 7.82472,1.08639 4.34118,1.47025 9.97554,5.07507 15.65646,10.01685 1.41108,1.22749 3.22479,2.77179 4.03047,3.43179 0.80568,0.66 2.77293,2.3475 4.37166,3.75 1.59873,1.4025 3.78816,3.32292 4.8654,4.26761 1.07724,0.94468 2.84922,2.27601 3.93774,2.95851 2.06229,1.29306 2.42163,1.89301 1.3395,2.23647 -0.4335,0.13758 -0.52374,0.27464 -0.28005,0.42525 0.31482,0.19457 0.5199,0.75209 0.59673,1.62216 0.0126,0.14299 0.29295,0.18938 0.62295,0.10308 0.44505,-0.11638 0.6,-0.009 0.6,0.41501 0,0.6109 0.73326,0.78442 1.06263,0.25147 0.10893,-0.17625 0.37044,-0.2543 0.58116,-0.17345 0.21069,0.0809 0.52317,0.007 0.69438,-0.16426 0.21504,-0.21504 0.51894,-0.16582 0.98292,0.15917 0.48639,0.34068 0.82437,0.38872 1.22529,0.17416 0.43431,-0.23243 0.55362,-0.18948 0.55362,0.19926 0,0.34776 0.17883,0.44878 0.5997,0.33872 0.32985,-0.0862 0.66432,-0.0523 0.74328,0.0755 0.079,0.12777 0.85536,0.24492 1.7253,0.26032 0.86994,0.0154 1.91922,0.1143 2.33172,0.21977 0.4125,0.10548 1.03962,0.21191 1.39362,0.23652 0.354,0.0246 0.90462,0.281 1.22364,0.56975 0.76956,0.6966 1.47618,0.66486 1.66965,-0.075 0.2043,-0.78123 1.22031,-0.77813 2.32305,0.007 0.75123,0.53491 1.05993,0.57421 2.59632,0.33052 1.0374,-0.16454 1.78449,-0.16666 1.84434,-0.005 0.0554,0.14924 0.23001,0.19138 0.38814,0.0937 0.15813,-0.0977 0.45036,-0.0581 0.64938,0.088 0.19902,0.14613 1.20546,0.259 2.2365,0.25082 1.03104,-0.008 1.87479,0.0706 1.875,0.17515 0,0.37605 1.27503,0.5131 1.94262,0.20893 0.4818,-0.21952 0.86901,-0.2105 1.31979,0.0307 0.53958,0.28877 0.63867,0.25883 0.64254,-0.19414 0.003,-0.39159 0.0703,-0.43202 0.249,-0.15039 0.1347,0.21233 0.4692,0.29889 0.74538,0.1929 0.3006,-0.11535 0.50103,-0.0447 0.50103,0.17658 0,0.28451 0.0973,0.28804 0.42579,0.0155 0.33633,-0.27914 0.49197,-0.23958 0.74088,0.18826 0.17328,0.2979 0.3192,0.38553 0.32421,0.19472 0.0102,-0.38847 1.2471,-0.17453 1.53963,0.26631 0.0993,0.14962 0.97677,0.30676 1.95,0.34921 0.97323,0.0425 2.47917,0.26139 3.34653,0.48653 1.30008,0.33745 1.5468,0.50464 1.40487,0.95187 -0.22437,0.70696 1.21955,1.33972 1.85456,0.81271 0.31074,-0.25787 0.51813,-0.25636 0.83436,0.006 0.32124,0.26663 0.44937,0.26357 0.54153,-0.0129 0.17802,-0.53406 4.17927,-0.42206 4.58169,0.12825 0.50538,0.69117 1.57485,0.90048 1.87359,0.36668 0.22203,-0.39674 0.42069,-0.41367 1.29726,-0.11054 0.56931,0.19687 1.17009,0.53632 1.33509,0.75432 0.23424,0.30947 0.55278,0.32603 1.45314,0.0755 1.17837,-0.32787 1.8531,-0.1445 1.12473,0.30566 -0.2226,0.13758 -0.31197,0.40024 -0.1986,0.58369 0.29556,0.47822 1.27659,0.41159 1.47291,-0.10002 0.12702,-0.33103 0.38199,-0.37173 1.07805,-0.17211 0.56298,0.16147 0.98082,0.14961 1.09242,-0.031 0.11136,-0.18014 0.31452,-0.18619 0.52905,-0.0157 0.19158,0.1522 0.99216,0.36992 1.77912,0.48382 0.78693,0.11391 1.3527,0.33343 1.25727,0.48785 -0.0954,0.15441 0.10629,0.28074 0.44829,0.28074 0.34197,0 0.85617,0.12478 1.1427,0.27729 0.2865,0.15251 1.15971,0.43936 1.94046,0.63746 0.78078,0.1981 1.35231,0.46899 1.27011,0.60199 -0.0822,0.13299 0.009,0.33949 0.20181,0.45889 0.23544,0.14551 0.2703,0.0861 0.10569,-0.18026 -0.18651,-0.30176 -0.10746,-0.33924 0.32865,-0.15583 1.79622,0.75545 2.78643,1.03663 3.7242,1.05754 0.5775,0.0129 2.13,0.2968 3.45,0.63094 1.32,0.33413 2.7375,0.68051 3.15,0.76971 1.95021,0.42174 5.06085,1.43213 6.57522,2.13575 1.74192,0.80934 4.86408,2.68034 5.12478,3.0711 0.17448,0.2615 9.14712,6.32101 10.26576,6.93278 4.16073,2.27548 4.93491,2.90165 10.52469,8.51264 3.93531,3.95023 4.61049,4.77489 5.52663,6.75 0.57402,1.2375 1.52058,2.74673 2.10351,3.35384 1.14927,1.19697 1.16442,2.04616 0.0365,2.04616 l -0.66171,0 0.72729,0.78867 c 0.40002,0.43376 1.16604,0.97557 1.70229,1.20402 0.53625,0.22845 0.97551,0.5148 0.97611,0.63634 0,0.274 2.05185,1.07996 4.04889,1.59147 0.825,0.21131 1.77,0.54989 2.1,0.7524 0.33,0.20251 1.01532,0.45454 1.52295,0.56006 1.07175,0.22279 3.76836,2.76595 4.04352,3.81342 0.33825,1.28775 -0.43425,2.50315 -1.87038,2.94272 -2.26296,0.69265 -10.18137,0.16791 -14.19609,-0.94074 -0.66,-0.18226 -2.46645,-0.3052 -4.01436,-0.2732 -2.65665,0.0549 -2.80575,0.0254 -2.66133,-0.5269 0.19344,-0.73972 -0.97917,-1.33377 -2.08491,-1.05624 -0.72942,0.18307 -0.76335,0.14344 -0.56244,-0.65699 l 0.21378,-0.85181 -0.57783,0.71361 c -0.55488,0.68523 -0.57756,1.97125 -0.0288,1.63209 0.14625,-0.0904 0.26589,-0.0214 0.26589,0.15338 0,0.49747 -2.40867,0.3415 -3.86799,-0.25046 -0.99672,-0.40432 -1.19319,-0.58254 -0.80601,-0.73112 0.28161,-0.10807 0.42174,-0.34259 0.31137,-0.52116 -0.12939,-0.20935 -0.45585,-0.085 -0.91902,0.35017 -0.60306,0.56655 -0.71835,0.59425 -0.71835,0.17256 0,-0.30229 -0.23889,-0.50229 -0.6,-0.50229 -0.33,0 -0.6,0.18563 -0.6,0.4125 0,0.24 -0.31365,0.4125 -0.75,0.4125 -0.4125,0 -0.75,-0.12609 -0.75,-0.2802 0,-0.15412 -0.15519,-0.18429 -0.34488,-0.0671 -0.18966,0.11723 -1.3362,0.24287 -2.54784,0.2792 -1.21164,0.0363 -2.37756,0.21092 -2.59092,0.388 -0.21336,0.17707 -1.29441,0.29565 -2.40231,0.26351 -1.1079,-0.0321 -2.01429,0.0203 -2.0142,0.11656 1.8e-4,0.21979 -0.90585,0.27063 -1.49145,0.0837 -0.38877,-0.12411 -0.38877,-0.17436 0,-0.42023 0.35193,-0.22257 0.30963,-0.2802 -0.20841,-0.28387 -0.35748,-0.002 -0.70143,0.14977 -0.76434,0.33843 -0.0845,0.25352 -0.27642,0.25627 -0.73554,0.0106 -0.34167,-0.18285 -0.71775,-0.23596 -0.83571,-0.11802 -0.11799,0.11795 -4.21947,0.23433 -9.11445,0.25863 -10.54542,0.0524 -13.3698,0.21877 -14.32398,0.84397 -0.38766,0.25401 -0.85113,0.46185 -1.0299,0.46185 -0.17877,0 -0.89229,0.27915 -1.58556,0.62033 -4.28877,2.11061 -7.26693,2.68009 -14.76051,2.82245 -3.47483,0.066 -7.24406,0.80791 -9.74999,1.91909 -0.7425,0.32924 -2.0925,0.68862 -3,0.79863 -0.9075,0.11001 -2.325,0.40105 -3.15,0.64676 -1.74504,0.51972 -11.45412,0.78102 -12.9,0.34718 z m 7.95,-1.62363 c 1.2375,0.0106 2.40942,0.12264 2.60427,0.24908 0.19485,0.12644 0.43356,0.10158 0.53049,-0.0553 0.0969,-0.15683 0.64269,-0.20945 1.21278,-0.11693 0.67344,0.10928 1.42566,-0.0164 2.14734,-0.35891 0.84129,-0.39921 1.23738,-0.44808 1.63239,-0.2014 0.39141,0.24445 0.60645,0.22346 0.86172,-0.0841 0.46809,-0.56402 0.25962,-0.63542 -2.98899,-1.02377 -4.09605,-0.48965 -6.83787,-0.58162 -7.1787,-0.24081 -0.19449,0.1945 -0.45669,0.1624 -0.76527,-0.0937 -0.35709,-0.29635 -1.23939,-0.33975 -3.68772,-0.1814 -6.4446,0.41683 -7.86831,0.61782 -7.86831,1.11079 0,0.18121 0.19914,0.18015 0.54117,-0.003 0.32745,-0.17525 0.7125,-0.18233 0.975,-0.0179 0.23859,0.14944 2.1123,0.24794 4.16376,0.21889 2.47845,-0.0351 3.76668,0.0574 3.8394,0.27551 0.0602,0.18058 0.37872,0.25791 0.70782,0.17185 0.32913,-0.0861 0.57666,-0.038 0.55011,0.10684 -0.10323,0.56271 0.0345,0.85965 0.25233,0.54415 0.12483,-0.18076 1.19619,-0.31086 2.47041,-0.3 z m -4.32858,-7.93082 c 0,-0.32999 -0.17355,-0.59999 -0.38571,-0.59999 -0.49542,0 -0.504,0.80226 -0.0108,1.00131 0.20625,0.0832 0.37983,0.16197 0.38571,0.175 0.006,0.013 0.0108,-0.24632 0.0108,-0.57632 z m 38.63705,0.15 c -0.095,-0.2475 -0.44475,-0.45 -0.7773,-0.45 -0.50346,0 -0.54213,0.0753 -0.23118,0.45 0.20541,0.2475 0.55521,0.45 0.77733,0.45 0.23571,0 0.33195,-0.18733 0.23115,-0.45 z m 47.59152,0.035 c 0,-0.0633 -0.3375,-0.17955 -0.75,-0.2584 -0.4125,-0.0789 -0.75,-0.0271 -0.75,0.11503 0,0.14211 0.3375,0.25839 0.75,0.25839 0.4125,0 0.75,-0.0518 0.75,-0.11502 z m -93.59999,-0.31727 c 0,-0.31664 -0.57573,-0.44967 -0.74697,-0.1726 -0.10365,0.16769 0.0219,0.30489 0.27927,0.30489 0.25722,0 0.4677,-0.0595 0.4677,-0.13229 z m 88.49999,-0.14271 c 0,-0.15124 -0.16875,-0.35455 -0.375,-0.45179 -0.20625,-0.0972 -0.004,-0.10591 0.45,-0.0193 0.618,0.11799 0.825,0.0387 0.825,-0.31591 0,-0.26038 -0.12567,-0.39575 -0.27927,-0.30082 -0.1536,0.0949 -0.36408,0.0354 -0.4677,-0.1323 -0.10365,-0.16769 -0.0117,-0.30918 0.20427,-0.31443 0.26082,-0.006 0.21642,-0.14337 -0.1323,-0.40808 -0.28875,-0.21919 -0.525,-0.55239 -0.525,-0.74045 0,-0.18806 -0.135,-0.35881 -0.3,-0.37943 -0.165,-0.0206 -0.46875,-0.0544 -0.675,-0.075 -0.20625,-0.0206 -0.41916,-0.34914 -0.47316,-0.73004 -0.12513,-0.88277 -1.06383,-0.76689 -1.19466,0.14747 -0.0594,0.41494 -0.43788,0.773 -1.05,0.99334 l -0.95718,0.34452 1.30209,0.62465 c 0.71613,0.34356 1.37184,0.80643 1.4571,1.0286 0.15888,0.41404 0.74928,0.58496 0.61815,0.17896 -0.04,-0.12375 0.16251,-0.55879 0.45,-0.96675 0.40752,-0.57834 0.52266,-0.62791 0.52266,-0.225 0,0.28421 -0.11628,0.51675 -0.25839,0.51675 -0.14214,0 -0.19389,0.3375 -0.11505,0.75 0.13209,0.69095 0.97344,1.10149 0.97344,0.475 z m -83.54999,-0.62501 c -0.10197,-0.165 -0.37995,-0.3 -0.6177,-0.3 -0.26112,0 -0.4323,-0.29699 -0.4323,-0.75 0,-0.4125 -0.10752,-0.75 -0.23895,-0.75 -0.53436,0 -0.19392,1.5963 0.38895,1.82372 0.84678,0.3304 1.1145,0.32334 0.9,-0.0237 z m -3.17547,-0.6 c 0.12402,0 0.22548,-0.20307 0.22548,-0.45125 0,-0.45649 0.004,-0.45868 -1.40001,0.72085 -0.0825,0.0693 0.0973,0.037 0.39954,-0.0718 0.30225,-0.10878 0.651,-0.19779 0.77499,-0.19779 z m 10.48719,-0.50759 c -0.23454,-0.28917 -0.25926,-0.41616 -0.0575,-0.29511 0.19485,0.11687 0.4398,0.0741 0.54435,-0.0951 0.24195,-0.39148 -0.11586,-1.55785 -0.42021,-1.36976 -0.12564,0.0776 -0.22842,-0.0554 -0.22842,-0.29564 0,-0.54775 0.0489,-0.54506 0.62859,0.0346 0.42855,0.42858 0.47142,0.42858 0.47142,0 0,-0.25928 -0.135,-0.47142 -0.3,-0.47142 -0.165,0 -0.3,-0.14297 -0.3,-0.31771 0,-0.17474 0.135,-0.23427 0.3,-0.13229 0.165,0.10197 0.3,0.0424 0.3,-0.1323 0,-0.40211 -0.80328,-0.4169 -1.04901,-0.0193 -0.10143,0.16411 -0.45123,0.44119 -0.77736,0.61573 -0.53898,0.28846 -0.57444,0.24358 -0.38955,-0.49313 0.14361,-0.57218 0.10236,-0.74801 -0.14034,-0.59803 -0.18906,0.11685 -0.34374,0.79873 -0.34374,1.51529 0,1.14178 0.12054,1.38002 0.975,1.92724 1.18845,0.7611 1.31811,0.78202 0.78672,0.12693 z m -10.96092,-0.76741 c -0.0749,-0.12375 -0.2712,-0.225 -0.4362,-0.225 -0.165,0 -0.21657,0.135 -0.1146,0.3 0.10197,0.165 0.0345,0.3 -0.15,0.3 -0.18447,0 -0.25281,0.13365 -0.15186,0.29701 0.11556,0.18696 0.33276,0.15917 0.58623,-0.075 0.22146,-0.20461 0.34137,-0.47326 0.26643,-0.59701 z m 104.39309,0.7811 c 0.29805,-0.29805 -2.47122,-1.59724 -3.83298,-1.79823 -0.666,-0.0983 -1.50993,-0.36528 -1.87536,-0.5933 -0.36546,-0.22801 -1.10796,-0.41887 -1.65,-0.42411 -0.54207,-0.005 -1.24761,-0.20775 -1.56789,-0.45 -0.79194,-0.599 -1.5777,-0.60502 -1.08246,-0.008 0.19725,0.23769 0.55128,0.35824 0.78672,0.2679 0.26133,-0.10028 0.42807,0.0235 0.42807,0.31783 0,0.30949 0.25896,0.4821 0.7233,0.4821 0.39783,0 1.48932,0.29313 2.42553,0.6514 1.44003,0.55107 1.74378,0.58573 1.97211,0.225 0.22752,-0.35951 0.2706,-0.35377 0.27447,0.0366 0.007,0.65949 2.92257,1.76902 3.39849,1.2931 z m -107.71457,-0.28544 c 0.27045,-0.27042 -0.10194,-1.0421 -0.41076,-0.85124 -0.14772,0.0913 -0.26856,0.36052 -0.26856,0.59828 0,0.44178 0.35742,0.57487 0.67932,0.25296 z m 10.27452,-0.11446 c -0.0999,-0.1616 -0.0547,-0.53285 0.10035,-0.825 0.20061,-0.37802 0.14799,-0.65525 -0.18249,-0.96134 -0.4134,-0.38288 -0.44415,-0.33344 -0.27996,0.45 0.10143,0.48408 0.11106,0.71139 0.0213,0.50514 -0.18453,-0.42429 -1.0131,-0.51555 -1.0131,-0.1116 0,0.14488 0.30375,0.4753 0.675,0.73427 0.8061,0.56231 0.9189,0.59696 0.67884,0.20853 z m -164.5227,-0.69506 c -0.38505,-0.38505 -0.77553,-0.0875 -0.49044,0.37379 0.1104,0.17867 0.33819,0.23991 0.50616,0.1361 0.2049,-0.12664 0.19974,-0.29444 -0.0156,-0.50989 z m 170.66886,0.0889 c 0,-0.165 -0.21048,-0.3 -0.4677,-0.3 -0.25725,0 -0.38427,0.135 -0.2823,0.3 0.10197,0.165 0.31245,0.3 0.4677,0.3 0.15528,0 0.2823,-0.135 0.2823,-0.3 z m -132.3,-0.11327 c 0,-0.0623 -0.20559,-0.28389 -0.45687,-0.49243 -0.38199,-0.31704 -0.42591,-0.29848 -0.2679,0.11326 0.16137,0.42052 0.72477,0.71527 0.72477,0.37917 z m 201.10808,-0.33573 c 0.10044,-0.26173 -0.0597,-0.33698 -0.50553,-0.23754 -0.46497,0.10371 -0.36402,-0.0392 0.35106,-0.49694 0.78357,-0.50164 1.09599,-0.56583 1.425,-0.29278 0.33216,0.27567 0.42138,0.24751 0.42138,-0.13299 0,-0.26809 -0.46683,-0.67775 -1.05,-0.92142 -0.5775,-0.2413 -1.05207,-0.61436 -1.05459,-0.82903 -0.004,-0.30499 -0.0615,-0.30047 -0.26496,0.0207 -0.21063,0.33249 -0.32796,0.30384 -0.61434,-0.15 -0.30966,-0.49074 -0.33192,-0.4569 -0.17778,0.27017 0.0969,0.45713 0.0305,1.10348 -0.14769,1.43633 -0.17814,0.33284 -0.25041,0.83633 -0.16059,1.11884 0.19218,0.60458 1.56483,0.77031 1.77804,0.21468 z m -271.308077,-0.451 c 0,-0.165 -0.14297,-0.3 -0.3177,-0.3 -0.17474,0 -0.23427,0.135 -0.1323,0.3 0.10198,0.165 0.24495,0.3 0.31771,0.3 0.0728,0 0.13229,-0.135 0.13229,-0.3 z m 21.299997,0 c 0,-0.165 -0.0595,-0.3 -0.1323,-0.3 -0.0728,0 -0.21573,0.135 -0.3177,0.3 -0.10197,0.165 -0.0425,0.3 0.1323,0.3 0.17472,0 0.3177,-0.135 0.3177,-0.3 z m 176.37183,-0.48396 c -0.43593,-0.52524 -0.71427,-0.31994 -0.46101,0.34003 0.10173,0.26507 0.32745,0.39388 0.50163,0.28623 0.21747,-0.13441 0.20475,-0.33059 -0.0406,-0.62626 z m 4.82817,0.18396 c 0,-0.165 -0.0595,-0.3 -0.1323,-0.3 -0.0728,0 -0.21573,0.135 -0.3177,0.3 -0.10197,0.165 -0.0425,0.3 0.1323,0.3 0.17472,0 0.3177,-0.135 0.3177,-0.3 z m 66.33722,-0.38001 c -0.29628,-0.29407 -0.33075,-0.25962 -0.16794,0.16794 0.11265,0.29587 0.28041,0.46237 0.37278,0.37 0.0924,-0.0924 1.8e-4,-0.33443 -0.20484,-0.53794 z m -1.96224,-0.21999 c 0.23376,0 0.42501,-0.135 0.42501,-0.3 0,-0.165 -0.26202,-0.3 -0.5823,-0.3 -0.69237,0 -1.04085,0.45805 -0.73047,0.96022 0.17322,0.2803 0.24927,0.2803 0.34269,0 0.0661,-0.19812 0.31134,-0.36022 0.54507,-0.36022 z m -61.99427,-0.6 c 0.21762,0 0.30879,0.19463 0.21081,0.45 -0.095,0.2475 -0.0419,0.45 0.1179,0.45 0.15981,0 0.29058,-0.135 0.29058,-0.3 0,-0.165 0.21693,-0.3 0.4821,-0.3 0.30528,0 0.41877,-0.16505 0.30942,-0.45 -0.095,-0.2475 -0.053,-0.45 0.0934,-0.45 0.14634,0 0.50304,-0.0909 0.79266,-0.20209 0.41784,-0.16034 0.48345,-0.0896 0.31767,0.34243 -0.16716,0.43563 -0.12705,0.47656 0.20052,0.20469 0.22521,-0.1869 0.52104,-0.23975 0.65742,-0.11743 0.13635,0.12232 -0.0102,-0.13195 -0.32598,-0.56503 -0.31566,-0.43309 -0.7434,-0.72239 -0.95055,-0.64291 -0.20715,0.0795 -0.37662,-0.005 -0.37662,-0.18757 0,-0.53155 -1.14174,-0.38291 -1.46259,0.19041 -0.16083,0.28737 -0.39282,0.42208 -0.51555,0.29934 -0.37221,-0.37219 -1.32186,0.72065 -1.32186,1.52115 0,0.70758 0.031,0.72192 0.54861,0.2535 0.30174,-0.27307 0.7212,-0.49649 0.9321,-0.49649 z m 71.34965,0.3 c -0.36009,-0.57661 -0.83037,-0.80772 -0.83037,-0.40808 0,0.1659 0.90999,0.97177 1.12755,0.99854 0.0426,0.005 -0.0911,-0.26046 -0.29718,-0.59046 z m -248.93036,-0.15 c 0,-0.2475 -0.135,-0.45 -0.3,-0.45 -0.165,0 -0.3,0.2025 -0.3,0.45 0,0.2475 0.135,0.45 0.3,0.45 0.165,0 0.3,-0.2025 0.3,-0.45 z m 4.08126,-0.66876 c -0.30495,-0.30495 -0.55659,0.15417 -0.30639,0.55902 0.18903,0.30582 0.25968,0.30606 0.36132,0.001 0.0694,-0.20844 0.0448,-0.46054 -0.0549,-0.56023 z M 284.46736,203.964 c 0.22755,-0.15402 0.22008,-0.22179 -0.0249,-0.225 -0.81552,-0.0107 -1.22796,0.35429 -1.07244,0.94898 0.15393,0.5887 0.17376,0.59107 0.4662,0.0556 0.16797,-0.30756 0.45195,-0.65839 0.63105,-0.77961 z m 15.97451,0.89541 c 0.38052,-0.60911 0.38223,-1.17042 0.005,-1.57696 -0.28434,-0.30628 -0.5742,-0.26872 -1.47867,0.1916 -0.61874,0.3149 -1.12499,0.43223 -1.12499,0.26074 0,-0.18748 -0.31689,-0.23228 -0.79476,-0.11235 -0.55929,0.14038 -0.73179,0.0976 -0.58227,-0.14428 0.11685,-0.18907 0.0574,-0.34375 -0.13218,-0.34375 -0.18954,0 -0.59802,-0.30375 -0.90771,-0.675 -0.35829,-0.42947 -0.56676,-0.52465 -0.57309,-0.26166 -0.007,0.30859 -0.29511,0.36802 -1.13499,0.23451 -0.61875,-0.0984 -1.32297,-0.0558 -1.56495,0.0945 -0.27087,0.16828 -0.57885,0.15804 -0.80139,-0.0266 -0.26637,-0.22109 -0.32133,-0.14657 -0.20892,0.2833 0.0839,0.32081 0.006,0.67399 -0.17361,0.78485 -0.17937,0.11086 -0.32613,0.33656 -0.32613,0.50156 0,0.165 0.135,0.21657 0.3,0.11459 0.165,-0.10198 0.3,-0.0518 0.3,0.11143 0,0.16326 -0.30375,0.34328 -0.675,0.40004 -0.37125,0.0568 1.14009,0.13748 3.35853,0.17939 2.21844,0.0419 4.09719,0.13985 4.17498,0.21766 0.30264,0.30262 2.11859,0.12143 2.34035,-0.23352 z m 49.65612,-0.29001 c -0.21525,-0.21526 -0.35499,-0.23298 -0.35499,-0.045 0,0.40044 0.35478,0.75522 0.555,0.555 0.0853,-0.0852 -0.005,-0.31474 -0.20001,-0.51 z m 13.36998,-0.11004 c -0.2859,-0.28588 -0.85905,0.17718 -0.64599,0.52191 0.12663,0.2049 0.29442,0.19973 0.50988,-0.0157 0.17664,-0.17662 0.23787,-0.4044 0.13611,-0.50618 z m -98.62496,-0.55725 c 0,-0.40276 -0.135,-0.81573 -0.3,-0.9177 -0.165,-0.10198 -0.3,0.014 -0.3,0.25776 0,0.24374 -0.0819,0.6567 -0.1821,0.9177 -0.11949,0.3114 -0.0162,0.47454 0.3,0.47454 0.31113,0 0.4821,-0.2597 0.4821,-0.7323 z m 24,-1.2427 c 0,-0.52978 -0.64584,-0.43752 -0.83124,0.11875 -0.0653,0.19593 0.095,0.35625 0.35625,0.35625 0.26124,0 0.47499,-0.21375 0.47499,-0.475 z m -24,-0.575 c 0,-0.2475 -0.0531,-0.45 -0.1179,-0.45 -0.0649,0 -0.1956,0.2025 -0.29058,0.45 -0.095,0.2475 -0.0419,0.45 0.1179,0.45 0.15981,0 0.29058,-0.2025 0.29058,-0.45 z M 182.5621,201.0917 c -0.003,-0.44401 -0.0604,-0.65288 -0.1269,-0.46414 -0.0665,0.18873 -0.4056,0.26872 -0.75348,0.17774 -0.49029,-0.12821 -0.57243,-0.0704 -0.36522,0.25685 0.14703,0.23224 0.28626,0.52351 0.30942,0.64726 0.0231,0.12375 0.059,0.28826 0.0796,0.36558 0.0207,0.0773 0.22314,0.0694 0.45,-0.0177 0.22689,-0.0871 0.40983,-0.52157 0.40659,-0.96558 z m -26.88033,-0.73854 c -0.49947,-0.49946 -0.78234,-0.003 -0.31749,0.55689 0.28116,0.33877 0.44376,0.37923 0.5265,0.131 0.0659,-0.19753 -0.0282,-0.50708 -0.20901,-0.68789 z m 23.51124,0.68125 c -0.10197,-0.165 -0.3204,-0.3 -0.4854,-0.3 -0.165,0 -0.21657,0.135 -0.1146,0.3 0.10197,0.165 0.3204,0.3 0.4854,0.3 0.165,0 0.21657,-0.135 0.1146,-0.3 z m -63.91281,-0.92073 c -0.28212,-0.45647 -0.73284,-0.31704 -0.54633,0.169 0.0946,0.24656 0.29508,0.37223 0.44547,0.27927 0.15039,-0.093 0.19578,-0.29467 0.10086,-0.44827 z m 64.51281,0.32073 c 0.10197,-0.165 0.0424,-0.3 -0.1323,-0.3 -0.17472,0 -0.3177,0.135 -0.3177,0.3 0,0.165 0.0595,0.3 0.1323,0.3 0.0727,0 0.21573,-0.135 0.3177,-0.3 z m -37.65,-0.9 c 0,-0.165 -0.135,-0.3 -0.3,-0.3 -0.165,0 -0.3,0.135 -0.3,0.3 0,0.165 0.135,0.3 0.3,0.3 0.165,0 0.3,-0.135 0.3,-0.3 z m 40.245,-1.05 c 0,-0.15675 -0.14511,-0.33338 -0.3225,-0.3925 -0.17736,-0.0591 -0.3225,0.11749 -0.3225,0.3925 0,0.275 0.14514,0.45162 0.3225,0.39249 0.17739,-0.0591 0.3225,-0.23574 0.3225,-0.39249 z m 73.605,-0.15 c 0.10197,-0.165 0.0424,-0.3 -0.1323,-0.3 -0.17472,0 -0.3177,0.135 -0.3177,0.3 0,0.165 0.0595,0.3 0.1323,0.3 0.0727,0 0.21573,-0.135 0.3177,-0.3 z m -136.67817,-1.08396 c -0.43593,-0.52524 -0.71427,-0.31994 -0.46101,0.34003 0.10173,0.26507 0.32745,0.39388 0.50163,0.28623 0.21747,-0.13441 0.20475,-0.33059 -0.0406,-0.62626 z m 90.02817,0.65166 c 0,-0.0728 -0.135,-0.21573 -0.3,-0.3177 -0.165,-0.10198 -0.3,-0.0425 -0.3,0.13229 0,0.17474 0.135,0.31771 0.3,0.31771 0.165,0 0.3,-0.0595 0.3,-0.1323 z m -83.60226,-1.47249 c -0.29775,-0.35487 -0.56061,-0.68553 -0.58413,-0.73482 -0.1227,-0.25683 -1.62363,0.35951 -1.53357,0.62974 0.126,0.37802 2.06274,1.09238 2.41449,0.89059 0.13452,-0.0772 0,-0.43064 -0.29679,-0.78551 z m 94.10226,0.59152 c 0,-0.0623 -0.2025,-0.28133 -0.45,-0.48673 -0.36855,-0.30588 -0.45,-0.28538 -0.45,0.11326 0,0.26771 0.2025,0.48674 0.45,0.48674 0.2475,0 0.45,-0.051 0.45,-0.11327 z m -2.19507,-1.44298 c -0.0958,-0.23932 -0.16686,-0.16824 -0.18126,0.18125 -0.0129,0.31624 0.0579,0.49343 0.15759,0.39375 0.0997,-0.0997 0.11034,-0.35844 0.0237,-0.575 z m -4.40493,-0.84375 c 0,-0.165 -0.21048,-0.3 -0.4677,-0.3 -0.25725,0 -0.38427,0.135 -0.2823,0.3 0.10197,0.165 0.31245,0.3 0.4677,0.3 0.15528,0 0.2823,-0.135 0.2823,-0.3 z m 25.35,0 c -0.10197,-0.165 -0.31245,-0.3 -0.4677,-0.3 -0.15528,0 -0.2823,0.135 -0.2823,0.3 0,0.165 0.21048,0.3 0.4677,0.3 0.25725,0 0.38427,-0.135 0.2823,-0.3 z m -24.3,-0.3 c 0.10197,-0.165 0.0424,-0.3 -0.1323,-0.3 -0.17472,0 -0.3177,0.135 -0.3177,0.3 0,0.165 0.0595,0.3 0.1323,0.3 0.0727,0 0.21573,-0.135 0.3177,-0.3 z m 40.65,-0.1323 c 0,-0.0728 -0.135,-0.21573 -0.3,-0.3177 -0.165,-0.10198 -0.3,-0.0425 -0.3,0.13229 0,0.17474 0.135,0.31771 0.3,0.31771 0.165,0 0.3,-0.0595 0.3,-0.1323 z m -18.15,-0.4677 c -0.10197,-0.165 -0.3204,-0.3 -0.4854,-0.3 -0.165,0 -0.21657,0.135 -0.1146,0.3 0.10197,0.165 0.3204,0.3 0.4854,0.3 0.165,0 0.21657,-0.135 0.1146,-0.3 z m 10.65,0 c 0,-0.165 -0.135,-0.3 -0.3,-0.3 -0.165,0 -0.3,0.135 -0.3,0.3 0,0.165 0.135,0.3 0.3,0.3 0.165,0 0.3,-0.135 0.3,-0.3 z m 12.15,-0.3 c -0.10197,-0.165 -0.3204,-0.3 -0.4854,-0.3 -0.165,0 -0.21657,0.135 -0.1146,0.3 0.10197,0.165 0.3204,0.3 0.4854,0.3 0.165,0 0.21657,-0.135 0.1146,-0.3 z m 4.35,-0.94444 c 0,-0.22657 -0.1332,-0.21848 -0.42774,0.0259 -0.23526,0.19525 -0.6105,0.31303 -0.83388,0.26173 -0.22335,-0.0513 -0.43587,0.008 -0.47226,0.13174 -0.20403,0.69419 0.021,0.79538 0.83388,0.375 0.495,-0.25597 0.9,-0.61347 0.9,-0.79444 z m -45.39507,0.28819 c -0.0958,-0.23932 -0.16686,-0.16824 -0.18126,0.18125 -0.0129,0.31624 0.0579,0.49343 0.15759,0.39375 0.0997,-0.0997 0.11034,-0.35844 0.0237,-0.575 z m -0.17586,-1.12365 c 0.23613,0.35956 0.35697,0.33197 0.73848,-0.16864 0.36318,-0.47656 0.50724,-0.51589 0.7068,-0.19298 0.16101,0.26053 0.31926,0.29455 0.4425,0.0951 0.10554,-0.17073 -0.0801,-0.39674 -0.4125,-0.50224 -0.3324,-0.1055 -0.60435,-0.33425 -0.60435,-0.50833 0,-0.19672 -0.17034,-0.17516 -0.45,0.057 -0.36855,0.30587 -0.45,0.28537 -0.45,-0.11327 0,-0.2677 -0.23625,-0.48467 -0.525,-0.48214 -0.8517,0.007 -1.3098,0.44779 -1.11252,1.06939 0.16734,0.52727 0.15426,0.53159 -0.15474,0.051 -0.42312,-0.65809 -1.20774,-0.68597 -1.20774,-0.0429 0,0.32981 0.16053,0.4205 0.50817,0.28709 0.44952,-0.17249 0.4449,-0.12507 -0.0401,0.41083 -0.30156,0.33321 -0.6861,0.52066 -0.85455,0.41656 -0.17544,-0.10843 -0.2148,-0.0413 -0.0922,0.15707 0.12813,0.2073 0.0192,0.34636 -0.27135,0.34636 -0.26697,0 -0.41472,0.11435 -0.32835,0.25412 0.0864,0.13977 0.98235,-0.15493 1.99107,-0.65489 1.53438,-0.76052 1.88013,-0.83879 2.11635,-0.47913 z m -1.52907,1.3476 c 0,-0.0728 -0.135,-0.21573 -0.3,-0.3177 -0.165,-0.10198 -0.3,-0.0425 -0.3,0.13229 0,0.17474 0.135,0.31771 0.3,0.31771 0.165,0 0.3,-0.0595 0.3,-0.1323 z m -15.9,-2.28541 c 0,-0.15526 -0.135,-0.28229 -0.3,-0.28229 -0.165,0 -0.3,0.21046 -0.3,0.4677 0,0.25724 0.135,0.38427 0.3,0.2823 0.165,-0.10198 0.3,-0.31245 0.3,-0.46771 z m 19.46583,-0.35729 c -0.0332,-0.20625 0.0414,-0.60779 0.16599,-0.89229 0.13644,-0.31167 0.0658,-0.67624 -0.17769,-0.91715 -0.43176,-0.4272 -2.65413,-0.55746 -2.65413,-0.15556 0,0.132 0.135,0.24 0.3,0.24 0.165,0 0.3,0.2025 0.3,0.45 0,0.2475 0.135,0.45 0.3,0.45 0.165,0 0.57,0.27 0.9,0.6 0.69057,0.69055 0.95184,0.75845 0.86583,0.225 z m -12.774,-0.71685 c 0.31947,-0.31944 -0.0809,-0.69351 -0.54972,-0.51362 -0.24126,0.0926 -0.36396,0.28919 -0.27267,0.4369 0.19446,0.31465 0.55119,0.34792 0.82239,0.0767 z m 77.30817,0.0596 c 0,-0.0728 -0.135,-0.21573 -0.3,-0.3177 -0.165,-0.10198 -0.3,-0.0425 -0.3,0.13229 0,0.17474 0.135,0.31771 0.3,0.31771 0.165,0 0.3,-0.0595 0.3,-0.1323 z m -71.88552,-0.93329 c 0.10245,-0.26697 0.0521,-0.38739 -0.11793,-0.28229 -0.16311,0.10081 -0.29655,0.31032 -0.29655,0.46558 0,0.43153 0.21504,0.33644 0.41448,-0.18329 z m -56.51448,-0.11671 c 0,-0.35396 -0.58512,-0.7326 -0.80001,-0.51771 -0.21489,0.2149 0.16377,0.80001 0.51771,0.80001 0.15528,0 0.2823,-0.12704 0.2823,-0.2823 z m 7.38126,-9.83646 c -0.30495,-0.30495 -0.55659,0.15417 -0.30639,0.55902 0.18903,0.30582 0.25968,0.30606 0.36132,0.001 0.0695,-0.20844 0.0448,-0.46054 -0.0549,-0.56023 z M 324.543,167.46655 c 0,-0.36547 -0.88308,-0.67797 -1.2591,-0.44557 -0.19131,0.11823 -0.15327,0.2846 0.10206,0.44638 0.53325,0.33788 1.15704,0.33745 1.15704,-9e-4 z m -12.9,-1.9998 c 0,-0.25724 -0.135,-0.38427 -0.3,-0.28229 -0.165,0.10197 -0.3,0.31244 -0.3,0.4677 0,0.15526 0.135,0.2823 0.3,0.2823 0.165,0 0.3,-0.21047 0.3,-0.46771 z m -11.925,-3.03098 c -0.20625,-0.0832 -0.54375,-0.0832 -0.75,0 -0.20625,0.0832 -0.0375,0.15132 0.375,0.15132 0.4125,0 0.58125,-0.0681 0.375,-0.15132 z m -11.62499,-2.80136 c -0.10197,-0.165 -0.5229,-0.3 -0.9354,-0.3 -0.42363,0 -0.66933,0.13055 -0.5646,0.3 0.10197,0.165 0.5229,0.3 0.9354,0.3 0.42363,0 0.66933,-0.13056 0.5646,-0.3 z m -15.15,-2.2323 c 0,-0.0728 -0.135,-0.21573 -0.3,-0.3177 -0.165,-0.10198 -0.3,-0.0425 -0.3,0.13229 0,0.17474 0.135,0.31771 0.3,0.31771 0.165,0 0.3,-0.0595 0.3,-0.1323 z m -16.575,58.4093 c -1.83399,-0.0807 -2.325,-0.19842 -2.325,-0.55764 0,-0.34059 -0.234,-0.41851 -0.92829,-0.30909 -0.51054,0.0805 -0.84777,0.0658 -0.74934,-0.0326 0.0984,-0.0984 -0.0558,-0.43834 -0.34272,-0.75539 -0.4959,-0.54794 -0.49515,-0.59584 0.0153,-0.96904 0.39693,-0.29026 0.435,-0.4289 0.14601,-0.53183 -0.21498,-0.0766 -0.2874,-0.24997 -0.16089,-0.3853 0.12648,-0.13534 0.38307,-0.093 0.57015,0.0941 0.25353,0.25355 0.60534,0.22936 1.38165,-0.095 1.3032,-0.54452 1.84392,-0.54784 2.44458,-0.015 0.26049,0.23107 0.9939,0.63506 1.62984,0.89774 1.05996,0.43785 1.14084,0.43755 0.97161,-0.004 -0.13488,-0.35148 -0.0559,-0.43171 0.29328,-0.29774 0.26289,0.10088 0.62772,0.18341 0.81075,0.18341 0.18306,0 0.0708,0.20445 -0.24954,0.45434 -0.32028,0.24989 -0.44733,0.4364 -0.28233,0.41447 0.64596,-0.0858 0.88101,0.0524 0.49986,0.29403 -0.3222,0.20423 -0.30759,0.28919 0.075,0.43599 0.33006,0.12666 0.47514,0.01 0.47514,-0.38371 0,-0.94848 0.3366,-1.51512 0.9,-1.51512 0.29469,0 0.61776,0.21354 0.7179,0.47453 0.25458,0.66338 0.26625,0.6522 -0.58419,0.55884 -0.62016,-0.0681 -0.70104,-0.005 -0.42417,0.32811 0.18816,0.22673 0.23709,0.5869 0.10869,0.80038 -0.16929,0.28154 -0.092,0.27341 0.28143,-0.0296 0.28317,-0.22977 0.60159,-0.33102 0.70758,-0.225 0.10602,0.10601 0.051,0.19275 -0.12225,0.19275 -0.17325,0 -0.38562,0.27 -0.4719,0.6 -0.16905,0.64634 0.18045,0.62189 -5.38809,0.377 z m -2.025,-2.07266 c 0,-0.48269 -0.0427,-0.48733 -1.03047,-0.11177 -0.54759,0.20819 -0.76953,0.19377 -0.76953,-0.05 0,-0.18842 -0.081,-0.26156 -0.18003,-0.16254 -0.36921,0.36922 0.22008,0.7787 1.08525,0.7541 0.53787,-0.0153 0.89478,-0.18673 0.89478,-0.42979 z m -35.4,1.6732 c 0,-0.15265 -0.20865,-0.27755 -0.46365,-0.27755 -0.67557,0 -1.81839,-1.2629 -1.69671,-1.875 0.0574,-0.28875 0.22947,-0.525 0.38235,-0.525 0.15291,0 0.24426,0.15974 0.20301,0.35498 -0.0988,0.4675 1.38684,1.19839 1.97619,0.97225 0.2535,-0.0973 0.38751,-0.36821 0.29778,-0.60205 -0.0897,-0.23385 -0.006,-0.42518 0.18663,-0.42518 0.19239,0 0.26637,0.135 0.1644,0.3 -0.10197,0.165 -0.0377,0.3 0.14286,0.3 0.23157,0 0.23679,0.17091 0.0177,0.58028 -0.78483,1.46647 0.21726,1.68159 1.48944,0.31972 0.94299,-1.00946 1.2,-1.10584 1.2,-0.45 0,0.2475 -0.19827,0.45 -0.44058,0.45 -0.27942,0 -0.37365,0.17445 -0.25761,0.47687 0.11862,0.30909 0.42876,0.42989 0.88152,0.34334 0.38418,-0.0734 0.63012,-0.0229 0.54654,0.11237 -0.21045,0.34051 -4.62987,0.28799 -4.62987,-0.055 z m -2.45625,-0.18248 c 0.21657,-0.0867 0.47532,-0.076 0.57501,0.0237 0.0997,0.0997 -0.0775,0.17059 -0.39375,0.15757 -0.3495,-0.0144 -0.42057,-0.0855 -0.18126,-0.18125 z m 17.29392,-0.41502 c -0.10878,-0.17598 -0.13341,-0.3843 -0.0548,-0.46294 0.0787,-0.0786 0.22293,0.0653 0.32064,0.31996 0.20286,0.52863 0.03,0.62161 -0.26586,0.14298 z m 16.21536,0.0151 c 0.10362,-0.1677 0.3141,-0.22723 0.4677,-0.1323 0.4161,0.25717 0.33852,0.43719 -0.18843,0.43719 -0.25725,0 -0.38292,-0.1372 -0.27927,-0.30489 z m -21.50928,-0.20004 c 0.21657,-0.0867 0.47532,-0.076 0.57501,0.0237 0.0997,0.0997 -0.0775,0.17059 -0.39375,0.15756 -0.3495,-0.0144 -0.42057,-0.0855 -0.18126,-0.18125 z m 6.3,0 c 0.21657,-0.0867 0.47532,-0.076 0.57501,0.0237 0.0997,0.0997 -0.0775,0.17059 -0.39375,0.15756 -0.3495,-0.0144 -0.42057,-0.0855 -0.18126,-0.18125 z m -13.89375,-0.69507 c -0.10197,-0.165 -0.0424,-0.3 0.1323,-0.3 0.17472,0 0.3177,0.135 0.3177,0.3 0,0.165 -0.0595,0.3 -0.1323,0.3 -0.0727,0 -0.21573,-0.135 -0.3177,-0.3 z m 23.25,-0.15 c 0.40137,-0.48363 1.8,-0.62512 1.8,-0.18209 0,0.33063 -0.7446,0.63209 -1.56126,0.63209 -0.51018,0 -0.54996,-0.075 -0.23874,-0.45 z m -26.73822,-1.39138 c -1.24854,-1.35243 -1.27161,-1.68362 -0.11724,-1.68362 0.54138,0 0.75546,0.16103 0.75546,0.56822 0,0.45629 0.14772,0.53114 0.75,0.37998 0.61521,-0.15441 0.75,-0.079 0.75,0.41974 0,0.85189 -0.30714,1.55706 -0.67818,1.55706 -0.17268,0 -0.82971,-0.55862 -1.46004,-1.24138 z m 6.56904,1.0722 c -0.0931,-0.0931 -0.58806,-0.1811 -1.10001,-0.19566 -0.57837,-0.0164 -0.93081,-0.18313 -0.93081,-0.44022 0,-1.0011 2.21859,-0.82102 2.48607,0.20178 0.14976,0.57264 -0.089,0.80032 -0.45525,0.4341 z m 5.95623,-0.29241 c -0.28947,-0.75441 -0.20409,-0.94907 0.14958,-0.34091 0.17511,0.30113 0.25518,0.6107 0.17793,0.68794 -0.0772,0.0772 -0.22461,-0.0789 -0.32751,-0.34703 z m -17.58705,-0.13841 c 0,-0.165 0.14298,-0.3 0.3177,-0.3 0.17475,0 0.23427,0.135 0.1323,0.3 -0.10197,0.165 -0.24495,0.3 -0.3177,0.3 -0.0728,0 -0.1323,-0.135 -0.1323,-0.3 z m 2.59152,-0.45 c -0.095,-0.2475 -0.0564,-0.45 0.0858,-0.45 0.14217,0 0.33618,0.2025 0.43116,0.45 0.095,0.2475 0.0564,0.45 -0.0858,0.45 -0.14217,0 -0.33618,-0.2025 -0.43116,-0.45 z m 13.17129,0.17073 c -0.20493,-0.33156 0.26832,-0.68959 0.54534,-0.41257 0.28524,0.28524 0.23208,0.69184 -0.0904,0.69184 -0.15525,0 -0.35997,-0.12567 -0.45489,-0.27927 z m 3.49179,-0.47073 c 0.37227,-0.81707 0.49203,-0.86969 1.10094,-0.48381 0.31779,0.20136 0.25461,0.36272 -0.29175,0.7454 -0.97641,0.68392 -1.20618,0.60965 -0.80919,-0.26159 z m -22.99236,-0.075 c -0.28017,-0.7326 0.1911,-1.20684 1.38981,-1.39852 1.32897,-0.21251 2.04795,0.14998 2.04795,1.03249 0,0.43651 -0.3045,0.5545 -1.64718,0.63827 -1.12167,0.07 -1.6929,-0.0169 -1.79058,-0.27224 z m 51.15717,-0.20159 c -0.23859,-0.2875 -0.2493,-0.48132 -0.034,-0.6144 0.17301,-0.10693 0.31458,-0.0435 0.31458,0.14099 0,0.18448 0.135,0.25198 0.3,0.15 0.165,-0.10197 0.3,-0.0504 0.3,0.1146 0,0.52215 -0.51849,0.6451 -0.88059,0.20881 z m -59.11941,-0.0902 c -0.2475,-0.0932 -0.7875,-0.2945 -1.2,-0.44742 -0.69093,-0.25612 -0.70689,-0.30214 -0.20259,-0.58437 0.74505,-0.41696 3.14907,-0.42498 3.56217,-0.0119 0.77346,0.77345 -0.82512,1.54599 -2.15958,1.04366 z m 25.2,-0.0832 c 0,-0.165 0.135,-0.3 0.3,-0.3 0.165,0 0.3,0.135 0.3,0.3 0,0.165 -0.135,0.3 -0.3,0.3 -0.165,0 -0.3,-0.135 -0.3,-0.3 z m -22.2,-0.86501 c 0,-0.32104 1.20297,-0.66856 1.55697,-0.44978 0.13905,0.0859 0.17514,0.28192 0.0802,0.43552 -0.21966,0.35542 -1.63719,0.36777 -1.63719,0.0142 z m 45.3,-0.48499 c 0,-0.29999 0.3,-0.44999 0.9,-0.44999 0.6,0 0.9,0.15 0.9,0.44999 0,0.3 -0.3,0.45 -0.9,0.45 -0.6,0 -0.9,-0.15 -0.9,-0.45 z m -13.69647,-0.31293 c -0.23382,-0.60928 -0.14283,-0.67063 1.09647,-0.7395 1.71759,-0.0954 2.1,-0.0194 2.1,0.41745 0,0.81132 -2.89674,1.10316 -3.19647,0.32205 z m -60.28203,-0.0667 c -0.18069,-0.12122 -0.34605,-0.74576 -0.36747,-1.38787 -0.0491,-1.47092 -0.25326,-1.68661 -0.63822,-0.67414 -0.30858,0.81167 -0.76146,0.97537 -1.46478,0.52949 -0.30438,-0.19296 -0.20475,-0.39439 0.4203,-0.84971 0.53991,-0.39331 0.70152,-0.66954 0.47397,-0.81018 -0.18993,-0.11737 -0.3453,-0.0704 -0.3453,0.1043 0,0.17474 -0.2025,0.31771 -0.45,0.31771 -0.2475,0 -0.45,-0.14297 -0.45,-0.31771 0,-0.17474 0.16875,-0.22243 0.375,-0.10599 0.3,0.16937 0.3,0.13092 0,-0.19229 -0.20625,-0.22221 -0.375,-0.62451 -0.375,-0.89401 0,-0.26951 0.16875,-0.49643 0.375,-0.50427 0.20625,-0.008 0.63339,-0.12079 0.9492,-0.25098 0.3342,-0.13778 0.50568,-0.12136 0.41025,0.0393 -0.25038,0.42134 0.31899,1.69017 0.663,1.47755 0.16641,-0.10284 0.30255,0.0392 0.30255,0.31572 0,0.34578 0.17751,0.45627 0.56871,0.35397 0.74715,-0.19538 1.58319,1.17586 0.954,1.56471 -0.2226,0.13758 -0.2991,0.40954 -0.17271,0.61404 0.12726,0.20592 0.0454,0.48204 -0.18657,0.62894 -0.50307,0.31864 -0.62178,0.32337 -1.04193,0.0415 z m 78.92136,-0.082 c -0.3024,-0.48927 0.3693,-1.09627 0.76986,-0.69571 0.21696,0.21695 0.17919,0.42352 -0.1233,0.67457 -0.32226,0.26745 -0.49092,0.27297 -0.64656,0.0211 z m 8.38974,-0.0166 c -0.0924,-0.14951 -0.0846,-0.40683 0.0174,-0.57183 0.27108,-0.43861 0.96039,-0.36624 1.14714,0.12044 0.18138,0.47263 -0.89385,0.88939 -1.16454,0.45139 z m -35.66034,-0.472 c -0.2598,-0.67701 0.0519,-0.89582 1.54101,-1.08181 1.60617,-0.20061 2.26113,0.38572 1.23429,1.10495 -0.91212,0.63887 -2.52642,0.62541 -2.7753,-0.0231 z m -23.72226,-0.0998 c 0.10197,-0.165 0.31245,-0.3 0.4677,-0.3 0.15528,0 0.2823,0.135 0.2823,0.3 0,0.165 -0.21048,0.3 -0.4677,0.3 -0.25725,0 -0.38427,-0.135 -0.2823,-0.3 z m 20.3154,-0.30678 c -0.35148,-0.56279 -0.33498,-0.5793 0.22782,-0.22783 0.33372,0.20841 0.60678,0.48146 0.60678,0.60677 0,0.43313 -0.45705,0.22561 -0.8346,-0.37894 z m -6.9654,-0.14322 c 0,-0.31351 0.31563,-0.45 1.04058,-0.45 0.80172,0 1.00095,0.1033 0.8679,0.45 -0.0984,0.2565 -0.54585,0.45 -1.04058,0.45 -0.57147,0 -0.8679,-0.1537 -0.8679,-0.45 z m 49.2,0.15 c 0,-0.165 0.14298,-0.3 0.3177,-0.3 0.17475,0 0.23427,0.135 0.1323,0.3 -0.10197,0.165 -0.24495,0.3 -0.3177,0.3 -0.0728,0 -0.1323,-0.135 -0.1323,-0.3 z m -76.93056,-0.26857 c -0.0913,-0.14771 0.055,-0.35339 0.32523,-0.45706 0.58404,-0.22412 0.84267,-0.0393 0.56766,0.40567 -0.24111,0.39011 -0.66837,0.4147 -0.89289,0.0514 z m 58.10556,0.0801 c -0.20625,-0.0889 -0.375,-0.40455 -0.375,-0.70155 0,-0.62384 0.80031,-0.90003 2.625,-0.9059 1.05087,-0.003 1.275,0.0954 1.275,0.56186 0,0.37719 -0.27516,0.62127 -0.825,0.73182 -0.45375,0.0912 -1.1625,0.23549 -1.575,0.32059 -0.4125,0.0851 -0.91875,0.082 -1.125,-0.007 z m -68.64318,-0.8272 c -0.21963,-0.87499 -0.89997,-1.52719 -1.91784,-1.83844 -0.94551,-0.28913 -1.76409,-1.0459 -1.1313,-1.0459 0.5934,0 1.81017,-1.10707 1.5966,-1.45265 -0.0967,-0.15646 0.0234,-0.36093 0.26685,-0.45436 0.29094,-0.11165 0.42831,0.006 0.40074,0.34356 -0.12801,1.56692 -0.14793,1.55753 2.97813,1.40564 1.60875,-0.0782 2.78016,-0.0409 2.60313,0.0828 -0.17706,0.12373 -0.40905,0.46122 -0.51561,0.74997 -0.10653,0.28875 -0.46794,0.525 -0.8031,0.525 -0.33519,0 -0.60942,0.14296 -0.60942,0.3177 0,0.17474 -0.13221,0.236 -0.29379,0.13613 -0.16161,-0.0999 -0.56859,-0.0345 -0.90447,0.14523 -0.48285,0.25843 -0.64782,0.22994 -0.78828,-0.13613 -0.0977,-0.25461 -0.3252,-0.46293 -0.50556,-0.46293 -0.21936,0 -0.20874,0.11915 0.0321,0.36 0.43239,0.43239 0.47622,1.63276 0.0688,1.88456 -0.16017,0.099 -0.37479,-0.15311 -0.47697,-0.56022 z m 1.86819,0.51565 c -0.3774,-0.37739 -0.19998,-1.29999 0.24999,-1.29999 0.27999,0 0.45,0.28333 0.45,0.75 0,0.72836 -0.29211,0.95788 -0.69999,0.54999 z m 13.59999,-0.1 c 0.59499,-0.38451 1.88763,-0.38451 1.65,0 -0.10197,0.165 -0.6162,0.29793 -1.1427,0.2954 -0.72843,-0.004 -0.84972,-0.0741 -0.5073,-0.2954 z m 5.30886,-0.0541 c -1.07709,-0.39273 -0.99864,-1.34413 0.0985,-1.195 0.40842,0.0555 0.87084,0.22427 1.02759,0.375 0.15675,0.15074 0.528,0.27407 0.825,0.27407 0.76488,0 0.67089,0.49494 -0.135,0.71091 -0.80631,0.21609 -0.75933,0.22035 -1.81614,-0.16498 z m -17.01159,-0.69924 c -0.40482,-0.48777 -0.0874,-0.58963 0.55977,-0.1796 0.24723,0.15666 0.29001,0.33021 0.10899,0.4421 -0.16392,0.10131 -0.46488,-0.0168 -0.66876,-0.2625 z m 4.80273,0.15331 c 0.58965,-0.38106 1.5,-0.38106 1.5,0 0,0.165 -0.43875,0.29793 -0.975,0.2954 -0.73986,-0.003 -0.86649,-0.0747 -0.525,-0.2954 z m 16.2,-0.31798 c 0,-0.15511 0.19785,-0.28202 0.43965,-0.28202 0.24183,0 0.86157,-0.41242 1.37721,-0.91649 0.75888,-0.74181 1.14678,-0.89905 2.03535,-0.825 1.69284,0.14108 1.44222,0.92368 -0.40221,1.25587 -0.825,0.14858 -1.59591,0.41919 -1.71312,0.60135 -0.2646,0.41123 -1.73688,0.55219 -1.73688,0.16629 z m 5.86281,-0.26129 c -0.25545,-0.41334 0.23925,-0.61633 1.01049,-0.41464 0.50823,0.1329 0.57744,0.24053 0.27705,0.43093 -0.52974,0.33581 -1.07418,0.32892 -1.28754,-0.0163 z m 18.88719,-0.0207 c -0.10197,-0.165 -0.0425,-0.3 0.1323,-0.3 0.17472,0 0.3177,0.135 0.3177,0.3 0,0.165 -0.0595,0.3 -0.1323,0.3 -0.0728,0 -0.21573,-0.135 -0.3177,-0.3 z m 15.81789,-0.0536 c 0.16578,-0.49734 2.44911,-1.28078 3.05508,-1.04824 0.40239,0.1544 0.43824,0.31378 0.1794,0.79742 -0.25869,0.48339 -0.62679,0.60446 -1.83792,0.60446 -1.02945,0 -1.47669,-0.11326 -1.39656,-0.35364 z m -7.56789,-0.3964 c 0,-0.2475 0.19827,-0.45 0.44058,-0.45 0.26838,0 0.37311,0.17588 0.2679,0.45 -0.095,0.2475 -0.29322,0.45 -0.44058,0.45 -0.14733,0 -0.2679,-0.2025 -0.2679,-0.45 z m -40.15539,-0.30985 c 0.11226,-0.58271 1.61178,-1.14668 2.33364,-0.87769 0.65781,0.24512 -0.20184,0.97725 -1.43766,1.22442 -0.86259,0.17251 -0.98676,0.12446 -0.89598,-0.34673 z m 23.65539,0.15985 c -0.38457,-0.24853 -0.37365,-0.29148 0.075,-0.29541 0.28875,-0.002 0.525,0.13041 0.525,0.29541 0,0.36588 -0.0338,0.36588 -0.6,0 z m -5.4,-0.30644 c 0,-0.16853 0.3375,-0.4602 0.75,-0.64815 0.4125,-0.18795 0.75,-0.52255 0.75,-0.74357 0,-0.42309 0.89088,-0.5167 2.025,-0.21276 0.89289,0.23929 0.85212,0.46713 -0.22623,1.26439 -0.705,0.52124 -1.02765,0.59866 -1.48179,0.35561 -0.38619,-0.20669 -0.64281,-0.21 -0.76647,-0.01 -0.24321,0.39352 -1.05051,0.3892 -1.05051,-0.006 z m -28.36212,-0.44082 c 0.62073,-0.48659 1.11597,-0.48444 1.09395,0.005 -0.007,0.16088 -0.38862,0.32931 -0.8475,0.3743 -0.80217,0.0786 -0.81168,0.064 -0.24645,-0.37905 z m 46.66212,-0.15274 c 0,-0.4 0.20001,-0.6 0.6,-0.6 0.71196,0 0.80526,0.75703 0.12546,1.0179 -0.68832,0.26413 -0.72546,0.24273 -0.72546,-0.4179 z m -62.20848,-0.15 c 0.12774,-0.33289 -0.0504,-0.45549 -0.68442,-0.47109 -0.74952,-0.0185 -0.7818,-0.0534 -0.2571,-0.27891 1.02069,-0.43861 1.35,-0.32883 1.35,0.45 0,0.4125 -0.13077,0.75 -0.29058,0.75 -0.15984,0 -0.21288,-0.2025 -0.1179,-0.45 z m 90.40848,0.15 c 0,-0.165 0.21048,-0.3 0.4677,-0.3 0.25725,0 0.38427,0.135 0.2823,0.3 -0.10197,0.165 -0.31245,0.3 -0.4677,0.3 -0.15528,0 -0.2823,-0.135 -0.2823,-0.3 z m -368.5179,-0.47454 c -0.28162,-0.73389 -0.22056,-0.83085 0.26791,-0.42546 0.49871,0.41389 0.59706,0.9 0.18209,0.9 -0.14734,0 -0.34984,-0.21354 -0.45,-0.47454 z m 2.97093,0.16964 c 0.10364,-0.16769 0.31411,-0.22722 0.46771,-0.13229 0.41611,0.25717 0.33852,0.43719 -0.18844,0.43719 -0.25724,0 -0.38291,-0.13721 -0.27927,-0.3049 z m 305.66106,-0.0532 c -0.29679,-0.48019 0.2418,-0.84188 1.25361,-0.84188 1.42314,0 1.39347,0.79219 -0.0359,0.95906 -0.58752,0.0686 -1.13547,0.0159 -1.2177,-0.11718 z m 52.57743,-0.0919 c 0.095,-0.2475 0.22572,-0.45 0.29058,-0.45 0.0648,0 0.1179,0.2025 0.1179,0.45 0,0.2475 -0.13077,0.45 -0.29058,0.45 -0.15984,0 -0.21288,-0.2025 -0.1179,-0.45 z m -61.69152,-0.1155 c 0,-0.44638 1.37598,-1.19656 1.75974,-0.95939 0.63819,0.39442 0.0335,1.22489 -0.89184,1.22489 -0.47733,0 -0.8679,-0.11948 -0.8679,-0.2655 z m 18.6,-0.18048 c 0,-0.56475 1.85751,-1.35402 3.18663,-1.35402 0.86886,0 1.01337,0.10238 1.01337,0.7179 0,0.88002 -0.48078,1.0821 -2.57454,1.0821 -1.23834,0 -1.62546,-0.10622 -1.62546,-0.44598 z m 33.35556,-0.37902 c 0.12621,-0.66543 1.74444,-0.9251 1.74444,-0.27992 0,0.23921 -0.30375,0.51634 -0.675,0.61583 -1.03359,0.27699 -1.17711,0.23192 -1.06944,-0.33591 z m 11.51487,-0.0419 c -0.34872,-0.56426 0.11751,-0.93306 1.17957,-0.93306 0.92439,0 1.62018,0.4298 1.2672,0.78279 -0.34248,0.34249 -2.25537,0.45997 -2.44677,0.15027 z m 5.20569,-0.21183 c -0.34419,-0.41472 -0.31956,-0.54752 0.16755,-0.9037 0.77193,-0.56445 1.05633,-0.52522 1.05633,0.14573 0,0.88955 -0.73626,1.34552 -1.22388,0.75797 z m -370.17611,-0.12127 c 0,-0.165 0.135,-0.3 0.3,-0.3 0.165,0 0.3,0.135 0.3,0.3 0,0.165 -0.135,0.3 -0.3,0.3 -0.165,0 -0.3,-0.135 -0.3,-0.3 z m 313.32761,-0.56379 c 0.29955,-0.4847 1.37238,-0.60831 1.37238,-0.15813 0,0.25264 -0.30801,0.42192 -0.7677,0.42192 -0.42225,0 -0.69435,-0.11871 -0.60468,-0.26379 z m -11.21025,-0.46529 c -0.5127,-0.61776 0.50361,-1.09536 1.36491,-0.64142 0.51717,0.27256 0.56043,0.40035 0.23766,0.70186 -0.52488,0.49031 -1.16556,0.46614 -1.60257,-0.0604 z m 39.54846,0.0762 c 0.55947,-0.15719 1.13067,-0.17061 1.2714,-0.0299 0.14076,0.14074 -0.31563,0.26897 -1.01583,0.28543 l -1.2714,0.0299 1.01583,-0.28543 z m -53.66583,-0.24712 c 0,-0.165 0.14298,-0.3 0.3177,-0.3 0.17475,0 0.23427,0.135 0.1323,0.3 -0.10197,0.165 -0.24495,0.3 -0.3177,0.3 -0.0728,0 -0.1323,-0.135 -0.1323,-0.3 z m 30.47898,0.0469 c -0.10383,-0.16797 -0.0426,-0.39575 0.13608,-0.50618 0.46125,-0.28506 0.75885,0.10541 0.3738,0.49046 -0.21546,0.21545 -0.38325,0.22062 -0.50988,0.0157 z m 13.23402,-0.1879 c -0.79077,-0.57822 -0.62121,-0.75896 0.71199,-0.75896 0.79263,0 1.18425,0.12224 1.10955,0.34635 -0.19182,0.57547 -1.26606,0.8188 -1.82154,0.41261 z m 5.36634,0.22036 c -0.36114,-0.36112 -0.1641,-0.67932 0.42066,-0.67932 0.33,0 0.6,0.12055 0.6,0.2679 0,0.33721 -0.78033,0.65176 -1.02066,0.41142 z m 22.32066,-0.23874 c 0,-0.24232 0.2025,-0.44058 0.45,-0.44058 0.2475,0 0.45,0.12055 0.45,0.2679 0,0.14735 -0.2025,0.34561 -0.45,0.44058 -0.27411,0.10519 -0.45,6e-4 -0.45,-0.2679 z m -53.84361,-0.6842 c -0.0633,-0.0633 -0.0424,-0.30435 0.0464,-0.53572 0.23832,-0.62106 1.29723,-0.52716 1.29723,0.11505 0,0.47363 -0.98292,0.78137 -1.34361,0.42067 z m 3.01461,-0.32239 c -0.0904,-0.14631 0.0366,-0.43284 0.2823,-0.63674 0.2457,-0.20389 0.4467,-0.55669 0.4467,-0.78399 0,-0.22729 0.2025,-0.41326 0.45,-0.41326 0.2475,0 0.45,0.2025 0.45,0.45 0,0.27999 0.28332,0.45 0.75,0.45 0.83751,0 1.03419,0.72675 0.27546,1.0179 -0.7143,0.2741 -2.46744,0.21868 -2.65446,-0.0839 z m 6.32901,-0.834 c -0.45864,-0.45864 -0.15519,-0.99999 0.56055,-0.99999 0.66759,0 0.72129,0.0733 0.43944,0.6 -0.33135,0.61915 -0.65241,0.74758 -0.99999,0.39999 z m 54.39999,-0.0705 c 0,-0.31153 0.57066,-0.76252 0.73971,-0.58458 0.0549,0.0578 -0.0891,0.27912 -0.31998,0.49187 -0.23085,0.21276 -0.41973,0.25448 -0.41973,0.0927 z m -16.65,-0.32953 c -0.10197,-0.165 0.033,-0.3 0.3,-0.3 0.26697,0 0.40197,0.135 0.3,0.3 -0.10197,0.165 -0.23697,0.3 -0.3,0.3 -0.063,0 -0.19803,-0.135 -0.3,-0.3 z m -2.7,-0.3 c 0.10197,-0.165 0.24495,-0.3 0.3177,-0.3 0.0728,0 0.1323,0.135 0.1323,0.3 0,0.165 -0.14298,0.3 -0.3177,0.3 -0.17475,0 -0.23427,-0.135 -0.1323,-0.3 z m -25.8,-0.3 c 0.10197,-0.165 0.31245,-0.3 0.4677,-0.3 0.15528,0 0.2823,0.135 0.2823,0.3 0,0.165 -0.21048,0.3 -0.4677,0.3 -0.25725,0 -0.38427,-0.135 -0.2823,-0.3 z m 11.25,-0.24291 c 0,-0.1611 0.21378,-0.37494 0.47508,-0.4752 0.29217,-0.11212 0.4293,-0.0451 0.35625,0.17415 -0.14949,0.44845 -0.83133,0.69537 -0.83133,0.30105 z m 2.54391,-0.15536 c -0.3495,-0.84803 0.54111,-1.59267 1.41834,-1.18586 l 0.68775,0.31893 -0.79353,0.31321 c -0.43644,0.17227 -0.8595,0.49068 -0.94008,0.7076 -0.10434,0.28084 -0.21159,0.23653 -0.37248,-0.15388 z m 22.05609,-0.20173 c 0,-0.165 0.21048,-0.3 0.4677,-0.3 0.25725,0 0.38427,0.135 0.2823,0.3 -0.10197,0.165 -0.31245,0.3 -0.4677,0.3 -0.15528,0 -0.2823,-0.135 -0.2823,-0.3 z m -40.05,-0.3 c 0.10197,-0.165 0.24495,-0.3 0.3177,-0.3 0.0728,0 0.1323,0.135 0.1323,0.3 0,0.165 -0.14298,0.3 -0.3177,0.3 -0.17475,0 -0.23427,-0.135 -0.1323,-0.3 z m -10.39962,-0.81243 c -0.43977,-0.0674 -0.8835,-0.34113 -0.98601,-0.60831 -0.2511,-0.65435 0.57552,-1.47458 1.09557,-1.08711 0.21453,0.15984 1.03752,0.27946 1.82886,0.26584 1.03848,-0.0179 1.57767,0.12872 1.93806,0.52693 0.43185,0.4772 0.44013,0.58913 0.0612,0.8288 -0.43338,0.27413 -2.391,0.31085 -3.93768,0.0738 z m 3.95421,-2.71257 c 0.006,-0.27751 0.57561,-1.18287 0.61377,-0.975 0.015,0.0825 0.0728,0.38625 0.12804,0.675 0.0573,0.2995 -0.0814,0.525 -0.32295,0.525 -0.23289,0 -0.42138,-0.10125 -0.41886,-0.225 z m 31.19541,-0.075 c 0,-0.165 0.135,-0.3 0.3,-0.3 0.165,0 0.3,0.135 0.3,0.3 0,0.165 -0.135,0.3 -0.3,0.3 -0.165,0 -0.3,-0.135 -0.3,-0.3 z M 197.563,195.29718 c 0.20352,-0.20503 0.44559,-0.2972 0.53796,-0.20484 0.0923,0.0924 -0.0742,0.26012 -0.37002,0.37278 -0.42756,0.1628 -0.462,0.12834 -0.16794,-0.16794 z m 12.08001,-1.16277 c 0,-0.165 0.12702,-0.3 0.2823,-0.3 0.15525,0 0.36573,0.135 0.4677,0.3 0.10197,0.165 -0.0249,0.3 -0.2823,0.3 -0.25722,0 -0.4677,-0.135 -0.4677,-0.3 z m -4.8,-1.46327 c 0,-0.36599 0.19134,-0.63673 0.45,-0.63673 0.2475,0 0.45,0.11847 0.45,0.26326 0,0.1448 -0.2025,0.43133 -0.45,0.63674 -0.37596,0.31202 -0.45,0.2687 -0.45,-0.26327 z m 94.3628,-32.416 c -0.30057,-0.48635 0.35259,-0.63415 0.73992,-0.16743 0.30144,0.3632 0.28308,0.4467 -0.0983,0.4467 -0.25797,0 -0.54672,-0.12568 -0.64164,-0.27927 z"
     id="path3472"
     inkscape:connector-curvature="0"
     clip-path="url(#clipPath3497)"
     transform="translate(-59.908585,-113.44929)" />
</svg>
